<?xml version="1.0" encoding="utf-8"?>
<!-- Generator: Adobe Illustrator 17.0.0, SVG Export Plug-In . SVG Version: 6.00 Build 0)  -->
<!DOCTYPE svg PUBLIC "-//W3C//DTD SVG 1.1//EN" "http://www.w3.org/Graphics/SVG/1.1/DTD/svg11.dtd">
<svg version="1.1" id="Layer_1" xmlns="http://www.w3.org/2000/svg" xmlns:xlink="http://www.w3.org/1999/xlink" x="0px" y="0px"
	 width="47.365px" height="47px" viewBox="0 0 47.365 47" enable-background="new 0 0 47.365 47" xml:space="preserve">
<g>
	<path fill="none" stroke="#010101" stroke-width="2" stroke-miterlimit="10" d="M30.09,11.763H6.179
		c-2.593,0-4.91,1.896-5.156,4.477c-0.282,2.961,2.041,5.451,4.947,5.451h0.12l2.967,11.48c0.364,1.408,1.634,2.391,3.088,2.391
		h11.77c1.454,0,2.724-0.983,3.088-2.391l2.967-11.48h0.033c2.331,0,4.439-1.569,4.936-3.847
		C35.643,14.616,33.201,11.763,30.09,11.763z"/>
	<path fill="none" stroke="#010101" stroke-width="2" stroke-miterlimit="10" d="M18.523,35.499
		c-0.505,3.141,1.181,6.387,3.765,8.245c2.585,1.858,5.919,2.458,9.093,2.199c3.038-0.248,6.141-1.328,8.149-3.618
		c3.412-3.892,2.698-9.764,3.958-14.782c0.511-2.034,1.558-4.163,3.512-4.929"/>
	<g>
		<line fill="none" stroke="#010101" stroke-width="2" stroke-miterlimit="10" x1="11.823" y1="0" x2="11.823" y2="11.763"/>
		<line fill="none" stroke="#010101" stroke-width="2" stroke-miterlimit="10" x1="24.683" y1="0" x2="24.683" y2="11.763"/>
	</g>
</g>
</svg>
