<?xml version="1.0" encoding="utf-8"?>
<!-- Generator: Adobe Illustrator 17.0.0, SVG Export Plug-In . SVG Version: 6.00 Build 0)  -->
<!DOCTYPE svg PUBLIC "-//W3C//DTD SVG 1.1//EN" "http://www.w3.org/Graphics/SVG/1.1/DTD/svg11.dtd">
<svg version="1.1" id="Layer_1" xmlns="http://www.w3.org/2000/svg" xmlns:xlink="http://www.w3.org/1999/xlink" x="0px" y="0px"
	 width="75px" height="75px" viewBox="0 0 75 75" enable-background="new 0 0 75 75" xml:space="preserve">
<g>
	<path fill="none" stroke="#010101" stroke-width="2.8336" stroke-miterlimit="10" d="M67.138,36.58
		c2.424,0,4.408-1.846,4.408-4.106c0-2.257-1.984-4.104-4.408-4.104H55.81c3.091-2.533,7.278-6.888,8.461-12.628
		c1.94-9.41-6.145-9.074-6.145-9.074C57.961,9.02,57.64,13.39,46.967,19.775c-10.673,6.387-18.11,14.957-18.11,14.957h-5.013V60.11
		c0,0,4.043-0.336,8.408,1.104c4.365,1.444,15.524,0,15.524,0h14.511c2.424,0,4.408-1.845,4.408-4.106
		c0-2.256-1.984-4.104-4.408-4.104h3.234c2.424,0,4.409-1.848,4.409-4.106c0-2.258-1.985-4.106-4.409-4.106h1.617
		c2.424,0,4.408-1.848,4.408-4.106C71.546,38.428,69.562,36.58,67.138,36.58z"/>
	
		<rect x="4.958" y="30.533" fill="none" stroke="#010101" stroke-width="2.8336" stroke-miterlimit="10" width="18.887" height="38.485"/>
	
		<ellipse fill="none" stroke="#010101" stroke-width="2.8336" stroke-miterlimit="10" cx="13.045" cy="61.119" rx="3.233" ry="3.361"/>
	
		<line fill="none" stroke="#010101" stroke-width="2.8336" stroke-miterlimit="10" x1="16.278" y1="33.39" x2="16.278" y2="54.229"/>
	<path fill="none" stroke="#010101" stroke-width="2.8336" stroke-miterlimit="10" d="M35.681,36.919c0,0,3.557-6.722,9.541-10.251"
		/>
</g>
</svg>
