<?xml version="1.0" encoding="utf-8"?>
<!-- Generator: Adobe Illustrator 17.0.0, SVG Export Plug-In . SVG Version: 6.00 Build 0)  -->
<!DOCTYPE svg PUBLIC "-//W3C//DTD SVG 1.1//EN" "http://www.w3.org/Graphics/SVG/1.1/DTD/svg11.dtd">
<svg version="1.1" id="Layer_1" xmlns="http://www.w3.org/2000/svg" xmlns:xlink="http://www.w3.org/1999/xlink" x="0px" y="0px"
	 width="75px" height="75px" viewBox="0 0 75 75" enable-background="new 0 0 75 75" xml:space="preserve">
<g>
	<path fill="none" stroke="#010101" stroke-width="2.8311" stroke-miterlimit="10" d="M64.223,40.54H35.189V18.313
		c0-6.479,5.252-11.731,11.731-11.731h5.573c6.479,0,11.731,5.252,11.731,11.731V40.54z"/>
	<path fill="none" stroke="#010101" stroke-width="2.8311" stroke-miterlimit="10" d="M35.236,40.522l29.034,0l6.483,15.863
		c2.078,5.085-2.294,9.483-9.717,9.774l0,0c-8.295,0.325-16.981-4.059-19.304-9.741L35.236,40.522z"/>
	<path fill="none" stroke="#010101" stroke-width="2.8311" stroke-miterlimit="10" d="M49.706,6.583H20.672
		c-8.018,0-14.517,5.788-14.517,12.929V38.98l29.034,1.56"/>
	
		<line fill="none" stroke="#010101" stroke-width="2.8311" stroke-miterlimit="10" x1="26.736" y1="40.54" x2="26.736" y2="71.697"/>
</g>
</svg>
