<?xml version="1.0" encoding="utf-8"?>
<!-- Generator: Adobe Illustrator 17.0.0, SVG Export Plug-In . SVG Version: 6.00 Build 0)  -->
<!DOCTYPE svg PUBLIC "-//W3C//DTD SVG 1.1//EN" "http://www.w3.org/Graphics/SVG/1.1/DTD/svg11.dtd">
<svg version="1.1" id="Layer_1" xmlns="http://www.w3.org/2000/svg" xmlns:xlink="http://www.w3.org/1999/xlink" x="0px" y="0px"
	 width="48.501px" height="48.501px" viewBox="0 0 48.501 48.501" enable-background="new 0 0 48.501 48.501" xml:space="preserve">
<g>
	<path fill="none" stroke="#eed3d3" stroke-width="3" stroke-miterlimit="10" d="M29.978,46.071
		c-1.419,1.419-3.812,1.874-5.267,0.946C15.335,41.043,7.458,33.166,1.484,23.79c-0.928-1.455-0.472-3.846,0.946-5.267
		c1.146-1.146,2.292-2.291,3.437-3.437c1.421-1.421,3.289-1.35,4.217,0.104c5.975,9.375,13.852,17.252,23.228,23.227
		c1.453,0.926,1.523,2.795,0.103,4.216C32.269,43.78,31.123,44.925,29.978,46.071z"/>
	<g>
		<path fill="none" stroke="#eed3d3" stroke-width="3" stroke-linecap="round" stroke-miterlimit="10" d="M39.998,8.72
			c0,0-4.043-7.057-10.873-2.892c-6.83,4.165-11.839,7.676-19.306,9.005"/>

		<path fill="none" stroke="#eed3d3" stroke-width="3" stroke-linecap="round" stroke-miterlimit="10" d="M39.781,8.503
			c0,0,7.056,4.042,2.892,10.873c-4.164,6.83-7.676,11.839-9.005,19.306"/>
	</g>
	
		<circle fill="none" stroke="#eed3d3" stroke-width="3" stroke-linecap="round" stroke-miterlimit="10" cx="43.153" cy="5.348" r="4.348"/>

	<path fill="none" stroke="#eed3d3" stroke-width="3" stroke-linecap="round" stroke-miterlimit="10" d="M16.995,41.852
		c-2.857,2.857-7.489,2.857-10.348,0c-2.856-2.857-2.856-7.489,0.001-10.347"/>
</g>
</svg>
