<?xml version="1.0" encoding="utf-8"?>
<!-- Generator: Adobe Illustrator 19.2.0, SVG Export Plug-In . SVG Version: 6.00 Build 0)  -->
<svg version="1.1" id="Layer_1" xmlns="http://www.w3.org/2000/svg" xmlns:xlink="http://www.w3.org/1999/xlink" x="0px" y="0px"
	 viewBox="0 0 819.7 229.2" style="enable-background:new 0 0 819.7 229.2;" xml:space="preserve">
<style type="text/css">
	.st0{display:none;}
	.st1{display:inline;fill:#FFFFFF;}
	.st2{display:inline;fill:#EED3D3;}
	.st3{fill:#010202;}
	.st4{fill:none;stroke:#000000;stroke-width:4;stroke-miterlimit:10;}
	.st5{stroke:#000000;stroke-width:3;stroke-miterlimit:10;}
	.st6{fill:#FFFFFF;}
	.st7{fill:none;}
</style>
<rect x="2209.9" y="678" class="st7" width="1752.4" height="1396.1"/>
<text transform="matrix(1 0 0 1 2209.8855 765.6213)" class="st0"><tspan x="0" y="0" class="st1" style="font-family:'SharpSansNo1-Medium'; font-size:120px;">Shoppa dina sommarfavoriter  </tspan><tspan x="0" y="144" class="st1" style="font-family:'SharpSansNo1-Medium'; font-size:120px;">och skänk pengar till </tspan><tspan x="1207.9" y="144" class="st2" style="font-family:'SharpSansNo1-Bold'; font-size:120px;">VÄLGÖR</tspan><tspan x="1682.6" y="144" class="st2" style="font-family:'SharpSansNo1-Bold'; font-size:120px;">-</tspan><tspan x="0" y="288" class="st2" style="font-family:'SharpSansNo1-Bold'; font-size:120px;">ENHET!</tspan></text>
<g>
	<path class="st3" d="M1.1,186.7l11.5,0c8.2,0,12.9,3.9,12.9,11.2c0,3.3-1.4,6-4,7.7c3.4,1.7,5.3,4.8,5.3,9.1
		c0,7.9-5.1,11.8-13.3,11.8l-12.5,0L1.1,186.7z M8.1,209.6l0,9.9l5.5,0c4.1,0,6.2-1.8,6.2-5c0-3.2-1.4-4.9-6.6-4.9L8.1,209.6z
		 M8.1,193.7l0,8.8l4.5,0c4.3,0,5.9-1.8,5.9-4.6c0-2.9-1.7-4.2-5.8-4.2L8.1,193.7z"/>
	<path class="st3" d="M39.6,186.8l11.6,0c8.5,0,13.6,5.9,13.6,13.4c0,5-2.2,9.8-7.1,11.8l8.4,14.6l-8,0l-11-19.7l3.4,0
		c5.5,0,7.3-3.9,7.3-6.8c0-4-2-6.3-7.3-6.3l-3.7,0l0,32.7l-7,0L39.6,186.8z"/>
	<path class="st3" d="M78.6,186.8l7,0l0,39.8l-7,0L78.6,186.8z"/>
	<path class="st3" d="M99.7,186.9l8,0l15.6,26.8l0-26.8l7,0l0,39.8l-7.5,0L106.7,199l0,27.7l-7,0L99.7,186.9z"/>
	<path class="st3" d="M143.1,206.8c0-11.3,8-20.4,18.9-20.4c7.7,0,13.6,4.2,16.8,10.2l-6.2,4c-2.3-4.5-5.8-6.9-10.6-6.9
		c-6.7,0-11.9,5.9-11.9,13.1c0,7.3,5.1,13.1,12.2,13.1c5.4,0,9.2-3.3,10.5-8.3l-11.6,0l0-7.3l19.2,0l0,3.1
		c0,10.7-7.1,19.9-18.1,19.9C150.7,227.3,143.1,217.8,143.1,206.8z"/>
	<path class="st3" d="M193.3,187l7,0l0,39.8l-7,0L193.3,187z"/>
	<path class="st3" d="M214.4,187l8,0l15.6,26.8l0-26.8l7,0l0,39.8l-7.5,0l-16.1-27.7l0,27.7l-7,0L214.4,187z"/>
	<path class="st3" d="M257.8,207c0-11.3,8-20.4,18.9-20.4c7.7,0,13.6,4.2,16.8,10.2l-6.2,4c-2.3-4.5-5.8-6.9-10.6-6.9
		c-6.7,0-11.9,5.9-11.9,13.1c0,7.3,5.1,13.1,12.2,13.1c5.4,0,9.2-3.3,10.5-8.3l-11.6,0l0-7.3l19.2,0l0,3.1
		c0,10.7-7.1,19.9-18.1,19.9C265.5,227.4,257.8,218,257.8,207z"/>
	<path class="st3" d="M330,187.2l11.5,0c8.2,0,12.9,3.9,12.9,11.2c0,3.3-1.4,6-4,7.7c3.4,1.7,5.3,4.8,5.3,9.1
		c0,7.9-5.1,11.8-13.3,11.8l-12.5,0L330,187.2z M337,210.1l0,9.9l5.5,0c4.1,0,6.2-1.8,6.2-5c0-3.2-1.4-4.9-6.6-4.9L337,210.1z
		 M337,194.2l0,8.8l4.5,0c4.3,0,5.9-1.8,5.9-4.6c0-2.9-1.7-4.2-5.8-4.2L337,194.2z"/>
	<path class="st3" d="M368.5,187.2l11.6,0c8.5,0,13.6,5.9,13.6,13.4c0,5-2.2,9.8-7.1,11.8l8.4,14.6l-8,0l-11-19.7l3.4,0
		c5.5,0,7.3-3.9,7.3-6.8c0-4-2-6.3-7.3-6.3l-3.7,0l0,32.7l-7,0L368.5,187.2z"/>
	<path class="st3" d="M419,187.3l7.1,0l13,39.8l-7.3,0l-2.2-6.9l-14.2,0l-2.2,6.9l-7.3,0L419,187.3z M417.8,212.9l9.5,0l-4.7-14.8
		L417.8,212.9z"/>
	<path class="st3" d="M451.7,187.3l8,0l15.6,26.8l0-26.8l7,0l0,39.8l-7.5,0l-16.1-27.7l0,27.7l-7,0L451.7,187.3z"/>
	<path class="st3" d="M496.1,187.4l10.1,0c12.5,0,19.5,8.6,19.5,19.9c0,11.3-8,19.9-19.2,19.9l-10.4,0L496.1,187.4z M503.1,194.4
		l0,25.7l2.5,0c8,0,13-5.5,13-12.9c0-7.5-4.2-12.9-13.3-12.9L503.1,194.4z"/>
	<path class="st3" d="M536.3,220.7l6.4-5.4c1.8,3.4,4.7,5.4,8,5.4c3.6,0,5.5-2.5,5.5-5.2c0-3.3-3.7-4.3-7.6-5.6
		c-5-1.6-10.5-3.7-10.4-11.4c0-6.4,5.2-11.4,12.3-11.4c6,0,9.4,2.5,12.4,5.8l-5.8,4.7c-1.5-2.5-3.7-3.8-6.6-3.8
		c-3.3,0-5.1,1.9-5.1,4.4c0,3.1,3.5,4.1,7.5,5.5c5,1.8,10.7,4.2,10.6,11.8c0,6.3-4.7,12.4-12.8,12.4
		C544,227.8,539.6,224.8,536.3,220.7z"/>
	<path class="st3" d="M607.6,194.8l-9.8,0l0-7.3l26.6,0l0,7.3l-9.8,0l0,32.6l-7,0L607.6,194.8z"/>
	<path class="st3" d="M633.4,207.5c0-11.3,8.4-20.4,18.9-20.4c10.5,0,18.9,9.2,18.9,20.5c0,11.3-8.4,20.4-18.9,20.4
		C641.8,228,633.4,218.8,633.4,207.5z M664.2,207.5c0-7.1-5.3-13-11.9-13c-6.6,0-11.9,5.8-11.9,13c0,7.1,5.2,13,11.9,13
		C658.8,220.5,664.2,214.7,664.2,207.5z"/>
	<path class="st3" d="M716.4,208.6l-11.7-21l7.7,0l7.5,13.7l7.6-13.7l7.7,0l-11.9,21.1l0,18.7l-7,0L716.4,208.6z"/>
	<path class="st3" d="M742.3,207.6c0-11.3,8.4-20.4,18.9-20.4c10.5,0,18.9,9.2,18.9,20.5c0,11.3-8.4,20.4-18.9,20.4
		C750.6,228.1,742.3,219,742.3,207.6z M773.1,207.7c0-7.1-5.3-13-11.9-13c-6.6,0-11.9,5.8-11.9,13c0,7.1,5.2,13,11.9,13
		C767.7,220.7,773,214.8,773.1,207.7z"/>
	<path class="st3" d="M792.8,213.8l0-26l7,0l0,26.5c0,3.8,2.7,6.8,6.2,6.8s6.4-3,6.4-6.8l0-26.5l7,0l0,26c0,9.5-5.7,14.3-13.4,14.3
		S792.8,223.3,792.8,213.8z"/>
</g>
<path class="st4" d="M834.4,157"/>
<path class="st4" d="M13.2,157"/>
<g>
	<path class="st5" d="M1.1,3.3h41c24.5,0,39.8,13.9,39.8,37.4c0,12.2-4.8,22-14.3,28c11.6,5.6,18.1,16.7,18.1,32.1
		c0,25.4-16.1,39.6-40.8,39.6H1.1V3.3z M19.2,21.9v38.5h23.6c14.6,0,21.1-8.3,21.1-19.7c0-11.8-7.5-18.8-21.7-18.8H19.2z M19.2,79.4
		v42.3h25.7c14.3,0,22.7-8.5,22.7-21.2c0-13-6.8-21-23.6-21H19.2z"/>
	<path class="st5" d="M141.9,3.3h37.7c25.7,0,42.8,19.7,42.8,44.7c0,18.2-9,35.5-26.2,41.5l28.9,50.9h-20.7l-36.5-65.4h9.8
		c18.1,0,26.7-14.5,26.7-27.1c0-15.4-8.8-25.7-26.5-25.7H160v118.2h-18.1V3.3z"/>
	<path class="st5" d="M319.1,3.3h18.6l44.5,137.1h-18.7l-9.5-29.3h-51.1l-9.3,29.3h-18.9L319.1,3.3z M309.1,91.6h38.5l-19.2-60.1
		L309.1,91.6z"/>
	<path class="st5" d="M436.5,3.3h20.4L518.3,107V3.3h17.9v137.1h-19.1L454.6,35.1v105.4h-18.1V3.3z"/>
	<path class="st5" d="M626.9,22.5h-34.3V3.3h86.6v19.2h-34.3v118h-17.9V22.5z"/>
	<path class="st5" d="M735,94.2V3.3h18.1v92.2c0,15.2,10.4,27.6,24.2,27.6c13.9,0,24.7-12.4,24.7-27.6V3.3h17.9v90.9
		c0,29.5-18.1,48.1-42.5,48.1C752.9,142.3,735,123.7,735,94.2z"/>
</g>
<g>
</g>
<g>
</g>
<g>
	<polygon class="st6" points="328.5,36.2 294.5,141.8 362.5,142.8 	"/>
</g>
<g>
	<rect x="-3.8" y="1.1" class="st7" width="823.5" height="146.4"/>
</g>
</svg>
