<?xml version="1.0" encoding="utf-8"?>
<!-- Generator: Adobe Illustrator 19.2.0, SVG Export Plug-In . SVG Version: 6.00 Build 0)  -->
<svg version="1.1" id="Layer_1" xmlns="http://www.w3.org/2000/svg" xmlns:xlink="http://www.w3.org/1999/xlink" x="0px" y="0px"
	 viewBox="0 0 3777.1 3359.9" style="enable-background:new 0 0 3777.1 3359.9;" xml:space="preserve">
<style type="text/css">
	.st0{fill:#FFFFFF;stroke:#FFFFFF;stroke-miterlimit:10;}
	@keyframes hideshow {
           0% { opacity: 1; }
           50% { opacity: 0.4; }
           100% { opacity: 1; }
         }
	.st1{fill:#FFB5C5; opacity:1; animation: hideshow 2s ease infinite;}
	.st2{fill:none;stroke:#FFFFFF;stroke-miterlimit:10;}
	.st3{opacity:0.9;}

</style>
<g>
	
		<text transform="matrix(0.9671 1.247508e-03 -1.290000e-03 1 1983.4879 5421.0913)" class="st0" style="font-family:'SharpSansNo1-Medium'; font-size:48.7607px; letter-spacing:9.3;">BRINGING BRANDS TO YOU</text>
	<g>
		
			<text transform="matrix(1.0015 3.104743e-04 -3.100000e-04 1 1973.3661 5326.0005)" class="st1" style="font-family:'SharpSansNo1-Light'; font-size:157.2817px;">B R A N T U</text>
		
			<text transform="matrix(1.0015 3.104743e-04 -3.100000e-04 1 1973.3661 5326.0005)" class="st1" style="font-family:'SharpSansNo1-Light'; font-size:157.2817px;">B R A N T U</text>
		
			<text transform="matrix(1.0015 3.104743e-04 -3.100000e-04 1 1973.3661 5326.0005)" class="st2" style="font-family:'SharpSansNo1-Light'; font-size:157.2817px;">B R A N T U</text>
	</g>
	
		<text transform="matrix(-5.691280e-04 -0.9985 1 -5.700000e-04 2752.458 5297.627)" class="st0" style="font-family:'SharpSansNo1-Medium'; font-size:36.7542px;">.com</text>
</g>
<g class="st3">
	<g>
		<g>
			<g>
				<path class="st1" d="M1950.5,875.1c-1.5,6.5-3,12.7-3,12.7c0.6,0.1,1.1,0.1,1.7,0.2C1949.8,883.3,1950.1,879,1950.5,875.1z"/>
				<path class="st1" d="M1933.4,857.3c-0.4,1.3-0.7,2.7-1.1,4.1c0.6-0.3,1.1-0.3,1.6-0.4C1933.7,859.8,1933.5,858.7,1933.4,857.3z"
					/>
				<path class="st1" d="M1949.4,888c6.5,0.5,14-3.2,18.8,4.6c-0.8,3.4-2,8.5-3.2,13.7c-1.1,5.1-2,10.3-2.7,13.8
					c2.1,7.5,6.9,1.3,10.4,2.1c-1.3,6.8-2.7,13.6-1,13.9c0.9,1.4,1.9,2,2.9,1.9c1-0.1,2-1,3-2.3c2-2.6,4.1-7.5,5.9-13.9
					c-0.9-2-1.6-4.3-2.3-6.6c-0.7-2.3-1.4-4.8-1.8-7.4c-1-5.1-1.7-10.5-2.4-15.8c-0.3-2.7-0.6-5.3-0.9-7.9c-0.3-2.6-0.4-5.1-0.6-7.5
					c-0.4-4.8-0.8-9.1-1.4-12.6c-1.2-7-3.1-10.6-6.9-7.7c-1.9,1.5-4.2,4.6-7.2,9.7c-1.5,2.6-3.1,5.7-4.9,9.3
					C1953.1,878.8,1951.4,883.1,1949.4,888z"/>
				<path class="st1" d="M1950.8,828.5c-1.8,6.1-3.7,12.3-5.5,18.4c-1.6,6.2-3.3,12.4-4.9,18.6c2.9,4.9,5.4,11,10.3,8.3
					c1.1-9.8,1.6-17.9,1.5-25.2C1952.2,841.4,1951.8,835,1950.8,828.5z"/>
				<path class="st1" d="M3414,1392c1,0.3,1.4,1.1-2.1,7.3C3412.7,1396.7,3413.4,1394.4,3414,1392c-0.9-0.4-2.5-0.4-2.1-3.8
					c-5.5,25.9-12.5,56.1-20.5,85.1c0.7,4.3,1.4,8.4,2.3,12.3c20.2-71.6,41.2-142.9,48.7-203.9c-2.9,10.3-5.5,19.9-7.8,29.1
					c-2.3,9.2-4.5,17.9-6.6,26.7C3423.9,1354.8,3419.7,1372.1,3414,1392z"/>
				<path class="st1" d="M3402.2,1494.1c-0.7,2.5-1.4,4.8-2.1,7.3C3403.6,1495.3,3403.2,1494.4,3402.2,1494.1z"/>
				<path class="st1" d="M3411.3,280.6c-16.5-11.6-33.8-20.2-51.4-27.2c-17.6-6.9-35.4-12.2-53.6-16.8c18.6,6.6,36.7,14.2,53.8,22.6
					c17.1,8.4,33.1,17.7,47.8,27.6c14.7,9.9,28,20.5,39.9,31.3c2.9,2.8,5.9,5.4,8.7,8.1c2.7,2.8,5.5,5.6,8.2,8.3
					c2.8,2.6,5.2,5.5,7.7,8.2c1.3,1.4,2.5,2.7,3.8,4.1c0.6,0.7,1.2,1.3,1.9,2c0.6,0.7,1.2,1.4,1.7,2.1c-0.6-0.8-1.1-1.7-1.8-2.5
					l-1.9-2.4l-3.7-4.9l-3.7-4.9l-4-4.7l-3.9-4.7c-1.3-1.5-2.6-3.2-4-4.6c-2.8-3-5.6-5.9-8.3-8.9
					C3437.2,301.6,3424.7,290.8,3411.3,280.6z"/>
				<path class="st1" d="M3120,203.3c1.6,0.4,3.2,0.8,4.7,1.3c1.6,0.4,3.1,0.9,4.7,1.3c3.1,0.9,6.2,1.7,9.2,2.5s6.1,1.5,9,2.3
					c3,0.8,5.9,1.5,8.9,2.3c5.9,1.5,11.6,2.8,17.3,4.1c5.7,1.4,11.2,2.6,16.8,3.8c5.5,1.1,11,2.4,16.3,3.5c2.7,0.5,5.4,1.1,8,1.6
					c2.7,0.5,5.3,1,8,1.6c10.5,2.2,21,4.1,31.2,6.2c-10-3.2-20.2-6-30.3-9c-2.5-0.8-5.1-1.4-7.6-2.1l-7.6-2l-7.6-2l-3.8-1l-3.8-0.9
					c-10.2-2.4-20.4-5-30.6-7.1c-5.1-1.1-10.2-2.3-15.3-3.3c-5.1-1-10.2-2-15.4-3c-2,0-4-0.1-6.1-0.1
					C3124,203.2,3122,203.3,3120,203.3z"/>
				<path class="st1" d="M3179.5,206.4c5.8,1.6,11.6,3.2,17.3,4.6c2.9,0.7,5.6,1.5,8.4,2.2c2.8,0.7,5.6,1.4,8.3,2.1s5.5,1.3,8.2,1.9
					c2.7,0.6,5.4,1.3,8.1,2c5.4,1.3,10.7,2.5,16,3.6c21.1,4.8,41,9,60.5,13.9c-21.1-7.5-42.7-13.8-64.3-18.8
					c-5.4-1.2-10.7-2.4-16-3.6c-5.3-1.1-10.6-2.1-15.8-3.1C3199.8,209.1,3189.5,207.7,3179.5,206.4z"/>
				<path class="st1" d="M3642.6,972.3c-2.5,35.3-5.3,56.4-7.4,68.3c1.2,5.8,2.5,13.3,3.9,23.5c0.5-2,1-4.1,1.5-6.1
					c0.7-4.5,1.3-9,2-13.5c0.6-4.5,1.3-9,2-13.5c1.3-9,2.7-18.1,4-27.2c2.5-18.2,5.3-36.5,7.7-55c0.5-7.7,0.9-15.1,1.1-22.3
					c0.2-7.3,0.2-14.2,0-20.5c-1.2,5.6-2.5,11.2-3.7,16.8c-1.2,5.5-2.5,11-3.7,16.6C3647.5,950.4,3645.1,961.4,3642.6,972.3z"/>
				<path class="st1" d="M3635.3,1040.6c-5.1-24.6-7.2-13-7-1.1C3628.4,1051.4,3630.9,1063.7,3635.3,1040.6z"/>
				<path class="st1" d="M3570.5,799.8c0.2-1.7,0.5-3.4,0.7-5.1c0.3-5,0.6-10.1,0.9-15.1C3571.5,786.5,3571,793,3570.5,799.8z"/>
				<path class="st1" d="M3585.6,371.6c13.8,29.4,24.8,59.9,33.7,90.2c-8.3-31.5-19.3-62.7-33.6-91.2c-14.2-28.4-31.5-54-50-74.5
					c1.2,1.6,2.3,3.4,3.4,5.1c1.1,1.8,2.2,3.5,3.1,5.4c1.9,3.7,3.8,7.3,6,10.7c1.5,1.5,3.1,3,4.7,4.7c1.5,1.7,3.1,3.6,4.7,5.5
					s3.3,4,5,6.1c0.8,1.1,1.7,2.1,2.6,3.2c0.8,1.1,1.6,2.3,2.4,3.4c3.2,4.7,6.5,9.6,9.6,14.9C3580.1,360.5,3583,366,3585.6,371.6z"
					/>
				<path class="st1" d="M3539.9,1034.5c0.9-5.1,1.9-10.2,2.8-15.3c0.9-5.1,1.7-10.2,2.6-15.2c1.7-10.2,3.5-20.3,5.1-30.4
					c1.6-10.1,3.1-20.2,4.7-30.3c1.4-10.1,2.9-20.1,4.3-30.1c2.8-20,5.2-39.9,7.1-59.7c1.1-9.9,1.8-19.8,2.7-29.6
					c0.4-4.9,0.7-9.8,1.1-14.7c0.2-2.4,0.3-4.9,0.5-7.3c0.1-2.4,0.3-4.9,0.4-7.3c2.7-19.5,4.8-39.1,6.6-58.5
					c0.4-4.9,0.8-9.7,1.2-14.5c0.4-4.8,0.6-9.7,0.9-14.5c0.1-2.4,0.3-4.8,0.4-7.2c0.1-2.4,0.2-4.8,0.3-7.2c0.2-4.8,0.4-9.6,0.6-14.4
					c0.1-4.8,0.2-9.6,0.3-14.4c0-2.4,0.1-4.8,0.1-7.2c0-2.4,0-4.8,0-7.1c0-4.8,0-9.5-0.1-14.2c-0.1-4.7-0.3-9.4-0.4-14.2
					c-0.8-18.8-2.1-37.4-4.4-55.7c-0.3-2.3-0.5-4.6-0.8-6.8c-0.3-2.3-0.7-4.5-1-6.8c-0.7-4.5-1.4-9-2.1-13.5
					c-0.8-4.5-1.7-8.9-2.5-13.3c-0.4-2.2-0.8-4.4-1.3-6.6c-0.5-2.2-1-4.4-1.5-6.6c-3.7-17.5-8.6-34.5-14.2-50.8
					c-1.5-4.1-2.9-8.1-4.3-12.1c-1.5-4-3.2-7.9-4.8-11.8c-0.8-2-1.6-3.9-2.4-5.9c-0.9-1.9-1.8-3.8-2.6-5.7
					c-1.8-3.8-3.5-7.6-5.3-11.3c-1.9-3.7-3.9-7.3-5.8-10.9l-1.4-2.7l-0.7-1.3l-0.8-1.3c-1-1.7-2.1-3.5-3.1-5.2
					c-1-1.7-2.1-3.5-3.1-5.2c-1-1.7-2.1-3.4-3.2-5.1c-2.2-3.3-4.5-6.6-6.7-9.9c-0.5-0.7-1-1.4-1.5-2.1c-0.5-0.7-1.1-1.4-1.6-2.1
					c-1.1-1.4-2.2-2.8-3.3-4.3c-1.1-1.4-2.2-2.9-3.3-4.4c-1.1-1.5-2.2-3-3.4-4.4c-4.8-5.7-9.4-11.9-14.8-17.7
					c-1.3-1.5-2.6-3-3.9-4.5c-0.7-0.7-1.3-1.5-2-2.3c-0.7-0.7-1.4-1.4-2.1-2.2c-2.8-2.9-5.6-5.9-8.5-8.8
					c-5.9-5.7-11.9-11.6-18.5-17.1c-13-11.2-27.3-21.8-42.8-31.6c-15.5-9.8-32.1-18.7-49.4-26.6c-34.7-15.8-72.2-27.6-108.5-35.7
					c-36.3-8.1-70.6-12.2-99.8-11.9c5.9,1.7,11.6,3.5,17.2,5.1c2.8,0.8,5.6,1.6,8.4,2.3c1.4,0.4,2.8,0.7,4.1,1.1
					c1.4,0.4,2.7,0.8,4.1,1.2c-4.2-0.6-8.3-0.9-12.4-1.3c-4.1-0.4-8.1-0.7-12-1c-3.9-0.3-7.9-0.5-11.7-0.6
					c-3.8-0.1-7.6-0.2-11.3-0.2c-91.4-17.2-183.7-22.8-275.2-16.6c-91.4,6.4-182.1,24.5-270,55.3c-6.5,2.4-12.5,4.9-18.2,7.5
					c-5.7,2.7-11,5.6-16.4,8.4c-2.7,1.4-5.4,2.8-8,4.3c-2.7,1.5-5.4,2.9-8.1,4.4c-2.8,1.4-5.6,2.9-8.5,4.3c-2.9,1.4-5.9,2.8-9.1,4.3
					c-6.3,3-12.6,5.9-18.8,8.9c-6.1,3.1-12.3,6.2-18.4,9.3c-3.1,1.5-6,3.2-9,4.8c-3,1.6-6,3.2-8.9,4.9l-4.5,2.4
					c-1.5,0.8-3,1.6-4.4,2.5c-2.9,1.7-5.8,3.4-8.8,5.1c0.1,0.4,0.6,0.6,1.4,0.5c-24.1,14.2-47.6,29.6-70.1,46.3
					c-22.6,16.6-44.4,34.4-65.5,53.1c-21,18.9-41.1,38.9-60.5,59.9c-2.4,2.6-4.8,5.3-7.2,7.9l-3.6,4l-1.8,2l-1.7,2
					c-4.7,5.5-9.3,10.9-14,16.4c-9.1,11.2-18.2,22.4-26.9,34.1c-16.7,21.5-33.4,43-49,65.3l-3,4.1l-1.5,2.1l-1.4,2.1l-5.7,8.4
					c-3.8,5.6-7.7,11.2-11.3,16.9c-3.6,5.7-7.3,11.4-10.9,17.2l-10.3,17.5c-2.6,4.4-4.8,7.5-6.9,9.9c-2.1,2.4-4,3.9-5.9,5.3
					c-1.9,1.4-3.7,2.6-5.6,4.1c-1.9,1.5-3.8,3.4-5.7,6.2c-4.1,5.6-8.1,11-12,16.3c-2,2.6-3.8,5.3-5.6,8c-1.8,2.7-3.6,5.3-5.4,7.9
					c-1.8,2.6-3.6,5.2-5.3,7.8c-1.7,2.6-3.4,5.3-5,7.9c-3.3,5.3-6.6,10.6-9.9,16c-3.1,5.5-6.2,11-9.3,16.7c-0.8,1.4-1.6,2.9-2.3,4.3
					c-0.4,0.7-0.8,1.4-1.2,2.2c-0.4,0.7-0.7,1.5-1.1,2.2c-1.4,3-2.9,6-4.4,9c-6.1,12.1-11.5,25.3-17.2,39.8c0,0-3.4-1.1-5-1.6
					c-2.2,9.4-4.8,17.6-7.3,24.2c-2.7-8.5-3.6-19.7-4.1-30.6c-0.2-10.8,0-21.4-0.7-28.5c-0.6-7.1-2.1-10.9-6.2-8.2
					c-1,0.7-2.2,1.7-3.5,3.3c-1.4,1.5-2.8,3.5-4.4,6c-1.7,2.5-3.5,5.5-5.5,9.1c-1,1.8-2.1,3.7-3.2,5.8c-1.1,2.1-2.4,4.3-3.5,6.7
					c0,0,0,0-0.1,0c0.4-2.3,0.8-4.5,1.2-6.7c0.4-2.1,0.8-4.2,1.2-6.2c0.2-0.5,0.3-0.9,0.5-1.3c-0.1,0-0.1,0-0.2,0
					c0.9-5,1.6-9.5,2.1-13.7c0.1-1.1,0.3-2.1,0.4-3.1c0.1-1,0.3-2,0.4-2.9c0.2-1.9,0.4-3.8,0.6-5.6c0.6-7.3,0.6-13.8,0-20.5
					c-2.3,6.1-4.5,12.2-6.8,18.2c-1.1,3.1-2.3,6.1-3.3,9.2c-1,3.1-2.1,6.2-3.1,9.2c-1.6-3.1-3.4-5.4-6.1-5c-0.1-1.2-0.2-2.4-0.2-3.7
					c0.9-2.8,1.8-5.3,2.5-7.1c0.7-1.8,1.1-3,1.1-3c-0.6-2.2-1.4-4-2.3-5.4c1.3-8.7,3-18.6,5.3-28.3c2.3-9.7,4.5-19.3,6.7-27.5
					c2.1-8.2,3.6-15.2,3.9-19.7c0.4-4.5-0.4-6.5-3.2-4.8c-3.4,2.9-6.9,10.7-10.9,21.1c-1,2.6-2,5.4-3,8.3c-0.9,2.9-1.9,6-2.9,9.2
					c-1,3.2-2,6.5-3,9.8c-0.5,1.7-1.1,3.4-1.6,5.1c-0.5,1.7-1.1,3.4-1.6,5.2c-1.2,1.4-2.5,3.1-3.7,4.9c2.8-9.2,3.9-13.9,3.5-16.4
					c-0.4-2.5-2-2.6-3.8-2.3c-3.6,0.6-7.9,3.1-4.4-8c2.9-7.2,5.7-14.5,8.7-21.6c3-7.2,5.9-14.4,8.9-21.5l9.5-21.3
					c0.8-1.8,1.6-3.6,2.4-5.3l2.6-5.2c1.7-3.5,3.5-7,5.3-10.4c14.6-28.1,29.5-54.6,45.4-79.8c15.8-25.2,31.9-49.5,49-72.9l6.4-8.8
					l6.6-8.7l6.6-8.7l3.3-4.4c1.1-1.5,2.2-2.9,3.3-4.3c4.5-5.7,9.1-11.4,13.6-17.2l3.4-4.3l3.5-4.2c2.4-2.8,4.7-5.7,7.1-8.5
					c2.4-2.8,4.7-5.7,7.1-8.5c2.4-2.9,4.9-5.6,7.3-8.4c4.9-5.6,9.8-11.3,14.8-17c5.1-5.6,10.2-11.2,15.4-16.9
					c1.3-1.4,2.6-2.8,3.9-4.3c1.3-1.4,2.7-2.8,4-4.2c2.7-2.8,5.4-5.6,8.1-8.4c1.9-2,3.8-4,5.7-6l2.9-2.9l2.9-2.9
					c5.4-5.3,10.8-10.5,16.2-15.8l2-1.9l2.1-1.9c1.4-1.3,2.8-2.5,4.1-3.8c2.8-2.5,5.5-5,8.3-7.5c2.8-2.5,5.5-5,8.3-7.4
					c2.8-2.4,5.7-4.8,8.5-7.1c2.8-2.4,5.7-4.7,8.5-7.1l4.2-3.5c1.4-1.2,2.9-2.3,4.3-3.4c5.8-4.5,11.6-9,17.4-13.5
					c2.9-2.3,5.9-4.4,8.9-6.5c3-2.1,6-4.3,9-6.4c3-2.1,6-4.3,9-6.4c3.1-2,6.1-4.1,9.2-6.1c3.1-2,6.2-4.1,9.3-6.1
					c3.1-2,6.2-4.1,9.4-6c-2.6,3-5.2,6.2-7.9,9.4c2.5-1.6,5-3.3,7.5-4.9l7.6-4.7l15.2-9.5l15.4-9.2c5.1-3.1,10.2-6.2,15.4-9.1
					c5.2-3,10.4-6,15.5-9l3.9-2.3c1.3-0.7,2.6-1.5,3.9-2.2l7.8-4.4c5.2-2.9,10.4-6,15.6-8.9c5.3-2.9,10.5-5.8,15.7-8.7
					c3.2-1.8,6.4-3.7,9.6-5.4l9.7-5.2l9.8-5.2c1.6-0.9,3.2-1.8,4.9-2.6l4.9-2.5c6.6-3.3,13.2-6.6,19.9-9.8
					c6.7-3.1,13.4-6.2,20.2-9.3c27.1-12.1,54.8-23.2,83.3-33c28.5-9.7,57.8-18.1,87.8-25.2c7.5-1.7,15.1-3.4,22.6-5
					c7.6-1.5,15.2-3,22.9-4.4c1.9-0.4,3.8-0.7,5.8-1.1c1.9-0.3,3.9-0.6,5.8-0.9c3.9-0.6,7.7-1.2,11.6-1.9c3.9-0.6,7.8-1.3,11.7-1.8
					c3.9-0.5,7.8-1,11.8-1.5c33-4.1,65.8-6.8,98.6-8.3c32.8-1.4,65.5-1.5,98.3-0.5c65.6,2.2,131.4,9.2,198.2,21.9l-20.6-3.2
					c-6.9-0.9-13.8-1.9-20.7-2.8c-6.9-1-13.8-1.7-20.7-2.5c-6.9-0.8-13.8-1.7-20.7-2.3c-6.9-0.7-13.8-1.4-20.8-2.1
					c-6.9-0.6-13.9-1.2-20.9-1.8l-5.2-0.5c-1.7-0.2-3.5-0.3-5.2-0.4c-3.5-0.3-7-0.5-10.5-0.8c-3.5-0.3-7-0.6-10.5-0.8
					c-3.5-0.3-7-0.4-10.6-0.7c-6.3-0.6-12.6-1.1-18.9-1.7c-6.3-0.4-12.6-0.8-18.9-1.2c-3.1-0.2-6.3-0.4-9.4-0.5
					c-3.1-0.1-6.2-0.2-9.4-0.3c-6.2-0.2-12.4-0.3-18.6-0.5c6.4,0.4,12.7,0.7,19,1c3.2,0.1,6.3,0.3,9.4,0.4c3.1,0.2,6.3,0.4,9.4,0.6
					c6.3,0.3,12.5,0.7,18.7,1c6.2,0.4,12.4,0.8,18.6,1.2c3,0.3,6.1,0.5,9.1,0.9l9.1,1.1l18.2,2.1c6.1,0.8,12.1,1.7,18.2,2.5
					c3,0.4,6,0.8,9.1,1.2c3,0.5,6,1,9,1.4c6,0.9,12,1.9,18,2.8c5.9,1,11.9,2.1,17.8,3.1c3,0.5,5.9,1,8.8,1.5
					c2.9,0.5,5.8,1.1,8.8,1.6c5.8,1.1,11.6,2.1,17.4,3.1c46,8.5,89.1,17,127.9,21.2c3.7,2,5.4,3.4,7.1,4.6c1.7,1.2,3.5,2.3,7.2,3.6
					c26.5,9.3,52.9,20,78.5,31.3c25.6,11.3,50.3,23.2,74.1,34.2c0.5-0.7,6.2,2.4,11.1,4.9c4.9,2.6,9,4.4,6.4,0.4
					c22.3,14.2,45.5,32.3,66.8,53c21.5,20.7,40.7,43.7,57,65.7l2.7,3.6l1.3,1.8l1.3,1.8c1.7,2.4,3.4,4.8,5.2,7.3s3.5,4.8,5.3,7.2
					l1.3,1.8l1.3,1.8l2.6,3.6l10.4,14.6c3.3,4.9,6.8,9.8,10.2,14.8c11,21.9,20.4,44.2,28.4,66.8l5.6,17c1,2.8,1.8,5.7,2.6,8.5
					l2.5,8.5c0.8,2.8,1.7,5.7,2.4,8.6l2.2,8.6l2.2,8.6c0.4,1.4,0.7,2.9,1.1,4.3l1,4.3c1.3,5.7,2.5,11.4,3.8,17.2
					c1.1,5.7,2.2,11.4,3.2,17.2c1.1,5.7,1.9,11.4,2.9,17.2l1.4,8.6c0.5,2.9,0.8,5.7,1.2,8.6c3.2,22.9,5.2,45.8,6.6,68.7
					c1.5,22.9,1.9,45.7,1.9,68.6c0,22.9-0.8,45.6-2,68.5c-1.2,22.9-3.1,45.7-5.4,68.6c-2.3,22.9-5.1,45.9-8.3,68.9
					c-1.7,11.4-3.7,23.2-5.9,35.2c-2.2,11.7-4.6,23.6-6.9,35.5c-2.5,11.9-5.1,23.8-7.6,35.4c-2.6,11.7-5.3,23.1-7.8,34.2
					c1.2-8.3,2.4-16.6,3.6-25c1.2-8.4,2.3-16.8,3.5-25.2c2.4-16.8,4.6-33.8,6.9-50.9l0.9-6.4l0.8-6.5c0.6-4.4,1.1-8.7,1.7-13.1
					c1.1-8.8,2.1-17.6,3.2-26.4c2-17.7,3.9-35.5,5.5-53.6c5.9-34.5,10.4-68.8,12.2-101.8c1.8-33,0.9-64.6-3.5-93.1
					c-0.8-6.6-1.7-13.3-2.5-19.9c-0.9-6.6-1.9-13.2-2.8-19.9c3.3,40.3,4.3,80.1,3.4,119.2c-0.1,4.9-0.2,9.8-0.3,14.7
					c-0.2,4.9-0.4,9.7-0.6,14.6l-0.3,7.3l-0.4,7.2c-0.3,4.8-0.5,9.7-0.8,14.5c-1.2,19.2-2.6,38.3-4.4,57.2
					c-1.7,10.2-3.6,20.4-5.6,30.6c-1,5.1-2,10.2-3,15.3c-1,5.1-2,10.2-3.1,15.3l-3.2,15.2c-1.1,5.1-2.2,10.1-3.3,15.1
					c-2.2,9.9-4.3,19.8-6.4,29.7c0-0.8,0.1-1.6,0.1-2.4c1.1-7.8,2.1-15.7,3.2-23.6c1-8,2.1-16,3.1-24.1c1-8.1,2-16.1,2.9-24.3
					c0.9-8.1,1.9-16.2,2.7-24.4c5.6-30.3,10.2-60.5,12.7-89.7c2.6-29.2,3.2-57.5,1.2-83.7c-0.5-6.5-1.2-13-2-19.2
					c-0.7-6.5-1.4-13.1-2.1-19.6c-0.7-6.5-1.6-13.1-2.3-19.7c1.5,24.5,2,48.8,1.9,73c0,12.1-0.3,24.1-0.7,36
					c-0.2,6-0.5,11.9-0.7,17.9c-0.2,6-0.6,11.9-0.9,17.8c-1.7,29.4-4.1,58.5-7.1,87.3c-3.3,17.8-7,35.7-10.8,53.6
					c0-2-0.1-4.1-0.3-5.9c0.3-4-0.2-10-1.3-16.3c-1.1-6.3-2.9-13.1-5-18.6c-2.1-5.5-4.5-9.8-7.1-11.3c-2.5-1.5-5-0.2-7.3,5.3
					c-2.5,14.9-5.2,30.5-8.1,46.4c-0.7,4-1.4,8-2.2,12c-0.7,4-1.5,7.9-2.2,11.9c-1.5,8-3,15.9-4.4,23.9c-3,15.9-6.1,31.7-9,47
					c-1.5,7.6-3,15.2-4.4,22.5c-1.4,7.3-2.8,14.5-4.3,21.4c-5.6,27.7-10.7,51.7-14.4,68.7c-1.9,8.5-3.5,15.3-4.6,19.9
					c-1.1,4.6-1.8,7.1-2,7.1c-2.2,1.4-1.2-10,1.4-27.7c2.5-17.8,6.6-41.9,10.6-66c8.1-48.3,15.6-96.6,14-93.1
					c-3.2,10.9-6.3,21.9-9.3,32.9c0.9-10.8,1.8-21.5,2.2-31.3c1.5-11.5,4.3-24.6,6.6-36.9c2.3-12.4,4.1-23.9,3.8-31.8
					c-0.1-27.6,3-56.5,5.8-86.4c2.8-29.9,5.4-60.9,4.1-92.1c-2.4-39.1-8.3-85.7-18.2-131c-3.4,0.2-3.5-22.7-6.4-14.8
					c-1.8-21.3-4.7-44.3-9.6-63.7c-1.2-4.9-2.6-9.5-4-13.8c-0.7-2.2-1.4-4.3-2.1-6.3c-0.8-2-1.6-3.9-2.4-5.7
					c-1.6-3.6-3.3-6.9-4.9-9.7c-1.6-2.8-3.6-5.2-5.4-7c-0.4-1-0.7-1.9-1.1-2.9c-0.8-2.8-2.4-6.8-4.5-10.8
					c-2.5-8.3-4.8-16.4-7.8-23.8c-0.7-1.9-1.5-3.8-2.2-5.6c-0.4-0.9-0.7-1.8-1.1-2.8c-0.4-0.9-0.7-1.8-1.2-2.7
					c-1.6-3.6-3.2-7.1-4.9-10.5c-0.8-1.7-1.6-3.4-2.5-5.1c-0.9-1.6-1.8-3.3-2.7-4.9c-1.8-3.2-3.6-6.4-5.4-9.6
					c-1.9-3.1-3.9-6.1-5.9-9.1c-1-1.5-2-3-3-4.5l-1.5-2.2c-0.5-0.7-1.1-1.4-1.6-2.1c-2.1-2.8-4.3-5.6-6.4-8.4l-3.2-4.2l-3.4-4
					c-2.3-2.6-4.6-5.3-6.9-7.9c-1.1-1.3-2.4-2.6-3.6-3.8c-1.2-1.3-2.4-2.5-3.7-3.8c-1.2-1.3-2.4-2.5-3.7-3.8
					c-1.2-1.3-2.4-2.6-3.7-3.8c-2.6-2.4-5.2-4.8-7.8-7.3c-1.3-1.2-2.6-2.5-3.9-3.7c-1.4-1.2-2.8-2.4-4.2-3.5
					c-2.8-2.4-5.5-4.8-8.4-7.2c-14.9-14.1-31.2-27.1-48.8-39.7c0.7,0.5,1.5,1,2.2,1.6c0.7,0.6,1.5,1.2,2.3,1.8
					c1.5,1.2,3.1,2.5,4.7,3.8c1.6,1.3,3.3,2.7,5,4c1.6,1.4,3.3,2.9,4.9,4.3c6.7,5.6,13.1,11.6,18.9,15.6c3.6,2.9,7.2,5.8,10.8,8.6
					c19.2,18.2,36.3,38.2,51.2,59.7c14.9,21.5,27.6,44.5,38.1,68.9c2.4,3.7,6,9.9,9.2,15.8c1.1,3.7,1.9,7.5,2.8,11.3
					c0.9,0.7,1.9,1.5,2.8,2.4c9.2,24.1,16,51,21.1,77.3c5.1,26.3,8.4,52.1,11.5,74.4c0.3,2.6,0.5,5.3,0.8,7.9c0.2,2.6,0.4,5.3,0.6,8
					c0.3,5.3,0.7,10.7,0.9,16c0.2,5.4,0.3,10.7,0.4,16.1c0.1,5.4,0,10.8-0.1,16.2c-0.4,21.7-1.6,43.6-3.9,65.5
					c-2.2,21.8-5.1,43.7-8.6,65.3c-3.5,21.6-7.4,43.1-11.5,64.2c2.4-21.4,4.3-42.6,5.8-63.7c1.4-21.1,2.3-42,2.7-62.6
					c-2.2,51.7-7,100.5-12.8,147.8c-1.5,7.2-2.9,14.3-4.4,21.4c0,0-2.4,11.2-4.7,22.4c-1.2,5.6-2.4,11.2-3.2,15.4
					c-0.9,4.2-1.5,7-1.5,7c1.9-6.9,3.7-13.7,5.5-20.6c1.7-6.8,3.5-13.7,5.2-20.5c-1,7.1-1.9,14.1-2.9,21.1c-0.9,7-1.9,14-2.9,21
					c-1,7-2,13.9-2.9,20.8c-0.5,3.5-1,6.9-1.4,10.4c-0.5,3.4-1,6.9-1.5,10.3c-13,75.4-29.4,151.5-48.4,227
					c-19,75.6-40.5,150.6-63.7,224.2c-1.2-3.5-2.3-7.4-3.2-11.7c20.1-71.7,40.8-143.2,48-204.4c-11.5,41.4-16.7,70.8-27.8,110.7
					c-1-0.3-2.5-0.3-2.1-3.8c-5.4,26-12.3,56.3-20.3,85.3c-1.7-10.5-2.9-22.2-4.2-33.8c0.9-15.6,7.3-37.5,11.9-59.9
					c24.4-95.5,50-184.8,68.9-280c10.6-41.8,20.4-83.7,29.5-125.6c4.6-21,8.8-41.8,12.7-62.7c3.8-20.9,7.2-41.7,10.2-62.5
					c-3.5,41.6-8.4,81.6-13.9,120.5C3551.2,959.3,3545.5,997.1,3539.9,1034.5z M2021.9,682c2.8-6.9,5.4-14.3,8.4-21.4
					c-0.9,0.9-1.8,1.7-2.7,2.4c-1.7,3.1-2.9,6.4-3.9,9.7C2022.8,675.9,2022.2,679.1,2021.9,682z M2113.3,539c-2,2.4-4.1,4.8-6.1,7.3
					c-1,1.3-2,2.5-3.1,3.8c-1,1.3-2,2.6-3,4c-4,5.4-8.1,11-12.2,16.8c-1,1.4-2,2.9-3,4.4c-1,1.5-2,3-3,4.5c-2,3-4,6.1-6,9.2
					c-1,1.6-2,3.1-3,4.7c-1,1.6-2,3.2-2.9,4.8c-1.9,3.2-3.8,6.5-5.8,9.8c-1.9,3.3-3.8,6.6-5.8,10c-1,1.7-1.9,3.4-2.8,5.1
					c-0.9,1.7-1.8,3.4-2.8,5.2c-1.8,3.4-3.7,6.9-5.5,10.4c-0.9,1.7-1.8,3.5-2.8,5.2c-0.9,1.7-1.8,3.5-2.6,5.3
					c-3.5,7.1-7,14.2-10.5,21.4c-3.3,7.2-6.6,14.4-9.9,21.6c0.3,0.5,0.6,0.9,0.9,1.1c3.2-5.8,6.4-11.8,9.6-17.9
					c0.8-1.5,1.6-3.1,2.4-4.6c0.8-1.5,1.7-3.1,2.5-4.6c1.7-3.1,3.4-6.3,5.1-9.5c1.7-3.2,3.4-6.4,5.1-9.7c1.8-3.2,3.6-6.5,5.4-9.7
					c1.8-3.3,3.6-6.6,5.4-9.9c0.9-1.7,1.8-3.3,2.7-5c0.9-1.6,1.9-3.3,2.8-4.9C2079.4,591,2096,564.1,2113.3,539z M2271.9,419.2
					c-0.4,0.1-0.8,0.2-1.2,0.3c0.2,0.2,0.4,0.3,0.6,0.5C2271.5,419.8,2271.7,419.5,2271.9,419.2z M3071.8,135.3
					c-30-0.2-63.2-1.8-98.1-2.5c-35-0.7-71.7-0.3-108.3,2.9c-11,0.3-21.8,2.9-33.5,5.3c-2.9,0.6-5.9,1.3-8.9,2
					c-3,0.7-6.2,1.3-9.3,1.9c-3.2,0.6-6.5,1.2-9.9,1.7c-3.4,0.6-6.9,1.1-10.5,1.5c-4.5,0.7-8.7,1.5-12.8,2.2c-2,0.3-4,0.8-6,1.2
					c-1.9,0.4-3.8,0.8-5.7,1.2c-3.7,0.8-7.3,1.7-10.8,2.4c-1.7,0.4-3.4,0.8-5.1,1.2c-1.7,0.4-3.3,0.9-5,1.3
					c-6.6,1.7-12.9,3.4-19.4,5.1c-6.4,1.8-13,3.7-20,5.4c0,0,5.5-0.1,11-0.3c2.7-0.1,5.5-0.1,7.5-0.2c2-0.1,3.4,0,3.4,0
					c-6.2,0.9-12.1,2-17.7,3.2c-2.8,0.6-5.5,1.2-8.2,1.8c-2.7,0.7-5.2,1.4-7.8,2.1c-5.1,1.5-10,3-14.8,4.5c-2.4,0.7-4.8,1.6-7.1,2.4
					c-2.3,0.8-4.7,1.7-7,2.5c-4.7,1.7-9.3,3.3-14.1,4.9c-4.7,1.7-9.5,3.4-14.5,5c-2.5,0.8-5,1.6-7.6,2.3c-2.6,0.8-5.2,1.6-7.9,2.4
					c-5.4,1.6-11.1,3.1-17.2,4.5c0.5,1.6-5.1,7.3-11.9,9.5c-4.1,1.6-8.3,3.1-12.5,4.6c-4.1,1.6-8.3,3.1-12.4,4.6
					c-4.1,1.5-8.2,2.9-12.3,4.4c-4,1.5-8,3-12,4.5c-3.9,1.5-7.8,2.9-11.6,4.5c-3.8,1.6-7.4,3.2-11,4.8c-3.6,1.6-7.1,3.3-10.4,5
					c-3.3,1.7-6.5,3.6-9.5,5.5c-3.9,2-7.9,4-11.8,6c-2,1-3.9,2-5.8,3.1c-1.9,1-3.9,2.1-5.8,3.1c-3.8,2.1-7.7,4.1-11.5,6.1
					c-1.9,1-3.7,2.1-5.6,3.1c-1.8,1.1-3.6,2.1-5.5,3.2c-7.2,4.2-14.3,8.2-20.7,12.6c-3.3,2.1-6.4,4.3-9.5,6.4
					c-1.5,1.1-3,2.1-4.5,3.2c-1.5,1.1-2.9,2.2-4.3,3.3c-6,3.7-15.3,15.2-26,24.4c-3.5,2.4-7,4.9-10.5,7.3l-10.3,7.6l-10.3,7.5
					l-10.1,7.8c0.9-0.1,1.7-0.1,2.5-0.1c2.8-2,5.6-4.1,8.4-6.1c2.9-2,5.7-4,8.5-6.1c2.8-2.1,5.6-4.1,8.4-6.3l4.2-3.2
					c1.4-1,2.8-2.1,4.2-3.2c4.2-3.2,8.4-6.5,12.7-9.8c1.1-0.8,2.2-1.7,3.3-2.5c1.1-0.8,2.2-1.6,3.3-2.4c2.2-1.6,4.5-3.2,6.8-4.8
					c2.3-1.6,4.5-3.2,6.8-4.9c2.3-1.6,4.6-3.3,6.9-4.8c4.7-3.1,9.4-6.3,14.2-9.4c4.7-3.2,9.6-6.1,14.4-9c2.4-1.5,4.8-2.9,7.2-4.4
					c1.2-0.7,2.4-1.5,3.6-2.2c1.2-0.7,2.4-1.4,3.6-2.1c4.9-2.7,9.7-5.4,14.5-8.1c2.4-1.3,4.8-2.7,7.1-3.9c2.4-1.2,4.8-2.4,7.1-3.6
					c3-1.5,5.9-2.9,8.8-4.4c2.9-1.5,5.8-3,8.8-4.4c5.9-2.8,11.8-5.6,17.7-8.4c2.9-1.4,5.9-2.7,8.9-4c3-1.3,5.9-2.6,8.9-4
					c3-1.3,5.9-2.6,8.9-4c3-1.2,6-2.5,8.9-3.7c3-1.2,5.9-2.5,8.9-3.7c3-1.2,5.9-2.5,8.9-3.6c6-2.3,11.9-4.7,17.9-7
					c3-1.2,6-2.2,9-3.3c3-1.1,6-2.2,9-3.3c3-1.1,6-2.2,8.9-3.3c3-1,6-2,9-3.1c3-1,6-2,9-3.1c3-1,6-2.1,9-3c6-1.9,12.1-3.8,18.1-5.7
					c3-1,6-1.8,9.1-2.7c3-0.9,6.1-1.7,9.1-2.6c3-0.9,6.1-1.8,9.1-2.6c3-0.8,6.1-1.6,9.1-2.4c24.3-6.6,48.9-12,73.6-16.8
					c5.3-1,10.6-2.2,15.9-3.4l16-3.4c10.7-2.4,21.4-4.2,32.2-5.8c4-0.7,8.2-1.2,12.3-1.8c4.2-0.5,8.4-1,12.6-1.5
					c4.3-0.5,8.5-0.8,12.9-1.2c4.3-0.3,8.7-0.6,13-1c4.3-0.4,8.7-0.5,13.1-0.7c4.4-0.2,8.7-0.4,13.1-0.5l3.3-0.1l3.2-0.1
					c2.2,0,4.3-0.1,6.5-0.1c4.3-0.1,8.6-0.2,12.8-0.3c33.8-0.5,65,0.1,87.7-3.3c3.8-0.4,9.3-0.1,14.9,0c1.4,0,2.8,0,4.2,0
					c1.4,0,2.7,0,4-0.1C3067.5,136.2,3069.9,135.9,3071.8,135.3z M3170.5,76.7c-41.6-5.8-85.2-10.8-128.3-14.3
					c-43.1-3.5-85.6-5.5-124.7-6.6c-3.9,0-8.3-0.1-13.1,0c-4.8,0.1-9.9,0.3-15.4,0.6c-10.9,0.3-23,1.5-35.6,2.6
					c-3.2,0.2-6.3,0.7-9.5,1c-3.2,0.4-6.4,0.8-9.7,1.2c-3.2,0.4-6.5,0.8-9.7,1.3c-3.3,0.4-6.5,1-9.7,1.5c-6.5,1.1-12.9,2.2-19.2,3.3
					c-6.3,1.3-12.5,2.6-18.5,3.9c-3,0.7-5.9,1.4-8.8,2c-2.9,0.8-5.7,1.5-8.5,2.3c-5.5,1.5-10.7,3-15.6,4.5c-2.4,0.7-4.8,1.6-7,2.4
					c-2.2,0.8-4.4,1.6-6.4,2.4c-4.1,1.6-7.7,3.1-10.8,4.7c-1.6,0.8-3,1.5-4.3,2.2c-1.3,0.8-2.4,1.5-3.5,2.3c-2,1.5-3.4,2.9-4.2,4.2
					c-1.6,2.6-0.5,5,3.7,6.8c4.2-3.3,9.9-6.3,16.9-9.4c3.5-1.5,7.3-3,11.3-4.5c1-0.4,2.1-0.7,3.1-1.1c1.1-0.3,2.1-0.7,3.2-1
					c2.2-0.7,4.4-1.3,6.8-2c4.6-1.3,9.5-2.6,14.7-3.9c5.1-1.3,10.5-2.3,16.1-3.5c2.8-0.5,5.6-1.1,8.5-1.6c1.4-0.3,2.9-0.5,4.4-0.8
					c1.5-0.2,3-0.5,4.5-0.7c6-0.9,12.2-1.8,18.5-2.7c1.6-0.2,3.2-0.4,4.8-0.6c1.6-0.2,3.2-0.3,4.8-0.5c3.2-0.3,6.5-0.7,9.8-1
					c3.3-0.3,6.6-0.6,10-1c3.4-0.3,6.8-0.5,10.2-0.7c6.8-0.4,13.8-0.9,20.8-1.2c7-0.2,14.1-0.4,21.2-0.6c28.5-0.5,57.6,0.4,85.6,2.2
					c7,0.5,13.9,1.1,20.8,1.6c6.9,0.5,13.6,1.2,20.2,1.9c3.3,0.3,6.6,0.7,9.9,1c1.6,0.2,3.2,0.3,4.9,0.5c1.6,0.2,3.2,0.4,4.8,0.6
					c6.4,0.7,12.6,1.5,18.6,2.2c12.1,1.6,23.5,3,34.1,4.4c5.3,0.7,10.3,1.4,15.2,2c2.4,0.3,4.8,0.6,7.1,0.8c2.3,0.3,4.5,0.6,6.7,0.8
					c8.6,1.1,16.3,1.7,22.6,2c6.4,0.4,11.5,0.3,15.3-0.3C3174.2,86.6,3176.1,83.1,3170.5,76.7z M3672.3,509.7
					c-0.5-2.2-0.9-4.4-1.4-6.6c-0.5-2.2-1.1-4.4-1.6-6.5c-1.1-4.4-2.1-8.7-3.2-13.1c-1.1-4.4-2.3-8.7-3.5-13.1
					c-0.6-2.2-1.2-4.4-1.8-6.6c-0.3-1.1-0.6-2.2-0.9-3.3c-0.3-1.1-0.7-2.2-1-3.3c-2.6-8.9-5-17.9-8.1-27.3c-0.7-2.3-1.4-4.7-2.2-7
					c-0.7-2.4-1.4-4.7-2.2-7.1c-1.6-4.8-3.2-9.7-4.8-14.7l5,13.4l1.2,3.4l1.1,3.4l2.2,6.8l2.2,6.8c0.7,2.3,1.5,4.5,2.1,6.8l3.9,13.6
					c1.4,4.5,2.5,9.1,3.6,13.6l3.4,13.6l3,13.7l1.5,6.8C3671.5,505.1,3671.9,507.4,3672.3,509.7z M3449.2,235.8
					c1.4,0.8,2.8,1.6,4.1,2.4l4,2.6c2.7,1.8,5.4,3.5,8.1,5.3c0.7,0.4,1.4,0.9,2,1.3l2,1.4l3.9,2.9c2.6,1.9,5.2,3.9,7.9,5.8
					c2.5,2.1,5.1,4.2,7.6,6.2l3.8,3.2l1.9,1.6l1.8,1.7c2.4,2.2,4.9,4.5,7.3,6.8l3.7,3.4c1.2,1.2,2.3,2.4,3.5,3.6
					c18.8,19,35.4,40.6,49.5,63.8c14.1,23.2,25.7,47.8,35.3,72.8c9.6,25.1,17.1,50.5,23.3,75.8c1.2,4.9,2.3,9.8,3.3,14.7
					c0.9,5,1.8,9.9,2.6,15c0.9,5,1.5,10.1,2.1,15.1c0.3,2.5,0.6,5.1,0.9,7.6l0.4,3.8l0.3,3.8c0.4,5.1,0.8,10.2,1.2,15.3
					c0.4,5.1,0.5,10.2,0.8,15.3l0.4,7.6c0.1,2.5,0.1,5.1,0.2,7.6c0.1,5.1,0.3,10.1,0.4,15.2c0,10.1,0.2,20.1,0.2,30
					c0,2.5,0,4.9,0,7.4c0,2.5,0,4.9,0,7.4c0,4.9,0,9.7,0.1,14.5c0.1,4.8,0,9.6,0.2,14.3c0.1,4.7,0.3,9.4,0.4,14.1
					c0.2,9.3,0.9,18.4,1.5,27.3c1.8,0.2,3.5,0.3,5.3,0.5l-1-8c3.3-27.4,7.2-49.6,9.2-73.1c0.1,1.3,0.3,2.8,0.4,4.1
					c-0.1-2.3-0.1-4.7-0.2-7.1c0.3-3.9,0.6-7.9,0.7-11.9c0.1-4,0.2-8.1,0.2-12.3c0-8.4-0.6-17.2-1.5-26.6c-0.5-4.3-1.2-8.6-1.8-13
					c-0.6-4.4-1.3-8.7-1.9-13.1c-2.4-25-6.1-50.3-11.3-75.4c-5.2-25.1-12-49.9-20.7-73.9c-8.7-24-19.4-47.1-32.1-68.5
					c-12.7-21.4-27.4-41-43.5-58c-2.4-2.7-4.8-5.4-7.2-7.9c-2.5-2.5-5-4.9-7.5-7.4c-1.3-1.2-2.5-2.4-3.7-3.6
					c-1.3-1.2-2.4-2.4-3.8-3.5c-2.6-2.2-5.2-4.5-7.8-6.7c-10.3-8.8-21.1-16.5-32-23.8c-0.7-0.5-1.3-0.9-2-1.4l-2.1-1.3l-4.2-2.6
					c-2.8-1.7-5.5-3.4-8.3-5.1c-2.8-1.6-5.7-3.2-8.5-4.8c-1.4-0.8-2.8-1.6-4.3-2.4l-2.1-1.2c-0.7-0.4-1.5-0.8-2.2-1.1
					c-2.9-1.5-5.8-3-8.7-4.6c-1.5-0.8-2.9-1.5-4.4-2.3c-1.5-0.7-3-1.5-4.5-2.2c-3-1.5-6-3-9-4.4c-1.5-0.8-3-1.5-4.6-2.2
					c-1.5-0.7-3.1-1.4-4.6-2.1c3.3,2,7,4.2,10.8,6.9c1.9,1.3,3.8,2.6,5.8,4c2,1.4,4,2.7,5.9,4.1c3.9,2.9,7.9,5.7,11.7,8.2
					C3442.2,231.4,3445.8,233.8,3449.2,235.8z"/>
				<path class="st1" d="M3574.2,898.3c-0.5,4.1-1.1,8.2-1.6,12.3c-0.6,4.1-1.2,8.2-1.8,12.3c-1.2,8.2-2.4,16.4-3.6,24.6
					c-1.3,8.2-2.6,16.4-3.9,24.7c-0.7,4.1-1.3,8.2-2,12.4c-0.7,4.1-1.4,8.2-2.1,12.4c-3.7,25.7-7.4,51.2-11,76.7
					c-10.1,60.6-25.7,125.2-43.1,190.4c-17.3,65.2-36.4,131.1-53,194.6c3.9,5.2,8.8,7.1,15.4,4.1c23-67.5,42.2-136.3,60.2-205.6
					c17.9-69.3,34.8-138.9,53-208.4c0.1-1.1,0.2-2.3,0.2-3.4c1.1-15.5,3.3-33.2,6.4-52.2c2.9-19,6.6-39.3,10.1-60.1
					c0.9-5.2,1.8-10.4,2.7-15.7c0.9-5.3,1.7-10.6,2.6-15.9c0.9-5.3,1.7-10.6,2.4-15.9c0.8-5.3,1.6-10.6,2.2-15.9
					c2.8-21.1,4.6-41.9,5.3-61.3l0.1-14.6l0.1-7.3l0-7.3l0.2-14.6l0.1-14.6c0.1-4.8,0-9.7,0-14.5l0-14.5c-0.2-9.7-0.2-19.3-0.5-29
					c-0.4-19.3-1.5-38.6-3.1-57.8l-1.4-14.4c-0.2-2.4-0.5-4.8-0.8-7.2l-0.9-7.2c-1.1-9.5-2.8-19-4.3-28.5
					c3.4,55.1,2.2,109-2.5,162.4C3594.7,792.6,3586.4,845.5,3574.2,898.3z"/>
				<path class="st1" d="M3254.2,233.7l4.9,1.5l4.9,1.6c3.2,1.1,6.5,2.1,9.7,3.2c3.2,1.1,6.4,2.2,9.6,3.3l4.8,1.7l4.7,1.8
					c3.1,1.2,6.3,2.3,9.5,3.5c3.1,1.2,6.2,2.5,9.3,3.7c1.5,0.6,3.1,1.2,4.6,1.9l4.6,1.9c3,1.3,6.1,2.6,9.1,3.9
					c33.8,14.3,62.8,30.6,88.2,49.4c1.6,1.2,3.1,2.4,4.7,3.6l2.4,1.8c0.8,0.6,1.5,1.2,2.3,1.9c3,2.5,6,4.9,9,7.5
					c2.8,2.6,5.7,5.2,8.6,7.8c0.4,0.3,0.7,0.6,1.1,1l1,1l2,2.1l4.1,4.1c1.4,1.4,2.8,2.7,4.1,4.2l3.9,4.4l3.9,4.4l2,2.2l1.9,2.3
					c2.5,3.1,5,6.1,7.5,9.2c2.4,3.2,4.7,6.4,7.1,9.7c-12.2-20.1-26.4-38.6-42.4-55.2c-0.5-0.5-1-1.1-1.5-1.6l-1.6-1.5l-3.1-3l-3.1-3
					c-1-1-2.1-2-3.2-3c-4.4-3.8-8.7-7.9-13.4-11.5c-2.3-1.9-4.6-3.8-6.9-5.6l-7.2-5.4l-3.6-2.7l-3.7-2.6l-7.5-5.2
					c-20.9-12.7-42.7-21.3-64.6-28C3299.8,243,3277.5,238.4,3254.2,233.7z"/>
				<path class="st1" d="M3511.4,423.5c-8.5-16.3-17.7-31.4-27.7-45.5c9,14.9,16.9,30.7,23.9,47.2c6.8,16.6,12.6,33.8,17.6,51.5
					l3.6,13.4l3.1,13.6c0.3,1.1,0.5,2.3,0.8,3.4l0.7,3.4l1.4,6.9l1.4,6.9l1.1,7l1.2,7c0.4,2.3,0.8,4.6,1.1,7l1.9,14.1
					c0.6,4.7,1,9.5,1.6,14.2c0.2,2.4,0.5,4.7,0.7,7.1l0.6,7.2c0.4,3.9,0.9,7.8,1.3,11.8l1,11.8l0.5,5.9l0.4,6l0.7,11.9
					c0.2,4,0.3,8,0.5,12c0.1,4,0.3,8,0.4,12l0.2,12.1l0.1,6l0,6.1c0,32.3-1.4,64.9-4,97.6c-2.6,32.7-6.2,65.5-10.5,98.4
					c-1.1,8.2-2.2,16.4-3.4,24.7l-3.6,24.8c-1.2,8.3-2.4,16.6-3.7,24.9l-3.8,24.9c-1.3,7.5-2.5,15-3.9,22.5
					c-1.3,7.5-2.7,14.9-4.1,22.3c1.9-7.6,3.7-15.1,5.5-22.7c1.8-7.6,3.6-15.2,5.4-22.7c1.7-7.6,3.5-15.2,5.2-22.8
					c1.7-7.6,3.5-15.2,5.1-22.7c3.3-15.2,6.6-30.4,9.7-45.4c1.6-7.5,2.9-15.1,4.4-22.6c1.4-7.5,2.7-15.1,4.1-22.6
					c10.4-60.2,17.2-120.3,18.2-179c0.5-29.3-0.5-58.2-3.4-86.4c-2.8-28.2-7.5-55.6-14.2-81.7c-6.7-26.1-15.5-51-26.4-73.8l-1-2.2
					c-0.3-0.7-0.7-1.4-1.1-2.1l-2.2-4.2c-1.4-2.8-2.9-5.5-4.3-8.3c-1.5-2.7-3.1-5.3-4.7-8c-1.6-2.6-3.1-5.3-4.7-7.9
					c-1.7-2.5-3.4-5-5-7.6l-2.5-3.7l-1.3-1.9c-0.4-0.6-0.9-1.2-1.3-1.8c-1.8-2.4-3.6-4.7-5.4-7.1c-1.8-2.3-3.5-4.7-5.5-6.9
					c-2.3-2.6-4.7-5.5-7-8.3c25.4,35.8,43.7,77.3,56,121.5c6.2,22.1,10.9,44.9,14.4,68.1c3.5,23.2,5.7,46.8,6.9,70.6l-1-12.5
					l-1.3-12.4l-0.7-6.2c-0.2-2.1-0.5-4.1-0.8-6.2l-1.7-12.3c-2.6-16.3-5.4-32.5-9.3-48.2C3535.1,481.5,3524.6,451.3,3511.4,423.5z"
					/>
				<path class="st1" d="M3578.2,866.7c-1.4,7.2-2.8,14.4-4.3,21.5c-1.1,8.4-2.1,16.8-3.2,25.1c1.2-5,2.4-10,3.5-14.9
					C3575.7,887.7,3576.9,877.2,3578.2,866.7z"/>
				<path class="st1" d="M3647.3,651.9c0.1-1,0.2-2,0.2-3c-0.6-25.2-1.9-51-4.4-76.9c-0.7-4.5-1.5-8.9-2.2-13.5
					c-0.4-2.3-0.7-4.5-1.1-6.8c-0.4-2.3-0.8-4.5-1.3-6.8c-0.8-4.5-1.7-9.1-2.5-13.7c-1-4.6-1.9-9.2-2.9-13.8c-0.5-2.3-1-4.6-1.4-6.9
					c-0.5-2.3-1.1-4.6-1.6-6.9c-1.1-4.6-2.2-9.3-3.3-13.9c-1.2-4.6-2.4-9.3-3.7-13.9c-0.6-2.3-1.2-4.7-1.8-7c-0.7-2.3-1.4-4.7-2.1-7
					c9.1,34,14.7,68.3,18.8,100.6C3642.2,594.7,3644.7,625.1,3647.3,651.9z"/>
				<path class="st1" d="M3662,417.1c-0.3-1.1-0.6-2.3-1-3.6c-0.4-1.3-0.9-2.7-1.3-4.2c-0.9-3-2-6.2-3-9.4c-0.5-1.6-1-3.2-1.5-4.8
					c-0.5-1.6-1-3.1-1.6-4.6c-1.1-2.9-2.1-5.6-2.8-7.8c-1.5-2.4-2.9-4.8-4.4-7.2l-2.2-3.6c-0.8-1.2-1.5-2.4-2.3-3.6
					c1.7,4,3,8,4.4,12c1.4,4,2.8,8.1,4.2,12.1c0,0,0.2,0.4,0.5,1c0.3,0.7,0.8,1.6,1.3,2.8c1.1,2.3,2.5,5.4,4,8.4
					c1.4,3.1,2.9,6.2,4,8.5c0.6,1.2,0.9,2.1,1.2,2.8C3661.8,416.7,3662,417.1,3662,417.1z"/>
				<path class="st1" d="M3279.8,93.8c17.1,4.7,34.1,9.9,51.1,15.6c4.2,1.5,8.5,2.8,12.7,4.3c4.2,1.5,8.5,3.1,12.7,4.6
					c4.2,1.5,8.4,3.2,12.6,4.8c2.1,0.8,4.2,1.6,6.3,2.5l6.3,2.6c16.8,6.8,33.4,14.6,49.7,23.1c4.1,2.2,8.2,4.3,12.2,6.5
					c4,2.3,8.1,4.6,12.1,7c4.1,2.3,8,4.8,12,7.3c4,2.5,8,4.9,11.8,7.6c3.9,2.7,7.8,5.3,11.7,8c3.9,2.8,7.6,5.7,11.5,8.5
					c1.9,1.4,3.8,2.8,5.7,4.3l5.6,4.5l5.6,4.6c1.8,1.5,3.7,3,5.5,4.6c3.6,3.2,7.2,6.4,10.7,9.7l2.7,2.4l2.6,2.5l5.2,5.1
					c7,6.7,13.3,14,19.9,21.1l2.4,2.7l2.3,2.8l4.6,5.6l4.6,5.6c1.5,1.9,3.1,3.7,4.5,5.7c2.8,3.9,5.7,7.7,8.5,11.6
					c1.4,1.9,2.9,3.9,4.2,5.8l3.9,6c2.6,4,5.2,8,7.9,12c2.5,4.1,4.9,8.1,7.3,12.2l3.6,6.1l0.9,1.5l0.8,1.6l1.7,3.1l6.6,12.5l1.6,2.3
					c0.5,0.8,1,1.5,1.5,2.3l3,4.6c2,3.1,4.1,6.2,6.1,9.3c-2.4-5.9-4.7-11.7-7.1-17.5c-2.6-5.8-5.3-11.6-8-17.3
					c-1.3-2.9-2.8-5.7-4.3-8.5l-4.5-8.5l-2.3-4.2l-1.1-2.1l-1.2-2.1c-1.7-2.8-3.3-5.5-5-8.3c-1.7-2.7-3.3-5.5-5-8.2
					c-0.8-1.4-1.8-2.7-2.6-4l-2.7-4c-1.8-2.7-3.6-5.3-5.5-8l-2.7-4c-0.9-1.3-1.9-2.6-2.9-3.9c-3.9-5.1-7.9-10.2-11.8-15.2
					c-4.2-4.9-8.4-9.7-12.7-14.5c-17.3-18.9-36.4-35.7-56-49.9c-19.7-14.3-40-26.1-60.3-35.8c-4-1.9-8.6-3.8-13.4-5.8
					c-1.2-0.5-2.4-1-3.7-1.5c-1.2-0.5-2.5-0.9-3.8-1.4c-2.5-0.9-5.1-1.9-7.6-2.9c-2.5-1-5.1-1.9-7.6-2.9c-2.5-0.9-5-1.8-7.3-2.7
					c-4.8-1.8-9.2-3.8-13-5.5c-18.2-8.5-36.4-15.4-54.4-21.7c-9-3.2-18-5.9-26.9-8.7c-4.5-1.3-8.9-2.6-13.4-3.9l-3.3-1l-3.3-0.9
					c-2.2-0.6-4.4-1.2-6.7-1.8c-35.5-9.5-70.9-16.7-106.4-22.4c33.7,6.4,67.6,14.2,102,23.7C3277.9,93.3,3278.9,93.5,3279.8,93.8z"
					/>
			</g>
		</g>
	</g>
</g>
<g class="st3">
	<g>
		<g>
			<g>
				<path class="st1" d="M3414.1,1497.1c2-4.6,4-8.9,4-8.9c-0.5-0.2-1.1-0.4-1.7-0.6C3415.6,1491.1,3414.8,1494.2,3414.1,1497.1z"/>
				<path class="st1" d="M3429.5,1514.5c0.4-0.9,0.8-1.9,1.3-2.8c-0.6,0.1-1,0-1.5,0C3429.4,1512.5,3429.5,1513.4,3429.5,1514.5z"/>
				<path class="st1" d="M3416.4,1487.6c-6.2-1.9-13.7-0.9-17.6-8c2.2-4.9,6.5-14.6,8.7-19.5c-1.1-6.3-6.5-2.8-9.7-4.2
					c2.2-4.8,4.3-9.7,2.7-10.4c-1.4-2.6-3.4-2.7-5.7-1.2c-2.3,1.5-4.9,4.7-7.5,9.2c4.4,14.3,2.2,35.6,3.7,47
					C3392.5,1511.9,3397.5,1513.3,3416.4,1487.6z"/>
				<path class="st1" d="M3411.7,1532.7c4-8.6,7.7-17.3,11.6-25.9c-2.5-4.4-4.5-9.7-9.4-8.7
					C3410.7,1512.6,3410.2,1522.3,3411.7,1532.7z"/>
				<path class="st1" d="M1986.3,3210.7c0.7,0.8,0.7,1.6-4,3.6C1983.7,3213,1985,3211.8,1986.3,3210.7c-0.6-0.8-1.8-1.7-0.4-3.8
					c-13,14.1-28.5,30.2-44.4,44.9c-0.9,3.3-1.7,6.5-2.3,9.5c39.5-36.1,79.7-71.5,106.4-107.5
					C2022.4,3174.3,2008.4,3190.7,1986.3,3210.7z"/>
				<path class="st1" d="M1943.1,3272c-1.4,1.2-2.7,2.4-4,3.7C1943.8,3273.6,1943.8,3272.9,1943.1,3272z"/>
				<path class="st1" d="M2615.5,2597.1c11.1-12.1,20.4-24.6,29-37c8.6-12.4,16.5-24.9,24.5-37.3c-9.8,11.9-19.8,23.8-29.8,35.6
					c-5,5.9-9.9,11.7-14.8,17.5c-4.9,5.8-9.8,11.4-14.6,17c-19.3,22.3-37,43.7-51.5,62.6c4.8-4.8,9.5-9.7,14.3-14.5
					c4.7-4.9,9.5-9.7,14.2-14.6C2596.3,2616.5,2605.9,2606.8,2615.5,2597.1z"/>
				<path class="st1" d="M2750.5,2401.7c-14.9,13.7-27.1,27.4-37.8,41.1c-2.7,3.4-5.2,6.8-7.7,10.3c-2.5,3.4-5,6.8-7.4,10.2
					c-4.8,6.8-9.3,13.6-13.7,20.4c5.3-6.1,10.5-12.3,15.8-18.4c2.6-3.1,5.3-6.1,7.9-9.2c2.6-3.1,5.2-6.2,7.8-9.2
					c10.4-12.3,20.7-24.5,31-36.7C2747.7,2407.4,2749.3,2404.5,2750.5,2401.7z"/>
				<path class="st1" d="M2728.3,2442.1c-6.3,6.8-12,13.6-17.4,20.3c-5.5,6.7-10.5,13.4-15.3,20.1c-9.6,13.4-18.1,26.9-26.5,40.3
					c11-13.6,21.6-27.3,31.7-40.7c5-6.7,9.9-13.4,14.5-20.1C2719.8,2455.3,2724.1,2448.6,2728.3,2442.1z"/>
				<path class="st1" d="M2310.5,3074.6c-15,20.4-24.6,32.1-30.6,38.2c-1.2,4.3-2.9,9.9-5.4,17.3c1.1-1,2.2-2,3.3-2.9
					c16.9-19.4,34.2-39,51.9-58.6c6.5-8.9,12.4-17.5,16.8-25.4C2334.4,3053.6,2322.3,3064,2310.5,3074.6z"/>
				<path class="st1" d="M2279.9,3112.8C2289.8,3075.7,2256.6,3136.7,2279.9,3112.8L2279.9,3112.8z"/>
				<path class="st1" d="M2323.8,2923.7c0.9-0.8,1.8-1.7,2.8-2.6c2.4-2.7,4.8-5.6,7.2-8.3
					C2330.4,2916.5,2327.2,2920.1,2323.8,2923.7z"/>
				<path class="st1" d="M2579.7,2750.2c-15.1,15.6-29.8,31.6-44,47.7c15.2-16,30.4-32.1,44.7-47.8c14.2-15.9,27.4-31.4,38.6-46.2
					c-3.9,3.8-9.1,6.5-13,10.3C2600.8,2724.5,2591.5,2738.6,2579.7,2750.2z"/>
				<path class="st1" d="M2208.4,3050.5c5.2-5.4,10.3-10.8,15.4-16.1c5.1-5.4,10.2-10.8,15.2-16.2c10.1-10.8,20.1-21.6,29.9-32.4
					c19.7-21.6,38.8-43.2,57.6-64.6c84-78.1,161.4-157.4,221.9-237.2c6.5-8.9,14-18.3,22-28.2c4-4.9,8.3-9.9,12.6-15.1
					c4.3-5.2,8.7-10.4,13.3-15.7c9.1-10.6,18.6-21.6,28.2-32.7c4.9-5.5,9.6-11.2,14.5-16.9c4.8-5.7,9.6-11.4,14.5-17.2
					c4.8-5.7,9.6-11.5,14.3-17.3c4.7-5.8,9.4-11.5,13.9-17.3c9.1-11.6,17.8-23.2,26-34.6c4.1-5.7,8-11.4,11.8-17
					c3.7-5.6,7.2-11.2,10.5-16.8c6.6-11,12.4-21.8,17.2-32.1c-6.9,6.3-13.2,12.6-19,18.9c6.8-10.9,12.9-21.6,18.1-31.9
					c2.9-3.4,5.8-6.8,8.6-10.2c2.8-3.4,5.7-6.9,8.5-10.3c5.7-6.8,11.3-13.7,17-20.5c5.7-6.8,11.3-13.6,17-20.4l4.3-5.1l4.2-5.2
					l8.4-10.3c11.2-13.7,22.4-27.3,33.5-41c11-13.8,22-27.5,33.1-41.3c43.9-55.3,87.9-110.9,131.1-168.6c3.2-4.3,6-8.4,8.5-12.6
					c2.5-4.2,4.9-8.3,7.1-12.4c4.4-8.3,8.9-16.7,15.2-25.3c6.2-8.8,12.4-17.5,18.6-26.2c3.1-4.3,6-8.8,9-13.1
					c3-4.4,5.9-8.8,8.9-13.2c-0.3-0.3-0.8-0.3-1.4,0c48.7-72.9,92.9-147,133.7-227.4c9.8-18.7,20.3-37,31-55.2l2-3.4
					c0.7-1.1,1.3-2.3,1.9-3.4l3.9-6.9l7.7-13.8c5.1-9.2,10.3-18.4,15.3-27.6c7.6-13.9,13.7-10.7,20.1-19.2
					c13.5-16.8,25.5-31.5,37.1-47.1c11.2-15.9,22.2-32.7,34.1-53.5c0,0,3.2,1.5,4.8,2.2c2.7-6.8,5.3-12.9,8.1-17.5
					c1.1,3.6,1.8,7.7,2.2,11.9c0.4,4.2,0.4,8.6,0.4,12.8c0,8.5-0.4,16.7,0.1,22.4c1.1,11.4,6.1,12.9,25.8-12.4c0,0,0,0,0.1,0
					c-1,3.4-1.8,6.4-2.6,9.4c-0.2,0.3-0.3,0.6-0.5,0.9c0.1,0,0.1,0,0.2,0c-3.7,14.5-4.5,24.1-3.1,34.6c4.1-8.6,8.2-17.1,12.3-25.7
					c1.5,2.7,3.2,4.8,5.8,5c0.1,0.9,0.2,1.8,0.2,2.9c-1.8,3.8-3.4,7-3.4,7c0.6,1.8,1.4,3.3,2.3,4.6c-1,6.5-2.6,13.6-4.3,20.7
					c-0.9,3.5-1.7,7.1-2.5,10.5c-0.4,1.7-0.8,3.4-1.2,5c-0.4,1.6-0.8,3.2-1.2,4.7c-2.9,12-4.1,20.4,0.9,18.7c3-1.8,5.9-7.1,8.9-14.5
					c1.6-3.7,3-7.9,4.6-12.4c1.5-4.5,3.2-9.4,4.9-14.3c1.1-0.8,2.3-1.9,3.4-3c-10.3,25.5,11.1,5.4,5.5,21c-4.7,10-9.4,20-14,30
					c-4.6,10-9.2,20-14.3,29.9c-2.5,5-5.1,10-7.6,14.9c-1.2,2.5-2.5,4.9-3.8,7.3c-1.3,2.4-2.6,4.8-3.9,7.2
					c-5.1,9.6-10.1,19-15.1,28.3c-4.9,9.3-9.8,18.6-14.6,27.8c-5,9.1-9.9,18.1-14.8,27.2c-9.8,18.1-19.2,36.4-29.5,54.7
					c-5,9.2-10.1,18.5-15.2,27.9c-5.1,9.4-10.1,19.1-15.6,28.7c-1.9,3.4-3.8,6.8-5.7,10.1c-5.3,9.3-10.6,18.5-16,27.5
					c-5.4,9-10.7,17.9-16.5,26.5c-11.4,17.3-23,34.3-35.3,51.3c0.5-2.9,1.1-5.9,1.8-8.9c-2.5,3.4-4.9,6.9-7.4,10.3l-7.5,10.2
					c-5,6.8-9.9,13.7-14.7,20.6c-9.6,13.8-18.7,28.1-27.7,42.4c-42.6,71.3-88,141.2-142.8,210.8c-57.8,72.5-113.7,142.1-173,215.5
					l8.7-11.6l4.4-5.8l4.3-5.8c5.8-7.8,11.6-15.5,17.5-23.2c11.8-15.4,24-30.6,36.4-45.9c11.8-13.2,23.4-26.4,34.4-39.6
					c-12.1,13-23.5,26.2-34.4,39.6c-2.8,3.2-5.7,6.4-8.5,9.5l-4.3,4.8l-4.3,4.7c-5.8,6.3-11.5,12.6-17.2,18.9
					c-5.7,6.3-11.3,12.6-16.8,18.9c-5.5,6.3-10.8,12.6-16.1,18.8c-10.5,12.4-20.3,24.9-28.9,37.3c-4.3,6.2-8.3,12.5-12,18.7
					c-3.7,6.2-7.2,12.3-10.2,18.5c-5,3.1-6.3,1.9-10,5.9c-6.7,7-13.4,14-20,20.9c-3.3,3.5-6.6,6.9-9.9,10.4
					c-3.3,3.4-6.5,6.8-9.7,10.2c-12.7,13.7-24.2,27.5-33.2,41.8c0.6,0.6-2,3.9-3.9,6.9c-2,2.9-3.3,5.5-0.1,4.8
					c-11.1,12.4-23.4,25.5-35.6,38.7c-6.1,6.6-12.1,13.3-18,19.8c-5.9,6.6-11.6,13.1-16.9,19.5c-9.4,10.9-17.2,23.4-24.5,36.4
					c-78.3,89.7-157.4,176.9-245.8,269.6c-11.1,11.4-23.5,23.1-36,34.7c-12.5,11.6-25.2,23.2-37.2,33.9c15.6-18,31.5-36.1,47.8-54.1
					c16.3-18.1,32.8-36.4,49.5-54.7c36.2-31.5,69.9-62.7,91.2-95.3c5.3-7.2,10.6-14.4,16-21.5c-18.1,19.7-36.1,39.3-54,58.7
					c-9,9.7-17.9,19.4-26.8,29.1c-8.9,9.7-17.7,19.3-26.5,28.9c-10.7,9.2-21.6,18.6-32.4,27.9c-5.4,4.7-10.8,9.4-16.2,14.1
					c-5.4,4.7-10.7,9.4-16,14.2c0.3-0.5,0.6-0.9,1-1.4c15-16.6,30.1-33.4,45.5-50.1c8-7,16-13.9,23.7-20.9c7.7-7,15.1-14,22.2-21
					s13.9-14,20.2-21.1c3.2-3.5,6.2-7.1,9.2-10.6c2.9-3.6,5.7-7.1,8.4-10.7c2.7-3.6,5.2-7.2,7.6-10.8c5.2-7.2,10.6-14.4,16-21.5
					c-11.1,12.1-22.2,24.2-33.3,36.3c-11.1,12-22.2,24-33.2,35.9c-13.6,14.8-27.3,29.6-40.8,44.3c-9.5,8.2-19.1,16.4-28.7,24.7
					c0.7-1.2,1.4-2.5,2-3.7c7-8.8,15.8-44.8,0-37.6c-7.8,7.2-15.9,14.8-24.1,22.7c-8.2,7.8-16.6,15.8-24.8,23.9
					c-16.5,16-32.7,32.1-47.1,46.2c-14.3,14.1-26.8,26.4-35.7,35.2c-8.9,8.7-14.3,13.8-14.6,13.4c-2.2-0.4,2.6-7.1,10.8-17
					c8.2-9.9,20-22.9,31.8-35.8c11.9-12.9,23.7-25.8,32.4-35.2c8.6-9.4,14-15.5,12.7-14.9c-6.5,4.9-13,9.8-19.4,14.8
					c4.8-6.2,9.4-12.4,13.4-18.3c11-12.3,28.5-25.8,34.2-35.8c10.6-16.9,24.6-32,39.4-47.4c14.7-15.4,30.2-31,43.9-48.4
					c4.2-5.6,8.4-11.6,12.8-17.8c4.4-6.2,8.9-12.7,13.6-19.2c4.6-6.6,9.3-13.3,14.1-20.2c4.7-6.8,9.5-13.7,14.3-20.7
					c-2.4-2.6,10.7-12.6,4.3-11.4c11.2-10.7,23.2-22.1,32.8-33c2.4-2.7,4.6-5.4,6.7-8c2-2.6,3.8-5.2,5.4-7.7c3.1-5,5.1-9.7,5.7-13.8
					c0.5-0.6,0.9-1.2,1.4-1.8c1.6-1.5,3.4-4.1,5.2-7c9.5-8.6,17.9-17.1,25.4-25.5c7.6-8.4,14.3-16.9,20.7-25.4
					c6.5-8.5,12.6-17.1,18.9-26c3.2-4.4,6.4-8.9,9.6-13.4c3.2-4.6,6.6-9.2,10.1-13.9c10.6-12,21.6-23.9,33.4-35.8
					c-7.7,7.7-20.4,18.1-26.9,27.1c-2.2,2.9-4.4,5.8-6.5,8.7c-3.4,3.9-6.8,7.8-10.2,11.6c-3.4,3.9-6.7,7.7-10,11.6
					c-6.6,7.7-13.1,15.4-19.5,23.1c-6.4,7.7-12.8,15.4-19.1,23.1c-6.4,7.6-12.8,15.2-19.2,22.7c-1.6,3-4.1,7.8-6.8,12
					c-2.1,1.9-4.2,3.8-6.4,5.7c0,1-0.1,2-0.2,3c-5.9,7.5-12.1,15.1-18.6,22.5c-6.4,7.5-13,14.9-19.4,22.2s-12.7,14.5-18.7,21.5
					c-3,3.5-5.8,7-8.6,10.3c-2.8,3.4-5.4,6.7-7.9,9.9c-20.1,23-42.4,45.1-65.7,66.3c-11.6,10.7-23.4,21.2-35.2,31.6
					c-11.8,10.4-23.6,20.7-35.3,30.9c10.4-11.5,20.6-22.9,30.8-34.4c10.1-11.4,20-22.9,29.8-34.3c-12.7,13.8-25,27.2-37,40.4
					c-12.1,13.1-23.8,26-35.3,38.8c-3.9,3.5-7.8,7-11.7,10.5l-24.4,22.1c8.1-6.3,16-12.7,23.9-19c-13.8,15.2-27.3,30.3-40.5,45.4
					c-76.1,79.7-158.3,157.9-243.6,229.2c0.2-3,0.7-6.3,1.4-9.7c39.5-36.2,79.7-71.6,106.3-107.7c-23.2,20.5-37.1,37-59.3,57
					c-0.6-0.8-1.8-1.7-0.4-3.8c-13,14.1-28.5,30.3-44.4,45c2.2-8,5.1-16.5,7.9-25c5.9-9.9,18.2-20.7,29.4-32.9
					c51.3-49.3,102-93,151.2-142.8c46.9-41,93.3-82.3,138.1-123.8c-10.3,11.2-20.4,22.1-30.4,32.9c-9.9,10.8-19.6,21.4-29.2,31.9
					C2244.9,3009.4,2226.5,3030,2208.4,3050.5z M3348.8,1636.1c-1.9,5.3-3.7,10.7-5.5,16.3c0.8-0.6,1.5-1.2,2.3-1.7
					C3348,1646,3348.9,1640.6,3348.8,1636.1z M3287.1,1745.9c5.3-7.6,10.5-16.1,15.8-25.3c5-9.2,10-19.1,15-29.3
					c5-10.2,10-20.8,14.9-31.4c2.6-5.3,4.8-10.8,7.2-16.2c2.4-5.4,4.7-10.8,7.1-16.2c-0.3-0.5-0.6-0.8-1-1
					c-4.8,8.6-9.6,17.8-14.3,27.5c-5,9.6-9.9,19.6-14.8,29.9c-4.9,10.2-9.8,20.7-14.6,31.2l-1.8,3.9l-1.9,3.9
					c-1.3,2.6-2.6,5.2-3.8,7.7C3292.1,1735.8,3289.6,1740.9,3287.1,1745.9z M3179.7,1852.9c0.3-0.1,0.6-0.3,1-0.4
					c-0.2-0.1-0.5-0.2-0.7-0.4C3179.9,1852.3,3179.8,1852.6,3179.7,1852.9z M2823.7,2407.6c5.6-9.6,12.2-19.3,19.2-29.1
					c7-9.9,14.5-20,22.4-30.3c4-5.1,8-10.3,12.1-15.5c2-2.6,4.1-5.2,6.2-7.8c2.1-2.6,4.1-5.2,6.2-7.9c8.2-10.6,16.4-21.4,24.5-32.4
					c5.3-6.2,9.2-13.6,13.5-21.4c4.3-7.9,8.9-16.4,15.8-24.7c7.9-11,13.7-20.3,19.1-28.9c2.7-4.3,5.3-8.5,8-12.8
					c2.6-4.3,5.3-8.6,8.3-13.1l-12.8,10.5c12.4-14.3,19.9-27.3,27.5-40.2c3.8-6.4,7.7-12.8,12.2-19.3c4.4-6.6,9.5-13.3,15.9-20.2
					c-1.4-1.1-0.9-7.5,2.3-11.8c7.4-11.2,16-21.6,23.8-31.7c7.7-10.2,14.9-20,19.8-29.7c3.6-5.7,7.3-11.3,11-16.8
					c1.8-2.8,3.7-5.5,5.5-8.2c0.9-1.4,1.8-2.7,2.7-4.1c0.9-1.4,1.7-2.7,2.6-4.1c6.8-10.8,13-21.2,17.7-31c3.1-4.4,4.9-16.2,9.6-26
					l2.6-4.2l2.5-4.2l5.1-8.4c3.4-5.6,6.8-11.1,10.3-16.7c-0.7,0.2-1.4,0.4-2.1,0.5c-6,8.8-11.8,17.8-16.8,27.4
					c-7.7,14.2-16.3,29.4-25,44.5c-2.2,3.8-4.4,7.6-6.6,11.3c-2.2,3.7-4.4,7.5-6.7,11.1c-4.5,7.3-9,14.4-13.4,21.1
					c-5.6,8.4-11.1,16.7-16.5,25.1c-2.7,4.2-5.4,8.3-8.1,12.5c-2.7,4.1-5.5,8.2-8.2,12.3c-10.8,16.3-21.4,32.6-31.8,48.8
					c-10.7,16-21.2,32-31.6,47.9c-2.6,4-5.2,8-7.8,12c-2.7,3.9-5.3,7.9-8,11.8c-5.3,7.9-10.6,15.7-15.9,23.6
					c-4.5,6.8-8.6,13.9-12.7,21.1l-3.1,5.3c-1,1.8-2.1,3.5-3.2,5.3c-2.2,3.5-4.4,6.9-6.6,10.3c-6.5,10.4-13.9,21-21.5,31.6
					c-3.8,5.3-7.6,10.6-11.5,15.8c-3.9,5.2-7.7,10.3-11.5,15.3c-7.5,10.1-14.5,19.9-20.5,29.3c-3,4.7-5.7,9.2-8,13.6
					c-2.3,4.4-4.4,8.6-6,12.7C2832,2393.1,2824.7,2401.2,2823.7,2407.6z M2839.1,2504.3c4.2-6,8.6-12,13-18
					c4.4-6.1,8.8-12.2,13.4-18.2c9.1-12.1,18.5-24.2,28-36c4.7-5.9,9.5-11.8,14.2-17.6c4.7-5.8,9.5-11.5,14.2-17.1
					c4.7-5.6,9.5-11.1,14.2-16.4c4.7-5.3,9.4-10.6,14-15.7c7.1-8.4,17.1-21.3,27.6-35.7c2.6-3.6,5.3-7.3,7.9-11.1
					c2.6-3.8,5.3-7.6,7.8-11.5c5.1-7.8,10-15.6,14.4-23.1c8.9-15,15.9-28.8,18.8-38.6c2.8-9.9,1.5-15.7-6-14.7
					c-0.1,2.1-0.4,4.3-1,6.7c-0.5,2.4-1.3,4.8-2.2,7.4c-1.9,5.2-4.5,10.9-7.8,17c-6.5,12.2-15.5,26.1-25.9,40.9
					c-21.4,29.2-48.6,62-74.7,91.9c-6.5,7.5-12.8,14.9-19,22.1c-6.1,7.1-12.2,13.9-17.7,20.5c-11.2,13.1-20.9,25-28,35
					c-3.6,5-6.6,9.5-8.8,13.5c-2.2,4-3.7,7.4-4.3,10.2C2829.7,2501.4,2832.1,2504.4,2839.1,2504.3z M2538.7,2855.2
					c3.7-4.5,7.4-8.9,11.1-13.4c3.7-4.4,7.5-8.8,11.4-13.3c7.8-8.9,16.1-17.8,25.5-27c-8,9-16,17.9-23.9,26.9l-6,6.7l-6,6.7
					L2538.7,2855.2z M2655.7,2639.7c-10.4,14.8-21.4,29.4-32.9,43.9c-11.6,14.3-23.7,28.5-35.8,42.5c-6.1,7-12.2,14.1-18.4,20.9
					c-6.2,6.9-12.3,13.8-18.5,20.7c-6.1,6.9-12.2,13.7-18.2,20.6c-6,6.9-11.9,13.7-17.8,20.5c-36.1,41.8-86,76.8-113.9,119.4
					c1.2,1.3,2.4,2.6,3.6,3.9l2.8-5c14.9-12.3,28.1-20.9,40.9-30.9c-0.6,0.7-1.2,1.5-1.7,2.3c1.1-1.2,2.2-2.4,3.4-3.5
					c8.5-6.7,16.8-14.2,25.3-24.1c3.7-4.7,7.6-9.4,11.4-14.2c11.9-12.4,23.9-25,35.9-37.5c3-3.1,5.9-6.3,8.9-9.4
					c2.9-3.2,5.9-6.4,8.8-9.5c5.8-6.4,11.6-12.7,17.3-19.1s11.3-12.8,16.8-19.2c2.7-3.2,5.5-6.4,8.2-9.6c2.7-3.2,5.3-6.5,7.9-9.7
					c10.4-12.9,20.3-25.8,29.4-38.7c3-3.8,5.8-7.7,8.6-11.5c2.8-3.8,5.4-7.7,8-11.5c5.2-7.6,10.3-15.2,15.3-22.8
					c10-15.2,20.2-30.2,31.6-45.9c-3.8,3.9-8.9,8.5-13.8,13.3C2663.8,2630.3,2658.9,2635.2,2655.7,2639.7z"/>
				<path class="st1" d="M2286.2,2985.8c-16.1,17.5-32.4,35-49,52.4c-12.3,14-24.5,28-36.5,42.2c-59.3,65.7-138.4,131.4-206.6,196.9
					c1.3,5.7,4.6,9.9,10.7,11.8c80.8-63.4,151.6-138.4,230-204.8c0.5-0.7,1-1.3,1.4-2c12.9-18.5,33-39.2,54.4-60.6
					c5.3-5.4,10.8-10.7,16.1-16.2c5.4-5.5,10.7-10.9,15.9-16.4c10.4-11,20.3-22,29-32.8c16.6-22.5,34.3-43.7,52.2-64.7
					c8.9-10.6,17.8-21.1,26.6-31.8c4.4-5.3,8.8-10.7,13.1-16c4.3-5.4,8.6-10.8,12.8-16.3C2398.7,2881.8,2346,2935.7,2286.2,2985.8z"
					/>
				<path class="st1" d="M2683.9,2483.6c-6.9,8-13.8,16.1-20.7,24.2c-3.4,4.1-7,8.1-10.5,12.1c-3.5,4-7.1,8.1-10.6,12.1
					c-9.7,11.4-19,22.6-28,33.7c-9.1,11-18.1,21.7-26.9,32.5c-8.8,10.7-17.3,21.4-25.9,32c-8.6,10.6-17.2,21.2-25.8,31.9
					c7-7.2,13.9-14.3,20.9-21.5c3.5-3.6,7-7.2,10.5-10.7c3.5-3.6,7-7.2,10.4-10.8c14-14.4,28.1-28.8,42.3-43.2
					c13.4-15.2,24.5-30.5,34.8-45.8c2.6-3.8,5.1-7.7,7.6-11.5c2.5-3.8,4.9-7.7,7.3-11.6C2674.1,2499.1,2678.9,2491.4,2683.9,2483.6z
					"/>
				<path class="st1" d="M2507.7,2696.8c9.5-11.7,18.6-23.3,27.8-34.8c-20.5,21.4-41.2,42.4-61.6,63.7
					c-10.2,10.6-20.5,21.1-30.8,31.7c-10.3,10.6-20.5,21.1-30.8,31.6c-65.3,71.6-132.5,141.7-198.3,213.6
					c-7.5,8.1-15.2,16-22.8,23.7c67.8-59.6,135.1-119.6,197-180.3c7.7-7.6,15.4-15.2,22.9-22.8c7.6-7.6,15.1-15.1,22.4-22.8
					c14.7-15.3,29-30.5,42.9-45.8c13.8-15.3,27.1-30.7,39.9-46c3.2-3.8,6.4-7.7,9.5-11.5c3.1-3.8,6.2-7.7,9.2-11.6
					c6.1-7.7,12-15.4,17.8-23.1c1.7-2.3,3.6-4.8,5.4-7.2c-25.3,26-50.5,51.9-75.6,77.7c-12.5,13-25.1,25.8-37.7,38.6
					c-12.6,12.8-25,25.8-37.7,38.5c4.3-4.7,8.6-9.3,12.8-14l12.7-14.1l25.3-28.2c4.2-4.7,8.4-9.4,12.5-14.2l12.4-14.3
					C2491.3,2716,2499.5,2706.4,2507.7,2696.8z"/>
				<path class="st1" d="M2301.7,2968.9c-4,3.5-7.9,7-11.8,10.5c-4.1,4.6-8.2,9.1-12.2,13.5c2.8-2.4,5.7-4.7,8.5-7
					C2291.4,2980.2,2296.6,2974.5,2301.7,2968.9z"/>
				<path class="st1" d="M2447.5,2896.1c0.5-0.4,1.1-0.8,1.6-1.3c6-6.3,12.1-12.7,18.2-19c6.1-6.4,12.3-12.7,18.5-19.2
					c7.8-9.6,15.9-19.4,24.2-29.2c4.2-4.9,8.4-9.8,12.7-14.7c4.3-4.9,8.6-9.8,13-14.8C2502.8,2832.3,2470.1,2866.3,2447.5,2896.1z"
					/>
				<path class="st1" d="M2587.4,2821.2c4-3.9,11.9-11.5,15.9-15.4c1.7-3.1,3.3-6.2,5-9.3c-3.8,3.5-7.6,7.1-11.5,10.6L2587.4,2821.2
					z"/>
				<path class="st1" d="M2796.8,2569.1c-62.2,76-121.8,146.5-181.8,215.4c-2.3,4-4.5,8-6.7,12.1l8.3-7.9c2.7-2.7,5.5-5.3,8.2-8
					c5.4-5.3,10.8-10.7,16.2-16.1c10.6-10.8,21.1-21.8,31.1-32.9c9.9-11.2,19.5-22.5,28.7-33.9c9.1-11.4,17.9-22.9,25.9-34.8
					c6.4-9.2,14.2-24.8,21.9-32.7c4.4-4.8,8.7-9.7,13-14.6c4.3-4.9,8.4-9.8,12.5-14.8c8.2-9.9,16.2-19.8,24.1-29.7
					c3.9-5,7.8-9.9,11.7-14.9c3.9-5,7.6-10,11.4-15c7.5-10,15-20,22.5-30c-7.5,9.3-15,18.6-22.6,27.9c-3.8,4.7-7.6,9.4-11.4,14.2
					c-3.9,4.7-7.7,9.4-11.6,14.2C2797.7,2568,2797.2,2568.5,2796.8,2569.1z"/>
			</g>
		</g>
	</g>
</g>
<g class="st3">
	<g>
		<g>
			<g>
				<path class="st1" d="M382.2,1701.3c-2.2-4.2-4.2-8.2-4.2-8.2c-0.5,0.3-1,0.6-1.5,0.9C378.6,1696.7,380.4,1699,382.2,1701.3z"/>
				<path class="st1" d="M405.1,1699.6c-0.4-0.8-0.9-1.7-1.3-2.6c-0.3,0.5-0.7,0.8-1,1.2C403.5,1698.6,404.3,1699,405.1,1699.6z"/>
				<path class="st1" d="M376.5,1694c-5.4,3.6-9.4,9.9-17.3,8.7c-2.4-4.6-7.1-13.7-9.4-18.3c-5.5-3-6.3,3.2-9.4,4.7
					c-2.4-4.6-4.7-9.2-6.3-8.4c-2.8-0.4-4.3,0.9-4.6,3.5c-0.3,2.6,0.6,6.6,2.4,11.3c13.9,5.5,28.9,20,38.5,25.7
					C379.8,1726.8,384,1723.5,376.5,1694z"/>
				<path class="st1" d="M407.7,1723.7c-4.2-7.9-8.2-15.9-12.3-23.8c-4.9-0.6-10.2-2.1-12.5,2.1C391.9,1713,398.7,1719,407.7,1723.7
					z"/>
				<path class="st1" d="M1816.3,3208.9c0.7-0.8,1.4-1,3.9,3.1C1818.8,3210.9,1817.6,3209.9,1816.3,3208.9c-0.7,0.7-1.4,2.1-3.5,1.2
					c14.9,9.4,32.1,20.7,47.9,32.7c3.2,0.2,6.3,0.2,9.3,0.2c-39-29.9-77.4-60.7-114.7-78.6C1777.5,3182.2,1794.7,3192,1816.3,3208.9
					z"/>
				<path class="st1" d="M1879.6,3237.1c1.3,1,2.6,2,4,3.1C1881,3236.1,1880.3,3236.2,1879.6,3237.1z"/>
				<path class="st1" d="M1181.7,2701.7c-11.8-9.7-23.5-18.2-35.4-26c-11.8-7.7-23.8-14.8-35.7-22c11.4,9,22.7,18.1,33.9,27.2
					c11.2,9.1,22.2,18.1,33,26.5c21.7,17,42.1,32.9,60.8,44.9c-4.8-4.1-9.5-8.3-14.3-12.4c-4.7-4.2-9.4-8.4-14.2-12.6
					C1200.5,2718.8,1191.1,2710.3,1181.7,2701.7z"/>
				<path class="st1" d="M997.1,2575.8c12.4,14.6,25.1,26.6,37.7,37.1c3.2,2.6,6.3,5.1,9.5,7.6c3.2,2.4,6.4,4.7,9.6,7
					c6.4,4.5,12.9,8.8,19.3,12.9c-5.8-5-11.5-10-17.3-15c-2.9-2.5-5.8-5-8.6-7.5c-2.8-2.5-5.7-5.1-8.5-7.6
					c-11.3-10.1-22.6-20.2-33.9-30.3C1002.4,2578.6,999.7,2577,997.1,2575.8z"/>
				<path class="st1" d="M1035,2597.7c6.2,6.1,12.4,11.8,18.7,17c6.3,5.2,12.6,9.9,19,14.4c12.7,9,25.3,16.9,38,24.7
					c-12.8-10.3-25.6-20.3-38.2-29.7c-6.3-4.7-12.7-9.2-18.9-13.7C1047.2,2605.9,1041.1,2601.7,1035,2597.7z"/>
				<path class="st1" d="M1651.6,2928.8c20.6,10.4,32.5,17.3,38.9,21.7c4.2,0.3,9.6,0.8,16.8,1.8c-1-0.8-2.1-1.7-3.1-2.5
					c-20-12.2-39.9-25-60-38c-8.9-4.5-17.6-8.5-25.4-11.3C1629.6,2910.1,1640.6,2919.6,1651.6,2928.8z"/>
				<path class="st1" d="M1690.5,2950.6C1654.5,2948.3,1715.3,2968,1690.5,2950.6L1690.5,2950.6z"/>
				<path class="st1" d="M1507.7,2942.8c-0.9-0.7-1.8-1.5-2.7-2.2c-2.8-1.8-5.7-3.7-8.5-5.6
					C1500.3,2937.6,1503.9,2940.2,1507.7,2942.8z"/>
				<path class="st1" d="M1328.5,2722.5c15.3,12.6,31,24.7,46.6,36.3c-15.6-12.6-31.4-25.2-46.7-37c-15.3-11.9-30.2-23-44.4-32.2
					c3.7,3.3,6.3,8,10,11.4C1303.8,2705.1,1317.3,2712.5,1328.5,2722.5z"/>
				<path class="st1" d="M1639,3030.1c-11.3-7.7-22.6-15.4-33.8-23.1c-11.2-7.6-22.5-15.2-33.7-22.6c-22.4-14.9-44.5-29.6-66.5-43.8
					c-81.4-67.4-161.1-130.7-239-181.3c-17.3-10.9-36.9-25-57.4-41.1c-10.3-8-20.8-16.4-31.6-24.9c-10.7-8.6-21.6-17.4-32.4-26.1
					c-5.5-4.4-10.9-8.7-16.4-13c-5.5-4.3-11-8.6-16.4-12.8c-10.9-8.5-21.7-16.6-32.4-24.3c-5.4-3.8-10.7-7.5-16-11
					c-5.3-3.5-10.4-7-15.6-10.2c-10.3-6.4-20.3-12.1-30.1-16.7c5.7,6.7,11.5,12.8,17.2,18.5c-10.2-6.7-20.2-12.6-29.9-17.7
					c-3.1-2.8-6.3-5.7-9.4-8.5l-9.3-8.6c-6.2-5.7-12.3-11.5-18.5-17.2c-6.2-5.7-12.3-11.5-18.4-17.2c-3.1-2.9-6.1-5.8-9.1-8.7
					l-9.1-8.8c-12.1-11.7-24.2-23.4-36.2-35.2c-11.9-12-23.7-24-35.5-36l-8.9-9l-4.4-4.5l-4.4-4.6c-5.8-6.2-11.6-12.3-17.4-18.5
					c-5.8-6.2-11.6-12.4-17.4-18.6c-2.9-3.1-5.8-6.2-8.7-9.3c-2.8-3.2-5.7-6.3-8.6-9.5c-11.4-12.7-22.8-25.5-34.2-38.4
					c-2.9-3.2-5.6-6.5-8.4-9.8c-2.8-3.3-5.6-6.6-8.4-9.9c-5.6-6.6-11.2-13.2-16.8-19.9c-3.3-3.9-6.7-7.4-10.1-10.7
					c-1.7-1.6-3.4-3.2-5.1-4.7c-1.7-1.6-3.4-3.1-5-4.6c-6.7-6.2-13.4-12.4-19.9-20.4c-6.7-8-13.4-16-20-23.9c-3.3-3.9-6.5-8-9.8-12
					c-3.2-4-6.5-8-9.7-12c-0.4,0.2-0.5,0.6-0.5,1.3c-54.3-65.8-106.6-131.7-160.7-202.6c-12.1-17-23.5-34.6-34.6-52.3l-2.1-3.3
					l-2-3.4l-4-6.7l-8-13.5c-5.4-9-10.7-17.9-16.2-26.8c-8.3-13.3-2.1-17.1-5.8-27c-6.7-20.3-12.4-38-18.9-55.9
					c-6.2-18.2-13.2-36.5-22.8-57.8c0,0,3.1-1.7,4.7-2.5c-4-5.9-6.8-11.7-8.7-16.6c3.5,1.3,7,3.2,10.5,5.4c3.5,2.2,7.1,4.6,10.5,7
					c6.8,4.8,13.1,9.7,17.9,12.4c9.7,5.4,13.8,2.1,5.6-27.1c0,0,0,0,0.1,0c2.1,2.6,4,4.9,5.9,7.1c0.2,0.3,0.3,0.6,0.5,0.9
					c0-0.1,0.1-0.1,0.1-0.1c9.3,10.8,16.3,16.5,25.3,21c-4.3-7.8-8.5-15.6-12.8-23.4c3,0.3,5.7,0.1,7.4-1.9c0.8,0.5,1.5,0.8,2.4,1.4
					c1.9,3.5,3.5,6.4,3.5,6.4c1.8,0.5,3.5,0.7,5,0.6c4.4,4.2,9.1,9.2,13.6,14.2c2.2,2.5,4.5,5,6.6,7.4c1.1,1.2,2.1,2.4,3.2,3.5
					c1.1,1.1,2.1,2.2,3.1,3.2c8.1,8.2,14.2,13.1,15.6,8.3c0.3-3.2-2.4-8.1-6.6-14.1c-2.1-3-4.5-6.3-7.1-9.8
					c-2.6-3.5-5.3-7.3-8.1-11.2c0-1.3-0.1-2.8-0.3-4.2c13.6,21.1,10.8-6,19.5,6.3c1.2,2.2,2.4,4.4,3.7,6.5c0.6,1.1,1.2,2.2,1.9,3.2
					l2,3.2c2.6,4.2,5.3,8.4,8,12.6c5.4,8.4,10.8,16.8,15.8,25.4c2.6,4.4,5.1,8.7,7.6,13c0.6,1.1,1.3,2.1,1.9,3.2
					c0.7,1.1,1.3,2.1,2,3.2c1.3,2.1,2.6,4.2,3.9,6.3c5.2,8.3,10.3,16.5,15.4,24.5c5.1,8.1,10.1,16,15.3,23.9
					c5.3,7.8,10.5,15.5,15.8,23.1c10.6,15.3,21.1,30.6,32.6,45.6c5.7,7.5,11.5,15.1,17.3,22.8c2.9,3.8,5.9,7.7,8.9,11.6
					c1.5,1.9,3,3.9,4.6,5.8c1.6,1.9,3.1,3.8,4.7,5.8c2.2,2.7,4.4,5.5,6.6,8.2c6.1,7.5,11.9,15,17.7,22.5c5.8,7.5,11.3,15,17,22.4
					c11.3,14.8,22.2,29.8,33,45.4c-2.4-1.2-4.8-2.5-7.2-4c2.2,3.1,4.3,6.3,6.5,9.4l6.8,9.2c4.6,6.1,9.2,12.2,13.9,18.1
					c9.5,11.9,19.1,23.7,29.9,34.7c13.1,13.4,26.2,26.8,39.4,40.3c13.4,13.3,26.7,26.6,40,40.2c26.9,26.9,53.8,54.5,81.3,83.2
					c57,60.8,115.4,116.1,179.6,171.5l-10.3-8.1l-5.1-4.1l-5-4.1c-6.7-5.5-13.4-11.1-20.1-16.7c-13.3-11.3-26.6-22.8-39.2-35.3
					c-10.9-11.6-21.8-23.1-32.8-34c10.7,11.9,21.6,23.1,32.8,34c2.6,2.8,5.2,5.6,7.9,8.4c2.6,2.8,5.2,5.6,7.9,8.4
					c5.3,5.5,10.7,11,16,16.5s10.7,10.8,16.1,16.1c2.7,2.6,5.4,5.2,8.1,7.8c1.4,1.3,2.7,2.5,4,3.8c1.4,1.2,2.7,2.5,4.1,3.7
					c11,9.8,22,18.9,33.1,26.8c5.6,4,11.1,7.7,16.7,11.1c5.6,3.3,11.3,6.3,17,8.9c2.7,4.6,1.5,5.9,5,9.3c6.3,6,12.5,12.1,18.7,18.2
					c3.1,3,6.2,6,9.3,8.9c3.1,2.9,6.3,5.8,9.4,8.6c12.6,11.2,25.3,21.3,38.5,28.9c0.6-0.6,3.6,1.6,6.3,3.2c2.7,1.6,5.2,2.7,4.5-0.3
					c11.6,9.4,23.8,20,36.2,30.5c6.2,5.2,12.4,10.4,18.6,15.3c6.2,4.9,12.5,9.6,18.6,14c10.4,7.8,22.2,13.9,34.5,19.4
					c86,63.9,172.4,125.2,266.7,192c11.5,8.5,23.7,18,35.8,27.7c12.1,9.7,24,19.5,35.3,28.7c-18.4-11.3-36.8-23-55.3-35
					c-18.5-12-36.9-24.5-55.5-37.1c-32.3-28.8-64-55.5-95.7-70.8c-7.1-3.9-14.2-7.8-21.2-11.9c9.8,7.1,19.5,14.1,29.3,21.1
					c9.8,7,19.4,14,29.2,20.9c9.8,6.9,19.5,13.7,29.2,20.5c9.7,6.8,19.4,13.5,29.2,20.1c9.6,8.5,19.2,17.1,28.9,25.7
					c4.9,4.3,9.7,8.6,14.6,12.8c4.9,4.2,9.8,8.4,14.8,12.5c-0.5-0.2-0.9-0.4-1.4-0.7c-17.1-11.1-34-22.5-51-34
					c-7.2-6.4-14.4-12.7-21.6-18.7c-7.1-6.1-14.2-12-21.3-17.6s-14.2-10.8-21.3-15.7c-3.5-2.4-7.1-4.7-10.6-6.9
					c-3.5-2.2-7-4.3-10.6-6.3c-3.5-2-7.1-3.9-10.6-5.5c-7.1-3.9-14.2-7.8-21.2-11.9c12.1,8.7,24.1,17.4,36.1,26.1
					c12.1,8.6,24.1,17.1,36.2,25.5c7.5,5.2,14.9,10.4,22.4,15.7c7.5,5.1,15,10.3,22.5,15.4c8.5,7.5,17,15.2,25.6,22.8
					c-1.2-0.4-2.5-0.9-3.6-1.3c-8.8-5.1-43.5-7.1-35.4,6.6c7.4,6.1,15.3,12.5,23.4,18.9c8.1,6.4,16.5,12.8,24.8,19.2
					c16.7,12.7,33.3,25.1,48.2,36c14.8,10.9,27.7,20.3,36.8,27c9.1,6.8,14.5,10.8,14.2,11.2c-0.1,2.1-7-1-17.2-6.9
					c-10.2-5.9-23.7-14.5-37.1-23.2c-6.7-4.4-13.4-8.8-19.6-12.9c-6.2-4.1-11.9-8-16.8-11.2c-9.7-6.4-16-10.4-15.3-9.3
					c5.2,5.3,10.5,10.5,15.8,15.7c-6.3-3.4-12.6-6.6-18.5-9.3c-12.7-8.2-27.1-22.3-37-26c-16.8-7.2-32.4-17.8-48.2-29.3
					c-15.7-11.5-31.6-23.8-49.2-34c-11.3-6.1-23.8-12.7-36.9-19.6c-13.1-6.8-26.8-14-40.6-21.1c-2.3,2.7-12.6-8.6-11.1-2.6
					c-10.7-9.3-22.3-19.3-33.1-27.1c-5.4-3.9-10.7-7.2-15.5-9.6c-4.9-2.4-9.4-3.8-13.4-3.9c-0.6-0.4-1.2-0.8-1.7-1.2
					c-1.5-1.3-4-2.8-6.8-4.2c-8.6-8.2-16.9-15.2-25.2-21.5c-8.3-6.3-16.5-12.1-24.8-17.4c-8.3-5.4-16.6-10.5-25.2-15.7
					c-4.3-2.6-8.6-5.3-13-8c-4.4-2.8-8.8-5.6-13.3-8.7c-11.5-9.3-23-19.1-34.4-29.5c7.4,6.8,17.4,18.4,26.1,23.9
					c2.8,1.9,5.6,3.8,8.3,5.6c14.8,12.2,30,23.2,45,34.2c7.5,5.4,15,10.8,22.5,16.2c7.5,5.3,15,10.6,22.4,15.9
					c2.9,1.2,7.6,3.1,11.7,5.2c1.9,1.8,3.8,3.6,5.7,5.5c1-0.1,1.9-0.2,2.9-0.2c7.4,4.8,14.7,10,22.2,15.2
					c7.5,5.2,14.9,10.5,22.2,15.7c7.3,5.2,14.5,10.3,21.5,15c3.5,2.4,6.9,4.7,10.3,6.8c3.4,2.2,6.7,4.2,9.9,6.1
					c23.2,15.8,45.5,34,67.6,52.7c11,9.4,21.9,18.9,32.8,28.5c10.9,9.5,21.7,18.9,32.5,28.3c-11.8-7.9-23.6-15.7-35.3-23.4
					c-11.7-7.7-23.3-15.4-34.9-22.9c7.1,4.9,14,9.8,20.9,14.6c3.4,2.4,6.9,4.8,10.3,7.2c3.4,2.3,6.8,4.7,10.2,7
					c13.5,9.3,26.8,18.2,39.9,27c3.7,3.2,7.3,6.2,11.1,9.3l23.3,19.2c-6.8-6.6-13.6-12.9-20.4-19.2c15.8,10.4,31.4,20.5,47,30.3
					c83,57.5,166.7,119.3,244.5,185.2c-2.9,0.4-6,0.7-9.3,0.7c-39-29.9-77.3-60.7-114.5-78.6c22.1,17.8,39.3,27.7,60.9,44.6
					c-0.7,0.8-1.4,2.1-3.5,1.1c14.9,9.4,32,20.7,47.9,32.7c-7.8-0.4-16.2-1.4-24.6-2.3c-10.1-3.6-21.8-13-34.7-21.1
					c-52.8-38.5-100.1-77.8-152.5-115.2c-44-36.7-87.6-73.7-130.9-109.5c11.5,7.9,22.8,15.7,33.9,23.4c11.1,7.6,22.1,15.1,33,22.3
					C1596.4,3002.9,1617.6,3016.8,1639,3030.1z M453.9,1828.3c3.3,4.2,6.7,8.4,10.2,12.6c-0.1-0.9-0.1-1.8-0.2-2.7
					C461.6,1833.9,457.7,1830.5,453.9,1828.3z M515.1,1930.9c-4.1-7.8-9-15.9-14.4-24.2c-5.2-8.5-10.9-17.2-17-26.1
					c-6-8.9-12.4-18-18.9-27.1c-3.3-4.5-6.3-9.3-9.5-13.9c-3.1-4.7-6.3-9.3-9.4-14c-0.5,0-1,0.1-1.4,0.3c4.4,8.3,9.3,16.9,14.7,25.7
					c5.6,8.6,11.5,17.5,17.7,26.4c6.1,8.9,12.5,17.8,18.8,26.8l2.4,3.3l2.4,3.3c1.6,2.2,3.3,4.4,4.9,6.6
					C508.8,1922.2,512,1926.6,515.1,1930.9z M563.9,2068c0-0.3,0-0.7,0-1c-0.2,0.2-0.4,0.4-0.6,0.5
					C563.5,2067.7,563.7,2067.8,563.9,2068z M1008.8,2504.8c-8.7-5.7-17.4-12.1-26.2-19.2c-8.7-7.2-17.5-15-26.4-23.1
					c-4.4-4.1-8.9-8.2-13.4-12.4c-4.5-4.2-9.1-8.4-13.5-12.8c-9-8.7-18.1-17.5-27.4-26.2c-5.2-5.6-11.7-9.9-18.6-14.8
					c-6.9-4.9-14.1-10.3-20.9-17.9c-9.2-8.8-17-15.5-24.3-21.7c-3.7-3.1-7.3-6.1-10.8-9.2c-3.5-3.1-7.1-6.4-10.8-9.9l7.4,13.9
					c-11.1-14-22-23.1-32.7-32.4c-5.4-4.6-10.7-9.3-16-14.7c-5.2-5.4-10.3-11.5-15.4-19c-1.3,1.1-7.3-0.5-10.6-4.4
					c-8.9-9.2-16.9-19.3-24.4-28.8c-7.5-9.6-14.8-18.5-22.6-25.4c-4.4-4.7-8.7-9.5-12.9-14.2c-4.2-4.7-8.4-9.4-12.4-14
					c-8-9.2-15.8-17.8-23.5-24.8c-3.2-4.1-13.6-8.9-21.4-16c-2.1-2.4-4.1-4.8-6.1-7.2l-6-7.3c-4-4.9-7.9-9.8-11.9-14.7
					c0,0.7-0.1,1.4-0.2,2.1c6.1,8.3,12.4,16.5,19.6,24.1c10.9,11.2,22.6,23.3,34,35.5c5.7,6.1,11.4,12.3,17,18.3
					c5.6,6,11.1,11.8,16.3,17.5c6.4,7.2,12.8,14.3,19.2,21.3c3.2,3.5,6.4,7,9.6,10.4c3.3,3.4,6.5,6.8,9.7,10.2
					c13,13.5,25.9,26.6,38.9,39.5c13.1,12.7,26.3,25.2,39.3,37.6c3.3,3.1,6.5,6.2,9.8,9.3c3.3,3,6.6,6.1,9.9,9.1
					c6.6,6,13.3,12.1,19.9,18.1c11.6,10.2,24.3,19.2,36.1,29.1c9.1,7.2,18.2,15.2,27.2,23.4c4.5,4.1,9,8.2,13.5,12.3
					c4.5,4,9,8,13.4,11.9c8.8,7.8,17.5,15.1,25.8,21.3c4.1,3.1,8.2,5.9,12.1,8.4c3.9,2.5,7.9,4.5,11.6,6.1
					C995.6,2496.5,1002.7,2503.7,1008.8,2504.8z M1102.4,2490.6c-5.3-3.9-10.7-8-16-12.2c-5.3-4.2-10.6-8.5-15.8-12.9
					c-10.5-8.7-21-17.7-31.2-26.9c-10.1-9.2-19.8-18.7-29.2-28.1c-4.7-4.7-9.2-9.4-13.7-14.1c-4.4-4.7-8.8-9.3-12.8-14
					c-6.8-7.3-17.3-17.5-29.2-28.4c-3-2.7-6-5.5-9.2-8.2c-3.1-2.7-6.3-5.5-9.4-8.2c-6.3-5.5-12.7-10.8-18.9-15.7
					c-12.4-9.8-24.1-17.8-32.8-21.5c-8.6-3.8-14.3-3.4-15,3.9c7.6,1.5,17,6.4,27.3,13.8c10.3,7.4,21.7,17.2,33.6,28.5
					c24.2,22.3,50.5,50.6,75.8,76.3c6.3,6.4,12.5,12.8,18.4,18.9c3,3.1,6,6,8.9,8.9c3,2.9,5.8,5.6,8.7,8.4
					c11.3,10.8,21.6,20.2,30.4,27.1c2.2,1.7,4.3,3.3,6.3,4.7c2,1.4,3.9,2.6,5.7,3.7c3.6,2.1,6.7,3.5,9.3,4
					C1098.9,2499.5,1102,2497.2,1102.4,2490.6z M1429.3,2748.5c-4.4-2.9-8.7-5.8-13.1-8.7c-2.2-1.5-4.3-3-6.5-4.5
					c-2.1-1.5-4.3-3.1-6.4-4.6c-8.6-6.3-17.2-13.1-26.1-20.9C1394.5,2722.7,1411.8,2735.7,1429.3,2748.5z M1222.8,2660
					c14.1,8.8,28,18.2,41.7,28c13.8,9.8,27.4,19.9,41,30.1c6.8,5.1,13.5,10.3,20.2,15.4c6.8,5.1,13.5,10.2,20.2,15.2
					c6.7,5,13.4,10,20.1,14.9c3.4,2.4,6.7,4.9,10,7.3c3.3,2.4,6.7,4.8,10.1,7.1c41.2,28.9,77.3,71.5,119.7,91.1
					c1.1-1.3,2.3-2.7,3.4-4l-5-1.9c-12.8-12.1-21.7-23.5-31.9-34.1c0.7,0.4,1.5,0.9,2.3,1.3c-1.2-0.9-2.4-1.8-3.6-2.7
					c-6.9-7.1-14.5-13.9-24.3-20.5c-4.7-2.8-9.3-5.8-14-8.8c-12.3-9.7-24.7-19.4-37.1-29.1c-6.2-4.8-12.4-9.6-18.6-14.4
					c-6.2-4.8-12.4-9.5-18.6-14.2c-6.2-4.7-12.4-9.3-18.7-13.8c-3.1-2.2-6.2-4.5-9.3-6.7c-3.1-2.2-6.2-4.4-9.3-6.6
					c-12.4-8.6-24.8-16.8-37.2-24.2c-3.7-2.4-7.4-4.8-11-7.1c-3.6-2.3-7.3-4.5-10.9-6.7c-7.2-4.4-14.4-8.6-21.6-12.8
					c-14.4-8.4-28.8-16.8-43.4-26.9c3.6,3.4,7.9,8,12.4,12.5C1213.9,2653,1218.6,2657.2,1222.8,2660z"/>
				<path class="st1" d="M1570,2968c18.1,12.2,36.3,24.5,54.4,37.1c14.5,9.1,29.1,18,43.8,26.7c68.4,43.6,139.7,105.1,210,156
					c5.2-2.4,8.8-6.4,9.7-12.6c-69.8-63.3-148.9-114.8-219.7-176.5c-0.7-0.3-1.4-0.7-2.1-1c-18.9-8.6-40.3-24-62.6-40.3
					c-11.2-8.2-22.4-16.6-33.7-24.6c-11.3-8-22.5-15.5-33.6-21.9c-22.6-12.1-44-25.6-65.3-39.2c-10.6-6.9-21.2-13.8-31.8-20.7
					c-5.3-3.4-10.7-6.8-16.1-10.2c-5.4-3.3-10.8-6.7-16.3-9.9C1461.8,2878.3,1517,2919.9,1570,2968z"/>
				<path class="st1" d="M1073.3,2640.3c7.6,6.5,15.1,13.1,22.8,19.6l5.7,4.9c1.9,1.6,3.9,3.2,5.8,4.9c3.9,3.2,7.7,6.5,11.6,9.7
					c11,8.8,21.7,17.4,32.2,25.6c10.6,8.3,21.1,16.1,31.5,23.9c10.4,7.7,20.7,15.4,31.1,22.8c10.4,7.4,20.8,14.7,31.3,22
					c-7.1-6.1-14.1-12.2-21.2-18.3c-3.5-3.1-7.1-6.1-10.6-9.2c-3.5-3.1-7-6.2-10.5-9.3c-14-12.5-28-25.1-41.9-37.9
					c-14.5-12.3-29.1-22.3-43.7-31.5c-3.7-2.3-7.4-4.6-11-6.8c-3.7-2.3-7.3-4.5-11-6.8C1088,2649.5,1080.6,2645,1073.3,2640.3z"/>
				<path class="st1" d="M1279.5,2797.3c-11.7-7.8-23-15.6-34.2-23.5c42,36,84.6,70.4,127.4,104.4
					c72.7,53.1,145.4,105.8,220.4,155.4c8.4,5.7,16.7,11.5,24.9,17.3c-63.7-53.4-126.9-107.3-189.1-157.7
					c-7.8-6.3-15.5-12.5-23.3-18.7c-7.8-6.1-15.5-12.2-23.2-18.3c-15.4-12.1-30.7-23.9-46.1-35.3c-15.2-11.5-30.5-22.6-45.6-33.3
					c-3.8-2.6-7.6-5.3-11.4-7.9c-3.8-2.6-7.6-5.2-11.3-7.8c-7.5-5.2-15.1-10.2-22.6-15.1c-2.2-1.4-4.7-3-7-4.6
					c12.8,11.1,25.5,22.1,38.3,32.9c12.9,10.8,25.8,21.5,38.7,32.1c12.9,10.7,25.9,21.1,38.9,31.5c6.5,5.2,13,10.4,19.5,15.6
					l9.8,7.8l9.8,7.7c-18.9-13.8-37.9-27.6-56.8-41.4l-28.5-20.7C1298.6,2811,1289,2804.1,1279.5,2797.3z"/>
				<path class="st1" d="M1552.5,2956.1c3.7,3.2,7.3,6.3,11,9.4c4.7,3.2,9.3,6.2,14,9.2c-2.5-2.3-5-4.6-7.5-6.8
					C1564.1,2964,1558.3,2960.1,1552.5,2956.1z"/>
				<path class="st1" d="M1472.5,2829.2c-0.4-0.4-0.9-0.9-1.3-1.4c-6.3-4.7-12.7-9.6-19.1-14.5c-6.4-4.9-12.8-9.8-19.2-14.8
					c-9.5-6.1-19.1-12.5-28.8-19.1c-9.6-6.6-19.4-13.4-29-20.6C1409,2785.9,1442.7,2812.3,1472.5,2829.2z"/>
				<path class="st1" d="M1395.7,2706.8c-3.7-3.3-11.2-9.8-14.9-13.2c-3-1.2-5.9-2.4-8.9-3.6c3.4,3.2,6.9,6.4,10.3,9.5
					L1395.7,2706.8z"/>
				<path class="st1" d="M1160.7,2529.1c68.2,56.2,133.8,106.9,199.7,156c3.8,1.7,7.7,3.3,11.6,4.9c-5.1-4.6-10.1-9.2-15.2-13.9
					c-5.1-4.6-10.2-9.1-15.3-13.6c-10.3-9-20.7-17.6-31.1-26c-10.4-8.4-21-16.5-31.6-24.2c-10.7-7.7-21.5-14.9-32.3-21.7
					c-8.4-5.5-22.9-11.8-30.2-18.6c-4.4-3.9-8.9-7.7-13.3-11.4c-4.4-3.8-8.9-7.5-13.3-11.2c-8.9-7.4-17.8-14.5-26.8-21.6
					c-18-14.1-35.7-27.9-53.4-41.8c8.2,6.9,16.3,13.9,24.6,21c4.1,3.5,8.3,7,12.5,10.5c4.2,3.5,8.5,7,12.8,10.5
					C1159.7,2528.4,1160.2,2528.8,1160.7,2529.1z"/>
			</g>
		</g>
	</g>
</g>
<g class="st3">
	<g>
		<g>
			<g>
				<path class="st1" d="M1818,728.7c0.7,1.6,1.5,3.1,2.2,4.6c0.6,1.5,1.2,2.8,1.7,4c1,2.3,1.7,3.8,1.7,3.8c0.5-0.2,1-0.6,1.5-0.9
					C1822.5,735.9,1820.3,732.1,1818,728.7z"/>
				<path class="st1" d="M1793.2,725.9c0.6,1.2,1.2,2.5,1.8,3.8c0.2-0.6,0.6-0.9,0.9-1.3C1795,727.5,1794.1,726.8,1793.2,725.9z"/>
				<path class="st1" d="M1825.1,740.2c5.5-3.5,9.1-11.5,17.8-7.6c1.5,3.6,3.8,8.9,6.2,14.3c1.2,2.7,2.2,5.4,3.2,7.9
					c1,2.5,1.9,4.8,2.6,6.6c6.1,6,6.6-2.5,9.8-3.8c2.9,7.4,5.7,14.7,7.3,14.1c1.5,0.7,2.6,0.7,3.4,0.1c0.8-0.6,1.3-1.7,1.4-3.6
					c0.2-3.7-1-9.7-3.3-17.1c-3.9-3.1-7.7-7.1-11.9-11.2c-4.1-4.2-8.2-8.8-12.1-13.3c-2-2.2-3.8-4.5-5.8-6.6c-2-2.1-3.9-4.2-5.7-6.1
					c-3.6-3.9-7-7.3-9.8-9.8c-2.9-2.5-5.3-4.2-7.1-4.6c-1.8-0.4-3,0.5-3.3,2.9c-0.3,2.5,0,6.6,1.2,12.8c0.6,3.1,1.5,6.7,2.6,10.8
					c0.5,2.1,1.2,4.3,1.8,6.7C1823.7,735,1824.4,737.5,1825.1,740.2z"/>
				<path class="st1" d="M1786.1,692.8l9.1,17.2c0.7,1.4,1.5,2.9,2.2,4.3l2.1,4.4l4.2,8.8c5.4,1.9,11.5,5.3,13.4-0.1
					c-2.9-4.3-5.6-8.2-8.2-11.6c-2.6-3.5-5-6.6-7.6-9.3C1796.4,701.2,1791.5,696.8,1786.1,692.8z"/>
				<path class="st1" d="M329.4,1644.3c1-0.5,1.8-0.2,3.3,6.2C331.6,1648.4,330.5,1646.4,329.4,1644.3c-0.9,0.4-2.1,1.4-4.1-1.1
					c13.1,21,28,45.6,41.3,70.1c3.3,2.4,6.6,4.6,9.8,6.5c-32.8-60.7-64.5-122-98.3-168.5C296.2,1587.2,311.5,1610.3,329.4,1644.3z"
					/>
				<path class="st1" d="M388.3,1719.6c1.1,2.1,2.2,4.1,3.3,6.2C390.1,1719.5,389.3,1719.2,388.3,1719.6z"/>
				<path class="st1" d="M199.3,551.4c16.5-16.3,31.9-31.4,46.9-46c3.8-3.6,7.5-7.3,11.2-10.8c3.7-3.6,7.4-7.1,11.1-10.6
					c3.7-3.5,7.4-6.9,11.1-10.4c1.9-1.8,3.7-3.5,5.6-5.1l5.6-5.1c-17,12.8-34,26.2-50.4,40.2c-16.4,14-32.2,28.6-46.9,43.7
					c-1.8,1.9-3.6,3.8-5.5,5.7c-1.8,1.9-3.6,3.7-5.3,5.7c-3.5,3.9-6.9,7.7-10.3,11.5c-3.3,3.9-6.5,7.9-9.7,11.7
					c-0.8,1-1.6,1.9-2.4,2.9c-0.8,1-1.5,2-2.3,3c-1.5,2-3,3.9-4.5,5.9c-1.5,2-3,3.9-4.4,5.8c-1.4,2-2.8,4-4.2,5.9
					c-1.4,2-2.7,3.9-4.1,5.9c-1.3,2-2.7,3.8-3.9,5.8c-2.5,4-4.9,7.8-7.2,11.7c-0.6,1-1.2,1.9-1.7,2.9c-0.5,1-1.1,2-1.6,2.9
					c-1.1,1.9-2.1,3.9-3.1,5.8c5.3-8.4,11.2-16.3,17-24.2c3-3.9,6.1-7.7,9.1-11.6c0.8-1,1.5-1.9,2.3-2.9l2.4-2.8l4.8-5.6
					C171.6,578.5,185.1,564.4,199.3,551.4z"/>
				<path class="st1" d="M451.9,345.5c-3.2,1.3-6.5,2.7-9.6,4c-3.2,1.3-6.2,2.8-9.3,4.2c-6.1,2.8-12,5.7-17.8,8.6
					c-5.7,3-11.3,6.1-16.7,9.1c-2.7,1.5-5.4,3.1-8,4.6c-2.6,1.5-5.2,3.2-7.7,4.8c-5.1,3.2-10.1,6.5-14.9,9.7c-2.4,1.6-4.8,3.3-7.2,5
					c-2.3,1.7-4.7,3.4-7,5c-4.6,3.4-9.2,6.7-13.6,10.1c-4.4,3.5-8.8,6.9-13.1,10.4c37.3-24.5,75.5-47.2,114.7-67.9
					C445.1,350.7,448.7,348.1,451.9,345.5z"/>
				<path class="st1" d="M401.6,383.2c-2.8,1.5-5.6,2.9-8.3,4.5c-2.7,1.5-5.4,3.1-8,4.6c-5.3,3.1-10.4,6.2-15.4,9.4
					c-5,3.2-9.8,6.5-14.6,9.8c-4.7,3.3-9.4,6.5-13.9,9.9c-18,13.4-34.5,27.3-50.6,41.8c4.8-3.7,9.6-7.2,14.4-10.8
					c4.8-3.6,9.6-7,14.3-10.5c4.7-3.5,9.5-6.9,14.2-10.2c4.7-3.4,9.4-6.8,14-10.1c4.7-3.3,9.3-6.6,13.9-9.8
					c4.6-3.2,9.1-6.6,13.6-9.7c4.5-3.2,9-6.3,13.4-9.5c2.2-1.6,4.4-3.2,6.5-4.7C397.3,386.3,399.5,384.7,401.6,383.2z"/>
				<path class="st1" d="M252.3,1212.8c4.1,6.6,7.7,12.6,10.9,18c3.2,5.4,6.1,10.2,8.5,14.5c5,8.6,8.4,15,10.7,19.8
					c4.1,3.3,9.4,7.9,16.1,14c-0.7-1.6-1.5-3.4-2.2-5c-7.8-13.9-15.2-28-22.8-42.2c-3.7-7.1-7.3-14.3-11-21.5l-2.7-5.4l-1.4-2.7
					l-1.3-2.6c-1.7-3.5-3.5-7.1-5.2-10.6c-3.3-5.6-6.6-11.1-9.9-16.2c-3.2-5.2-6.3-10-9.5-14.3c1.5,4.5,3,9.1,4.6,13.6
					c1.5,4.5,3.2,9.1,4.8,13.6c1.6,4.5,3.3,9,5,13.5c0.9,2.2,1.7,4.5,2.6,6.7C250.5,1208.3,251.4,1210.6,252.3,1212.8z"/>
				<path class="st1" d="M282.4,1265.2c-17.4-14.3-13-5-6.3,3.2C282.9,1276.6,291.6,1283.7,282.4,1265.2z"/>
				<path class="st1" d="M109.9,1114c-0.4-1.6-0.9-3.2-1.3-4.7c-0.8-2.2-1.6-4.5-2.5-6.8c-0.8-2.3-1.6-4.6-2.4-6.8
					C105.7,1102,107.8,1107.9,109.9,1114z"/>
				<path class="st1" d="M162.4,739c-9.7,23.5-16.4,48.3-20.1,73.1c4.6-25.4,11.8-50.3,20.8-73.5c0.5-1.5,1.1-2.9,1.7-4.3
					c0.6-1.4,1.2-2.9,1.8-4.3c1.2-2.9,2.3-5.7,3.5-8.5c2.5-5.5,5-11,7.5-16.4c2.7-5.3,5.2-10.5,7.8-15.7c1.4-2.5,2.7-5,4-7.5
					c1.3-2.5,2.5-5,3.9-7.4c-0.5,0.7-1,1.3-1.5,1.9c-0.5,0.6-1,1.3-1.5,1.9c-1,1.3-2.1,2.5-3.2,3.7c-1.1,1.2-2.2,2.5-3.3,3.7
					c-1,1.3-2.1,2.5-2.9,4c-1,3.3-2.1,6.9-3.5,10.7c-0.3,0.9-0.7,1.9-1.1,2.9c-0.4,1-0.7,2-1.1,3c-0.7,2-1.4,4.1-2.2,6.2
					c-1.5,4.2-3.4,8.5-5,13c-0.9,2.2-1.8,4.4-2.7,6.7C164.4,734.5,163.3,736.7,162.4,739z"/>
				<path class="st1" d="M201.7,1315.7c-2.2-4.3-4.3-8.6-6.5-12.8c-2.2-4.3-4.2-8.6-6.4-12.9c-2.1-4.3-4.2-8.6-6.3-12.8l-3.2-6.4
					l-3.1-6.4c-4.2-8.6-8.3-17.1-12.4-25.6c-2-4.3-4.1-8.6-6.1-12.8c-2-4.3-4-8.6-6-12.9c-7.9-17.2-15.5-34.3-22.7-51.6
					c-7.2-17.3-14.1-34.6-20.5-52.1c-5-18.1-9.7-36.2-13.7-54.5l-1.5-6.8l-1.4-6.8c-0.9-4.6-1.9-9.1-2.8-13.7
					c-0.8-4.6-1.7-9.1-2.5-13.7l-0.6-3.4l-0.6-3.4c-0.4-2.3-0.7-4.6-1.1-6.9c-1.6-9.1-2.7-18.3-4-27.4c-1-9.2-2.2-18.3-2.9-27.5
					c-0.2-2.3-0.4-4.6-0.6-6.9c-0.1-1.1-0.2-2.3-0.3-3.4l-0.2-3.4c-0.3-4.6-0.6-9.2-0.9-13.7c-0.2-4.6-0.3-9.1-0.5-13.7
					c-0.1-2.3-0.2-4.6-0.2-6.8c0-2.3,0-4.6,0-6.8c0-2.3,0-4.6,0-6.8c0-2.3-0.1-4.6,0-6.8c0.1-4.6,0.2-9.1,0.3-13.6
					c0-1.1,0-2.3,0.1-3.4l0.2-3.4c0.1-2.3,0.3-4.5,0.4-6.8c0.1-2.3,0.3-4.5,0.4-6.8c0.1-2.3,0.4-4.5,0.6-6.8c0.4-4.5,0.8-9,1.2-13.5
					c0.6-4.5,1.1-9,1.7-13.4c0.3-2.2,0.5-4.5,0.9-6.7c0.4-2.2,0.7-4.4,1.1-6.7c0.4-2.2,0.7-4.4,1.1-6.7c0.4-2.2,0.7-4.4,1.2-6.6
					c0.9-4.4,1.8-8.8,2.7-13.2l0.7-3.3l0.8-3.3c0.5-2.2,1.1-4.3,1.6-6.5c1.9-8.7,4.6-17.2,6.9-25.8c5.3-16.9,11-33.8,18-49.9
					c0.7-1.8,1.5-3.6,2.2-5.4c0.4-0.9,0.8-1.8,1.2-2.8c0.4-0.9,0.9-1.8,1.3-2.7c1.7-3.7,3.5-7.4,5.4-11.2c0.9-1.9,1.9-3.8,2.9-5.7
					c1.1-1.9,2.1-3.8,3.2-5.7c1.1-1.9,2.2-3.8,3.3-5.8c1.1-1.9,2.2-3.9,3.4-5.8c2.4-3.8,4.9-7.7,7.4-11.6c1.2-2,2.6-3.9,3.9-5.8
					c1.4-1.9,2.7-3.9,4.1-5.8c1.4-1.9,2.8-3.9,4.2-5.9c1.5-1.9,2.9-3.8,4.4-5.7c1.5-1.9,3-3.8,4.5-5.8c0.8-1,1.5-1.9,2.3-2.9
					c0.8-0.9,1.6-1.9,2.4-2.8c3.2-3.8,6.4-7.6,9.6-11.4c3.3-3.7,6.7-7.4,10.1-11.2c0.9-0.9,1.7-1.9,2.6-2.8l2.6-2.7
					c1.8-1.8,3.5-3.7,5.3-5.5c1.8-1.8,3.5-3.7,5.4-5.5c1.8-1.8,3.7-3.6,5.5-5.4c14.7-14.3,30.2-28.2,46.1-41.4
					c15.9-13.2,32-25.8,48-37.9c4-3,8-6,11.9-9c4-3,7.9-5.9,11.8-8.8c7.8-5.8,15.6-11.4,23.2-17.1c30.4-22.5,58.9-43.4,82.4-63
					c-5.9,2.5-11.6,5-17.2,7.7c-5.5,2.7-10.9,5.4-16.1,8.2c3.6-2.6,7.1-5.1,10.6-7.7c3.5-2.6,6.8-5.1,10.2-7.5
					c6.7-4.9,13.2-9.8,19.4-14.7c5.5-2.8,11-5.7,16.5-8.5l8.2-4.2l8.3-4.1c5.5-2.7,11.1-5.4,16.6-8.1c5.6-2.7,11.2-5.2,16.8-7.8
					c11.2-5.3,22.5-10.1,33.8-15c2.8-1.3,5.7-2.4,8.5-3.6l8.6-3.5l8.6-3.5c2.9-1.2,5.7-2.3,8.6-3.4c11.5-4.4,23-9,34.7-13.1
					c5.8-2.1,11.6-4.2,17.5-6.2l17.6-5.9c2.9-1,5.9-2,8.8-2.9l8.9-2.8l17.8-5.5l17.9-5.1l9-2.5c3-0.8,6-1.6,9-2.4
					c6-1.6,12.1-3.1,18.1-4.7c6-1.5,12.1-2.9,18.2-4.3c12.1-3,24.4-5.4,36.7-8c24.6-4.8,49.4-9.2,74.5-12.4l9.4-1.3l4.7-0.6l4.7-0.5
					c6.3-0.7,12.6-1.4,18.9-2.1l4.7-0.5l4.8-0.4l9.5-0.8l9.5-0.8l4.8-0.4l4.8-0.3c6.4-0.4,12.8-0.7,19.2-1.1l4.8-0.3l4.8-0.2
					c3.2-0.1,6.4-0.2,9.6-0.3c3.2-0.1,6.4-0.2,9.7-0.3l4.8-0.1l4.8,0c6.5,0,12.9,0,19.4-0.1c3.8,0,7.6,0,11.2-0.1
					c3.6-0.1,7.2-0.2,10.7-0.4c3.5-0.2,6.9-0.4,10.3-0.6c3.4-0.2,6.8-0.3,10.2-0.5c6.8-0.3,13.6-0.7,20.6-0.8c7,0,14.3,0.2,22,0.8
					c31.3,2.4,62.1,6,92.7,10.9c0.2-0.4-0.1-0.8-0.9-1.3c32,5.1,63.7,11.6,95,19.5l11.7,3.1c3.9,1,7.8,2,11.7,3.2
					c7.8,2.3,15.5,4.5,23.3,6.8c7.7,2.4,15.4,4.9,23.2,7.4l5.8,1.9l5.8,2c3.8,1.4,7.7,2.7,11.5,4.1c30.7,10.9,61.1,23.3,91.1,37.3
					c30,14.1,59.8,29.7,89.1,47.1c13.7,8.2,26.9,17.3,40.1,26.6c6.5,4.8,12.9,9.6,19.3,14.4c1.6,1.2,3.2,2.4,4.8,3.7l4.7,3.8
					l9.4,7.6c24.9,20.4,48.6,42.3,71.4,65.2c16.9,17.5,11.9,22.2,21.3,35.3c9.3,13.2,17.2,26.2,25,38.6c3.8,6.3,7.5,12.6,11.2,18.8
					l2.8,4.6c0.9,1.6,1.8,3.2,2.7,4.7c1.8,3.1,3.6,6.3,5.3,9.5c14.2,25.3,28.6,51.4,44.3,83.4c0,0-3.1,1.7-4.6,2.6
					c0.7,1.1,1.5,2.3,2.2,3.4c0.7,1.1,1.3,2.3,2,3.4c1.3,2.2,2.4,4.4,3.6,6.5c2.2,4.2,4.1,8.2,5.7,11.9c-4.2-2.6-8.5-6-12.9-9.8
					c-2.2-1.9-4.4-3.8-6.5-5.9c-2.2-2-4.4-4-6.6-6c-4.3-4-8.6-7.8-12.5-11.4c-3.8-3.5-7.6-6.4-10.7-8.6c-6.2-4.4-10.2-5.5-10.5-0.5
					c-0.2,2.5,0.6,6.5,2.5,12.4c1,2.9,2,6.5,3.4,10.4c1.4,4,3,8.5,5,13.6c0,0,0,0-0.1,0c-2.9-3.9-5.5-7.3-8.1-10.6
					c-0.3-0.4-0.5-0.8-0.7-1.3c0,0.1-0.1,0.1-0.1,0.2c-1.6-2-3.1-3.9-4.6-5.7c-1.5-1.8-3-3.4-4.5-5c-2.9-3.1-5.7-5.9-8.4-8.3
					c-2.7-2.5-5.3-4.7-8-6.7c-2.7-2-5.5-3.7-8.4-5.4l5.4,7.9l5.1,8.1l5.1,8.1l2.5,4.1l1.3,2l1.2,2.1c-3.3-0.9-6.3-0.9-7.7,1.5
					c-1-0.7-1.9-1.3-3-2.1c-3-4.8-5.5-8.8-5.5-8.8c-2.1-0.8-4-1.3-5.6-1.3c-1.5-1.5-3-3-4.5-4.6c-1.5-1.6-3.2-3.2-4.8-4.8
					c-3.2-3.3-6.5-6.7-9.7-10.1c-1.6-1.7-3.2-3.4-4.8-5.1c-1.6-1.6-3.3-3.2-4.9-4.8c-3.2-3.1-6.3-6.1-9.1-8.9
					c-1.4-1.4-2.8-2.7-4.1-3.9c-1.4-1.2-2.7-2.3-3.9-3.3c-2.5-2-4.6-3.6-6.4-4.6c-3.6-2.1-5.7-2.2-5.6,0.9c0.4,2,1.8,4.6,3.9,7.6
					c1.1,1.5,2.3,3.1,3.7,4.8c1.4,1.7,2.8,3.6,4.4,5.5c3.2,3.9,7,8.1,11,12.7c1,1.1,2,2.3,3,3.5c1,1.2,2,2.4,3,3.7
					c2,2.5,4.1,5,6.2,7.6c0.3,1.7,0.9,3.6,1.5,5.4c-10.5-14-13-12.2-14.6-9c-1.6,3.2-2.2,7.7-8.7-0.2
					c-15.8-22.4-34.1-42.7-52.2-63.1c-2.3-2.6-4.6-5.1-7-7.7c-2.3-2.5-4.6-5.1-7-7.6c-4.8-4.9-9.5-9.7-14.1-14.6
					c-9.6-9.3-19.1-18.6-29-27.2c-2.4-2.2-4.9-4.3-7.3-6.5c-2.4-2.1-5-4.2-7.5-6.3c-2.5-2.1-5-4.1-7.5-6.2c-2.5-2-4.9-4.1-7.5-6.1
					c-5.1-3.9-10.2-7.8-15.2-11.7c-2.5-2-5.2-3.8-7.7-5.7l-7.8-5.6c-41.7-29.4-86.4-54.2-136.5-75.4c-2.2-1-4.4-1.8-6.6-2.7
					l-6.6-2.7c-12.2-5.1-24.4-9.5-36.4-14.2c-6.1-2.2-12.1-4.3-18.1-6.5l-4.5-1.7l-4.5-1.5c-3-1-6-2-9-3.1l-9-3.1
					c-3-1-6.1-1.9-9.1-2.9l-9.1-2.9l-4.5-1.5c-1.5-0.5-3-1-4.6-1.4c-6.1-1.8-12.2-3.6-18.3-5.5c-1.5-0.5-3.1-1-4.6-1.4l-4.6-1.3
					c-3.1-0.9-6.2-1.7-9.3-2.6c3.5-0.4,7.1-0.6,10.8-0.8c-10-2.8-20-5.7-30.2-8c-5.1-1.2-10.1-2.4-15.2-3.5l-15.4-2.9l-7.7-1.4
					c-2.6-0.4-5.2-0.8-7.8-1.1c-5.2-0.7-10.4-1.4-15.5-2.1c-2.6-0.4-5.2-0.6-7.8-0.8l-7.8-0.7l-7.8-0.6l-3.9-0.3
					c-1.3-0.1-2.6-0.1-3.9-0.2l-19.2-0.7c-3.2-0.2-6.4-0.1-9.6-0.2l-9.6-0.1l-9.6-0.1l-9.6,0.2l-9.6,0.2c-3.2,0-6.4,0.1-9.6,0.3
					c-6.4,0.3-12.8,0.5-19.3,0.8l-2.4,0.1l-2.4,0.2l-4.8,0.3c-3.2,0.2-6.4,0.4-9.6,0.6c-3.2,0.2-6.4,0.4-9.6,0.6
					c-3.2,0.3-6.4,0.6-9.6,0.8c-3.2,0.3-6.4,0.5-9.7,0.8l-4.8,0.4l-4.8,0.5c-51.6,5.2-103.5,13.5-156.5,24.6
					c-3.5,0.7-6.9,1.5-10.4,2.2l-5.2,1.1l-5.2,1.2c-6.9,1.6-13.8,3.3-20.6,4.9c-6.8,1.8-13.6,3.6-20.4,5.4
					c-3.4,0.9-6.8,1.8-10.2,2.8c-3.4,1-6.7,1.9-10.1,2.9c-3.4,1-6.7,1.9-10.1,3l-10,3.2c-6.7,2.1-13.4,4.2-20,6.5
					c-6.6,2.3-13.3,4.5-19.8,6.9c-6.6,2.4-13.1,4.9-19.7,7.3c-26.2,10-52,21-77.6,33c-6.4,3.1-12.7,6.1-19.1,9.2
					c-6.4,3.2-12.7,6.4-19,9.6c-6.4,3.2-12.6,6.7-18.9,10c-3.1,1.7-6.3,3.4-9.5,5.1c-3.1,1.8-6.2,3.5-9.4,5.3l7.6-4.6
					c2.5-1.5,5.1-3,7.6-4.5c5.1-3,10.2-5.9,15.3-8.9c5.2-2.9,10.4-5.7,15.6-8.5c2.6-1.4,5.2-2.8,7.8-4.2c2.6-1.4,5.3-2.7,7.9-4.1
					c5.3-2.7,10.6-5.3,16-8c5.4-2.5,10.8-5.1,16.2-7.6c2.7-1.2,5.4-2.5,8.2-3.7c2.8-1.2,5.5-2.4,8.3-3.5c5.5-2.3,11.1-4.7,16.7-6.9
					c5.1-1.8,10.3-3.6,15.4-5.4c2.6-0.9,5.1-1.8,7.6-2.7c2.6-0.9,5.1-1.7,7.7-2.5c5.1-1.7,10.2-3.4,15.2-5.1
					c5.1-1.7,10.1-3.3,15.1-4.9c-5.2,1.5-10.5,3-15.6,4.6c-5.1,1.7-10.3,3.3-15.3,5.1c-2.5,0.9-5.1,1.7-7.6,2.6
					c-2.5,0.9-5,1.9-7.5,2.8c-5,1.9-10,3.8-14.9,5.7c-39.4,14.1-78.8,30.2-114.3,48.9c-35.5,18.6-66.9,39.9-90.3,63.2
					c-6.7,2.2-7.6,0.8-13.4,4.2c-20.3,12.1-40.3,24.5-58.4,37.5c-18.1,13-34.2,26.9-46.6,41.8c0.6,0.7-2.8,4.1-5.4,7.1
					c-2.6,3.1-4.3,5.8-0.8,5.1c-13.6,13-27.7,27.1-40.1,42.1c-12.4,14.9-23.2,30.6-30.8,45.9c-1.7,3.3-3.2,6.7-4.7,10.1l-1.1,2.6
					l-0.9,2.7c-0.6,1.8-1.2,3.6-1.7,5.3c-0.5,1.8-1.1,3.6-1.6,5.4c-0.3,0.9-0.5,1.8-0.7,2.7l-0.6,2.8c-0.7,3.7-1.5,7.3-2.1,11
					c-20.2,56.2-23.5,117.6-14.8,182c4.3,32.2,11.8,65.1,21.6,98.5c5,16.7,10.5,33.5,16.5,50.5c6,17,12.7,34.1,19.8,51.3
					c6.8,17.2,14.2,35.9,21.9,54.7c4,9.7,8,19.4,11.9,28.9c4,9.6,7.9,19,11.7,28c-6.9-12.8-13.9-25.7-20.6-38.9
					c-1.7-3.3-3.4-6.6-5.1-9.9l-2.5-4.9l-2.4-4.8c-1.6-3.2-3.2-6.5-4.8-9.7c-1.6-3.2-3.1-6.5-4.7-9.7c-12.5-26-23.9-52.6-34-79.6
					c-7.2-26.9-13.2-53.1-18.8-77.4c-5.7-24.4-11-47-17.1-67.3l-0.9-3.6l-0.8-3.6l-1.6-7.1c-1.2-4.8-2-9.5-2.9-14.3
					c1.2,14.5,3.4,29.1,5.9,43.6c0.7,3.6,1.3,7.3,2,10.9c0.3,1.8,0.7,3.6,1.1,5.5l1.2,5.5c1.4,7.3,3.3,14.5,5,21.8
					c3.7,14.5,7.7,28.9,12.3,43.3l1.7,5.4c0.6,1.8,1.2,3.6,1.8,5.4c1.2,3.6,2.4,7.1,3.6,10.7c1.3,3.6,2.5,7.1,3.8,10.7l1.9,5.3
					l2,5.3c8.5,31.8,18.5,64.6,30.8,96.4c-0.4-0.6-0.7-1.1-1.1-1.8c-11.7-24.1-22.6-48.6-32.5-73.5c-6.9-24.2-13-47.8-18.8-70
					c-5.7-22.3-11.1-43.3-16.9-62.5c-1.6-4.8-2.9-9.6-4.4-14.1c-0.7-2.4-1.4-4.8-2.1-7.2l-1.8-7.3l-1.8-7.3l-1.6-7.3
					c2.3,18.3,5.5,36.6,9.6,54.9c4.1,18.2,9,36.4,14.5,54.4c6.8,22.4,14.7,44.6,23.4,66.5c4,14.2,8.5,28.6,13.1,43
					c-1-1.4-1.9-2.8-2.8-4c-1.5-3-4.6-7-8.4-11c-3.7-4-8.1-8.1-12.3-11.2c-8.4-6.2-15.8-8.4-15.3,2c8,24.5,18.3,51.2,29.4,77.4
					l2.1,4.9c0.7,1.7,1.5,3.3,2.2,4.9c1.5,3.3,2.9,6.6,4.3,9.8c1.4,3.3,2.9,6.5,4.3,9.7c0.7,1.6,1.4,3.2,2.1,4.8
					c0.7,1.6,1.5,3.2,2.2,4.8c5.8,12.7,11.4,24.9,16.9,36.3c2.7,5.7,5.4,11.2,7.9,16.5c2.6,5.3,5.1,10.3,7.4,15.1
					c4.7,9.5,8.8,18,12.3,25c3.5,7,6.3,12.6,8.1,16.5c1.8,3.9,2.8,6,2.6,6.1c-1.7,4.6-24-33.6-44.5-72.6
					c-20.6-39-39.3-78.8-38.8-75.3c3,9.7,6.3,19.5,9.6,29.2c-5-8.5-9.9-16.7-14.7-24.3c-2.3-4.6-4.5-9.7-6.7-15
					c-2.2-5.3-4.2-10.7-6.3-15.8c-4-10.4-8-19.9-11.8-25.8c-12.8-20.9-22.3-45-30.6-70.2c-8.3-25.3-15.3-51.7-23.4-78
					c-1.4-4.1-2.8-8.3-4.2-12.6c-1.4-4.3-2.7-8.8-4.2-13.3c-0.7-2.3-1.4-4.5-2.1-6.8c-0.7-2.3-1.3-4.6-2-7c-1.3-4.7-2.8-9.5-4-14.3
					c-0.6-2.4-1.3-4.9-1.9-7.3c-0.6-2.5-1.3-4.9-1.9-7.4c-1.2-5-2.3-10.1-3.5-15.2c-1-5.1-2.1-10.3-3.1-15.5c-0.6-2.6-1-5.2-1.4-7.8
					l-1.3-7.9c-1.7,0-2.3-5.3-2.5-9.7c-0.3-4.4-0.6-8-2.5-4.5c0.1-2.5,0.2-5,0.3-7.5c0.1-2.5,0.3-5.1,0.5-7.6
					c0.2-2.6,0.3-5.1,0.5-7.7l0.2-3.8c0.1-1.3,0.2-2.5,0.3-3.8c0.5-5.1,0.9-10.1,1.2-15.1c0.5-4.9,1-9.8,1.4-14.4
					c0.1-1.2,0.2-2.3,0.3-3.5c0.1-1.1,0.2-2.3,0.3-3.4c0.2-2.2,0.4-4.4,0.5-6.6c0.3-4.3,0.4-8.4,0.6-12.1c0.1-3.8,0.1-7.3-0.2-10.5
					c-0.1-1.6-0.3-3.1-0.6-4.5c-0.2-1.4-0.5-2.7-0.8-3.9c0.2-1,0.3-2,0.5-2.9c0.8-2.8,1.3-6.9,1.7-11.4c1.4-4,2.8-8,4-11.9
					c0.6-2,1.3-3.9,1.9-5.8c0.7-1.9,1.4-3.8,2-5.7c1.3-3.8,2.6-7.5,3.9-11.1c1.3-3.6,2.7-7.2,4-10.7c0.6-1.8,1.3-3.5,1.9-5.3
					c0.3-0.9,0.6-1.8,0.9-2.6c0.3-0.9,0.7-1.7,1-2.6c1.4-3.4,2.7-6.8,4-10.3c0.7-1.7,1.3-3.4,2-5.1c0.7-1.7,1.4-3.3,2.1-5
					c1.4-3.3,2.8-6.7,4.2-10c11.3-26.4,24.4-51.8,42.8-78c13.8-17,29.1-33.2,46.1-48.3c-2.8,2.5-6,5.1-9.3,8.1
					c-3.3,2.9-6.8,6-10.2,9.1c-3.4,3.2-6.7,6.5-9.8,9.7c-0.8,0.8-1.5,1.6-2.3,2.4c-0.7,0.8-1.4,1.6-2.1,2.4
					c-1.3,1.6-2.6,3.2-3.7,4.7c-1.5,2-3,4-4.5,5.9c-1.5,1.9-2.9,4-4.3,6c-17.8,22.1-33,45.8-45.1,70.4c-12.1,24.6-21.3,50-28.1,75.7
					c-0.3,4.5-0.9,11.6-1.7,18.1c-1.1,3.6-2.2,7.2-3.4,10.9c0.5,1.1,0.8,2.2,1.2,3.4c-3.9,24.8-6.7,51.2-7.2,76.6
					c-0.5,25.4,1,49.7,4.5,70.3c2.3,19.5,5,39.1,8.1,58.8c3.1,19.7,6.8,39.5,10.9,59.3l1.6,7.4c0.5,2.5,1,5,1.6,7.4l3.3,14.8
					c1.2,4.9,2.4,9.8,3.6,14.7c0.6,2.5,1.2,4.9,1.8,7.4l1.9,7.3c5.1,19.5,10.7,38.9,16.8,57.8c-7.7-18.3-15-36.7-21.8-55.1
					c-6.9-18.4-13.1-36.9-18.9-55.5c13.2,46.8,29.4,89.5,47.1,129.9c2.3,6.4,4.5,12.7,6.8,19c0,0,0.9,2.5,2.3,6.2
					c1.4,3.7,3.2,8.7,5.2,13.6c1.9,4.9,3.9,9.8,5.3,13.5c1.5,3.7,2.5,6.1,2.5,6.1c-2.1-6.2-4.2-12.5-6.3-18.7
					c-2.1-6.2-4.1-12.4-6.1-18.5c2.8,6,5.5,11.9,8.4,17.8c2.9,5.9,5.7,11.7,8.6,17.5c5.9,11.6,11.6,23.1,17.7,34.4
					c61.7,126.8,131,254.3,194.4,382.4c-3.2-1.5-6.6-3.4-10.1-5.6c-16.3-30.3-32.3-60.8-48.3-89.5c-16-28.7-32.1-55.6-48.7-78.9
					c4.4,8.9,8.6,17.1,12.8,24.8c4.2,7.7,8.3,15,12.4,22.3c4.1,7.3,8.1,14.5,12.4,22c4.2,7.5,8.4,15.4,12.9,23.9
					c-0.9,0.4-2,1.4-4.1-1.1c12.9,21,27.7,45.6,41,70.1c-8.1-5.8-16.8-12.6-25.3-19.5c-4.8-5.5-9.6-12.9-14.6-21.2
					c-5-8.3-10.2-17.6-15.8-26.6c-22.1-40.1-42.4-79.7-62.3-119.4c-19.8-39.7-39.2-79.5-59.4-120.1c-3.9-9.3-7.9-18.6-11.8-27.8
					c-2-4.6-3.9-9.3-5.8-14l-5.7-14c-3.9-9.3-7.5-18.7-11.2-28c-1.8-4.7-3.7-9.4-5.5-14c-1.8-4.7-3.6-9.4-5.4-14.1
					c-14.2-37.7-27.2-75.8-38-114.3c6.5,18.8,13.4,36.9,20.7,54.5c7.3,17.6,14.7,34.7,22.5,51.4
					C168.6,1253.2,184.9,1284.8,201.7,1315.7z M1699.7,550.7c-5.7-5.2-11.6-10.5-17.6-15.7c0.5,1.2,1,2.3,1.5,3.5
					C1688.4,543.8,1694.4,548,1699.7,550.7z M1572.4,431.5c2.5,2.1,5,4.1,7.5,6.2c1.3,1,2.6,2.1,3.9,3.2c1.3,1.1,2.6,2.2,3.9,3.3
					c5.3,4.4,10.8,8.9,16.4,13.4c5.6,4.7,11.3,9.5,17.2,14.3c1.5,1.2,3,2.4,4.4,3.6c1.5,1.3,2.9,2.5,4.4,3.8
					c2.9,2.5,5.9,5.1,8.9,7.6c23.9,20.5,48.4,43.2,70.8,67.3c0.6,0,1.1-0.2,1.4-0.4c-17.4-21.5-39.1-43.6-63-64.4
					C1624.4,468.7,1598.2,449.2,1572.4,431.5z M1410.6,296.1c0.3,0.3,0.6,0.7,0.9,1c0.1-0.3,0.1-0.5,0.2-0.8
					C1411.4,296.3,1411.1,296.2,1410.6,296.1z M531.2,373.6c24.8-15.3,54.3-29.3,86.3-42c32-12.7,66.5-24.1,101.3-34.8
					c5.3-1.4,10.5-3,15.7-5c2.6-1,5.3-2,8-3.1c2.7-1.1,5.4-2.2,8.2-3.2c11.2-4.2,23.3-8.8,37.7-11.5c4.5-1.1,8.7-2.2,12.7-3.2
					c4.1-1,7.9-1.9,11.7-2.9c3.7-1,7.3-1.9,10.8-2.8c1.7-0.5,3.5-0.9,5.2-1.4c1.7-0.4,3.4-0.8,5.1-1.3c6.7-1.7,13.2-3.3,19.9-4.9
					c6.7-1.5,13.5-2.9,20.7-4.2c0,0-5.6-0.2-11.2-0.4c-2.8-0.1-5.6-0.2-7.7-0.2c-2.1,0-3.5,0-3.5,0c3.2-0.4,6.4-0.7,9.4-1.1
					c3.1-0.4,6-0.8,8.9-1.2c5.8-0.8,11.3-1.9,16.7-2.7c5.4-0.9,10.6-1.9,15.7-2.8c2.6-0.5,5.1-1,7.6-1.5c2.5-0.4,5.1-0.9,7.6-1.3
					c10.1-1.8,20.3-3.6,31.2-4.5c5.5-0.5,11.1-0.9,17-1.2c5.9-0.1,12.1-0.1,18.7,0.2c0-0.9,1.8-2.3,4.6-3.4c1.4-0.6,3-1.1,4.8-1.5
					c1.8-0.4,3.6-0.6,5.5-0.6c4.7-0.2,9.4-0.4,14.1-0.5c2.3,0,4.7-0.1,7-0.1c2.3,0,4.7,0.1,7,0.1c4.6,0.1,9.3,0.3,13.8,0.4
					c4.6,0.2,9.1,0.3,13.6,0.6c4.5,0.3,8.9,0.5,13.2,0.8c2.2,0.1,4.3,0.2,6.4,0.3c1.1,0,2.1,0.1,3.2,0.1c1.1,0.1,2.1,0.1,3.1,0.2
					c8.4,0.4,16.4,0.6,24,0.3c9.4,0.5,18.9,1.1,28.2,1.8c9.3,0.9,18.5,1.8,27.5,2.6c9,1,17.7,2.1,26.1,2.9c4.2,0.4,8.3,0.9,12.4,1.3
					c4,0.4,8,0.8,11.8,1.1c1.9,0.4,4.3,0.5,7.1,0.5c2.8,0,6,0,9.4,0c6.9,0,14.8-0.2,22.5,0.8c9.2,2,18.4,3.9,27.6,6.1
					c9.1,2.3,18.3,4.7,27.4,7.1c-0.7-0.7-1.3-1.4-1.8-2c-7.4-2.1-14.8-4.2-22.4-6.2c-3.7-1-7.6-1.8-11.4-2.6
					c-3.8-0.8-7.7-1.5-11.5-2.2c-2.9-0.5-5.8-1-8.7-1.5c-2.9-0.5-5.9-0.9-8.9-1.3c-6-0.9-12-1.8-18.1-2.7c-1.5-0.2-3-0.4-4.6-0.6
					c-1.5-0.2-3.1-0.4-4.6-0.6c-3.1-0.4-6.2-0.7-9.3-1.1c-6.2-0.7-12.4-1.6-18.6-2.1c-6.2-0.6-12.4-1.2-18.5-1.8
					c-3.1-0.3-6.1-0.6-9.2-0.8c-3.1-0.2-6.1-0.5-9.1-0.7c-3-0.2-6-0.5-9-0.7c-1.5-0.1-3-0.2-4.5-0.4c-1.5-0.1-3-0.2-4.4-0.3
					c-5.9-0.4-11.7-0.7-17.4-1.1c-7.1-0.6-14.2-0.8-21.2-1.1c-7.1-0.3-14.1-0.6-21.1-0.6c-7-0.1-13.9-0.1-20.9-0.2
					c-6.9,0.1-13.8,0.3-20.7,0.4c-27.5,0.9-54.5,2.7-81.1,5.8c-3.3,0.4-6.6,0.7-9.9,1.1c-3.3,0.4-6.6,0.9-9.9,1.3
					c-6.6,0.9-13.2,1.8-19.7,2.8c-13,2.2-26,4.1-38.9,6.7c-25.8,4.8-51.1,10.7-76.2,17.2c-10.7,3-21.3,6.3-31.8,10.1
					c-5.3,1.8-10.5,3.6-15.8,5.4c-5.2,1.9-10.4,3.7-15.7,5.4c-31.3,11.2-66,22.5-97.4,35c-3.9,1.6-7.8,3.2-11.6,4.7
					c-3.8,1.6-7.6,3.1-11.2,4.8c-7.3,3.3-14.3,6.5-20.9,9.8c-6.6,3.4-12.7,6.8-18.3,10.1c-2.8,1.7-5.5,3.3-8,5.1
					c-2.5,1.7-4.9,3.5-7.1,5.2c-3,2.2-7.9,4.6-12.7,7.3C538.5,367.6,533.9,370.6,531.2,373.6z M492.2,475.7
					c30.4-19.3,64-37.3,98.3-52.6c34.2-15.3,69.2-27.7,102-36.7c6.6-1.9,14.6-4.4,23.6-7.3c4.5-1.4,9.3-2.8,14.3-4.4
					c5-1.6,10.1-3.3,15.3-4.8c5.3-1.6,10.6-3.3,16.1-5c1.4-0.4,2.7-0.9,4.1-1.3l4.1-1.2c2.7-0.8,5.5-1.7,8.2-2.5
					c2.7-0.9,5.5-1.7,8.2-2.6c1.4-0.4,2.7-0.9,4.1-1.3c1.4-0.4,2.7-0.8,4.1-1.2c5.4-1.6,10.7-3.3,15.8-5c5.1-1.7,10.1-3.2,14.9-4.8
					c4.8-1.6,9.3-3.2,13.6-4.7c8.5-3,15.9-5.9,21.5-8.7c5.6-2.9,9.5-5.5,11-8c1.5-2.5,0.7-4.9-3.2-7.1c-4,2.9-9.2,5.8-15.5,8.6
					c-6.3,2.8-13.7,5.4-21.9,8.3c-8.2,2.8-17.3,5.4-27.1,8.4c-4.9,1.4-9.9,2.9-15.1,4.3c-5.2,1.5-10.5,3.1-16,4.6
					c-2.7,0.7-5.5,1.5-8.3,2.3c-2.8,0.8-5.6,1.6-8.4,2.4c-5.7,1.6-11.4,3.2-17.3,4.8c-5.8,1.7-11.7,3.4-17.7,5.2c-3,0.9-6,1.7-9,2.6
					c-3,0.9-6,1.8-9,2.8c-24.2,7.2-48.7,15.3-72.1,23.6c-5.8,2.1-11.6,4.2-17.4,6.3c-5.7,2.2-11.3,4.4-16.8,6.5
					c-2.7,1.1-5.5,2.1-8.2,3.2c-2.7,1.1-5.3,2.2-7.9,3.3c-5.2,2.2-10.3,4.4-15.3,6.5c-5,2.2-9.7,4.4-14.3,6.5
					c-4.6,2.2-9.1,4.2-13.3,6.3c-8.4,4.3-16.1,8.3-22.7,12.1c-13.2,7.9-22.8,14.5-26.9,19.9C483.6,470,484.7,473.8,492.2,475.7z
					 M178.4,860.3c-0.2-6.2,0.2-12.3,0.4-18.4l0.1-2.3c0-0.8,0.1-1.5,0.2-2.3c0.1-1.5,0.3-3,0.4-4.6c0.3-3,0.5-6.1,0.9-9.2
					c0.5-3.1,1-6.1,1.5-9.2c0.3-1.6,0.5-3.1,0.8-4.7c0.4-1.5,0.7-3.1,1.1-4.7c0.7-3.1,1.5-6.3,2.3-9.5c1-3.1,2-6.3,3-9.6l-2.2,9.1
					c-0.7,3-1.2,6.1-1.9,9.2c-1.4,6.1-2.1,12.3-3.2,18.5l-0.4,2.3l-0.3,2.4l-0.5,4.7l-0.5,4.7c-0.2,1.6-0.4,3.1-0.5,4.7
					C179.2,847.6,178.5,853.8,178.4,860.3z M237.1,596.2c-14.3,17.6-28.2,35.8-40.7,54.8c-1.6,2.4-3.2,4.7-4.7,7.1
					c-1.5,2.4-3,4.8-4.5,7.2l-2.2,3.6l-1.1,1.8l-1,1.8l-4.2,7.4c-2.9,4.8-5.4,10-8,14.9l-2,3.7l-1,1.9l-0.9,1.9l-3.5,7.7
					c-9.4,20.4-16.9,41.6-22.4,63c-5.5,21.4-9,43.1-10.4,64.5c-0.1,2.1-0.3,4.1-0.4,6.2c-0.2,2.1-0.4,4.1-0.5,6.2
					c-0.2,4.2-0.5,8.4-0.8,12.5c-0.2,2.1-0.2,4.2-0.3,6.3c-0.1,2.1-0.2,4.2-0.3,6.3c-0.1,2.1-0.2,4.2-0.4,6.4
					c-0.1,2.1-0.1,4.3-0.2,6.4l-0.2,6.4c-0.1,2.1-0.2,4.3-0.2,6.4c0,4.3,0,8.6-0.1,12.9c0,2.1,0,4.3,0.1,6.4
					c0.1,2.1,0.1,4.3,0.2,6.4c0.1,2.1,0.1,4.3,0.2,6.4c0.1,2.1,0.3,4.3,0.4,6.4c1.8,34.2,7.8,67.7,19.7,96.2c1.7-0.3,3.5-0.7,5.2-1
					l-3-6.2c-0.4-2.9-0.8-5.7-1.2-8.5c-0.4-2.8-0.6-5.5-0.8-8.2c-0.4-5.4-0.9-10.5-1-15.5c-0.2-5-0.4-9.9-0.5-14.8
					c-0.1-4.9-0.2-9.7-0.4-14.5c0.3,1.1,0.6,2.2,0.8,3.3c-0.3-1.9-0.7-3.8-0.9-5.8c-0.1-3.2-0.2-6.5-0.3-9.7c-0.1-1.6-0.2-3.3-0.3-5
					c-0.1-1.7-0.2-3.3-0.3-5c-0.2-3.4-0.5-6.9-0.9-10.4c-0.4-3.6-0.6-7.2-1.1-11c-1.2-7-1.9-14-2.6-21.2
					c-0.5-20.2,0.2-40.5,2.3-60.5c2-20,5.4-39.8,10-59c0.6-2.4,1.2-4.8,1.8-7.2l0.9-3.6c0.3-1.2,0.6-2.4,1-3.6
					c1.4-4.7,2.8-9.4,4.1-14.1c1.5-4.6,3.1-9.3,4.6-13.9c0.7-2.3,1.6-4.6,2.5-6.8c0.8-2.3,1.7-4.5,2.5-6.8c1.6-4.6,3.6-8.9,5.4-13.4
					c0.9-2.2,1.8-4.4,2.7-6.7c1-2.2,2-4.3,3-6.5c3.8-8.7,8-17.1,12.2-25.5c11.2-20.1,22.8-38.9,35.8-57.1c13-18.2,27.4-35.8,44.8-53
					c-5.5,4.3-12.4,9.5-19.2,15C248.1,585.1,241.5,590.7,237.1,596.2z"/>
				<path class="st1" d="M157,1193.6c6.1,13.9,12.6,27.7,19.1,41.6c3.3,6.9,6.6,13.8,10,20.8c1.7,3.5,3.3,6.9,5,10.4
					c1.7,3.5,3.4,6.9,5.1,10.4c2.8,5.3,5.6,10.5,8.4,15.8c2.8,5.2,5.7,10.4,8.6,15.6c2.9,5.2,5.8,10.4,8.7,15.6
					c3,5.1,5.9,10.3,8.9,15.4c13.5,24.8,27.2,50.7,41,77.4c13.8,26.7,27.8,54.1,42,81.7c28.4,55.3,57.6,111.4,87.4,164.3
					c6.2,0.8,11.1-1.3,14-7.7c-13.9-29.9-28.6-59.3-43.5-88.6c-7.5-14.6-15-29.2-22.6-43.7l-22.6-43.6
					c-7.6-14.5-14.9-29.1-22.4-43.7l-10.9-21.9c-3.7-7.3-7.2-14.7-10.7-22c-3.5-7.4-7.1-14.7-10.5-22.1l-10.2-22.2
					c-3.3-7.4-6.6-14.9-9.8-22.4l-4.8-11.2l-4.6-11.3c-0.6-0.8-1.1-1.7-1.7-2.6c-3.9-5.9-8-12.3-11.9-19.3
					c-3.9-7-7.9-14.4-11.8-22.2c-7.8-15.6-15.7-32.7-23.1-50c-7.5-17.4-14.7-35.4-21.7-53c-7.1-17.6-13.7-34.8-20.5-50.7
					c-1.8-4-3.5-7.9-5.3-11.9c-1.7-4-3.3-8-4.9-12c-0.8-2-1.6-4-2.4-6.1l-2.3-6.1c-1.5-4.1-3-8.1-4.4-12.2
					c-2.7-8.2-5.5-16.4-7.9-24.8c-2.6-8.3-4.7-16.7-7-25.1c-1.1-4.2-2-8.4-3.1-12.7l-1.5-6.3l-1.4-6.4c-0.9-4.3-1.9-8.5-2.7-12.8
					l-2.4-12.8l-0.6-3.2l-0.5-3.2l-1.1-6.5c-0.7-4.3-1.5-8.6-2-13l-1.9-13l-1.6-13.1c-0.2,25.3,1.5,50.3,4.6,74.9
					c3.1,24.6,7.6,48.9,13,72.9C127.2,1099.1,141.5,1146.1,157,1193.6z"/>
				<path class="st1" d="M327.1,421.1c-3.1,2-6.1,4-9.2,6c-3,2.1-6.1,4.1-9.1,6.2c-6.1,4.1-12.2,8.4-18.2,12.6
					c-3,2.1-6.1,4.4-9.1,6.5c-3,2.2-6.1,4.4-9.1,6.6c-3,2.3-6,4.5-9.1,6.8l-4.5,3.4l-4.5,3.5c-4.1,3.4-8.3,6.6-12.3,10
					c-4,3.4-8,6.8-12,10.1c-3.9,3.5-7.8,6.9-11.7,10.4l-2.9,2.6l-2.8,2.7c-1.9,1.8-3.8,3.5-5.7,5.3c-1.9,1.8-3.8,3.5-5.6,5.3
					c-1.8,1.8-3.7,3.6-5.5,5.5c-3.6,3.7-7.3,7.2-10.8,11c-3.5,3.7-7,7.4-10.5,11.2c-3.4,3.9-6.8,7.7-10.1,11.5
					c-13.2,15.5-25.6,31.8-36.9,48.7c-2.7,4.3-5.5,8.6-8.2,13l-2,3.2c-0.7,1.1-1.3,2.2-1.9,3.3l-3.8,6.7l-3.8,6.7
					c-1.2,2.2-2.4,4.5-3.5,6.8c-2.3,4.6-4.7,9.1-6.9,13.7c3.7-6.5,7.6-12.9,11.4-19.4l6.2-9.4c2.1-3.1,4.1-6.3,6.3-9.3l6.5-9.1
					c1.1-1.5,2.2-3.1,3.3-4.5l3.4-4.4l6.9-8.8c2.3-2.9,4.8-5.7,7.1-8.5c19.2-22.5,40.1-43.1,62-61.8c21.2-19.3,40.7-37.2,59.7-54.6
					C289.1,453.5,307.5,437,327.1,421.1z"/>
				<path class="st1" d="M73.6,722.1c6.4-21.2,14.3-41.7,23.6-61.6c-10.7,19.5-19.9,39.7-27.6,60.3c-1.8,5.2-3.6,10.4-5.5,15.6
					c-1.7,5.2-3.2,10.5-4.8,15.7c-1.7,5.2-2.9,10.5-4.2,15.8l-2,7.9c-0.7,2.6-1.1,5.3-1.7,8l-1.6,8c-0.5,2.7-1.1,5.3-1.5,8
					l-2.6,15.9c-0.8,5.3-1.3,10.6-2,15.9c-0.7,5.3-1.1,10.6-1.5,15.9l-0.6,7.9c-0.2,2.6-0.3,5.3-0.4,7.9l-0.4,7.9
					c-0.1,2.6-0.3,5.3-0.3,7.9l-0.1,15.8c-0.1,2.6,0.1,5.2,0.1,7.8l0.2,7.8L41,917l0.5,6.4l1,12.8c0.4,4.2,0.9,8.5,1.4,12.7
					c0.5,4.2,0.9,8.4,1.6,12.6l1.8,12.5c0.6,4.2,1.4,8.3,2,12.4l1.1,6.2l0.5,3.1l0.6,3.1l2.4,12.3c0.8,4.1,1.7,8.2,2.6,12.2
					c0.9,4.1,1.8,8.1,2.7,12.2l3,12.1l1.5,6l1.6,6l3.2,11.9l3.5,11.8c2.3,7.9,4.8,15.7,7.2,23.5c10,31.1,21.6,61.5,34.2,91.2
					c6.3,14.8,12.8,29.5,19.7,44c1.7,3.6,3.4,7.3,5.1,10.8l5.2,10.7c3.5,7.1,6.9,14.3,10.5,21.3c6.5,12.9,12.6,25.8,18.8,38.5
					l-4.3-10.2c-1.4-3.4-2.8-6.8-4.2-10.2c-2.8-6.8-5.6-13.6-8.3-20.4c-2.8-6.8-5.4-13.7-8.1-20.5c-2.7-6.8-5.4-13.6-8-20.5
					c-10.6-27.6-20.5-55.4-29.4-83.5c-8.9-28.1-16.8-56.5-23.6-85c-0.4-1.8-0.9-3.6-1.3-5.3l-1.2-5.4c-0.8-3.6-1.6-7.2-2.4-10.7
					c-1.5-7.2-2.9-14.3-4.4-21.5c-0.6-3.6-1.3-7.2-1.9-10.8c-0.6-3.6-1.3-7.2-1.9-10.8c-0.6-3.6-1.1-7.2-1.7-10.8
					c-0.3-1.8-0.6-3.6-0.8-5.4l-0.7-5.4c-4-28.9-6.4-57.8-7-86.7c-0.6-28.9,0.9-57.8,4.6-86.3c3.7-28.5,9.6-56.6,17.8-83.7
					c8.2-27.2,18.8-53.5,31.2-78.4c1.7-3.8,4-7.7,6-11.5c-14.5,22.2-26.9,45.6-36.9,69.8c-10.1,24.3-17.8,49.3-23.3,74.5
					c-5.5,25.2-8.8,50.7-10.3,76c-1.5,25.3-1.2,50.4,0.6,75.1l-1.1-13.1c-0.2-2.2-0.4-4.4-0.5-6.5l-0.3-6.6
					c-0.2-4.4-0.5-8.8-0.7-13.2l-0.3-13.3c0-2.2-0.1-4.4-0.1-6.6l0.1-6.7c0.1-4.4,0.1-8.9,0.3-13.4c0.5-8.9,0.7-17.9,1.7-26.8
					c1.4-17.9,4.1-35.9,7.5-53.9l2.8-13.5l0.7-3.4l0.8-3.3l1.7-6.7l1.7-6.7c0.3-1.1,0.6-2.2,0.9-3.4l1-3.3L73.6,722.1z"/>
				<path class="st1" d="M145.3,1166.6c2.1,6.5,4.3,12.8,6.4,19.2c1.6,3.6,3.2,7.2,4.8,10.7c1.6,3.5,3.2,7.1,4.9,10.6
					c-1.5-4.5-3-9-4.4-13.5c-2-4.5-4-9-5.9-13.5C149.2,1175.6,147.2,1171.1,145.3,1166.6z"/>
				<path class="st1" d="M145.9,966.8c0-0.8,0-1.6-0.1-2.5c-3.1-20.5-4.9-41.4-5.5-62.4l-0.3-2.7c-0.1-0.9-0.1-1.8-0.2-2.7
					c-0.1-1.8-0.3-3.6-0.4-5.5c-0.1-1.8-0.3-3.7-0.4-5.5c-0.1-1.8-0.3-3.7-0.3-5.5c-0.1-3.7-0.2-7.4-0.3-11.2l-0.1-2.8
					c0-0.9,0-1.9,0-2.8c0-1.9,0.1-3.7,0.1-5.6c0-1.9,0.1-3.8,0.1-5.7l0.1-2.8l0.2-2.8c0.2-3.8,0.5-7.6,0.7-11.4
					c0.1-1.9,0.3-3.8,0.5-5.7c0.2-1.9,0.4-3.8,0.6-5.7c0.2-1.9,0.4-3.8,0.6-5.7c0.1-1,0.2-1.9,0.4-2.9l0.5-2.8
					c-0.3,1.7-0.7,3.4-1,5.1l-0.8,5.2c-0.5,3.4-1,6.9-1.5,10.3c-0.4,3.5-0.7,6.9-1.1,10.4c-0.2,1.7-0.4,3.4-0.5,5.1
					c-0.2,1.7-0.2,3.4-0.4,5.2c-0.2,3.4-0.4,6.9-0.7,10.3c-0.1,1.7-0.2,3.4-0.2,5.1c0,1.7-0.1,3.4-0.1,5.1c0,1.7-0.1,3.4-0.1,5.1
					c0,1.7-0.1,3.4,0,5c0.1,3.4,0.1,6.7,0.2,10c0,1.7,0.1,3.3,0.1,4.9c0.1,1.6,0.2,3.3,0.3,4.9c0.2,3.3,0.4,6.5,0.6,9.7
					c0.1,0.8,0.1,1.6,0.2,2.4c0.1,0.8,0.2,1.6,0.3,2.4c0.2,1.6,0.3,3.2,0.5,4.7c0.4,3.1,0.7,6.2,1.1,9.3c0.9,6.1,1.9,12.1,2.9,17.9
					C143.4,955.8,144.6,961.4,145.9,966.8z"/>
				<path class="st1" d="M199,802.9c0.6-2.7,2-6.6,3.2-10.5c0.6-2,1.2-3.9,1.8-5.7c0.6-1.8,1.3-3.4,1.7-4.6
					c0.2-3.5,0.3-6.9,0.5-10.5c-1.9,4.8-3.8,9.6-5.7,14.5c0,0-0.4,4.2-0.9,8.4c-0.2,2.1-0.5,4.2-0.6,5.8
					C199,801.9,199,802.9,199,802.9z"/>
				<path class="st1" d="M416.4,531.6c-49.9,33.3-94.9,68.2-131.1,105.8c-8.9,9.5-17.5,18.9-25.2,28.7c-4,4.8-7.6,9.8-11.3,14.7
					c-0.9,1.2-1.8,2.5-2.6,3.7l-2.6,3.7l-2.6,3.7l-1.3,1.9l-1.2,1.9c-1.6,2.5-3.1,5-4.7,7.5l-1.2,1.9c-0.4,0.6-0.7,1.3-1.1,1.9
					l-2.2,3.8l-2.2,3.8c-0.7,1.3-1.5,2.5-2.1,3.8l-3.9,7.8l-2,3.9c-0.6,1.3-1.2,2.6-1.8,4l-3.5,7.9l-0.9,2l-0.8,2l-1.6,4
					c-1,2.7-2.1,5.3-3.1,8c-0.6,4.6-1.1,9.2-1.5,13.7c6-14,12.7-27.4,20.1-40.5c1.9-3.2,3.8-6.5,5.7-9.7c2-3.2,4-6.3,6-9.5
					c0.5-0.8,1-1.6,1.5-2.4l1.6-2.3c1.1-1.6,2.1-3.1,3.2-4.7l1.6-2.4c0.5-0.8,1-1.6,1.6-2.3c1.1-1.5,2.2-3.1,3.4-4.6
					c1.1-1.6,2.2-3.1,3.3-4.7c1.1-1.6,2.3-3.1,3.5-4.6c1.2-1.5,2.3-3.1,3.5-4.6l1.7-2.3l1.8-2.3c2.4-3,4.8-6.1,7.2-9.1
					c2.5-3,5-6,7.5-9.1c10.1-12,20.7-24,31.4-35.9c4.4-4.6,9.3-10.9,14.9-16.9c5.4-6.1,11.2-11.8,16.4-15.7
					c12.3-9.2,24.7-18.3,37.2-27.3c3.1-2.3,6.3-4.5,9.4-6.7c3.1-2.2,6.3-4.5,9.4-6.7c6.3-4.4,12.6-8.9,18.9-13.3
					c25.3-17.5,50.7-34.3,76.7-50.1c-25.3,14.3-50.4,29.5-75.2,46.2C417.8,530.7,417.1,531.2,416.4,531.6z"/>
			</g>
		</g>
	</g>
</g>
</svg>
