<?xml version="1.0" encoding="utf-8"?>
<!-- Generator: Adobe Illustrator 17.0.0, SVG Export Plug-In . SVG Version: 6.00 Build 0)  -->
<!DOCTYPE svg PUBLIC "-//W3C//DTD SVG 1.1//EN" "http://www.w3.org/Graphics/SVG/1.1/DTD/svg11.dtd">
<svg version="1.1" id="Layer_1" xmlns="http://www.w3.org/2000/svg" xmlns:xlink="http://www.w3.org/1999/xlink" x="0px" y="0px"
	 width="193.151px" height="48.226px" viewBox="0 0 193.151 48.226" enable-background="new 0 0 193.151 48.226"
	 xml:space="preserve">
<path d="M5.136,1.824h8.891c5.327,0,8.639,2.771,8.639,7.452c0,2.434-1.044,4.381-3.096,5.579c2.52,1.123,3.924,3.333,3.924,6.403
	c0,5.055-3.491,7.9-8.855,7.9H5.136V1.824z M9.06,5.531v7.677h5.111c3.167,0,4.571-1.647,4.571-3.932
	c0-2.359-1.619-3.745-4.715-3.745H9.06z M9.06,16.99v8.425h5.579c3.095,0,4.931-1.686,4.931-4.231c0-2.584-1.476-4.193-5.111-4.193
	L9.06,16.99L9.06,16.99z"/>
<path d="M34.512,1.824h8.171c5.579,0,9.287,3.932,9.287,8.912c0,3.632-1.943,7.077-5.688,8.275l6.264,10.147h-4.5l-7.919-13.03
	h2.124c3.924,0,5.795-2.884,5.795-5.393c0-3.07-1.907-5.13-5.759-5.13h-3.852v23.553h-3.924V1.824H34.512z"/>
<path d="M96.072,1.824h4.428l13.318,20.67V1.824h3.888v27.335h-4.14L99.996,8.152v21.007h-3.924V1.824z"/>
<path d="M136.211,5.643h-7.451V1.824h18.79v3.819h-7.451v23.516h-3.888V5.643z"/>
<path d="M158.496,19.948V1.824h3.924V20.21c0,3.033,2.268,5.505,5.256,5.505c3.023,0,5.363-2.472,5.363-5.505V1.824h3.887v18.124
	c0,5.879-3.923,9.585-9.215,9.585C162.383,29.533,158.496,25.827,158.496,19.948z"/>
<polygon points="75.803,1.824 71.772,1.824 62.126,29.159 66.229,29.159 68.245,23.318 69.612,19.423 73.788,7.441 77.963,19.423 
	79.331,23.318 81.382,29.159 85.45,29.159 "/>
<g>
	<path d="M5.173,39.249h2.469c1.479,0,2.399,0.77,2.399,2.071c0,0.676-0.29,1.217-0.86,1.55c0.7,0.312,1.089,0.927,1.089,1.78
		c0,1.404-0.969,2.195-2.458,2.195H5.173V39.249z M6.263,40.279v2.133h1.419c0.879,0,1.269-0.457,1.269-1.092
		c0-0.656-0.45-1.041-1.309-1.041H6.263z M6.263,43.464v2.341h1.549c0.859,0,1.369-0.468,1.369-1.176
		c0-0.718-0.41-1.165-1.419-1.165H6.263z"/>
	<path d="M13.423,39.249h2.269c1.549,0,2.579,1.093,2.579,2.477c0,1.01-0.54,1.967-1.579,2.3l1.739,2.82h-1.25l-2.199-3.621h0.59
		c1.089,0,1.609-0.802,1.609-1.499c0-0.854-0.529-1.426-1.599-1.426h-1.07v6.546h-1.089V39.249z"/>
	<path d="M21.573,39.249h1.089v7.597h-1.089V39.249z"/>
	<path d="M26.093,39.249h1.229l3.697,5.744v-5.744h1.079v7.597H30.95l-3.768-5.838v5.838h-1.089V39.249z"/>
	<path d="M35.252,43.047c0-2.164,1.589-3.902,3.778-3.902c1.459,0,2.648,0.791,3.278,1.957l-0.95,0.593
		c-0.47-0.916-1.279-1.467-2.328-1.467c-1.579,0-2.688,1.279-2.688,2.819c0,1.551,1.129,2.811,2.698,2.811
		c1.379,0,2.249-0.874,2.479-2.103h-2.618v-1.072h3.758v0.406c0,2.061-1.35,3.861-3.618,3.861
		C36.841,46.95,35.252,45.17,35.252,43.047z"/>
	<path d="M45.883,39.249h1.089v7.597h-1.089V39.249z"/>
	<path d="M50.402,39.249h1.229l3.698,5.744v-5.744h1.079v7.597h-1.149l-3.768-5.838v5.838h-1.09L50.402,39.249L50.402,39.249z"/>
	<path d="M59.562,43.047c0-2.164,1.589-3.902,3.778-3.902c1.459,0,2.648,0.791,3.278,1.957l-0.95,0.593
		c-0.47-0.916-1.279-1.467-2.328-1.467c-1.579,0-2.688,1.279-2.688,2.819c0,1.551,1.129,2.811,2.698,2.811
		c1.379,0,2.249-0.874,2.479-2.103h-2.618v-1.072h3.758v0.406c0,2.061-1.35,3.861-3.618,3.861
		C61.15,46.95,59.562,45.17,59.562,43.047z"/>
	<path d="M74.842,39.249h2.469c1.479,0,2.398,0.77,2.398,2.071c0,0.676-0.29,1.217-0.859,1.55c0.7,0.312,1.09,0.927,1.09,1.78
		c0,1.404-0.97,2.195-2.459,2.195h-2.639V39.249z M75.932,40.279v2.133h1.419c0.88,0,1.27-0.457,1.27-1.092
		c0-0.656-0.45-1.041-1.31-1.041H75.932z M75.932,43.464v2.341h1.549c0.859,0,1.369-0.468,1.369-1.176
		c0-0.718-0.41-1.165-1.419-1.165H75.932z"/>
	<path d="M83.092,39.249h2.269c1.55,0,2.579,1.093,2.579,2.477c0,1.01-0.54,1.967-1.579,2.3l1.739,2.82h-1.25l-2.198-3.621h0.59
		c1.089,0,1.608-0.802,1.608-1.499c0-0.854-0.529-1.426-1.599-1.426h-1.069v6.546h-1.09V39.249z"/>
	<path d="M93.529,39.249h1.12l2.679,7.597h-1.13l-0.569-1.623H92.55l-0.56,1.623h-1.139L93.529,39.249z M92.93,44.14h2.319
		l-1.159-3.33L92.93,44.14z"/>
	<path d="M100.371,39.249h1.229l3.698,5.744v-5.744h1.079v7.597h-1.149l-3.768-5.838v5.838h-1.09L100.371,39.249L100.371,39.249z"/>
	<path d="M109.741,39.249h2.019c2.369,0,3.828,1.645,3.828,3.798c0,2.165-1.599,3.799-3.788,3.799h-2.059V39.249z M110.831,40.29
		v5.505h0.859c1.679,0,2.798-1.187,2.798-2.748c0-1.592-1.009-2.757-2.838-2.757H110.831z"/>
	<path d="M118.262,45.565l0.96-0.78c0.43,0.718,1.009,1.104,1.749,1.104c0.81,0,1.318-0.542,1.318-1.218
		c0-0.78-0.799-1.03-1.639-1.312c-0.989-0.333-2.059-0.749-2.059-2.144c0-1.155,0.989-2.071,2.339-2.071
		c1.109,0,1.799,0.448,2.358,1.124l-0.89,0.688c-0.33-0.531-0.819-0.812-1.469-0.812c-0.74,0-1.22,0.458-1.22,1.052
		c0,0.729,0.77,0.968,1.609,1.259c0.999,0.354,2.089,0.802,2.089,2.217c0,1.165-0.92,2.279-2.429,2.279
		C119.73,46.95,118.882,46.398,118.262,45.565z"/>
	<path d="M133.149,40.311h-2.069v-1.062h5.218v1.062h-2.069v6.535h-1.079v-6.535H133.149z"/>
	<path d="M138.561,43.047c0-2.153,1.669-3.902,3.738-3.902c2.079,0,3.748,1.749,3.748,3.902c0,2.154-1.669,3.903-3.748,3.903
		C140.23,46.95,138.561,45.201,138.561,43.047z M144.957,43.047c0-1.54-1.159-2.81-2.658-2.81c-1.489,0-2.648,1.27-2.648,2.81
		c0,1.541,1.159,2.8,2.648,2.8C143.798,45.847,144.957,44.588,144.957,43.047z"/>
	<path d="M155.938,43.245l-2.368-3.996h1.199l1.709,2.914l1.719-2.914h1.2l-2.379,4.007v3.59h-1.08V43.245z"/>
	<path d="M161.439,43.047c0-2.153,1.669-3.902,3.738-3.902c2.079,0,3.748,1.749,3.748,3.902c0,2.154-1.669,3.903-3.748,3.903
		C163.108,46.95,161.439,45.201,161.439,43.047z M167.836,43.047c0-1.54-1.159-2.81-2.658-2.81c-1.489,0-2.648,1.27-2.648,2.81
		c0,1.541,1.159,2.8,2.648,2.8C166.677,45.847,167.836,44.588,167.836,43.047z"/>
	<path d="M172.06,44.286v-5.037h1.089v5.109c0,0.843,0.63,1.53,1.459,1.53c0.84,0,1.489-0.688,1.489-1.53v-5.109h1.08v5.037
		c0,1.634-1.09,2.664-2.559,2.664C173.139,46.95,172.06,45.92,172.06,44.286z"/>
</g>
<linearGradient id="SVGID_1_" gradientUnits="userSpaceOnUse" x1="183.2288" y1="11.4505" x2="192.1456" y2="11.4505">
	<stop  offset="0" style="stop-color:#34007F"/>
	<stop  offset="1" style="stop-color:#5A006A"/>
</linearGradient>
<linearGradient id="SVGID_2_" gradientUnits="userSpaceOnUse" x1="182.8923" y1="11.4505" x2="192.4358" y2="11.4505">
	<stop  offset="0" style="stop-color:#34007F"/>
	<stop  offset="1" style="stop-color:#5A006A"/>
</linearGradient>
<path fill="url(#SVGID_1_)" stroke="url(#SVGID_2_)" stroke-width="0.5802" stroke-miterlimit="10" d="M189.617,8.173
	c0.506,0.402,1.077,0.754,1.52,1.226c1.242,1.323,1.329,3.563,0.309,5.303c-1.152,1.966-3.067,2.368-4.639,1.994
	c-0.533-0.127-1.007-0.502-1.522-0.771c0,0.058,0,0.192,0,0.326c0.004,1.459,0.019,2.917-0.262,4.362
	c-0.071,0.367-0.211,0.489-0.574,0.461c-0.394-0.031-0.793-0.007-1.22-0.007c0.086-0.58,0.185-1.109,0.239-1.643
	c0.059-0.584,0.105-1.173,0.107-1.76c0.01-3.731,0.001-7.462,0.014-11.193c0.002-0.598,0.048-1.201,0.139-1.791
	c0.213-1.378,1.083-2.224,2.358-2.637c1.099-0.355,2.211-0.266,3.277,0.193c2.448,1.055,2.258,3.887,1.088,5.144
	C190.179,7.671,189.874,7.93,189.617,8.173z M185.292,9.722c-0.002,0-0.004,0-0.007,0c0,1.6-0.002,3.2,0.003,4.8
	c0,0.136,0.011,0.295,0.079,0.403c0.511,0.805,1.247,1.226,2.209,1.215c0.941-0.011,1.676-0.376,2.138-1.236
	c0.931-1.735,0.539-4.707-0.835-6.125c-0.09-0.093-0.279-0.126-0.421-0.125c-0.433,0.004-0.867,0.071-1.297,0.05
	c-0.29-0.014-0.599-0.114-0.606-0.508c-0.005-0.283,0.195-0.472,0.626-0.471c0.441,0.001,0.886,0.072,1.321,0.156
	c0.226,0.044,0.334,0.005,0.437-0.202c0.517-1.045,0.708-2.139,0.507-3.289c-0.204-1.162-1.003-1.855-2.069-1.825
	c-1.075,0.03-1.869,0.788-2.017,1.939c-0.039,0.303-0.065,0.609-0.067,0.914C185.288,6.851,185.292,8.286,185.292,9.722z"/>
</svg>
