<?xml version="1.0" encoding="utf-8"?>
<!-- Generator: Adobe Illustrator 17.0.0, SVG Export Plug-In . SVG Version: 6.00 Build 0)  -->
<!DOCTYPE svg PUBLIC "-//W3C//DTD SVG 1.1//EN" "http://www.w3.org/Graphics/SVG/1.1/DTD/svg11.dtd">
<svg version="1.1" id="Layer_2" xmlns="http://www.w3.org/2000/svg" xmlns:xlink="http://www.w3.org/1999/xlink" x="0px" y="0px"
	 width="183.772px" height="47.284px" viewBox="0 0 183.772 47.284" enable-background="new 0 0 183.772 47.284"
	 xml:space="preserve">
<path d="M1.677,0.781h8.891c5.327,0,8.639,2.771,8.639,7.452c0,2.434-1.044,4.381-3.096,5.579c2.52,1.123,3.924,3.333,3.924,6.403
	c0,5.055-3.491,7.9-8.855,7.9H1.677V0.781z M5.601,4.488v7.677h5.111c3.167,0,4.571-1.647,4.571-3.932
	c0-2.359-1.619-3.745-4.715-3.745H5.601z M5.601,15.947v8.425h5.579c3.095,0,4.931-1.686,4.931-4.231
	c0-2.584-1.476-4.193-5.111-4.193H5.601z"/>
<path d="M31.053,0.781h8.171c5.579,0,9.287,3.932,9.287,8.912c0,3.632-1.943,7.077-5.688,8.275l6.264,10.147h-4.5l-7.919-13.03
	h2.124c3.924,0,5.795-2.884,5.795-5.393c0-3.07-1.907-5.13-5.759-5.13h-3.852v23.553h-3.924V0.781z"/>
<path d="M92.613,0.781h4.428l13.318,20.67V0.781h3.888v27.335h-4.14L96.537,7.109v21.007h-3.924V0.781z"/>
<path d="M132.752,4.6h-7.451V0.781h18.79V4.6h-7.451v23.516h-3.888V4.6z"/>
<path d="M155.037,18.905V0.781h3.924v18.386c0,3.033,2.268,5.505,5.256,5.505c3.023,0,5.363-2.472,5.363-5.505V0.781h3.887v18.124
	c0,5.879-3.923,9.585-9.215,9.585C158.924,28.49,155.037,24.784,155.037,18.905z"/>
<polygon points="72.344,0.781 68.313,0.781 58.667,28.116 62.77,28.116 64.786,22.275 66.153,18.38 70.329,6.398 74.504,18.38 
	75.872,22.275 77.923,28.116 81.991,28.116 "/>
<g>
	<path d="M1.714,38.206h2.469c1.479,0,2.399,0.77,2.399,2.071c0,0.676-0.29,1.217-0.86,1.55c0.7,0.312,1.089,0.927,1.089,1.78
		c0,1.404-0.969,2.195-2.458,2.195H1.714V38.206z M2.804,39.236v2.133h1.419c0.879,0,1.269-0.457,1.269-1.092
		c0-0.656-0.45-1.041-1.309-1.041H2.804z M2.804,42.421v2.341h1.549c0.859,0,1.369-0.468,1.369-1.176
		c0-0.718-0.41-1.165-1.419-1.165H2.804z"/>
	<path d="M9.964,38.206h2.269c1.549,0,2.579,1.093,2.579,2.477c0,1.01-0.54,1.967-1.579,2.3l1.739,2.82h-1.25l-2.199-3.621h0.59
		c1.089,0,1.609-0.802,1.609-1.499c0-0.854-0.529-1.426-1.599-1.426h-1.07v6.546H9.964V38.206z"/>
	<path d="M18.114,38.206h1.089v7.597h-1.089V38.206z"/>
	<path d="M22.634,38.206h1.229l3.697,5.744v-5.744h1.079v7.597h-1.148l-3.768-5.838v5.838h-1.089V38.206z"/>
	<path d="M31.793,42.004c0-2.164,1.589-3.902,3.778-3.902c1.459,0,2.648,0.791,3.278,1.957l-0.95,0.593
		c-0.47-0.916-1.279-1.467-2.328-1.467c-1.579,0-2.688,1.279-2.688,2.819c0,1.551,1.129,2.811,2.698,2.811
		c1.379,0,2.249-0.874,2.479-2.103h-2.618V41.64h3.758v0.406c0,2.061-1.35,3.861-3.618,3.861
		C33.382,45.907,31.793,44.127,31.793,42.004z"/>
	<path d="M42.424,38.206h1.089v7.597h-1.089V38.206z"/>
	<path d="M46.943,38.206h1.229l3.698,5.744v-5.744h1.079v7.597h-1.149l-3.768-5.838v5.838h-1.09V38.206z"/>
	<path d="M56.103,42.004c0-2.164,1.589-3.902,3.778-3.902c1.459,0,2.648,0.791,3.278,1.957l-0.95,0.593
		c-0.47-0.916-1.279-1.467-2.328-1.467c-1.579,0-2.688,1.279-2.688,2.819c0,1.551,1.129,2.811,2.698,2.811
		c1.379,0,2.249-0.874,2.479-2.103h-2.618V41.64h3.758v0.406c0,2.061-1.35,3.861-3.618,3.861
		C57.691,45.907,56.103,44.127,56.103,42.004z"/>
	<path d="M71.383,38.206h2.469c1.479,0,2.398,0.77,2.398,2.071c0,0.676-0.29,1.217-0.859,1.55c0.7,0.312,1.09,0.927,1.09,1.78
		c0,1.404-0.97,2.195-2.459,2.195h-2.639V38.206z M72.473,39.236v2.133h1.419c0.88,0,1.27-0.457,1.27-1.092
		c0-0.656-0.45-1.041-1.31-1.041H72.473z M72.473,42.421v2.341h1.549c0.859,0,1.369-0.468,1.369-1.176
		c0-0.718-0.41-1.165-1.419-1.165H72.473z"/>
	<path d="M79.633,38.206h2.269c1.55,0,2.579,1.093,2.579,2.477c0,1.01-0.54,1.967-1.579,2.3l1.739,2.82h-1.25l-2.198-3.621h0.59
		c1.089,0,1.608-0.802,1.608-1.499c0-0.854-0.529-1.426-1.599-1.426h-1.069v6.546h-1.09V38.206z"/>
	<path d="M90.07,38.206h1.12l2.679,7.597h-1.13L92.17,44.18h-3.079l-0.56,1.623h-1.139L90.07,38.206z M89.471,43.097h2.319
		l-1.159-3.33L89.471,43.097z"/>
	<path d="M96.912,38.206h1.229l3.698,5.744v-5.744h1.079v7.597h-1.149l-3.768-5.838v5.838h-1.09V38.206z"/>
	<path d="M106.282,38.206h2.019c2.369,0,3.828,1.645,3.828,3.798c0,2.165-1.599,3.799-3.788,3.799h-2.059V38.206z M107.372,39.247
		v5.505h0.859c1.679,0,2.798-1.187,2.798-2.748c0-1.592-1.009-2.757-2.838-2.757H107.372z"/>
	<path d="M114.803,44.522l0.96-0.78c0.43,0.718,1.009,1.104,1.749,1.104c0.81,0,1.318-0.542,1.318-1.218
		c0-0.78-0.799-1.03-1.639-1.312c-0.989-0.333-2.059-0.749-2.059-2.144c0-1.155,0.989-2.071,2.339-2.071
		c1.109,0,1.799,0.448,2.358,1.124l-0.89,0.688c-0.33-0.531-0.819-0.812-1.469-0.812c-0.74,0-1.22,0.458-1.22,1.052
		c0,0.729,0.77,0.968,1.609,1.259c0.999,0.354,2.089,0.802,2.089,2.217c0,1.165-0.92,2.279-2.429,2.279
		C116.271,45.907,115.423,45.355,114.803,44.522z"/>
	<path d="M129.69,39.268h-2.069v-1.062h5.218v1.062h-2.069v6.535h-1.079V39.268z"/>
	<path d="M135.102,42.004c0-2.153,1.669-3.902,3.738-3.902c2.079,0,3.748,1.749,3.748,3.902c0,2.154-1.669,3.903-3.748,3.903
		C136.771,45.907,135.102,44.158,135.102,42.004z M141.498,42.004c0-1.54-1.159-2.81-2.658-2.81c-1.489,0-2.648,1.27-2.648,2.81
		c0,1.541,1.159,2.8,2.648,2.8C140.339,44.804,141.498,43.545,141.498,42.004z"/>
	<path d="M152.479,42.202l-2.368-3.996h1.199l1.709,2.914l1.719-2.914h1.2l-2.379,4.007v3.59h-1.08V42.202z"/>
	<path d="M157.98,42.004c0-2.153,1.669-3.902,3.738-3.902c2.079,0,3.748,1.749,3.748,3.902c0,2.154-1.669,3.903-3.748,3.903
		C159.649,45.907,157.98,44.158,157.98,42.004z M164.377,42.004c0-1.54-1.159-2.81-2.658-2.81c-1.489,0-2.648,1.27-2.648,2.81
		c0,1.541,1.159,2.8,2.648,2.8C163.218,44.804,164.377,43.545,164.377,42.004z"/>
	<path d="M168.601,43.243v-5.037h1.089v5.109c0,0.843,0.63,1.53,1.459,1.53c0.84,0,1.489-0.688,1.489-1.53v-5.109h1.08v5.037
		c0,1.634-1.09,2.664-2.559,2.664C169.68,45.907,168.601,44.877,168.601,43.243z"/>
</g>
<g id="_x31_FpdDg.tif">
	
		<image overflow="visible" width="129" height="274" id="Layer_0_1_" xlink:href="ADAFA994FE1B0F1D.png"  transform="matrix(0.0558 0 0 0.0558 174.4485 17.3541)">
	</image>
</g>
</svg>
