<?xml version="1.0" encoding="utf-8"?>
<!-- Generator: Adobe Illustrator 19.2.0, SVG Export Plug-In . SVG Version: 6.00 Build 0)  -->
<svg version="1.1" id="Layer_1" xmlns="http://www.w3.org/2000/svg" xmlns:xlink="http://www.w3.org/1999/xlink" x="0px" y="0px"
	 viewBox="0 0 1719.8 474.4" style="enable-background:new 0 0 1719.8 474.4;" xml:space="preserve">
<style type="text/css">
	.st0{fill:#FFFFFF;}
</style>
<g>
	<g>
		<path class="st0" d="M13.9,17.6l83.5,0c50,0,81.1,26.1,81.1,70.2c0,22.9-9.8,41.2-29.1,52.5c23.7,10.6,36.8,31.4,36.8,60.3
			c0,47.6-32.8,74.3-83.2,74.3l-89.2,0L13.9,17.6z M50.7,160.3l0,79.3l52.4,0c29.1,0,46.3-15.8,46.3-39.8c0-24.3-13.8-39.5-48-39.5
			L50.7,160.3z M50.7,52.5l0,72.2l48,0c29.7,0,42.9-15.5,42.9-37c0-22.2-15.2-35.2-44.3-35.3L50.7,52.5z"/>
		<path class="st0" d="M300.8,17.7l76.7,0c52.4,0,87.2,37,87.2,83.9c0,34.2-18.3,66.6-53.4,77.9l58.8,95.5l-42.3,0l-74.3-122.7
			l19.9,0c36.8,0,54.4-27.1,54.4-50.7c0-28.9-17.9-48.3-54.1-48.3l-36.2,0L337.6,275l-36.8,0L300.8,17.7z"/>
		<path class="st0" d="M917.4,17.9l41.6,0l125,194.6L1084,18l36.5,0l-0.1,257.2l-38.9,0L954.2,77.5l-0.1,197.7l-36.8,0L917.4,17.9z"
			/>
		<path class="st0" d="M1305.4,54l-70,0l0-35.9l176.4,0.1l0,35.9l-70,0l-0.1,221.3l-36.5,0L1305.4,54z"/>
		<path class="st0" d="M1525.7,188.6l0.1-170.6l36.8,0l-0.1,173c0,28.5,21.3,51.8,49.3,51.8c28.4,0,50.4-23.2,50.4-51.8l0.1-173
			l36.5,0l-0.1,170.6c0,55.3-36.9,90.2-86.6,90.2C1562.2,278.9,1525.7,244,1525.7,188.6z"/>
	</g>
	<g>
		<path class="st0" d="M13.9,17.6l83.5,0c50,0,81.1,26.1,81.1,70.2c0,22.9-9.8,41.2-29.1,52.5c23.7,10.6,36.8,31.4,36.8,60.3
			c0,47.6-32.8,74.3-83.2,74.3l-89.2,0L13.9,17.6z M50.7,160.3l0,79.3l52.4,0c29.1,0,46.3-15.8,46.3-39.8c0-24.3-13.8-39.5-48-39.5
			L50.7,160.3z M50.7,52.5l0,72.2l48,0c29.7,0,42.9-15.5,42.9-37c0-22.2-15.2-35.2-44.3-35.3L50.7,52.5z"/>
		<path class="st0" d="M300.8,17.7l76.7,0c52.4,0,87.2,37,87.2,83.9c0,34.2-18.3,66.6-53.4,77.9l58.8,95.5l-42.3,0l-74.3-122.7
			l19.9,0c36.8,0,54.4-27.1,54.4-50.7c0-28.9-17.9-48.3-54.1-48.3l-36.2,0L337.6,275l-36.8,0L300.8,17.7z"/>
		<path class="st0" d="M917.4,17.9l41.6,0l125,194.6L1084,18l36.5,0l-0.1,257.2l-38.9,0L954.2,77.5l-0.1,197.7l-36.8,0L917.4,17.9z"
			/>
		<path class="st0" d="M1305.4,54l-70,0l0-35.9l176.4,0.1l0,35.9l-70,0l-0.1,221.3l-36.5,0L1305.4,54z"/>
		<path class="st0" d="M1525.7,188.6l0.1-170.6l36.8,0l-0.1,173c0,28.5,21.3,51.8,49.3,51.8c28.4,0,50.4-23.2,50.4-51.8l0.1-173
			l36.5,0l-0.1,170.6c0,55.3-36.9,90.2-86.6,90.2C1562.2,278.9,1525.7,244,1525.7,188.6z"/>
	</g>
</g>
<g>
	<path class="st0" d="M13.4,364.5l23.7,0c16.9,0,26.6,8.1,26.6,23.1c0,6.9-2.8,12.4-8.2,15.8c7,3.5,10.9,9.8,10.9,18.8
		c0,16.3-10.5,24.4-27.4,24.4l-25.7,0L13.4,364.5z M27.8,411.8l0,20.5l11.2,0c8.4,0,12.8-3.7,12.8-10.3c0-6.6-2.9-10.1-13.5-10.1
		L27.8,411.8z M27.9,378.9l0,18.2l9.3,0c9,0,12.1-3.8,12.1-9.5c0-6-3.4-8.7-12-8.7L27.9,378.9z"/>
	<path class="st0" d="M92.9,364.6l23.8,0c17.5,0,28,12.1,28,27.6c0,10.2-4.6,20.2-14.7,24.4l17.2,30.2l-16.6,0l-22.8-40.6l7.1,0
		c11.2,0,15.1-8.1,15.1-13.9c0-8.2-4.1-12.9-15.1-13l-7.7,0l-0.1,67.5l-14.5,0L92.9,364.6z"/>
	<path class="st0" d="M173.2,364.8l14.5,0l-0.1,82.1l-14.5,0L173.2,364.8z"/>
	<path class="st0" d="M216.6,364.8l16.5,0l32.2,55.3l0.1-55.2l14.5,0l-0.1,82.1l-15.4,0L231,389.9l-0.1,57l-14.5,0L216.6,364.8z"/>
	<path class="st0" d="M306.1,406c0-23.4,16.4-42.1,38.9-42.1c15.8,0,28.1,8.7,34.5,21.1l-12.7,8.3c-4.7-9.3-11.9-14.2-21.7-14.2
		c-13.9,0-24.6,12.2-24.6,27c0,15.1,10.5,27,25.1,27c11,0,18.9-6.7,21.6-17.2l-23.8,0l0-15l39.5,0.1l0,6.3c0,22-14.6,41-37.2,41
		C321.8,448.2,306.1,428.7,306.1,406z"/>
	<path class="st0" d="M409.7,365.1l14.5,0l-0.1,82.1l-14.5,0L409.7,365.1z"/>
	<path class="st0" d="M453.1,365.1l16.5,0l32.2,55.3l0.1-55.2l14.5,0l-0.1,82.1l-15.4,0l-33.3-57.1l-0.1,57l-14.5,0L453.1,365.1z"/>
	<path class="st0" d="M542.6,406.3c0-23.4,16.4-42.1,38.9-42.1c15.8,0,28.1,8.7,34.5,21.1l-12.7,8.3c-4.7-9.3-11.9-14.2-21.7-14.2
		c-13.9,0-24.6,12.2-24.6,27c0,15.1,10.5,27,25.1,27c11,0,18.9-6.7,21.6-17.2l-23.8,0l0-15l39.5,0.1l0,6.3c0,22-14.6,41-37.2,41
		C558.3,448.5,542.6,429,542.6,406.3z"/>
	<path class="st0" d="M691.3,365.4l23.7,0c16.9,0,26.7,8.1,26.6,23.1c0,6.9-2.8,12.4-8.2,15.8c7,3.5,10.9,9.8,10.9,18.8
		c0,16.3-10.5,24.4-27.4,24.4l-25.7,0L691.3,365.4z M705.7,412.7l0,20.5l11.2,0c8.4,0,12.8-3.7,12.8-10.3c0-6.6-2.9-10.1-13.5-10.1
		L705.7,412.7z M705.8,379.9l0,18.2l9.3,0c9,0,12.1-3.8,12.1-9.5c0-6-3.4-8.7-12-8.7L705.8,379.9z"/>
	<path class="st0" d="M770.8,365.6l23.8,0c17.5,0,28,12.1,28,27.6c0,10.2-4.6,20.2-14.7,24.4l17.3,30.2l-16.6,0l-22.8-40.6l7.1,0
		c11.2,0,15.1-8.1,15.1-13.9c0-8.2-4.2-12.9-15.1-13l-7.7,0l-0.1,67.5l-14.5,0L770.8,365.6z"/>
	<path class="st0" d="M874.8,365.7l14.6,0l26.9,82.1l-15.1,0l-4.6-14.3l-29.2,0l-4.6,14.3l-15.1,0L874.8,365.7z M872.2,418.5l19.6,0
		l-9.8-30.6L872.2,418.5z"/>
	<path class="st0" d="M942.1,365.8l16.5,0l32.2,55.3l0.1-55.2l14.5,0l-0.1,82.1l-15.4,0l-33.3-57.1l-0.1,57l-14.5,0L942.1,365.8z"/>
	<path class="st0" d="M1033.7,365.9l20.7,0c25.7,0,40.2,17.8,40.1,41.1c0,23.4-16.4,41-39.6,41l-21.3,0L1033.7,365.9z M1048.2,380.4
		l-0.1,53.1l5.2,0c16.5,0,26.8-11.4,26.8-26.5c0-15.5-8.7-26.5-27.4-26.6L1048.2,380.4z"/>
	<path class="st0" d="M1116.4,434.5l13.2-11.2c3.7,7,9.7,11,16.4,11c7.4,0,11.4-5.2,11.4-10.8c0-6.7-7.6-8.9-15.7-11.6
		c-10.2-3.4-21.5-7.7-21.5-23.4c0-13.2,10.7-23.6,25.3-23.6c12.4,0,19.5,5.1,25.6,12l-12,9.8c-3.1-5.1-7.6-7.8-13.5-7.8
		c-6.8,0-10.4,3.9-10.4,9.1c0,6.3,7.3,8.4,15.4,11.4c10.3,3.6,22,8.6,21.9,24.3c0,13-9.6,25.6-26.4,25.6
		C1132.5,449.3,1123.3,442.9,1116.4,434.5z"/>
	<path class="st0" d="M1263.5,381.2l-20.2,0l0-15l54.9,0.1l0,15l-20.2,0l-0.1,67.1l-14.5,0L1263.5,381.2z"/>
	<path class="st0" d="M1316.7,407.3c0-23.3,17.3-42.1,38.9-42.1c21.7,0,38.9,18.9,38.9,42.2c0,23.4-17.3,42.1-39,42.1
		C1333.9,449.5,1316.6,430.7,1316.7,407.3z M1380.1,407.4c0-14.7-10.9-26.8-24.5-26.8s-24.5,12-24.5,26.7s10.8,26.8,24.4,26.8
		S1380.1,422.2,1380.1,407.4z"/>
	<path class="st0" d="M1487.7,409.7l-24.1-43.2l15.9,0l15.5,28.2l15.7-28.2l15.9,0l-24.4,43.5l0,38.6l-14.5,0L1487.7,409.7z"/>
	<path class="st0" d="M1541.1,407.6c0-23.3,17.3-42.1,38.9-42.1c21.7,0,38.9,18.9,38.9,42.2c0,23.4-17.3,42.1-39,42.1
		C1558.3,449.8,1541.1,431,1541.1,407.6z M1604.5,407.7c0-14.7-10.9-26.8-24.5-26.8c-13.6,0-24.5,12-24.5,26.7s10.8,26.8,24.4,26.8
		C1593.5,434.5,1604.5,422.5,1604.5,407.7z"/>
	<path class="st0" d="M1645.2,420.4l0.1-53.6l14.5,0l-0.1,54.6c0,7.9,5.5,14.1,12.8,14.1c7.3,0,13.1-6.2,13.1-14l0.1-54.6l14.5,0
		l-0.1,53.6c0,19.6-11.7,29.6-27.5,29.5S1645.2,439.9,1645.2,420.4z"/>
</g>
<g>
</g>
<g>
</g>
<g>
	<line class="st0" x1="791" y1="199.7" x2="789.3" y2="201.3"/>
</g>
<g>
	<g>
		<g>
			<g>
				<path class="st0" d="M670.8,18.1l37.9,0l90.5,257.3l-38.2,0L689.7,71l0,0l-71,204.4l-38.5,0L670.8,18.1z M728.8,183.8
					L728.8,183.8L689.7,71L728.8,183.8z"/>
			</g>
		</g>
	</g>
	<g>
	</g>
	<g>
	</g>
</g>
<g>
</g>
<g>
</g>
</svg>
