<?xml version="1.0" encoding="utf-8"?>
<!-- Generator: Adobe Illustrator 17.0.0, SVG Export Plug-In . SVG Version: 6.00 Build 0)  -->
<!DOCTYPE svg PUBLIC "-//W3C//DTD SVG 1.1//EN" "http://www.w3.org/Graphics/SVG/1.1/DTD/svg11.dtd">
<svg version="1.1" id="Layer_1" xmlns="http://www.w3.org/2000/svg" xmlns:xlink="http://www.w3.org/1999/xlink" x="0px" y="0px"
	 width="195.475px" height="31.302px" viewBox="0 0 195.475 31.302" enable-background="new 0 0 195.475 31.302"
	 xml:space="preserve">
<g>
	<path d="M19.57,14.855c2.052-1.198,3.096-3.145,3.096-5.579c0-4.681-3.312-7.452-8.639-7.452H5.136v27.334h9.503
		c5.364,0,8.855-2.845,8.855-7.9C23.494,18.188,22.09,15.978,19.57,14.855z M9.06,5.531h4.967c3.096,0,4.715,1.386,4.715,3.745
		c0,2.285-1.404,3.932-4.571,3.932H9.06V5.531z M14.639,25.415H9.06V16.99l5.399,0.001c3.635,0,5.111,1.609,5.111,4.193
		C19.57,23.729,17.734,25.415,14.639,25.415z"/>
	<path d="M46.282,19.011c3.745-1.198,5.688-4.643,5.688-8.275c0-4.98-3.708-8.912-9.287-8.912h-8.171h-0.001v27.334h3.924V5.605
		h3.852c3.852,0,5.759,2.06,5.759,5.13c0,2.509-1.871,5.393-5.795,5.393h-2.124l7.919,13.03h4.5L46.282,19.011z"/>
	<polygon points="113.818,22.494 100.5,1.824 96.072,1.824 96.072,29.159 99.996,29.159 99.996,8.152 113.566,29.159 
		117.706,29.159 117.706,1.824 113.818,1.824 	"/>
	<polygon points="128.76,5.643 136.211,5.643 136.211,29.159 140.099,29.159 140.099,5.643 147.55,5.643 147.55,1.824 128.76,1.824 
			"/>
	<path d="M176.926,19.948V1.824h-3.887V20.21c0,3.033-2.34,5.505-5.363,5.505c-2.988,0-5.256-2.472-5.256-5.505V1.824h-3.924v18.124
		c0,5.879,3.887,9.585,9.215,9.585C173.003,29.533,176.926,25.827,176.926,19.948z"/>
	<polygon points="75.803,1.824 71.772,1.824 62.126,29.159 66.229,29.159 68.245,23.318 69.612,19.423 73.788,7.441 77.963,19.423 
		79.331,23.318 81.382,29.159 85.45,29.159 	"/>
</g>
<rect x="178.162" y="0.825" fill="none" width="24.045" height="13.493"/>
<text transform="matrix(1 0 0 1 180.2551 8.1255)" font-family="'SharpSansNo1-Medium'" font-size="9">TM</text>
</svg>
