<?xml version="1.0" encoding="utf-8"?>
<!-- Generator: Adobe Illustrator 17.0.0, SVG Export Plug-In . SVG Version: 6.00 Build 0)  -->
<!DOCTYPE svg PUBLIC "-//W3C//DTD SVG 1.1//EN" "http://www.w3.org/Graphics/SVG/1.1/DTD/svg11.dtd">
<svg version="1.1" id="Layer_1" xmlns="http://www.w3.org/2000/svg" xmlns:xlink="http://www.w3.org/1999/xlink" x="0px" y="0px" width="50px" height="23px" viewBox="0 0 50 50" enable-background="new 0 0 50 50" xml:space="preserve">
<path fill-rule="evenodd" clip-rule="evenodd" d="M48.693,48.867c-0.56,0.561-1.468,0.561-2.028,0L33.235,35.438
    c-3.432,2.963-7.848,4.819-12.738,4.819c-10.816,0-19.586-8.768-19.586-19.586c0-10.818,8.769-19.585,19.586-19.585
    c10.817,0,19.586,8.767,19.586,19.585c0,4.89-1.856,9.305-4.819,12.739l13.429,13.429C49.253,47.398,49.253,48.306,48.693,48.867z
     M37.07,20.671c0-9.151-7.42-16.572-16.573-16.572c-9.153,0-16.572,7.421-16.572,16.572c0,9.154,7.42,16.574,16.572,16.574
    C29.651,37.245,37.07,29.825,37.07,20.671z"></path>
</svg>