<?xml version="1.0" encoding="utf-8"?>
<!-- Generator: Adobe Illustrator 17.0.0, SVG Export Plug-In . SVG Version: 6.00 Build 0)  -->
<!DOCTYPE svg PUBLIC "-//W3C//DTD SVG 1.1//EN" "http://www.w3.org/Graphics/SVG/1.1/DTD/svg11.dtd">
<svg version="1.1" id="Layer_1" xmlns="http://www.w3.org/2000/svg" xmlns:xlink="http://www.w3.org/1999/xlink" x="0px" y="0px"
	 width="83.862px" height="38px" viewBox="-3.032 0 83.862 38" enable-background="new -3.032 0 83.862 38" xml:space="preserve">
<g>
	<path fill="#75809A" d="M27.703,10.469c0.416-0.069,0.961-0.129,1.654-0.129c0.852,0,1.475,0.198,1.872,0.555
		c0.366,0.317,0.584,0.802,0.584,1.396c0,0.604-0.178,1.079-0.515,1.426c-0.455,0.485-1.198,0.733-2.039,0.733
		c-0.258,0-0.496-0.01-0.693-0.06v2.673h-0.862L27.703,10.469L27.703,10.469z M28.565,13.687c0.188,0.05,0.426,0.069,0.713,0.069
		c1.04,0,1.674-0.505,1.674-1.426c0-0.881-0.624-1.307-1.575-1.307c-0.376,0-0.664,0.03-0.812,0.069
		C28.565,11.092,28.565,13.687,28.565,13.687z"/>
	<path fill="#75809A" d="M32.973,10.479c0.436-0.089,1.059-0.139,1.654-0.139c0.921,0,1.515,0.168,1.931,0.545
		c0.337,0.297,0.525,0.753,0.525,1.267c0,0.881-0.555,1.465-1.258,1.703v0.029c0.515,0.179,0.822,0.654,0.98,1.347
		c0.218,0.931,0.376,1.574,0.515,1.832h-0.891c-0.11-0.188-0.258-0.762-0.446-1.594c-0.198-0.921-0.555-1.267-1.337-1.297h-0.812
		v2.891h-0.862L32.973,10.479L32.973,10.479z M33.835,13.519h0.881c0.921,0,1.505-0.505,1.505-1.267
		c0-0.861-0.624-1.238-1.535-1.248c-0.416,0-0.713,0.04-0.851,0.079V13.519z"/>
	<path fill="#75809A" d="M41.759,13.935h-2.594v2.406h2.891v0.723h-3.753v-6.673h3.605v0.723h-2.743v2.109h2.594V13.935z"/>
	<path fill="#75809A" d="M43.059,16.014c0.386,0.238,0.951,0.436,1.545,0.436c0.881,0,1.396-0.465,1.396-1.139
		c0-0.624-0.357-0.98-1.258-1.327c-1.089-0.386-1.762-0.951-1.762-1.891c0-1.04,0.861-1.812,2.158-1.812
		c0.683,0,1.179,0.158,1.475,0.327l-0.238,0.703c-0.218-0.119-0.664-0.317-1.267-0.317c-0.911,0-1.258,0.545-1.258,1
		c0,0.624,0.406,0.931,1.327,1.287c1.129,0.436,1.704,0.98,1.704,1.96c0,1.03-0.763,1.921-2.337,1.921
		c-0.643,0-1.346-0.188-1.703-0.426L43.059,16.014z"/>
	<path fill="#75809A" d="M47.943,16.014c0.386,0.238,0.951,0.436,1.545,0.436c0.881,0,1.396-0.465,1.396-1.139
		c0-0.624-0.357-0.98-1.258-1.327c-1.089-0.386-1.762-0.951-1.762-1.891c0-1.04,0.861-1.812,2.158-1.812
		c0.683,0,1.179,0.158,1.475,0.327l-0.238,0.703c-0.218-0.119-0.664-0.317-1.267-0.317c-0.911,0-1.258,0.545-1.258,1
		c0,0.624,0.406,0.931,1.327,1.287c1.129,0.436,1.704,0.98,1.704,1.96c0,1.03-0.763,1.921-2.337,1.921
		c-0.643,0-1.346-0.188-1.703-0.426L47.943,16.014z"/>
	<path fill="#75809A" d="M58.502,13.935h-2.594v2.406h2.891v0.723h-3.753v-6.673h3.605v0.723h-2.743v2.109h2.594V13.935z"/>
	<path fill="#75809A" d="M59.92,17.063V10.39h0.941L63,13.766c0.495,0.782,0.881,1.485,1.198,2.168l0.019-0.01
		c-0.079-0.891-0.098-1.703-0.098-2.742V10.39h0.812v6.673h-0.872l-2.119-3.386c-0.465-0.743-0.911-1.505-1.248-2.228l-0.03,0.01
		c0.05,0.841,0.069,1.643,0.069,2.752v2.852H59.92z"/>
	<path fill="#75809A" d="M67.705,11.123h-2.029v-0.732h4.94v0.732h-2.04v5.941h-0.872L67.705,11.123L67.705,11.123z"/>
	<path fill="#75809A" d="M74.818,13.935h-2.594v2.406h2.891v0.723h-3.753v-6.673h3.605v0.723h-2.743v2.109h2.594
		C74.818,13.223,74.818,13.935,74.818,13.935z"/>
	<path fill="#75809A" d="M76.236,10.479c0.436-0.089,1.059-0.139,1.654-0.139c0.921,0,1.515,0.168,1.931,0.545
		c0.337,0.297,0.525,0.753,0.525,1.267c0,0.881-0.555,1.465-1.258,1.703v0.029c0.515,0.179,0.822,0.654,0.98,1.347
		c0.218,0.931,0.376,1.574,0.515,1.832h-0.891c-0.11-0.188-0.258-0.762-0.446-1.594c-0.198-0.921-0.555-1.267-1.337-1.297h-0.812
		v2.891h-0.862L76.236,10.479L76.236,10.479z M77.098,13.519h0.881c0.921,0,1.505-0.505,1.505-1.267
		c0-0.861-0.624-1.238-1.535-1.248c-0.416,0-0.713,0.04-0.851,0.079C77.098,11.083,77.098,13.519,77.098,13.519z"/>
	<path fill="#75809A" d="M28.97,23.01h-2.029v-0.732h4.94v0.732h-2.04v5.941h-0.872L28.97,23.01L28.97,23.01z"/>
	<path fill="#75809A" d="M38.062,25.544c0,2.298-1.396,3.515-3.099,3.515c-1.762,0-3-1.367-3-3.386c0-2.119,1.317-3.505,3.099-3.505
		C36.884,22.169,38.062,23.564,38.062,25.544z M32.884,25.653c0,1.426,0.772,2.703,2.129,2.703c1.367,0,2.138-1.258,2.138-2.773
		c0-1.326-0.693-2.712-2.128-2.712C33.597,22.872,32.884,24.188,32.884,25.653z"/>
	<path fill="#75809A" d="M41.166,27.901c0.386,0.238,0.951,0.436,1.545,0.436c0.881,0,1.396-0.466,1.396-1.139
		c0-0.623-0.357-0.98-1.258-1.326c-1.089-0.386-1.762-0.951-1.762-1.891c0-1.039,0.861-1.812,2.158-1.812
		c0.683,0,1.179,0.158,1.475,0.327l-0.238,0.703c-0.218-0.119-0.664-0.317-1.267-0.317c-0.911,0-1.258,0.544-1.258,1
		c0,0.624,0.406,0.93,1.327,1.288c1.129,0.435,1.704,0.98,1.704,1.96c0,1.03-0.763,1.921-2.337,1.921
		c-0.643,0-1.346-0.189-1.703-0.426L41.166,27.901z"/>
	<path fill="#75809A" d="M49.624,25.822H47.03v2.406h2.891v0.723h-3.753v-6.673h3.605V23H47.03v2.109h2.594V25.822z"/>
	<path fill="#75809A" d="M52.122,26.851l-0.693,2.099h-0.891l2.267-6.673h1.04l2.278,6.673h-0.921l-0.713-2.099H52.122z
		 M54.31,26.178l-0.653-1.92c-0.149-0.436-0.248-0.832-0.347-1.218h-0.02c-0.099,0.396-0.208,0.802-0.336,1.208L52.3,26.179
		L54.31,26.178L54.31,26.178z"/>
	<path fill="#75809A" d="M57.105,22.366c0.436-0.089,1.059-0.139,1.654-0.139c0.921,0,1.515,0.168,1.931,0.545
		c0.337,0.297,0.525,0.752,0.525,1.267c0,0.881-0.555,1.465-1.258,1.703v0.03c0.515,0.178,0.822,0.653,0.98,1.346
		c0.218,0.93,0.376,1.575,0.515,1.832h-0.891c-0.11-0.188-0.258-0.763-0.446-1.594c-0.198-0.921-0.555-1.267-1.337-1.297h-0.812
		v2.891h-0.862L57.105,22.366L57.105,22.366z M57.967,25.406h0.881c0.921,0,1.505-0.505,1.505-1.267
		c0-0.861-0.624-1.238-1.535-1.247c-0.416,0-0.713,0.04-0.851,0.079V25.406z"/>
	<path fill="#75809A" d="M67.129,28.733c-0.317,0.158-0.951,0.317-1.762,0.317c-1.882,0-3.297-1.188-3.297-3.376
		c0-2.089,1.416-3.505,3.485-3.505c0.832,0,1.357,0.178,1.584,0.297l-0.208,0.703c-0.327-0.159-0.792-0.278-1.347-0.278
		c-1.564,0-2.604,1-2.604,2.752c0,1.633,0.941,2.683,2.565,2.683c0.525,0,1.059-0.109,1.406-0.277L67.129,28.733z"/>
	<path fill="#75809A" d="M69.073,22.278v2.792h3.228v-2.792h0.871v6.673h-0.871v-3.129h-3.228v3.129h-0.862v-6.673H69.073z"/>
</g>
<g>
	
		<circle fill="none" stroke="#BFBFBF" stroke-width="2" stroke-linecap="round" stroke-linejoin="round" stroke-miterlimit="10" cx="10.148" cy="18.623" r="11.906"/>
	<g>
		<path fill="none" stroke="#BFBFBF" stroke-width="2" stroke-linecap="round" stroke-linejoin="round" stroke-miterlimit="10" d="
			M6.721,11.674c1.966-2.444,6.855-1.773,6.855,1.7c-0.001,1.249-0.532,2.391-2.551,4.836c-2.019,2.444-1.487,4.251-1.487,4.57"/>
		
			<line fill="none" stroke="#BFBFBF" stroke-width="2" stroke-linecap="round" stroke-linejoin="round" stroke-miterlimit="10" x1="9.537" y1="25.808" x2="9.537" y2="27.03"/>
	</g>
</g>
</svg>
