<svg xmlns="http://www.w3.org/2000/svg" width="48.501" height="48.501" viewBox="0 0 48.501 48.501"><g fill="none" stroke="#eed3d3" stroke-width="3" stroke-miterlimit="10"><path d="M29.978 46.071c-1.419 1.419-3.812 1.874-5.267.946A75.658 75.658 0 0 1 1.484 23.79c-.928-1.455-.472-3.846.946-5.267l3.437-3.437c1.421-1.421 3.289-1.35 4.217.104a75.694 75.694 0 0 0 23.228 23.227c1.453.926 1.523 2.795.103 4.216l-3.437 3.438z"/><g stroke-linecap="round"><path d="M39.998 8.72s-4.043-7.057-10.873-2.892c-6.83 4.165-11.839 7.676-19.306 9.005"/><path d="M39.781 8.503s7.056 4.042 2.892 10.873c-4.164 6.83-7.676 11.839-9.005 19.306"/></g><circle stroke-linecap="round" cx="43.153" cy="5.348" r="4.348"/><path stroke-linecap="round" d="M16.995 41.852a7.318 7.318 0 0 1-10.348 0 7.318 7.318 0 0 1 .001-10.347"/></g></svg>