<svg xmlns="http://www.w3.org/2000/svg" width="193.151" height="48.226" viewBox="0 0 193.151 48.226"><linearGradient id="a" gradientUnits="userSpaceOnUse" x1="-53.989" y1="96.235" x2="-35.381" y2="96.235" gradientTransform="matrix(1 0 0 -1 59 111.726)"><stop offset="0" stop-color="#34007f"/><stop offset="1" stop-color="#5a006a"/></linearGradient><path stroke="url(#a)" stroke-width=".25" stroke-miterlimit="10" d="M19.57 14.855c2.052-1.198 3.096-3.145 3.096-5.579 0-4.681-3.312-7.452-8.639-7.452H5.136v27.334h9.503c5.364 0 8.855-2.845 8.855-7.9 0-3.07-1.404-5.28-3.924-6.403zM9.06 5.531h4.967c3.096 0 4.715 1.386 4.715 3.745 0 2.285-1.404 3.932-4.571 3.932H9.06V5.531zm5.579 19.884H9.06V16.99l5.399.001c3.635 0 5.111 1.609 5.111 4.193 0 2.545-1.836 4.231-4.931 4.231z"/><linearGradient id="b" gradientUnits="userSpaceOnUse" x1="-24.614" y1="96.235" x2="-6.23" y2="96.235" gradientTransform="matrix(1 0 0 -1 59 111.726)"><stop offset="0" stop-color="#34007f"/><stop offset="1" stop-color="#5a006a"/></linearGradient><path stroke="url(#b)" stroke-width=".25" stroke-miterlimit="10" d="M46.282 19.011c3.745-1.198 5.688-4.643 5.688-8.275 0-4.98-3.708-8.912-9.287-8.912h-8.172v27.334h3.924V5.605h3.852c3.852 0 5.759 2.06 5.759 5.13 0 2.509-1.871 5.393-5.795 5.393h-2.124l7.919 13.03h4.5l-6.264-10.147z"/><linearGradient id="c" gradientUnits="userSpaceOnUse" x1="36.947" y1="96.234" x2="58.831" y2="96.234" gradientTransform="matrix(1 0 0 -1 59 111.726)"><stop offset="0" stop-color="#34007f"/><stop offset="1" stop-color="#5a006a"/></linearGradient><path stroke="url(#c)" stroke-width=".25" stroke-miterlimit="10" d="M113.818 22.494L100.5 1.824h-4.428v27.335h3.924V8.152l13.57 21.007h4.14V1.824h-3.888z"/><linearGradient id="d" gradientUnits="userSpaceOnUse" x1="69.635" y1="96.234" x2="88.675" y2="96.234" gradientTransform="matrix(1 0 0 -1 59 111.726)"><stop offset="0" stop-color="#34007f"/><stop offset="1" stop-color="#5a006a"/></linearGradient><path stroke="url(#d)" stroke-width=".25" stroke-miterlimit="10" d="M128.76 5.643h7.451v23.516h3.888V5.643h7.451V1.824h-18.79z"/><linearGradient id="e" gradientUnits="userSpaceOnUse" x1="99.371" y1="96.047" x2="118.051" y2="96.047" gradientTransform="matrix(1 0 0 -1 59 111.726)"><stop offset="0" stop-color="#34007f"/><stop offset="1" stop-color="#5a006a"/></linearGradient><path stroke="url(#e)" stroke-width=".25" stroke-miterlimit="10" d="M176.926 19.948V1.824h-3.887V20.21c0 3.033-2.34 5.505-5.363 5.505-2.988 0-5.256-2.472-5.256-5.505V1.824h-3.924v18.124c0 5.879 3.887 9.585 9.215 9.585 5.292 0 9.215-3.706 9.215-9.585z"/><linearGradient id="f" gradientUnits="userSpaceOnUse" x1="2.949" y1="96.234" x2="26.627" y2="96.234" gradientTransform="matrix(1 0 0 -1 59 111.726)"><stop offset="0" stop-color="#34007f"/><stop offset="1" stop-color="#5a006a"/></linearGradient><path stroke="url(#f)" stroke-width=".25" stroke-miterlimit="10" d="M75.803 1.824h-4.031l-9.646 27.335h4.103l2.016-5.841 1.367-3.895 4.176-11.982 4.175 11.982 1.368 3.895 2.051 5.841h4.068z"/><linearGradient id="g" gradientUnits="userSpaceOnUse" x1="-53.952" y1="68.679" x2="-48.605" y2="68.679" gradientTransform="matrix(1 0 0 -1 59 111.726)"><stop offset="0" stop-color="#34007f"/><stop offset="1" stop-color="#5a006a"/></linearGradient><path stroke="url(#g)" stroke-width=".25" stroke-miterlimit="10" d="M9.181 42.87c.57-.333.86-.874.86-1.55 0-1.301-.92-2.071-2.399-2.071H5.173v7.596h2.639c1.489 0 2.458-.791 2.458-2.195 0-.853-.389-1.468-1.089-1.78zm-2.918-2.591h1.379c.859 0 1.309.385 1.309 1.041 0 .635-.39 1.092-1.269 1.092H6.263v-2.133zm1.549 5.526H6.263v-2.341h1.499c1.009 0 1.419.447 1.419 1.165 0 .708-.51 1.176-1.369 1.176z"/><linearGradient id="h" gradientUnits="userSpaceOnUse" x1="-45.702" y1="68.678" x2="-40.345" y2="68.678" gradientTransform="matrix(1 0 0 -1 59 111.726)"><stop offset="0" stop-color="#34007f"/><stop offset="1" stop-color="#5a006a"/></linearGradient><path stroke="url(#h)" stroke-width=".25" stroke-miterlimit="10" d="M18.271 41.726c0-1.384-1.03-2.477-2.579-2.477h-2.269v7.597h1.089V40.3h1.07c1.07 0 1.599.572 1.599 1.426 0 .697-.52 1.499-1.609 1.499h-.59l2.199 3.621h1.25l-1.739-2.82c1.039-.333 1.579-1.29 1.579-2.3z"/><linearGradient id="i" gradientUnits="userSpaceOnUse" x1="-37.552" y1="68.678" x2="-36.213" y2="68.678" gradientTransform="matrix(1 0 0 -1 59 111.726)"><stop offset="0" stop-color="#34007f"/><stop offset="1" stop-color="#5a006a"/></linearGradient><path stroke="url(#i)" stroke-width=".25" stroke-miterlimit="10" d="M21.573 39.249h1.089v7.597h-1.089z"/><linearGradient id="j" gradientUnits="userSpaceOnUse" x1="-33.032" y1="68.678" x2="-26.777" y2="68.678" gradientTransform="matrix(1 0 0 -1 59 111.726)"><stop offset="0" stop-color="#34007f"/><stop offset="1" stop-color="#5a006a"/></linearGradient><path stroke="url(#j)" stroke-width=".25" stroke-miterlimit="10" d="M31.019 44.993l-3.697-5.744h-1.229v7.597h1.089v-5.838l3.768 5.838h1.148v-7.597h-1.079z"/><linearGradient id="k" gradientUnits="userSpaceOnUse" x1="-23.873" y1="68.678" x2="-16.216" y2="68.678" gradientTransform="matrix(1 0 0 -1 59 111.726)"><stop offset="0" stop-color="#34007f"/><stop offset="1" stop-color="#5a006a"/></linearGradient><path stroke="url(#k)" stroke-width=".25" stroke-miterlimit="10" d="M38.901 43.755h2.618c-.23 1.229-1.1 2.103-2.479 2.103-1.569 0-2.698-1.26-2.698-2.811 0-1.54 1.109-2.819 2.688-2.819 1.049 0 1.858.551 2.328 1.467l.95-.593c-.63-1.166-1.819-1.957-3.278-1.957-2.189 0-3.778 1.738-3.778 3.902 0 2.123 1.589 3.903 3.789 3.903 2.268 0 3.618-1.8 3.618-3.861v-.406h-3.758v1.072z"/><linearGradient id="l" gradientUnits="userSpaceOnUse" x1="-13.242" y1="68.678" x2="-11.903" y2="68.678" gradientTransform="matrix(1 0 0 -1 59 111.726)"><stop offset="0" stop-color="#34007f"/><stop offset="1" stop-color="#5a006a"/></linearGradient><path stroke="url(#l)" stroke-width=".25" stroke-miterlimit="10" d="M45.883 39.249h1.089v7.597h-1.089z"/><linearGradient id="m" gradientUnits="userSpaceOnUse" x1="-8.724" y1="68.678" x2="-2.467" y2="68.678" gradientTransform="matrix(1 0 0 -1 59 111.726)"><stop offset="0" stop-color="#34007f"/><stop offset="1" stop-color="#5a006a"/></linearGradient><path stroke="url(#m)" stroke-width=".25" stroke-miterlimit="10" d="M55.329 44.993l-3.698-5.744h-1.229l-.001 7.597h1.09v-5.838l3.768 5.838h1.149v-7.597h-1.079z"/><linearGradient id="n" gradientUnits="userSpaceOnUse" x1=".437" y1="68.678" x2="8.094" y2="68.678" gradientTransform="matrix(1 0 0 -1 59 111.726)"><stop offset="0" stop-color="#34007f"/><stop offset="1" stop-color="#5a006a"/></linearGradient><path stroke="url(#n)" stroke-width=".25" stroke-miterlimit="10" d="M63.211 43.755h2.618c-.23 1.229-1.1 2.103-2.479 2.103-1.569 0-2.698-1.26-2.698-2.811 0-1.54 1.109-2.819 2.688-2.819 1.049 0 1.858.551 2.328 1.467l.95-.593c-.63-1.166-1.819-1.957-3.278-1.957-2.189 0-3.778 1.738-3.778 3.902 0 2.123 1.588 3.903 3.789 3.903 2.268 0 3.618-1.8 3.618-3.861v-.406h-3.758v1.072z"/><linearGradient id="o" gradientUnits="userSpaceOnUse" x1="15.717" y1="68.679" x2="21.065" y2="68.679" gradientTransform="matrix(1 0 0 -1 59 111.726)"><stop offset="0" stop-color="#34007f"/><stop offset="1" stop-color="#5a006a"/></linearGradient><path stroke="url(#o)" stroke-width=".25" stroke-miterlimit="10" d="M78.85 42.87c.569-.333.859-.874.859-1.55 0-1.301-.919-2.071-2.398-2.071h-2.469v7.596h2.639c1.489 0 2.459-.791 2.459-2.195 0-.853-.39-1.468-1.09-1.78zm-2.918-2.591h1.379c.86 0 1.31.385 1.31 1.041 0 .635-.39 1.092-1.27 1.092h-1.419v-2.133zm1.549 5.526h-1.549v-2.341h1.499c1.009 0 1.419.447 1.419 1.165 0 .708-.51 1.176-1.369 1.176z"/><linearGradient id="p" gradientUnits="userSpaceOnUse" x1="23.967" y1="68.678" x2="29.324" y2="68.678" gradientTransform="matrix(1 0 0 -1 59 111.726)"><stop offset="0" stop-color="#34007f"/><stop offset="1" stop-color="#5a006a"/></linearGradient><path stroke="url(#p)" stroke-width=".25" stroke-miterlimit="10" d="M87.94 41.726c0-1.384-1.029-2.477-2.579-2.477h-2.269v7.597h1.09V40.3h1.069c1.07 0 1.599.572 1.599 1.426 0 .697-.519 1.499-1.608 1.499h-.59l2.198 3.621h1.25l-1.739-2.82c1.039-.333 1.579-1.29 1.579-2.3z"/><linearGradient id="q" gradientUnits="userSpaceOnUse" x1="31.674" y1="68.678" x2="38.505" y2="68.678" gradientTransform="matrix(1 0 0 -1 59 111.726)"><stop offset="0" stop-color="#34007f"/><stop offset="1" stop-color="#5a006a"/></linearGradient><path stroke="url(#q)" stroke-width=".25" stroke-miterlimit="10" d="M93.529 39.249l-2.678 7.597h1.139l.56-1.623h3.079l.569 1.623h1.13l-2.679-7.597h-1.12zm-.599 4.891l1.16-3.33 1.159 3.33H92.93z"/><linearGradient id="r" gradientUnits="userSpaceOnUse" x1="41.245" y1="68.678" x2="47.502" y2="68.678" gradientTransform="matrix(1 0 0 -1 59 111.726)"><stop offset="0" stop-color="#34007f"/><stop offset="1" stop-color="#5a006a"/></linearGradient><path stroke="url(#r)" stroke-width=".25" stroke-miterlimit="10" d="M105.298 44.993l-3.698-5.744h-1.229l-.001 7.597h1.09v-5.838l3.768 5.838h1.149v-7.597h-1.079z"/><linearGradient id="s" gradientUnits="userSpaceOnUse" x1="50.616" y1="68.678" x2="56.713" y2="68.678" gradientTransform="matrix(1 0 0 -1 59 111.726)"><stop offset="0" stop-color="#34007f"/><stop offset="1" stop-color="#5a006a"/></linearGradient><path stroke="url(#s)" stroke-width=".25" stroke-miterlimit="10" d="M111.76 39.249h-2.019v7.597h2.059c2.189 0 3.788-1.634 3.788-3.799 0-2.153-1.459-3.798-3.828-3.798zm-.07 6.546h-.859V40.29h.819c1.829 0 2.838 1.165 2.838 2.757 0 1.561-1.119 2.748-2.798 2.748z"/><linearGradient id="t" gradientUnits="userSpaceOnUse" x1="59.09" y1="68.678" x2="64.532" y2="68.678" gradientTransform="matrix(1 0 0 -1 59 111.726)"><stop offset="0" stop-color="#34007f"/><stop offset="1" stop-color="#5a006a"/></linearGradient><path stroke="url(#t)" stroke-width=".25" stroke-miterlimit="10" d="M121.318 42.455c-.839-.291-1.609-.53-1.609-1.259 0-.594.48-1.052 1.22-1.052.65 0 1.139.281 1.469.812l.89-.688c-.559-.676-1.249-1.124-2.358-1.124-1.35 0-2.339.916-2.339 2.071 0 1.395 1.07 1.811 2.059 2.144.84.282 1.639.532 1.639 1.312 0 .676-.508 1.218-1.318 1.218-.74 0-1.319-.386-1.749-1.104l-.96.78c.62.833 1.468 1.385 2.716 1.386 1.509 0 2.429-1.114 2.429-2.279 0-1.415-1.09-1.863-2.089-2.217z"/><linearGradient id="u" gradientUnits="userSpaceOnUse" x1="71.955" y1="68.678" x2="77.423" y2="68.678" gradientTransform="matrix(1 0 0 -1 59 111.726)"><stop offset="0" stop-color="#34007f"/><stop offset="1" stop-color="#5a006a"/></linearGradient><path stroke="url(#u)" stroke-width=".25" stroke-miterlimit="10" d="M131.08 40.311h2.07v6.535h1.079v-6.535h2.069v-1.062h-5.218z"/><linearGradient id="v" gradientUnits="userSpaceOnUse" x1="79.436" y1="68.678" x2="87.172" y2="68.678" gradientTransform="matrix(1 0 0 -1 59 111.726)"><stop offset="0" stop-color="#34007f"/><stop offset="1" stop-color="#5a006a"/></linearGradient><path stroke="url(#v)" stroke-width=".25" stroke-miterlimit="10" d="M142.299 39.145c-2.069 0-3.738 1.749-3.738 3.902 0 2.154 1.669 3.903 3.738 3.903 2.079 0 3.748-1.749 3.748-3.903 0-2.153-1.669-3.902-3.748-3.902zm0 6.702c-1.489 0-2.648-1.259-2.648-2.8 0-1.54 1.159-2.81 2.648-2.81 1.499 0 2.658 1.27 2.658 2.81 0 1.541-1.159 2.8-2.658 2.8z"/><linearGradient id="w" gradientUnits="userSpaceOnUse" x1="94.351" y1="68.678" x2="100.617" y2="68.678" gradientTransform="matrix(1 0 0 -1 59 111.726)"><stop offset="0" stop-color="#34007f"/><stop offset="1" stop-color="#5a006a"/></linearGradient><path stroke="url(#w)" stroke-width=".25" stroke-miterlimit="10" d="M156.478 42.163l-1.709-2.914h-1.199l2.368 3.996v3.601h1.08v-3.59l2.379-4.007h-1.2z"/><linearGradient id="x" gradientUnits="userSpaceOnUse" x1="102.314" y1="68.678" x2="110.05" y2="68.678" gradientTransform="matrix(1 0 0 -1 59 111.726)"><stop offset="0" stop-color="#34007f"/><stop offset="1" stop-color="#5a006a"/></linearGradient><path stroke="url(#x)" stroke-width=".25" stroke-miterlimit="10" d="M165.177 39.145c-2.069 0-3.738 1.749-3.738 3.902 0 2.154 1.669 3.903 3.738 3.903 2.079 0 3.748-1.749 3.748-3.903 0-2.153-1.669-3.902-3.748-3.902zm.001 6.702c-1.489 0-2.648-1.259-2.648-2.8 0-1.54 1.159-2.81 2.648-2.81 1.499 0 2.658 1.27 2.658 2.81 0 1.541-1.159 2.8-2.658 2.8z"/><linearGradient id="y" gradientUnits="userSpaceOnUse" x1="112.935" y1="68.626" x2="118.302" y2="68.626" gradientTransform="matrix(1 0 0 -1 59 111.726)"><stop offset="0" stop-color="#34007f"/><stop offset="1" stop-color="#5a006a"/></linearGradient><path stroke="url(#y)" stroke-width=".25" stroke-miterlimit="10" d="M176.097 39.249v5.109c0 .842-.649 1.53-1.489 1.53-.829 0-1.459-.687-1.459-1.53v-5.109h-1.089v5.037c0 1.634 1.079 2.664 2.558 2.664 1.469 0 2.559-1.03 2.559-2.664v-5.037h-1.08z"/><linearGradient id="z" gradientUnits="userSpaceOnUse" x1="-78.271" y1="540.725" x2="-69.354" y2="540.725" gradientTransform="translate(261.5 -529.274)"><stop offset="0" stop-color="#34007f"/><stop offset="1" stop-color="#5a006a"/></linearGradient><linearGradient id="A" gradientUnits="userSpaceOnUse" x1="-78.607" y1="540.725" x2="-69.064" y2="540.725" gradientTransform="translate(261.5 -529.274)"><stop offset="0" stop-color="#34007f"/><stop offset="1" stop-color="#5a006a"/></linearGradient><path fill="url(#z)" stroke="url(#A)" stroke-width=".58" stroke-miterlimit="10" d="M189.617 8.173c.506.402 1.077.754 1.52 1.226 1.242 1.323 1.329 3.563.309 5.303-1.152 1.966-3.067 2.368-4.639 1.994-.533-.127-1.007-.502-1.522-.771v.326c.004 1.459.019 2.917-.262 4.362-.071.367-.211.489-.574.461-.394-.031-.793-.007-1.22-.007.086-.58.185-1.109.239-1.643.059-.584.105-1.173.107-1.76.01-3.731.001-7.462.014-11.193.002-.598.048-1.201.139-1.791.213-1.378 1.083-2.224 2.358-2.637 1.099-.355 2.211-.266 3.277.193 2.448 1.055 2.258 3.887 1.088 5.144-.272.291-.577.55-.834.793zm-4.325 1.549h-.007c0 1.6-.002 3.2.003 4.8 0 .136.011.295.079.403.511.805 1.247 1.226 2.209 1.215.941-.011 1.676-.376 2.138-1.236.931-1.735.539-4.707-.835-6.125-.09-.093-.279-.126-.421-.125-.433.004-.867.071-1.297.05-.29-.014-.599-.114-.606-.508-.005-.283.195-.472.626-.471.441.001.886.072 1.321.156.226.044.334.005.437-.202.517-1.045.708-2.139.507-3.289-.204-1.162-1.003-1.855-2.069-1.825-1.075.03-1.869.788-2.017 1.939a7.564 7.564 0 0 0-.067.914c-.005 1.433-.001 2.868-.001 4.304z"/></svg>