<svg xmlns="http://www.w3.org/2000/svg" xmlns:xlink="http://www.w3.org/1999/xlink" width="183.772" height="47.284" viewBox="0 0 183.772 47.284"><path d="M1.677.781h8.891c5.327 0 8.639 2.771 8.639 7.452 0 2.434-1.044 4.381-3.096 5.579 2.52 1.123 3.924 3.333 3.924 6.403 0 5.055-3.491 7.9-8.855 7.9H1.677V.781zm3.924 3.707v7.677h5.111c3.167 0 4.571-1.647 4.571-3.932 0-2.359-1.619-3.745-4.715-3.745H5.601zm0 11.459v8.425h5.579c3.095 0 4.931-1.686 4.931-4.231 0-2.584-1.476-4.193-5.111-4.193H5.601zM31.053.781h8.171c5.579 0 9.287 3.932 9.287 8.912 0 3.632-1.943 7.077-5.688 8.275l6.264 10.147h-4.5l-7.919-13.03h2.124c3.924 0 5.795-2.884 5.795-5.393 0-3.07-1.907-5.13-5.759-5.13h-3.852v23.553h-3.924V.781zm61.56 0h4.428l13.318 20.67V.781h3.888v27.335h-4.14L96.537 7.109v21.007h-3.924V.781zM132.752 4.6h-7.451V.781h18.79V4.6h-7.451v23.516h-3.888V4.6zm22.285 14.305V.781h3.924v18.386c0 3.033 2.268 5.505 5.256 5.505 3.023 0 5.363-2.472 5.363-5.505V.781h3.887v18.124c0 5.879-3.923 9.585-9.215 9.585-5.328 0-9.215-3.706-9.215-9.585zM72.344.781h-4.031l-9.646 27.335h4.103l2.016-5.841 1.367-3.895 4.176-11.982 4.175 11.982 1.368 3.895 2.051 5.841h4.068zM1.714 38.206h2.469c1.479 0 2.399.77 2.399 2.071 0 .676-.29 1.217-.86 1.55.7.312 1.089.927 1.089 1.78 0 1.404-.969 2.195-2.458 2.195H1.714v-7.596zm1.09 1.03v2.133h1.419c.879 0 1.269-.457 1.269-1.092 0-.656-.45-1.041-1.309-1.041H2.804zm0 3.185v2.341h1.549c.859 0 1.369-.468 1.369-1.176 0-.718-.41-1.165-1.419-1.165H2.804zm7.16-4.215h2.269c1.549 0 2.579 1.093 2.579 2.477 0 1.01-.54 1.967-1.579 2.3l1.739 2.82h-1.25l-2.199-3.621h.59c1.089 0 1.609-.802 1.609-1.499 0-.854-.529-1.426-1.599-1.426h-1.07v6.546H9.964v-7.597zm8.15 0h1.089v7.597h-1.089v-7.597zm4.52 0h1.229l3.697 5.744v-5.744h1.079v7.597h-1.148l-3.768-5.838v5.838h-1.089v-7.597zm9.159 3.798c0-2.164 1.589-3.902 3.778-3.902 1.459 0 2.648.791 3.278 1.957l-.95.593c-.47-.916-1.279-1.467-2.328-1.467-1.579 0-2.688 1.279-2.688 2.819 0 1.551 1.129 2.811 2.698 2.811 1.379 0 2.249-.874 2.479-2.103h-2.618V41.64H39.2v.406c0 2.061-1.35 3.861-3.618 3.861-2.2 0-3.789-1.78-3.789-3.903zm10.631-3.798h1.089v7.597h-1.089v-7.597zm4.519 0h1.229l3.698 5.744v-5.744h1.079v7.597H51.8l-3.768-5.838v5.838h-1.09v-7.597zm9.16 3.798c0-2.164 1.589-3.902 3.778-3.902 1.459 0 2.648.791 3.278 1.957l-.95.593c-.47-.916-1.279-1.467-2.328-1.467-1.579 0-2.688 1.279-2.688 2.819 0 1.551 1.129 2.811 2.698 2.811 1.379 0 2.249-.874 2.479-2.103h-2.618V41.64h3.758v.406c0 2.061-1.35 3.861-3.618 3.861-2.201 0-3.789-1.78-3.789-3.903zm15.28-3.798h2.469c1.479 0 2.398.77 2.398 2.071 0 .676-.29 1.217-.859 1.55.7.312 1.09.927 1.09 1.78 0 1.404-.97 2.195-2.459 2.195h-2.639v-7.596zm1.09 1.03v2.133h1.419c.88 0 1.27-.457 1.27-1.092 0-.656-.45-1.041-1.31-1.041h-1.379zm0 3.185v2.341h1.549c.859 0 1.369-.468 1.369-1.176 0-.718-.41-1.165-1.419-1.165h-1.499zm7.16-4.215h2.269c1.55 0 2.579 1.093 2.579 2.477 0 1.01-.54 1.967-1.579 2.3l1.739 2.82h-1.25l-2.198-3.621h.59c1.089 0 1.608-.802 1.608-1.499 0-.854-.529-1.426-1.599-1.426h-1.069v6.546h-1.09v-7.597zm10.437 0h1.12l2.679 7.597h-1.13l-.569-1.623h-3.079l-.56 1.623h-1.139l2.678-7.597zm-.599 4.891h2.319l-1.159-3.33-1.16 3.33zm7.441-4.891h1.229l3.698 5.744v-5.744h1.079v7.597h-1.149l-3.768-5.838v5.838h-1.09v-7.597zm9.37 0h2.019c2.369 0 3.828 1.645 3.828 3.798 0 2.165-1.599 3.799-3.788 3.799h-2.059v-7.597zm1.09 1.041v5.505h.859c1.679 0 2.798-1.187 2.798-2.748 0-1.592-1.009-2.757-2.838-2.757h-.819zm7.431 5.275l.96-.78c.43.718 1.009 1.104 1.749 1.104.81 0 1.318-.542 1.318-1.218 0-.78-.799-1.03-1.639-1.312-.989-.333-2.059-.749-2.059-2.144 0-1.155.989-2.071 2.339-2.071 1.109 0 1.799.448 2.358 1.124l-.89.688c-.33-.531-.819-.812-1.469-.812-.74 0-1.22.458-1.22 1.052 0 .729.77.968 1.609 1.259.999.354 2.089.802 2.089 2.217 0 1.165-.92 2.279-2.429 2.279-1.248-.001-2.096-.553-2.716-1.386zm14.887-5.254h-2.069v-1.062h5.218v1.062h-2.069v6.535h-1.079v-6.535zm5.412 2.736c0-2.153 1.669-3.902 3.738-3.902 2.079 0 3.748 1.749 3.748 3.902 0 2.154-1.669 3.903-3.748 3.903-2.069 0-3.738-1.749-3.738-3.903zm6.396 0c0-1.54-1.159-2.81-2.658-2.81-1.489 0-2.648 1.27-2.648 2.81 0 1.541 1.159 2.8 2.648 2.8 1.499 0 2.658-1.259 2.658-2.8zm10.981.198l-2.368-3.996h1.199l1.709 2.914 1.719-2.914h1.2l-2.379 4.007v3.59h-1.08v-3.601zm5.501-.198c0-2.153 1.669-3.902 3.738-3.902 2.079 0 3.748 1.749 3.748 3.902 0 2.154-1.669 3.903-3.748 3.903-2.069 0-3.738-1.749-3.738-3.903zm6.397 0c0-1.54-1.159-2.81-2.658-2.81-1.489 0-2.648 1.27-2.648 2.81 0 1.541 1.159 2.8 2.648 2.8 1.499 0 2.658-1.259 2.658-2.8zm4.224 1.239v-5.037h1.089v5.109c0 .843.63 1.53 1.459 1.53.84 0 1.489-.688 1.489-1.53v-5.109h1.08v5.037c0 1.634-1.09 2.664-2.559 2.664-1.479 0-2.558-1.03-2.558-2.664z"/><image overflow="visible" width="129" height="274" xlink:href="ADAFA994FE1B0F1D.png" transform="translate(174.448 17.354) scale(.0558)"/></svg>