<svg id="Layer_1" xmlns="http://www.w3.org/2000/svg" viewBox="0 0 1719.8 474.4"><style>.st0{fill:#fff}</style><path class="st0" d="M13.9 17.6h83.5c50 0 81.1 26.1 81.1 70.2 0 22.9-9.8 41.2-29.1 52.5 23.7 10.6 36.8 31.4 36.8 60.3 0 47.6-32.8 74.3-83.2 74.3H13.8l.1-257.3zm36.8 142.7v79.3h52.4c29.1 0 46.3-15.8 46.3-39.8 0-24.3-13.8-39.5-48-39.5H50.7zm0-107.8v72.2h48c29.7 0 42.9-15.5 42.9-37 0-22.2-15.2-35.2-44.3-35.3l-46.6.1zm250.1-34.8h76.7c52.4 0 87.2 37 87.2 83.9 0 34.2-18.3 66.6-53.4 77.9l58.8 95.5h-42.3l-74.3-122.7h19.9c36.8 0 54.4-27.1 54.4-50.7 0-28.9-17.9-48.3-54.1-48.3h-36.2l.1 221.7h-36.8V17.7zm616.6.2H959l125 194.6V18h36.5l-.1 257.2h-38.9L954.2 77.5l-.1 197.7h-36.8l.1-257.3zm388 36.1h-70V18.1l176.4.1v35.9h-70l-.1 221.3h-36.5l.2-221.4zm220.3 134.6l.1-170.6h36.8l-.1 173c0 28.5 21.3 51.8 49.3 51.8 28.4 0 50.4-23.2 50.4-51.8l.1-173h36.5l-.1 170.6c0 55.3-36.9 90.2-86.6 90.2-49.9.1-86.4-34.8-86.4-90.2z"/><path class="st0" d="M13.9 17.6h83.5c50 0 81.1 26.1 81.1 70.2 0 22.9-9.8 41.2-29.1 52.5 23.7 10.6 36.8 31.4 36.8 60.3 0 47.6-32.8 74.3-83.2 74.3H13.8l.1-257.3zm36.8 142.7v79.3h52.4c29.1 0 46.3-15.8 46.3-39.8 0-24.3-13.8-39.5-48-39.5H50.7zm0-107.8v72.2h48c29.7 0 42.9-15.5 42.9-37 0-22.2-15.2-35.2-44.3-35.3l-46.6.1zm250.1-34.8h76.7c52.4 0 87.2 37 87.2 83.9 0 34.2-18.3 66.6-53.4 77.9l58.8 95.5h-42.3l-74.3-122.7h19.9c36.8 0 54.4-27.1 54.4-50.7 0-28.9-17.9-48.3-54.1-48.3h-36.2l.1 221.7h-36.8V17.7zm616.6.2H959l125 194.6V18h36.5l-.1 257.2h-38.9L954.2 77.5l-.1 197.7h-36.8l.1-257.3zm388 36.1h-70V18.1l176.4.1v35.9h-70l-.1 221.3h-36.5l.2-221.4zm220.3 134.6l.1-170.6h36.8l-.1 173c0 28.5 21.3 51.8 49.3 51.8 28.4 0 50.4-23.2 50.4-51.8l.1-173h36.5l-.1 170.6c0 55.3-36.9 90.2-86.6 90.2-49.9.1-86.4-34.8-86.4-90.2zM13.4 364.5h23.7c16.9 0 26.6 8.1 26.6 23.1 0 6.9-2.8 12.4-8.2 15.8 7 3.5 10.9 9.8 10.9 18.8 0 16.3-10.5 24.4-27.4 24.4H13.3l.1-82.1zm14.4 47.3v20.5H39c8.4 0 12.8-3.7 12.8-10.3 0-6.6-2.9-10.1-13.5-10.1l-10.5-.1zm.1-32.9v18.2h9.3c9 0 12.1-3.8 12.1-9.5 0-6-3.4-8.7-12-8.7h-9.4zm65-14.3h23.8c17.5 0 28 12.1 28 27.6 0 10.2-4.6 20.2-14.7 24.4l17.2 30.2h-16.6l-22.8-40.6h7.1c11.2 0 15.1-8.1 15.1-13.9 0-8.2-4.1-12.9-15.1-13h-7.7l-.1 67.5H92.6l.3-82.2zm80.3.2h14.5l-.1 82.1h-14.5l.1-82.1zm43.4 0h16.5l32.2 55.3.1-55.2h14.5l-.1 82.1h-15.4L231 389.9l-.1 57h-14.5l.2-82.1zm89.5 41.2c0-23.4 16.4-42.1 38.9-42.1 15.8 0 28.1 8.7 34.5 21.1l-12.7 8.3c-4.7-9.3-11.9-14.2-21.7-14.2-13.9 0-24.6 12.2-24.6 27 0 15.1 10.5 27 25.1 27 11 0 18.9-6.7 21.6-17.2h-23.8v-15l39.5.1v6.3c0 22-14.6 41-37.2 41-23.9-.1-39.6-19.6-39.6-42.3zm103.6-40.9h14.5l-.1 82.1h-14.5l.1-82.1zm43.4 0h16.5l32.2 55.3.1-55.2h14.5l-.1 82.1h-15.4l-33.3-57.1-.1 57H453l.1-82.1zm89.5 41.2c0-23.4 16.4-42.1 38.9-42.1 15.8 0 28.1 8.7 34.5 21.1l-12.7 8.3c-4.7-9.3-11.9-14.2-21.7-14.2-13.9 0-24.6 12.2-24.6 27 0 15.1 10.5 27 25.1 27 11 0 18.9-6.7 21.6-17.2h-23.8v-15l39.5.1v6.3c0 22-14.6 41-37.2 41-23.9-.1-39.6-19.6-39.6-42.3zm148.7-40.9H715c16.9 0 26.7 8.1 26.6 23.1 0 6.9-2.8 12.4-8.2 15.8 7 3.5 10.9 9.8 10.9 18.8 0 16.3-10.5 24.4-27.4 24.4h-25.7l.1-82.1zm14.4 47.3v20.5h11.2c8.4 0 12.8-3.7 12.8-10.3 0-6.6-2.9-10.1-13.5-10.1l-10.5-.1zm.1-32.8v18.2h9.3c9 0 12.1-3.8 12.1-9.5 0-6-3.4-8.7-12-8.7h-9.4zm65-14.3h23.8c17.5 0 28 12.1 28 27.6 0 10.2-4.6 20.2-14.7 24.4l17.3 30.2h-16.6l-22.8-40.6h7.1c11.2 0 15.1-8.1 15.1-13.9 0-8.2-4.2-12.9-15.1-13h-7.7l-.1 67.5h-14.5l.2-82.2zm104 .1h14.6l26.9 82.1h-15.1l-4.6-14.3h-29.2l-4.6 14.3h-15.1l27.1-82.1zm-2.6 52.8h19.6l-9.8-30.6-9.8 30.6zm69.9-52.7h16.5l32.2 55.3.1-55.2h14.5l-.1 82.1h-15.4l-33.3-57.1-.1 57H942l.1-82.1zm91.6.1h20.7c25.7 0 40.2 17.8 40.1 41.1 0 23.4-16.4 41-39.6 41h-21.3l.1-82.1zm14.5 14.5l-.1 53.1h5.2c16.5 0 26.8-11.4 26.8-26.5 0-15.5-8.7-26.5-27.4-26.6h-4.5zm68.2 54.1l13.2-11.2c3.7 7 9.7 11 16.4 11 7.4 0 11.4-5.2 11.4-10.8 0-6.7-7.6-8.9-15.7-11.6-10.2-3.4-21.5-7.7-21.5-23.4 0-13.2 10.7-23.6 25.3-23.6 12.4 0 19.5 5.1 25.6 12l-12 9.8c-3.1-5.1-7.6-7.8-13.5-7.8-6.8 0-10.4 3.9-10.4 9.1 0 6.3 7.3 8.4 15.4 11.4 10.3 3.6 22 8.6 21.9 24.3 0 13-9.6 25.6-26.4 25.6-13.6 0-22.8-6.4-29.7-14.8zm147.1-53.3h-20.2v-15l54.9.1v15H1278l-.1 67.1h-14.5l.1-67.2zm53.2 26.1c0-23.3 17.3-42.1 38.9-42.1 21.7 0 38.9 18.9 38.9 42.2 0 23.4-17.3 42.1-39 42.1-21.6 0-38.9-18.8-38.8-42.2zm63.4.1c0-14.7-10.9-26.8-24.5-26.8s-24.5 12-24.5 26.7 10.8 26.8 24.4 26.8 24.6-11.9 24.6-26.7zm107.6 2.3l-24.1-43.2h15.9l15.5 28.2 15.7-28.2h15.9l-24.4 43.5v38.6h-14.5v-38.9zm53.4-2.1c0-23.3 17.3-42.1 38.9-42.1 21.7 0 38.9 18.9 38.9 42.2 0 23.4-17.3 42.1-39 42.1-21.6 0-38.8-18.8-38.8-42.2zm63.4.1c0-14.7-10.9-26.8-24.5-26.8s-24.5 12-24.5 26.7 10.8 26.8 24.4 26.8c13.6.1 24.6-11.9 24.6-26.7zm40.7 12.7l.1-53.6h14.5l-.1 54.6c0 7.9 5.5 14.1 12.8 14.1 7.3 0 13.1-6.2 13.1-14l.1-54.6h14.5l-.1 53.6c0 19.6-11.7 29.6-27.5 29.5s-27.4-10.1-27.4-29.6zM791 199.7l-1.7 1.6M670.8 18.1h37.9l90.5 257.3H761L689.7 71l-71 204.4h-38.5l90.6-257.3zm58 165.7L689.7 71l39.1 112.8z"/></svg>