<svg xmlns="http://www.w3.org/2000/svg" width="195.475" height="31.302" viewBox="0 0 195.475 31.302"><path d="M19.57 14.855c2.052-1.198 3.096-3.145 3.096-5.579 0-4.681-3.312-7.452-8.639-7.452H5.136v27.334h9.503c5.364 0 8.855-2.845 8.855-7.9 0-3.07-1.404-5.28-3.924-6.403zM9.06 5.531h4.967c3.096 0 4.715 1.386 4.715 3.745 0 2.285-1.404 3.932-4.571 3.932H9.06V5.531zm5.579 19.884H9.06V16.99l5.399.001c3.635 0 5.111 1.609 5.111 4.193 0 2.545-1.836 4.231-4.931 4.231zm31.643-6.404c3.745-1.198 5.688-4.643 5.688-8.275 0-4.98-3.708-8.912-9.287-8.912h-8.172v27.334h3.924V5.605h3.852c3.852 0 5.759 2.06 5.759 5.13 0 2.509-1.871 5.393-5.795 5.393h-2.124l7.919 13.03h4.5l-6.264-10.147zm67.536 3.483L100.5 1.824h-4.428v27.335h3.924V8.152l13.57 21.007h4.14V1.824h-3.888zM128.76 5.643h7.451v23.516h3.888V5.643h7.451V1.824h-18.79zm48.166 14.305V1.824h-3.887V20.21c0 3.033-2.34 5.505-5.363 5.505-2.988 0-5.256-2.472-5.256-5.505V1.824h-3.924v18.124c0 5.879 3.887 9.585 9.215 9.585 5.292 0 9.215-3.706 9.215-9.585zM75.803 1.824h-4.031l-9.646 27.335h4.103l2.016-5.841 1.367-3.895 4.176-11.982 4.175 11.982 1.368 3.895 2.051 5.841h4.068z"/><path fill="none" d="M178.162.825h24.045v13.493h-24.045z"/><text transform="translate(180.255 8.126)" font-family="'SharpSansNo1-Medium'" font-size="9">TM</text></svg>