<svg xmlns="http://www.w3.org/2000/svg" width="50" height="23" viewBox="0 0 50 50"><path fill-rule="evenodd" clip-rule="evenodd" d="M48.693 48.867a1.432 1.432 0 0 1-2.028 0l-13.43-13.429c-3.432 2.963-7.848 4.819-12.738 4.819C9.681 40.257.911 31.489.911 20.671.911 9.853 9.68 1.086 20.497 1.086c10.817 0 19.586 8.767 19.586 19.585 0 4.89-1.856 9.305-4.819 12.739l13.429 13.429c.56.559.56 1.467 0 2.028zM37.07 20.671c0-9.151-7.42-16.572-16.573-16.572S3.925 11.52 3.925 20.671c0 9.154 7.42 16.574 16.572 16.574 9.154 0 16.573-7.42 16.573-16.574z"/></svg>