<svg xmlns="http://www.w3.org/2000/svg" width="83.862" height="38" viewBox="-3.032 0 83.862 38"><path d="M27.703 10.469c.416-.069.961-.129 1.654-.129.852 0 1.475.198 1.872.555.366.317.584.802.584 1.396 0 .604-.178 1.079-.515 1.426-.455.485-1.198.733-2.039.733-.258 0-.496-.01-.693-.06v2.673h-.862l-.001-6.594zm.862 3.218c.188.05.426.069.713.069 1.04 0 1.674-.505 1.674-1.426 0-.881-.624-1.307-1.575-1.307-.376 0-.664.03-.812.069v2.595zm4.408-3.208c.436-.089 1.059-.139 1.654-.139.921 0 1.515.168 1.931.545.337.297.525.753.525 1.267 0 .881-.555 1.465-1.258 1.703v.029c.515.179.822.654.98 1.347.218.931.376 1.574.515 1.832h-.891c-.11-.188-.258-.762-.446-1.594-.198-.921-.555-1.267-1.337-1.297h-.812v2.891h-.862l.001-6.584zm.862 3.04h.881c.921 0 1.505-.505 1.505-1.267 0-.861-.624-1.238-1.535-1.248-.416 0-.713.04-.851.079v2.436zm7.924.416h-2.594v2.406h2.891v.723h-3.753v-6.673h3.605v.723h-2.743v2.109h2.594v.712zm1.3 2.079a3.05 3.05 0 0 0 1.545.436c.881 0 1.396-.465 1.396-1.139 0-.624-.357-.98-1.258-1.327-1.089-.386-1.762-.951-1.762-1.891 0-1.04.861-1.812 2.158-1.812.683 0 1.179.158 1.475.327l-.238.703a2.658 2.658 0 0 0-1.267-.317c-.911 0-1.258.545-1.258 1 0 .624.406.931 1.327 1.287 1.129.436 1.704.98 1.704 1.96 0 1.03-.763 1.921-2.337 1.921-.643 0-1.346-.188-1.703-.426l.218-.722zm4.884 0a3.05 3.05 0 0 0 1.545.436c.881 0 1.396-.465 1.396-1.139 0-.624-.357-.98-1.258-1.327-1.089-.386-1.762-.951-1.762-1.891 0-1.04.861-1.812 2.158-1.812.683 0 1.179.158 1.475.327l-.238.703a2.658 2.658 0 0 0-1.267-.317c-.911 0-1.258.545-1.258 1 0 .624.406.931 1.327 1.287 1.129.436 1.704.98 1.704 1.96 0 1.03-.763 1.921-2.337 1.921-.643 0-1.346-.188-1.703-.426l.218-.722zm10.559-2.079h-2.594v2.406h2.891v.723h-3.753v-6.673h3.605v.723h-2.743v2.109h2.594v.712zm1.418 3.128V10.39h.941L63 13.766a18.92 18.92 0 0 1 1.198 2.168l.019-.01c-.079-.891-.098-1.703-.098-2.742V10.39h.812v6.673h-.872l-2.119-3.386c-.465-.743-.911-1.505-1.248-2.228l-.03.01c.05.841.069 1.643.069 2.752v2.852h-.811zm7.785-5.94h-2.029v-.732h4.94v.732h-2.04v5.941h-.872l.001-5.941zm7.113 2.812h-2.594v2.406h2.891v.723h-3.753v-6.673h3.605v.723h-2.743v2.109h2.594v.712zm1.418-3.456c.436-.089 1.059-.139 1.654-.139.921 0 1.515.168 1.931.545.337.297.525.753.525 1.267 0 .881-.555 1.465-1.258 1.703v.029c.515.179.822.654.98 1.347.218.931.376 1.574.515 1.832h-.891c-.11-.188-.258-.762-.446-1.594-.198-.921-.555-1.267-1.337-1.297h-.812v2.891h-.862l.001-6.584zm.862 3.04h.881c.921 0 1.505-.505 1.505-1.267 0-.861-.624-1.238-1.535-1.248-.416 0-.713.04-.851.079v2.436zM28.97 23.01h-2.029v-.732h4.94v.732h-2.04v5.941h-.872l.001-5.941zm9.092 2.534c0 2.298-1.396 3.515-3.099 3.515-1.762 0-3-1.367-3-3.386 0-2.119 1.317-3.505 3.099-3.505 1.822.001 3 1.396 3 3.376zm-5.178.109c0 1.426.772 2.703 2.129 2.703 1.367 0 2.138-1.258 2.138-2.773 0-1.326-.693-2.712-2.128-2.712-1.426.001-2.139 1.317-2.139 2.782zm8.282 2.248a3.05 3.05 0 0 0 1.545.436c.881 0 1.396-.466 1.396-1.139 0-.623-.357-.98-1.258-1.326-1.089-.386-1.762-.951-1.762-1.891 0-1.039.861-1.812 2.158-1.812.683 0 1.179.158 1.475.327l-.238.703a2.658 2.658 0 0 0-1.267-.317c-.911 0-1.258.544-1.258 1 0 .624.406.93 1.327 1.288 1.129.435 1.704.98 1.704 1.96 0 1.03-.763 1.921-2.337 1.921-.643 0-1.346-.189-1.703-.426l.218-.724zm8.458-2.079H47.03v2.406h2.891v.723h-3.753v-6.673h3.605V23H47.03v2.109h2.594v.713zm2.498 1.029l-.693 2.099h-.891l2.267-6.673h1.04l2.278 6.673h-.921l-.713-2.099h-2.367zm2.188-.673l-.653-1.92c-.149-.436-.248-.832-.347-1.218h-.02a20.75 20.75 0 0 1-.336 1.208l-.654 1.931 2.01-.001zm2.795-3.812c.436-.089 1.059-.139 1.654-.139.921 0 1.515.168 1.931.545.337.297.525.752.525 1.267 0 .881-.555 1.465-1.258 1.703v.03c.515.178.822.653.98 1.346.218.93.376 1.575.515 1.832h-.891c-.11-.188-.258-.763-.446-1.594-.198-.921-.555-1.267-1.337-1.297h-.812v2.891h-.862l.001-6.584zm.862 3.04h.881c.921 0 1.505-.505 1.505-1.267 0-.861-.624-1.238-1.535-1.247-.416 0-.713.04-.851.079v2.435zm9.162 3.327c-.317.158-.951.317-1.762.317-1.882 0-3.297-1.188-3.297-3.376 0-2.089 1.416-3.505 3.485-3.505.832 0 1.357.178 1.584.297l-.208.703c-.327-.159-.792-.278-1.347-.278-1.564 0-2.604 1-2.604 2.752 0 1.633.941 2.683 2.565 2.683.525 0 1.059-.109 1.406-.277l.178.684zm1.944-6.455v2.792h3.228v-2.792h.871v6.673h-.871v-3.129h-3.228v3.129h-.862v-6.673h.862z" fill="#75809A"/><g fill="none" stroke="#BFBFBF" stroke-width="2" stroke-linecap="round" stroke-linejoin="round" stroke-miterlimit="10"><circle cx="10.148" cy="18.623" r="11.906"/><path d="M6.721 11.674c1.966-2.444 6.855-1.773 6.855 1.7-.001 1.249-.532 2.391-2.551 4.836-2.019 2.444-1.487 4.251-1.487 4.57m-.001 3.028v1.222"/></g></svg>