<svg xmlns="http://www.w3.org/2000/svg" width="75" height="75" viewBox="0 0 75 75"><g fill="none" stroke="#010101" stroke-width="2.834" stroke-miterlimit="10"><path d="M67.138 36.58c2.424 0 4.408-1.846 4.408-4.106 0-2.257-1.984-4.104-4.408-4.104H55.81c3.091-2.533 7.278-6.888 8.461-12.628 1.94-9.41-6.145-9.074-6.145-9.074-.165 2.352-.486 6.722-11.159 13.107-10.673 6.387-18.11 14.957-18.11 14.957h-5.013V60.11s4.043-.336 8.408 1.104c4.365 1.444 15.524 0 15.524 0h14.511c2.424 0 4.408-1.845 4.408-4.106 0-2.256-1.984-4.104-4.408-4.104h3.234c2.424 0 4.409-1.848 4.409-4.106s-1.985-4.106-4.409-4.106h1.617c2.424 0 4.408-1.848 4.408-4.106s-1.984-4.106-4.408-4.106z"/><path d="M4.958 30.533h18.887v38.485H4.958z"/><ellipse cx="13.045" cy="61.119" rx="3.233" ry="3.361"/><path d="M16.278 33.39v20.839m19.403-17.31s3.557-6.722 9.541-10.251"/></g></svg>