<?xml version="1.0" encoding="utf-8"?>
<!-- Generator: Adobe Illustrator 17.0.0, SVG Export Plug-In . SVG Version: 6.00 Build 0)  -->
<!DOCTYPE svg PUBLIC "-//W3C//DTD SVG 1.1//EN" "http://www.w3.org/Graphics/SVG/1.1/DTD/svg11.dtd">
<svg version="1.1" id="Layer_1" xmlns="http://www.w3.org/2000/svg" xmlns:xlink="http://www.w3.org/1999/xlink" x="0px" y="0px"
	 width="100px" height="100px" viewBox="0 0 100 100" enable-background="new 0 0 100 100" xml:space="preserve">
<g>
	<path fill="none" stroke="#000000" stroke-width="6.7745" stroke-miterlimit="10" d="M80.278,33.106l13.832,10.585
		c1.764,1.764,1.764,3.344,1.764,5.293H81.867"/>
	<path fill="none" stroke="#000000" stroke-width="6.7745" stroke-miterlimit="10" d="M18.134,48.984H4.127
		c0-1.949-0.004-3.529,1.764-5.293L49.996,6.64l15.872,14.114"/>
	<path fill="none" stroke="#000000" stroke-width="6.7745" stroke-miterlimit="10" d="M76.883,48.984h4.984
		c1.956,0,3.544,1.579,3.544,3.529v38.815c0,1.949-1.588,3.529-3.544,3.529H57.144"/>
	<path fill="none" stroke="#000000" stroke-width="6.7745" stroke-miterlimit="10" d="M42.853,94.857H18.134
		c-1.958,0-3.544-1.579-3.544-3.529V52.513c0-1.949,1.586-3.529,3.544-3.529h3.544"/>
	<path fill="none" stroke="#000000" stroke-width="6.7745" stroke-miterlimit="10" d="M39.536,94.857v-24.7
		c0-1.947,1.561-3.529,3.488-3.529h13.95c1.927,0,3.488,1.581,3.488,3.529v24.7"/>
	<path fill="none" stroke="#000000" stroke-width="6.7745" stroke-miterlimit="10" d="M66.155,22.172v-8.264
		c0-1.93,1.49-3.492,3.33-3.492h8.327c1.839,0,3.33,1.564,3.33,3.492v20.556"/>
</g>
</svg>
