<?xml version="1.0" encoding="utf-8"?>
<!-- Generator: Adobe Illustrator 17.0.0, SVG Export Plug-In . SVG Version: 6.00 Build 0)  -->
<!DOCTYPE svg PUBLIC "-//W3C//DTD SVG 1.1//EN" "http://www.w3.org/Graphics/SVG/1.1/DTD/svg11.dtd">
<svg version="1.1" id="Layer_1" xmlns="http://www.w3.org/2000/svg" xmlns:xlink="http://www.w3.org/1999/xlink" x="0px" y="0px"
	 width="66px" height="66.998px" viewBox="0 0 66 66.998" enable-background="new 0 0 66 66.998" xml:space="preserve">
<g>
	<g>
		<path fill="none" stroke="#000000" stroke-width="5" stroke-linejoin="round" stroke-miterlimit="10" d="M43.774,45.812
			c-2.596-1.298-6.116-3.687-6.116-5.767c0-1.127,0.448-1.812,0.802-2.008c5.111-2.811,6.802-11.951,7.131-11.951
			c1.72,0,2.92-4.271,2.92-7.138c0-2.262-0.678-2.218-1.89-2.929c0.002-0.105,0.008-0.214,0.008-0.315
			C46.629,8.25,40.587,2.5,33.132,2.5S19.274,8.462,19.274,15.916c0,0.102,0.006,0.21,0.008,0.315
			c-1.211,0.711-1.695,1.056-1.695,3.317c0,2.868,1.005,6.913,2.725,6.913c0.331,0,2.527,8.838,7.414,11.788
			c0.322,0.194,0.807,0.721,0.807,1.656c0,2.401-3.303,4.535-6.043,5.905C19.142,47.485,2.5,48.925,2.5,64.498h61
			C63.5,48.927,47.927,47.889,43.774,45.812z"/>
	</g>
</g>
</svg>
