<?xml version="1.0" encoding="utf-8"?>
<!-- Generator: Adobe Illustrator 17.0.0, SVG Export Plug-In . SVG Version: 6.00 Build 0)  -->
<!DOCTYPE svg PUBLIC "-//W3C//DTD SVG 1.1//EN" "http://www.w3.org/Graphics/SVG/1.1/DTD/svg11.dtd">
<svg version="1.1" id="Layer_1" xmlns="http://www.w3.org/2000/svg" xmlns:xlink="http://www.w3.org/1999/xlink" x="0px" y="0px"
	 width="50px" height="50px" viewBox="0 0 50 50" enable-background="new 0 0 50 50" xml:space="preserve">
<g>
	<circle fill="none" cx="25.028" cy="25" r="10.914"/>
	<path d="M44.195,11.465H5.861c-2.027,0-3.687,1.442-3.687,3.204v20.663c0,1.762,1.66,3.203,3.687,3.203h38.333
		c2.027,0,3.687-1.441,3.687-3.203V14.669C47.882,12.906,46.222,11.465,44.195,11.465z M24.89,35.585
		c-5.923,0-10.724-4.802-10.724-10.724s4.801-10.72,10.724-10.72c5.919,0,10.724,4.799,10.724,10.72S30.809,35.585,24.89,35.585z"/>
	<path fill="none" stroke="#A7A9AC" stroke-width="1.9659" stroke-linejoin="round" stroke-miterlimit="10" d="M42.75,16.27"/>
	<path fill="none" stroke="#A7A9AC" stroke-width="1.9659" stroke-linejoin="round" stroke-miterlimit="10" d="M40.763,15.799"/>
</g>
<circle fill="none" stroke="#000000" stroke-width="3" stroke-miterlimit="10" cx="25.028" cy="25" r="7.765"/>
<rect x="36.342" y="7.598" fill="none" stroke="#000000" stroke-width="1.138" stroke-miterlimit="10" width="6.477" height="3.713"/>
</svg>
