<?xml version="1.0" encoding="utf-8"?>
<!-- Generator: Adobe Illustrator 17.0.0, SVG Export Plug-In . SVG Version: 6.00 Build 0)  -->
<!DOCTYPE svg PUBLIC "-//W3C//DTD SVG 1.1//EN" "http://www.w3.org/Graphics/SVG/1.1/DTD/svg11.dtd">
<svg version="1.1" id="Layer_1" xmlns="http://www.w3.org/2000/svg" xmlns:xlink="http://www.w3.org/1999/xlink" x="0px" y="0px"
	 width="193.151px" height="48.226px" viewBox="0 0 193.151 48.226" enable-background="new 0 0 193.151 48.226"
	 xml:space="preserve">
<g>
	
		<linearGradient id="SVGID_1_" gradientUnits="userSpaceOnUse" x1="-53.989" y1="96.235" x2="-35.381" y2="96.235" gradientTransform="matrix(1 0 0 -1 59 111.726)">
		<stop  offset="0" style="stop-color:#34007F"/>
		<stop  offset="1" style="stop-color:#5A006A"/>
	</linearGradient>
	<path stroke="url(#SVGID_1_)" stroke-width="0.25" stroke-miterlimit="10" d="M19.57,14.855c2.052-1.198,3.096-3.145,3.096-5.579
		c0-4.681-3.312-7.452-8.639-7.452H5.136v27.334h9.503c5.364,0,8.855-2.845,8.855-7.9C23.494,18.188,22.09,15.978,19.57,14.855z
		 M9.06,5.531h4.967c3.096,0,4.715,1.386,4.715,3.745c0,2.285-1.404,3.932-4.571,3.932H9.06V5.531z M14.639,25.415H9.06V16.99
		l5.399,0.001c3.635,0,5.111,1.609,5.111,4.193C19.57,23.729,17.734,25.415,14.639,25.415z"/>
	
		<linearGradient id="SVGID_2_" gradientUnits="userSpaceOnUse" x1="-24.614" y1="96.235" x2="-6.2299" y2="96.235" gradientTransform="matrix(1 0 0 -1 59 111.726)">
		<stop  offset="0" style="stop-color:#34007F"/>
		<stop  offset="1" style="stop-color:#5A006A"/>
	</linearGradient>
	<path stroke="url(#SVGID_2_)" stroke-width="0.25" stroke-miterlimit="10" d="M46.282,19.011c3.745-1.198,5.688-4.643,5.688-8.275
		c0-4.98-3.708-8.912-9.287-8.912h-8.171h-0.001v27.334h3.924V5.605h3.852c3.852,0,5.759,2.06,5.759,5.13
		c0,2.509-1.871,5.393-5.795,5.393h-2.124l7.919,13.03h4.5L46.282,19.011z"/>
	
		<linearGradient id="SVGID_3_" gradientUnits="userSpaceOnUse" x1="36.947" y1="96.2345" x2="58.831" y2="96.2345" gradientTransform="matrix(1 0 0 -1 59 111.726)">
		<stop  offset="0" style="stop-color:#34007F"/>
		<stop  offset="1" style="stop-color:#5A006A"/>
	</linearGradient>
	<polygon stroke="url(#SVGID_3_)" stroke-width="0.25" stroke-miterlimit="10" points="113.818,22.494 100.5,1.824 96.072,1.824 
		96.072,29.159 99.996,29.159 99.996,8.152 113.566,29.159 117.706,29.159 117.706,1.824 113.818,1.824 	"/>
	
		<linearGradient id="SVGID_4_" gradientUnits="userSpaceOnUse" x1="69.635" y1="96.2345" x2="88.675" y2="96.2345" gradientTransform="matrix(1 0 0 -1 59 111.726)">
		<stop  offset="0" style="stop-color:#34007F"/>
		<stop  offset="1" style="stop-color:#5A006A"/>
	</linearGradient>
	<polygon stroke="url(#SVGID_4_)" stroke-width="0.25" stroke-miterlimit="10" points="128.76,5.643 136.211,5.643 136.211,29.159 
		140.099,29.159 140.099,5.643 147.55,5.643 147.55,1.824 128.76,1.824 	"/>
	
		<linearGradient id="SVGID_5_" gradientUnits="userSpaceOnUse" x1="99.371" y1="96.0475" x2="118.051" y2="96.0475" gradientTransform="matrix(1 0 0 -1 59 111.726)">
		<stop  offset="0" style="stop-color:#34007F"/>
		<stop  offset="1" style="stop-color:#5A006A"/>
	</linearGradient>
	<path stroke="url(#SVGID_5_)" stroke-width="0.25" stroke-miterlimit="10" d="M176.926,19.948V1.824h-3.887V20.21
		c0,3.033-2.34,5.505-5.363,5.505c-2.988,0-5.256-2.472-5.256-5.505V1.824h-3.924v18.124c0,5.879,3.887,9.585,9.215,9.585
		C173.003,29.533,176.926,25.827,176.926,19.948z"/>
	
		<linearGradient id="SVGID_6_" gradientUnits="userSpaceOnUse" x1="2.9493" y1="96.2345" x2="26.6267" y2="96.2345" gradientTransform="matrix(1 0 0 -1 59 111.726)">
		<stop  offset="0" style="stop-color:#34007F"/>
		<stop  offset="1" style="stop-color:#5A006A"/>
	</linearGradient>
	<polygon stroke="url(#SVGID_6_)" stroke-width="0.25" stroke-miterlimit="10" points="75.803,1.824 71.772,1.824 62.126,29.159 
		66.229,29.159 68.245,23.318 69.612,19.423 73.788,7.441 77.963,19.423 79.331,23.318 81.382,29.159 85.45,29.159 	"/>
	
		<linearGradient id="SVGID_7_" gradientUnits="userSpaceOnUse" x1="-53.952" y1="68.679" x2="-48.605" y2="68.679" gradientTransform="matrix(1 0 0 -1 59 111.726)">
		<stop  offset="0" style="stop-color:#34007F"/>
		<stop  offset="1" style="stop-color:#5A006A"/>
	</linearGradient>
	<path stroke="url(#SVGID_7_)" stroke-width="0.25" stroke-miterlimit="10" d="M9.181,42.87c0.57-0.333,0.86-0.874,0.86-1.55
		c0-1.301-0.92-2.071-2.399-2.071H5.173v7.596h2.639c1.489,0,2.458-0.791,2.458-2.195C10.27,43.797,9.881,43.182,9.181,42.87z
		 M6.263,40.279h1.379c0.859,0,1.309,0.385,1.309,1.041c0,0.635-0.39,1.092-1.269,1.092H6.263V40.279z M7.812,45.805H6.263v-2.341
		h1.499c1.009,0,1.419,0.447,1.419,1.165C9.181,45.337,8.671,45.805,7.812,45.805z"/>
	
		<linearGradient id="SVGID_8_" gradientUnits="userSpaceOnUse" x1="-45.702" y1="68.6785" x2="-40.3451" y2="68.6785" gradientTransform="matrix(1 0 0 -1 59 111.726)">
		<stop  offset="0" style="stop-color:#34007F"/>
		<stop  offset="1" style="stop-color:#5A006A"/>
	</linearGradient>
	<path stroke="url(#SVGID_8_)" stroke-width="0.25" stroke-miterlimit="10" d="M18.271,41.726c0-1.384-1.03-2.477-2.579-2.477
		h-2.269v7.597h1.089V40.3h1.07c1.07,0,1.599,0.572,1.599,1.426c0,0.697-0.52,1.499-1.609,1.499h-0.59l2.199,3.621h1.25l-1.739-2.82
		C17.731,43.693,18.271,42.736,18.271,41.726z"/>
	
		<linearGradient id="SVGID_9_" gradientUnits="userSpaceOnUse" x1="-37.552" y1="68.6785" x2="-36.213" y2="68.6785" gradientTransform="matrix(1 0 0 -1 59 111.726)">
		<stop  offset="0" style="stop-color:#34007F"/>
		<stop  offset="1" style="stop-color:#5A006A"/>
	</linearGradient>
	<rect x="21.573" y="39.249" stroke="url(#SVGID_9_)" stroke-width="0.25" stroke-miterlimit="10" width="1.089" height="7.597"/>
	
		<linearGradient id="SVGID_10_" gradientUnits="userSpaceOnUse" x1="-33.032" y1="68.6785" x2="-26.777" y2="68.6785" gradientTransform="matrix(1 0 0 -1 59 111.726)">
		<stop  offset="0" style="stop-color:#34007F"/>
		<stop  offset="1" style="stop-color:#5A006A"/>
	</linearGradient>
	<polygon stroke="url(#SVGID_10_)" stroke-width="0.25" stroke-miterlimit="10" points="31.019,44.993 27.322,39.249 26.093,39.249 
		26.093,46.846 27.182,46.846 27.182,41.008 30.95,46.846 32.098,46.846 32.098,39.249 31.019,39.249 	"/>
	
		<linearGradient id="SVGID_11_" gradientUnits="userSpaceOnUse" x1="-23.873" y1="68.6785" x2="-16.216" y2="68.6785" gradientTransform="matrix(1 0 0 -1 59 111.726)">
		<stop  offset="0" style="stop-color:#34007F"/>
		<stop  offset="1" style="stop-color:#5A006A"/>
	</linearGradient>
	<path stroke="url(#SVGID_11_)" stroke-width="0.25" stroke-miterlimit="10" d="M38.901,43.755h2.618
		c-0.23,1.229-1.1,2.103-2.479,2.103c-1.569,0-2.698-1.26-2.698-2.811c0-1.54,1.109-2.819,2.688-2.819
		c1.049,0,1.858,0.551,2.328,1.467l0.95-0.593c-0.63-1.166-1.819-1.957-3.278-1.957c-2.189,0-3.778,1.738-3.778,3.902
		c0,2.123,1.589,3.903,3.789,3.903c2.268,0,3.618-1.8,3.618-3.861v-0.406h-3.758C38.901,42.683,38.901,43.755,38.901,43.755z"/>
	
		<linearGradient id="SVGID_12_" gradientUnits="userSpaceOnUse" x1="-13.242" y1="68.6785" x2="-11.903" y2="68.6785" gradientTransform="matrix(1 0 0 -1 59 111.726)">
		<stop  offset="0" style="stop-color:#34007F"/>
		<stop  offset="1" style="stop-color:#5A006A"/>
	</linearGradient>
	<rect x="45.883" y="39.249" stroke="url(#SVGID_12_)" stroke-width="0.25" stroke-miterlimit="10" width="1.089" height="7.597"/>
	
		<linearGradient id="SVGID_13_" gradientUnits="userSpaceOnUse" x1="-8.724" y1="68.6785" x2="-2.467" y2="68.6785" gradientTransform="matrix(1 0 0 -1 59 111.726)">
		<stop  offset="0" style="stop-color:#34007F"/>
		<stop  offset="1" style="stop-color:#5A006A"/>
	</linearGradient>
	<polygon stroke="url(#SVGID_13_)" stroke-width="0.25" stroke-miterlimit="10" points="55.329,44.993 51.631,39.249 50.402,39.249 
		50.401,46.846 51.491,46.846 51.491,41.008 55.259,46.846 56.408,46.846 56.408,39.249 55.329,39.249 	"/>
	
		<linearGradient id="SVGID_14_" gradientUnits="userSpaceOnUse" x1="0.437" y1="68.6785" x2="8.094" y2="68.6785" gradientTransform="matrix(1 0 0 -1 59 111.726)">
		<stop  offset="0" style="stop-color:#34007F"/>
		<stop  offset="1" style="stop-color:#5A006A"/>
	</linearGradient>
	<path stroke="url(#SVGID_14_)" stroke-width="0.25" stroke-miterlimit="10" d="M63.211,43.755h2.618
		c-0.23,1.229-1.1,2.103-2.479,2.103c-1.569,0-2.698-1.26-2.698-2.811c0-1.54,1.109-2.819,2.688-2.819
		c1.049,0,1.858,0.551,2.328,1.467l0.95-0.593c-0.63-1.166-1.819-1.957-3.278-1.957c-2.189,0-3.778,1.738-3.778,3.902
		c0,2.123,1.588,3.903,3.789,3.903c2.268,0,3.618-1.8,3.618-3.861v-0.406h-3.758C63.211,42.683,63.211,43.755,63.211,43.755z"/>
	
		<linearGradient id="SVGID_15_" gradientUnits="userSpaceOnUse" x1="15.717" y1="68.679" x2="21.065" y2="68.679" gradientTransform="matrix(1 0 0 -1 59 111.726)">
		<stop  offset="0" style="stop-color:#34007F"/>
		<stop  offset="1" style="stop-color:#5A006A"/>
	</linearGradient>
	<path stroke="url(#SVGID_15_)" stroke-width="0.25" stroke-miterlimit="10" d="M78.85,42.87c0.569-0.333,0.859-0.874,0.859-1.55
		c0-1.301-0.919-2.071-2.398-2.071h-2.469v7.596h2.639c1.489,0,2.459-0.791,2.459-2.195C79.94,43.797,79.55,43.182,78.85,42.87z
		 M75.932,40.279h1.379c0.86,0,1.31,0.385,1.31,1.041c0,0.635-0.39,1.092-1.27,1.092h-1.419V40.279z M77.481,45.805h-1.549v-2.341
		h1.499c1.009,0,1.419,0.447,1.419,1.165C78.85,45.337,78.34,45.805,77.481,45.805z"/>
	
		<linearGradient id="SVGID_16_" gradientUnits="userSpaceOnUse" x1="23.967" y1="68.6785" x2="29.3239" y2="68.6785" gradientTransform="matrix(1 0 0 -1 59 111.726)">
		<stop  offset="0" style="stop-color:#34007F"/>
		<stop  offset="1" style="stop-color:#5A006A"/>
	</linearGradient>
	<path stroke="url(#SVGID_16_)" stroke-width="0.25" stroke-miterlimit="10" d="M87.94,41.726c0-1.384-1.029-2.477-2.579-2.477
		h-2.269v7.597h1.09V40.3h1.069c1.07,0,1.599,0.572,1.599,1.426c0,0.697-0.519,1.499-1.608,1.499h-0.59l2.198,3.621h1.25
		l-1.739-2.82C87.4,43.693,87.94,42.736,87.94,41.726z"/>
	
		<linearGradient id="SVGID_17_" gradientUnits="userSpaceOnUse" x1="31.6744" y1="68.6785" x2="38.5046" y2="68.6785" gradientTransform="matrix(1 0 0 -1 59 111.726)">
		<stop  offset="0" style="stop-color:#34007F"/>
		<stop  offset="1" style="stop-color:#5A006A"/>
	</linearGradient>
	<path stroke="url(#SVGID_17_)" stroke-width="0.25" stroke-miterlimit="10" d="M93.529,39.249l-2.678,7.597h1.139l0.56-1.623h3.079
		l0.569,1.623h1.13l-2.679-7.597H93.529z M92.93,44.14l1.16-3.33l1.159,3.33H92.93z"/>
	
		<linearGradient id="SVGID_18_" gradientUnits="userSpaceOnUse" x1="41.245" y1="68.6785" x2="47.502" y2="68.6785" gradientTransform="matrix(1 0 0 -1 59 111.726)">
		<stop  offset="0" style="stop-color:#34007F"/>
		<stop  offset="1" style="stop-color:#5A006A"/>
	</linearGradient>
	<polygon stroke="url(#SVGID_18_)" stroke-width="0.25" stroke-miterlimit="10" points="105.298,44.993 101.6,39.249 
		100.371,39.249 100.37,46.846 101.46,46.846 101.46,41.008 105.228,46.846 106.377,46.846 106.377,39.249 105.298,39.249 	"/>
	
		<linearGradient id="SVGID_19_" gradientUnits="userSpaceOnUse" x1="50.616" y1="68.6785" x2="56.713" y2="68.6785" gradientTransform="matrix(1 0 0 -1 59 111.726)">
		<stop  offset="0" style="stop-color:#34007F"/>
		<stop  offset="1" style="stop-color:#5A006A"/>
	</linearGradient>
	<path stroke="url(#SVGID_19_)" stroke-width="0.25" stroke-miterlimit="10" d="M111.76,39.249h-2.019v7.597h2.059
		c2.189,0,3.788-1.634,3.788-3.799C115.588,40.894,114.129,39.249,111.76,39.249z M111.69,45.795h-0.859V40.29h0.819
		c1.829,0,2.838,1.165,2.838,2.757C114.488,44.608,113.369,45.795,111.69,45.795z"/>
	
		<linearGradient id="SVGID_20_" gradientUnits="userSpaceOnUse" x1="59.0902" y1="68.6785" x2="64.532" y2="68.6785" gradientTransform="matrix(1 0 0 -1 59 111.726)">
		<stop  offset="0" style="stop-color:#34007F"/>
		<stop  offset="1" style="stop-color:#5A006A"/>
	</linearGradient>
	<path stroke="url(#SVGID_20_)" stroke-width="0.25" stroke-miterlimit="10" d="M121.318,42.455
		c-0.839-0.291-1.609-0.53-1.609-1.259c0-0.594,0.48-1.052,1.22-1.052c0.65,0,1.139,0.281,1.469,0.812l0.89-0.688
		c-0.559-0.676-1.249-1.124-2.358-1.124c-1.35,0-2.339,0.916-2.339,2.071c0,1.395,1.07,1.811,2.059,2.144
		c0.84,0.282,1.639,0.532,1.639,1.312c0,0.676-0.508,1.218-1.318,1.218c-0.74,0-1.319-0.386-1.749-1.104l-0.96,0.78
		c0.62,0.833,1.468,1.385,2.716,1.386c1.509,0,2.429-1.114,2.429-2.279C123.407,43.257,122.317,42.809,121.318,42.455z"/>
	
		<linearGradient id="SVGID_21_" gradientUnits="userSpaceOnUse" x1="71.955" y1="68.6785" x2="77.423" y2="68.6785" gradientTransform="matrix(1 0 0 -1 59 111.726)">
		<stop  offset="0" style="stop-color:#34007F"/>
		<stop  offset="1" style="stop-color:#5A006A"/>
	</linearGradient>
	<polygon stroke="url(#SVGID_21_)" stroke-width="0.25" stroke-miterlimit="10" points="131.08,40.311 133.149,40.311 
		133.15,40.311 133.15,46.846 134.229,46.846 134.229,40.311 136.298,40.311 136.298,39.249 131.08,39.249 	"/>
	
		<linearGradient id="SVGID_22_" gradientUnits="userSpaceOnUse" x1="79.436" y1="68.6785" x2="87.172" y2="68.6785" gradientTransform="matrix(1 0 0 -1 59 111.726)">
		<stop  offset="0" style="stop-color:#34007F"/>
		<stop  offset="1" style="stop-color:#5A006A"/>
	</linearGradient>
	<path stroke="url(#SVGID_22_)" stroke-width="0.25" stroke-miterlimit="10" d="M142.299,39.145c-2.069,0-3.738,1.749-3.738,3.902
		c0,2.154,1.669,3.903,3.738,3.903c2.079,0,3.748-1.749,3.748-3.903C146.047,40.894,144.378,39.145,142.299,39.145z M142.299,45.847
		c-1.489,0-2.648-1.259-2.648-2.8c0-1.54,1.159-2.81,2.648-2.81c1.499,0,2.658,1.27,2.658,2.81
		C144.957,44.588,143.798,45.847,142.299,45.847z"/>
	
		<linearGradient id="SVGID_23_" gradientUnits="userSpaceOnUse" x1="94.3506" y1="68.6785" x2="100.6166" y2="68.6785" gradientTransform="matrix(1 0 0 -1 59 111.726)">
		<stop  offset="0" style="stop-color:#34007F"/>
		<stop  offset="1" style="stop-color:#5A006A"/>
	</linearGradient>
	<polygon stroke="url(#SVGID_23_)" stroke-width="0.25" stroke-miterlimit="10" points="156.478,42.163 154.769,39.249 
		153.57,39.249 155.938,43.245 155.938,46.846 157.018,46.846 157.018,43.256 159.397,39.249 158.197,39.249 	"/>
	
		<linearGradient id="SVGID_24_" gradientUnits="userSpaceOnUse" x1="102.314" y1="68.6785" x2="110.05" y2="68.6785" gradientTransform="matrix(1 0 0 -1 59 111.726)">
		<stop  offset="0" style="stop-color:#34007F"/>
		<stop  offset="1" style="stop-color:#5A006A"/>
	</linearGradient>
	<path stroke="url(#SVGID_24_)" stroke-width="0.25" stroke-miterlimit="10" d="M165.177,39.145c-2.069,0-3.738,1.749-3.738,3.902
		c0,2.154,1.669,3.903,3.738,3.903c2.079,0,3.748-1.749,3.748-3.903C168.925,40.894,167.256,39.145,165.177,39.145z M165.178,45.847
		c-1.489,0-2.648-1.259-2.648-2.8c0-1.54,1.159-2.81,2.648-2.81c1.499,0,2.658,1.27,2.658,2.81
		C167.836,44.588,166.677,45.847,165.178,45.847z"/>
	
		<linearGradient id="SVGID_25_" gradientUnits="userSpaceOnUse" x1="112.935" y1="68.6265" x2="118.302" y2="68.6265" gradientTransform="matrix(1 0 0 -1 59 111.726)">
		<stop  offset="0" style="stop-color:#34007F"/>
		<stop  offset="1" style="stop-color:#5A006A"/>
	</linearGradient>
	<path stroke="url(#SVGID_25_)" stroke-width="0.25" stroke-miterlimit="10" d="M176.097,39.249v5.109
		c0,0.842-0.649,1.53-1.489,1.53c-0.829,0-1.459-0.687-1.459-1.53v-5.109h-1.089v5.037c0,1.634,1.079,2.664,2.558,2.664
		c1.469,0,2.559-1.03,2.559-2.664v-5.037H176.097z"/>
</g>
<linearGradient id="SVGID_26_" gradientUnits="userSpaceOnUse" x1="-78.271" y1="540.7254" x2="-69.3537" y2="540.7254" gradientTransform="matrix(1 0 0 1 261.5 -529.2739)">
	<stop  offset="0" style="stop-color:#34007F"/>
	<stop  offset="1" style="stop-color:#5A006A"/>
</linearGradient>
<linearGradient id="SVGID_27_" gradientUnits="userSpaceOnUse" x1="-78.6073" y1="540.7254" x2="-69.0636" y2="540.7254" gradientTransform="matrix(1 0 0 1 261.5 -529.2739)">
	<stop  offset="0" style="stop-color:#34007F"/>
	<stop  offset="1" style="stop-color:#5A006A"/>
</linearGradient>
<path fill="url(#SVGID_26_)" stroke="url(#SVGID_27_)" stroke-width="0.5802" stroke-miterlimit="10" d="M189.617,8.173
	c0.506,0.402,1.077,0.754,1.52,1.226c1.242,1.323,1.329,3.563,0.309,5.303c-1.152,1.966-3.067,2.368-4.639,1.994
	c-0.533-0.127-1.007-0.502-1.522-0.771c0,0.058,0,0.192,0,0.326c0.004,1.459,0.019,2.917-0.262,4.362
	c-0.071,0.367-0.211,0.489-0.574,0.461c-0.394-0.031-0.793-0.007-1.22-0.007c0.086-0.58,0.185-1.109,0.239-1.643
	c0.059-0.584,0.105-1.173,0.107-1.76c0.01-3.731,0.001-7.462,0.014-11.193c0.002-0.598,0.048-1.201,0.139-1.791
	c0.213-1.378,1.083-2.224,2.358-2.637c1.099-0.355,2.211-0.266,3.277,0.193c2.448,1.055,2.258,3.887,1.088,5.144
	C190.179,7.671,189.874,7.93,189.617,8.173z M185.292,9.722c-0.002,0-0.004,0-0.007,0c0,1.6-0.002,3.2,0.003,4.8
	c0,0.136,0.011,0.295,0.079,0.403c0.511,0.805,1.247,1.226,2.209,1.215c0.941-0.011,1.676-0.376,2.138-1.236
	c0.931-1.735,0.539-4.707-0.835-6.125c-0.09-0.093-0.279-0.126-0.421-0.125c-0.433,0.004-0.867,0.071-1.297,0.05
	c-0.29-0.014-0.599-0.114-0.606-0.508c-0.005-0.283,0.195-0.472,0.626-0.471c0.441,0.001,0.886,0.072,1.321,0.156
	c0.226,0.044,0.334,0.005,0.437-0.202c0.517-1.045,0.708-2.139,0.507-3.289c-0.204-1.162-1.003-1.855-2.069-1.825
	c-1.075,0.03-1.869,0.788-2.017,1.939c-0.039,0.303-0.065,0.609-0.067,0.914C185.288,6.851,185.292,8.286,185.292,9.722z"/>
</svg>
