<?xml version="1.0" encoding="utf-8"?>
<!-- Generated by Shoe Palace, Inc. http://www.shoepalace.com/ -->
<!DOCTYPE svg PUBLIC "-//W3C//DTD SVG 1.1//EN" "http://www.w3.org/Graphics/SVG/1.1/DTD/svg11.dtd">
<svg preserveAspectRatio="xMidYMid" width="256px" height="256px" viewBox="0 0 256 256" xmlns="http://www.w3.org/2000/svg" version="1.1" xmlns:xlink="http://www.w3.org/1999/xlink">
	<path fill="#c41230" d="M90.197,109.174c-4.069,0-5.504,3.808-5.504,7.583h10.98C95.674,112.54,94.291,109.174,90.197,109.174 M0,69.541l24.537,115.996l1.866-0.965c26.097-13.707,52.154-12.889,69.394-9.783c18.762,3.359,31.469,10.055,31.622,10.1l0.681,0.387l0.699-0.338c30.803-13.696,56.239-12.908,72.149-9.844c17.231,3.34,27.343,10.004,27.446,10.08l1.939,1.285l0.5-2.299L256,69.541H0z M205.404,141.119c-13.186,0-18.084-5.801-18.084-12.824v-0.222h12.051c0,3.327,2.623,5.009,6.314,5.009c3.26,0,4.932-1.081,4.932-3.15c0-5.479-22.971-0.23-22.971-15.72c0-8.289,7.734-13.146,19.817-13.146c10.752,0,17.274,5.336,17.274,11.704h-11.03c0-1.838-2.302-3.673-6.22-3.673c-3.985,0-5.533,1.408-5.533,2.649c0,6.042,24.021,0.116,24.021,15.879C225.975,135.217,220.283,141.119,205.404,141.119 M67.662,140.273H31.537v-38.044H45.92v28.33h21.743L67.662,140.273L67.662,140.273z M90.9,141.584c-14.737,0-22.547-7.615-22.547-20.328c0-12.709,8.127-20.308,21.73-20.308c14.51,0,21.725,9.291,21.725,20.308c0,0.87-0.063,1.703-0.181,2.332H84.167c0,5.41,3.022,8.725,7.821,8.725c4.103,0,7.24-1.162,7.908-4.53h11.98C110.425,136.488,104.303,141.584,90.9,141.584 M138.539,140.338H126.71l-18.88-38.441h16.566l10.129,22.197h0.264l10.141-22.197h11.885L138.539,140.338z M173.363,140.256h-14.389v-38.433h14.389V140.256z M186.648,104.907l-4.983,6.022h-2.058l2.257-6.556h-4.558v-8.761h9.344v9.294L186.648,104.907L186.648,104.907z"/>
</svg>
