<?xml version="1.0" encoding="utf-8"?>
<!-- Generator: Adobe Illustrator 17.0.0, SVG Export Plug-In . SVG Version: 6.00 Build 0)  -->
<!DOCTYPE svg PUBLIC "-//W3C//DTD SVG 1.1//EN" "http://www.w3.org/Graphics/SVG/1.1/DTD/svg11.dtd">
<svg version="1.1" id="Layer_1" xmlns="http://www.w3.org/2000/svg" xmlns:xlink="http://www.w3.org/1999/xlink" x="0px" y="0px"
	 width="601.074px" height="585.688px" viewBox="339.374 7.156 601.074 585.688"
	 enable-background="new 339.374 7.156 601.074 585.688" xml:space="preserve">
<g>
	<ellipse fill="#F1F2F2" cx="639.911" cy="300" rx="300.537" ry="292.844"/>
	<g>
		<path fill="#000333" d="M422.021,401.073h29.338v-53.131c-3.757,5.188-11.449,8.408-18.962,8.408h-1.789v-27.907h0.894
			c16.1,0,20.93-11.449,20.93-19.857h28.086v92.308h28.086v26.476h-86.583V401.073z"/>
		<path fill="#000333" d="M522.021,389.088v-41.145c0-23.435,17.352-40.787,43.292-40.787c26.118,0,43.292,17.71,43.292,40.608
			v41.324c0,23.792-16.637,40.25-43.471,40.25C538.122,429.338,522.021,412.343,522.021,389.088z M579.267,388.372V348.3
			c0-8.587-4.83-14.49-13.953-14.49s-14.311,6.261-14.311,14.49v40.072c0,8.05,4.83,13.953,13.953,13.953
			C574.258,402.504,579.267,396.422,579.267,388.372z"/>
		<path fill="#000333" d="M621.843,389.088v-41.145c0-23.435,17.352-40.787,43.292-40.787c26.118,0,43.292,17.71,43.292,40.608
			v41.324c0,23.792-16.637,40.25-43.47,40.25S621.843,412.343,621.843,389.088z M679.267,388.372V348.3
			c0-8.587-4.83-14.49-13.953-14.49s-14.311,6.261-14.311,14.49v40.072c0,8.05,4.83,13.953,13.953,13.953
			C674.079,402.326,679.267,396.422,679.267,388.372z"/>
	</g>
	<path fill="#000333" d="M722.379,389.088v-41.145c0-23.435,17.352-40.787,43.292-40.787c26.118,0,43.292,17.71,43.292,40.608
		v41.324c0,23.792-16.637,40.25-43.471,40.25C738.479,429.338,722.379,412.343,722.379,389.088z M779.624,388.372V348.3
		c0-8.587-4.83-14.49-13.953-14.49s-14.311,6.261-14.311,14.49v40.072c0,8.05,4.83,13.953,13.953,13.953
		C774.437,402.326,779.624,396.422,779.624,388.372z"/>
	<g>
		<path d="M903.059,403.578h-63.685c-3.22,0-5.725-2.504-5.725-5.725v-45.08c0-3.041,2.504-5.725,5.725-5.725h63.685
			c3.22,0,5.724,2.504,5.724,5.725v45.08C908.784,401.073,906.279,403.578,903.059,403.578z M903.059,355.635
			c0-1.61-1.252-2.862-2.862-2.862h-57.961c-1.61,0-2.862,1.252-2.862,2.862v39.535c0,1.61,1.252,2.862,2.862,2.862h57.961
			c1.61,0,2.862-1.252,2.862-2.862V355.635z"/>
		<rect x="845.456" y="365.653" fill="none" width="64.043" height="35.42"/>
		<text transform="matrix(1.0267 0 0 1 845.4414 386.0264)" font-family="'SharpSansNo1-Light'" font-size="28.0286">SEK</text>
		
			<text transform="matrix(1.0267 0 0 1 845.4414 386.0264)" fill="none" stroke="#000000" stroke-miterlimit="10" font-family="'SharpSansNo1-Light'" font-size="28.0286">SEK</text>
		
			<text transform="matrix(1.0267 0 0 1 897.2354 386.0264)" font-family="'SharpSansNo1-Light'" font-size="28.0286" letter-spacing="7.792"> </text>
		
			<text transform="matrix(1.0267 0 0 1 897.2354 386.0264)" fill="none" stroke="#000000" stroke-miterlimit="10" font-family="'SharpSansNo1-Light'" font-size="28.0286" letter-spacing="7.792"> </text>
	</g>
	<rect x="438.301" y="98.927" fill="none" width="397.853" height="233.453"/>
	<g enable-background="new    ">
		<path fill="#000333" d="M442.762,98.924h2.303l29.354,37.673V98.924h2.129v40.924h-2.244l-29.411-37.673v37.673h-2.13V98.924
			H442.762z"/>
		<path fill="#000333" d="M499.856,98.924h2.244l16.403,40.924h-2.244l-5.065-12.558h-20.433l-5.007,12.558h-2.303L499.856,98.924z
			 M491.568,125.384h18.878l-9.439-23.602L491.568,125.384z M496.978,86.871h2.072v7.849h-2.072V86.871z M502.734,86.871h2.071
			v7.849h-2.071V86.871z"/>
		<path fill="#000333" d="M525.409,98.924h12.72c7.482,0,13.354,5.606,13.354,12.558c0,6.335-4.777,11.661-11.512,12.333
			l11.685,16.033h-2.591l-12.72-17.659h1.611c6.446,0,11.339-4.989,11.339-10.708c0-5.886-4.835-10.596-11.281-10.596h-10.475
			v38.962h-2.13V98.924z"/>
	</g>
	<g enable-background="new    ">
		<path fill="#000333" d="M571.656,98.924h11.454c14.217,0,22.217,8.857,22.217,20.462c0,11.661-9.036,20.462-21.871,20.462h-11.8
			V98.924z M579.657,106.156v26.46h2.878c9.094,0,14.792-5.718,14.792-13.23c0-7.736-4.835-13.23-15.138-13.23
			C582.189,106.156,579.657,106.156,579.657,106.156z"/>
		<path fill="#000333" d="M608.779,125.665V98.924h8v27.246c0,3.924,3.051,7.007,7.079,7.007c4.029,0,7.252-3.083,7.252-7.007
			V98.924h8.001v26.741c0,9.755-6.446,14.744-15.195,14.744C615.167,140.409,608.779,135.419,608.779,125.665z"/>
	</g>
	<g enable-background="new    ">
		<path fill="#FFB6C1" d="M464.346,190.349h-15.828v16.762h-8.001v-40.924h8.001v16.706h15.828v-16.706h8v40.924h-8V190.349z"/>
		<path fill="#FFB6C1" d="M490.36,166.187h8.058l14.907,40.924h-8.346l-2.532-7.12h-16.116l-2.532,7.12h-8.346L490.36,166.187z
			 M488.978,192.536h10.821l-5.41-15.249L488.978,192.536z"/>
		<path fill="#FFB6C1" d="M516.431,166.187h9.094l17.842,27.526v-27.526h8.001v40.924h-8.519l-18.418-28.423v28.423h-8V166.187z"/>
		<path fill="#FFB6C1" d="M555.97,166.187h11.453c14.217,0,22.217,8.857,22.217,20.462c0,11.661-9.036,20.462-21.871,20.462H555.97
			V166.187z M563.97,173.419v26.46h2.878c9.094,0,14.792-5.718,14.792-13.23c0-7.736-4.835-13.23-15.138-13.23H563.97z"/>
		<path fill="#FFB6C1" d="M593.091,166.187h8.001v33.468h15.194v7.456h-23.195V166.187z"/>
		<path fill="#FFB6C1" d="M634.013,166.187h8.058l14.907,40.924h-8.346l-2.532-7.12h-16.117l-2.532,7.12h-8.346L634.013,166.187z
			 M632.631,192.536h10.822l-5.411-15.249L632.631,192.536z"/>
		<path fill="#FFB6C1" d="M660.084,166.187h13.181c9.67,0,15.482,5.999,15.482,13.735c0,5.102-2.532,10.091-8.115,12.165
			l9.555,15.024h-9.151l-12.605-20.238h3.914c6.216,0,8.346-4.037,8.346-6.952c0-4.092-2.302-6.447-8.346-6.447h-4.259v33.637
			h-8.001v-40.924H660.084z"/>
	</g>
	<g enable-background="new    ">
		<path fill="#000333" d="M442.762,233.45h25.843v1.962h-23.713v17.491h23.713v1.962h-23.713v17.491h23.713v2.018h-25.843V233.45z"
			/>
		<path fill="#000333" d="M476.833,233.45h2.303l29.354,37.673V233.45h2.129v40.924h-2.244l-29.411-37.673v37.673h-2.13V233.45
			H476.833z"/>
	</g>
	<g enable-background="new    ">
		<path fill="#000333" d="M530.671,233.45h8.288l9.785,29.04l9.784-29.04h8.288l-14.044,40.924h-8.058L530.671,233.45z"/>
		<path fill="#000333" d="M575.563,233.45h8.058l14.907,40.924h-8.346l-2.532-7.12h-16.116l-2.532,7.12h-8.346L575.563,233.45z
			 M574.182,259.798h10.821l-5.41-15.249L574.182,259.798z"/>
		<path fill="#000333" d="M601.635,233.45h13.18c9.67,0,15.482,5.999,15.482,13.735c0,5.102-2.532,10.091-8.115,12.165l9.555,15.024
			h-9.151l-12.605-20.238h3.914c6.216,0,8.346-4.037,8.346-6.952c0-4.092-2.302-6.447-8.346-6.447h-4.259v33.637h-8V233.45H601.635z
			"/>
		<path fill="#000333" d="M648.023,233.45h8.058l14.907,40.924h-8.346l-2.532-7.12h-16.116l-2.532,7.12h-8.346L648.023,233.45z
			 M646.642,259.798h10.821l-5.41-15.249L646.642,259.798z"/>
	</g>
	<g enable-background="new    ">
		<path fill="#000333" d="M698.244,233.45h23.771v1.962h-21.641v17.547h21.641v1.906h-21.641v19.509h-2.13V233.45z"/>
		<path fill="#000333" d="M728.689,253.912c0-11.604,9.669-21.022,21.583-21.022s21.584,9.418,21.584,21.022
			c0,11.605-9.67,21.023-21.584,21.023S728.689,265.517,728.689,253.912z M769.669,253.912c0-10.483-8.576-19.061-19.396-19.061
			s-19.339,8.578-19.339,19.061c0,10.483,8.519,19.061,19.339,19.061S769.669,264.395,769.669,253.912z M746.244,221.396h2.071
			v7.849h-2.071V221.396z M751.999,221.396h2.072v7.849h-2.072V221.396z"/>
		<path fill="#000333" d="M779.624,233.45h12.72c7.482,0,13.354,5.606,13.354,12.558c0,6.335-4.777,11.661-11.512,12.333
			l11.685,16.033h-2.591l-12.72-17.659h1.611c6.446,0,11.339-4.989,11.339-10.708c0-5.886-4.835-10.596-11.281-10.596h-10.475
			v38.962h-2.13V233.45z"/>
		<path fill="#000333" d="M812.947,246.344h2.129v7.68h-2.129V246.344z M812.947,266.694h2.129v7.68h-2.129V266.694z"/>
	</g>
</g>
</svg>
