<?xml version="1.0" encoding="utf-8"?>
<!-- Generator: Adobe Illustrator 17.0.0, SVG Export Plug-In . SVG Version: 6.00 Build 0)  -->
<!DOCTYPE svg PUBLIC "-//W3C//DTD SVG 1.1//EN" "http://www.w3.org/Graphics/SVG/1.1/DTD/svg11.dtd">
<svg version="1.1" id="Layer_1" xmlns="http://www.w3.org/2000/svg" xmlns:xlink="http://www.w3.org/1999/xlink" x="0px" y="0px"
	 width="589.063px" height="586.948px" viewBox="345.053 6.026 589.063 586.948"
	 enable-background="new 345.053 6.026 589.063 586.948" xml:space="preserve">
<ellipse stroke="#EED3D3" stroke-width="2" stroke-miterlimit="10" cx="640.439" cy="300" rx="293.677" ry="292.974"/>
<rect x="374.338" y="192.857" fill="none" width="627.049" height="243.091"/>
<g enable-background="new    ">
	<path fill="#FFB6C1" d="M394.341,195.25h-16.504v-2.44h35.665v2.44h-16.574v48.464h-2.587V195.25z"/>
	<path fill="#FFB6C1" d="M423.148,192.81h2.657v50.905h-2.657V192.81z"/>
	<path fill="#FFB6C1" d="M437.481,192.81h2.588v48.395h25.664v2.51h-28.252V192.81z"/>
	<path fill="#FFB6C1" d="M474.683,192.81h2.588v48.395h25.664v2.51h-28.252V192.81z"/>
	<path fill="#FFB6C1" d="M527.125,192.81h2.798l18.182,47.279l18.252-47.279h2.798l-19.721,50.905h-2.657L527.125,192.81z"/>
	<path fill="#FFB6C1" d="M585.656,192.81h2.727l19.931,50.905h-2.728l-6.153-15.62h-24.826l-6.084,15.62h-2.797L585.656,192.81z
		 M575.586,225.724h22.938l-11.469-29.357L575.586,225.724z"/>
	<path fill="#FFB6C1" d="M616.701,192.81h2.588v48.395h25.664v2.51h-28.252V192.81z"/>
	<path fill="#FFB6C1" d="M653.901,192.81h28.882v2.44h-26.294v21.827h26.294v2.371h-26.294v24.267h-2.588V192.81z"/>
	<path fill="#FFB6C1" d="M692.221,192.81h15.455c9.091,0,16.224,6.973,16.224,15.62c0,7.88-5.804,14.504-13.986,15.341
		l14.196,19.943h-3.146l-15.455-21.966h1.958c7.832,0,13.776-6.206,13.776-13.319c0-7.322-5.874-13.18-13.706-13.18h-12.728v48.464
		h-2.588L692.221,192.81L692.221,192.81z"/>
	<path fill="#FFB6C1" d="M733.896,192.81h2.657v50.905h-2.657V192.81z"/>
</g>
<g enable-background="new    ">
	<path fill="#FCFCFC" d="M375.319,276.417h10.07l11.888,36.122l11.888-36.122h10.07l-17.063,50.905h-9.791L375.319,276.417z"/>
	<path fill="#FCFCFC" d="M429.862,276.417h9.791l18.112,50.905h-10.141l-3.077-8.856h-19.58l-3.077,8.856h-10.14L429.862,276.417z
		 M423.429,263.376h9.581v9.553h-9.581V263.376z M428.185,309.19h13.146l-6.573-18.967L428.185,309.19z M436.506,263.376h9.581
		v9.553h-9.581V263.376z"/>
	<path fill="#FCFCFC" d="M461.537,276.417h9.721v41.63h18.462v9.274h-28.183V276.417z"/>
	<path fill="#FCFCFC" d="M490.067,301.869c0-14.505,10.979-26.15,26.084-26.15c10.63,0,18.882,5.369,23.218,13.04l-8.532,5.16
		c-3.146-5.788-7.972-8.787-14.615-8.787c-9.301,0-16.504,7.601-16.504,16.736c0,9.344,7.063,16.735,16.854,16.735
		c7.413,0,12.657-4.184,14.476-10.669h-16.014v-9.274h26.504v3.905c0,13.667-9.791,25.452-24.966,25.452
		C500.627,328.019,490.067,315.955,490.067,301.869z"/>
	<path fill="#FCFCFC" d="M545.027,301.869c0-14.435,11.608-26.15,26.084-26.15c14.546,0,26.154,11.715,26.154,26.15
		c0,14.504-11.608,26.149-26.154,26.149C556.636,328.019,545.027,316.373,545.027,301.869z M587.615,301.869
		c0-9.135-7.343-16.597-16.504-16.597c-9.16,0-16.434,7.461-16.434,16.597c0,9.135,7.273,16.596,16.434,16.596
		C580.272,318.465,587.615,311.004,587.615,301.869z M559.363,263.376h9.581v9.553h-9.581V263.376z M572.44,263.376h9.581v9.553
		h-9.581V263.376z"/>
	<path fill="#FCFCFC" d="M601.457,276.417h16.015c11.748,0,18.812,7.461,18.812,17.084c0,6.346-3.077,12.552-9.86,15.132
		l11.608,18.688h-11.119l-15.314-25.174h4.755c7.553,0,10.141-5.021,10.141-8.646c0-5.09-2.798-8.02-10.141-8.02h-5.175v41.84
		h-9.721L601.457,276.417L601.457,276.417z"/>
	<path fill="#FCFCFC" d="M641.524,276.417h30.28v9.274h-20.56v11.436h20.56v9.274h-20.56v11.646h20.56v9.274h-30.28V276.417z"/>
	<path fill="#FCFCFC" d="M676.836,276.417h11.05l21.679,34.239v-34.239h9.72v50.905h-10.35l-22.378-35.354v35.354h-9.721V276.417z"
		/>
	<path fill="#FCFCFC" d="M753.827,306.472h-19.231v20.85h-9.721v-50.905h9.721v20.78h19.231v-20.78h9.72v50.905h-9.72V306.472z"/>
	<path fill="#FCFCFC" d="M769.138,276.417h30.28v9.274h-20.56v11.436h20.56v9.274h-20.56v11.646h20.56v9.274h-30.28V276.417z"/>
	<path fill="#FCFCFC" d="M816.967,285.691H803.4v-9.274h36.854v9.274h-13.566v41.63h-9.721L816.967,285.691L816.967,285.691z"/>
	<path fill="#FCFCFC" d="M841.44,318.884l8.882-6.974c2.518,4.323,6.503,6.834,11.049,6.834c4.965,0,7.622-3.208,7.622-6.694
		c0-4.184-5.104-5.509-10.56-7.183c-6.853-2.092-14.476-4.741-14.476-14.504c0-8.159,7.133-14.644,16.993-14.644
		c8.322,0,13.077,3.138,17.203,7.392l-8.042,6.067c-2.098-3.138-5.104-4.812-9.091-4.812c-4.546,0-6.993,2.44-6.993,5.648
		c0,3.905,4.896,5.23,10.35,7.043c6.923,2.232,14.756,5.3,14.756,15.062c0,8.09-6.434,15.899-17.692,15.899
		C852.21,328.019,846.056,324.113,841.44,318.884z"/>
	<path fill="#FCFCFC" d="M883.115,305.495h25.875v8.158h-25.875V305.495z"/>
</g>
<g enable-background="new    ">
	<path fill="#FCFCFC" d="M375.739,385.651c0-14.435,11.609-26.15,26.084-26.15c14.545,0,26.154,11.716,26.154,26.15
		c0,14.504-11.609,26.149-26.154,26.149C387.348,411.801,375.739,400.155,375.739,385.651z M418.327,385.651
		c0-9.136-7.343-16.597-16.504-16.597s-16.434,7.461-16.434,16.597c0,9.135,7.272,16.596,16.434,16.596
		S418.327,394.786,418.327,385.651z"/>
	<path fill="#FCFCFC" d="M432.168,360.198h16.015c11.748,0,18.812,7.462,18.812,17.085c0,6.346-3.077,12.552-9.86,15.132
		l11.608,18.688h-11.119l-15.314-25.174h4.755c7.553,0,10.141-5.021,10.141-8.646c0-5.091-2.798-8.02-10.141-8.02h-5.175v41.84
		h-9.721v-50.905L432.168,360.198L432.168,360.198z"/>
	<path fill="#FCFCFC" d="M471.186,385.651c0-14.505,10.979-26.15,26.084-26.15c10.63,0,18.882,5.37,23.218,13.04l-8.532,5.16
		c-3.146-5.787-7.972-8.786-14.615-8.786c-9.301,0-16.504,7.601-16.504,16.736c0,9.344,7.063,16.735,16.854,16.735
		c7.413,0,12.657-4.184,14.476-10.669h-16.014v-9.274h26.504v3.905c0,13.667-9.791,25.452-24.966,25.452
		C481.745,411.801,471.186,399.737,471.186,385.651z"/>
	<path fill="#FCFCFC" d="M539.294,360.198h9.791l18.112,50.905h-10.141l-3.077-8.856h-19.58l-3.077,8.856h-10.14L539.294,360.198z
		 M537.616,392.973h13.146l-6.573-18.967L537.616,392.973z"/>
	<path fill="#FCFCFC" d="M570.969,360.198h11.05l21.679,34.239v-34.239h9.72v50.905h-10.35l-22.378-35.354v35.354h-9.721V360.198z"
		/>
	<path fill="#FCFCFC" d="M619.357,360.198h9.721v50.905h-9.721V360.198z"/>
	<path fill="#FCFCFC" d="M632.362,402.666l8.882-6.974c2.518,4.323,6.503,6.834,11.049,6.834c4.965,0,7.622-3.208,7.622-6.694
		c0-4.184-5.104-5.509-10.56-7.183c-6.853-2.092-14.476-4.741-14.476-14.504c0-8.159,7.133-14.645,16.993-14.645
		c8.322,0,13.077,3.139,17.203,7.392l-8.042,6.067c-2.098-3.138-5.104-4.812-9.091-4.812c-4.546,0-6.993,2.44-6.993,5.648
		c0,3.904,4.896,5.229,10.35,7.043c6.923,2.231,14.756,5.3,14.756,15.062c0,8.09-6.434,15.899-17.692,15.899
		C643.132,411.801,636.978,407.896,632.362,402.666z"/>
	<path fill="#FCFCFC" d="M689.283,360.198h9.791l18.111,50.905h-10.14l-3.077-8.856h-19.58l-3.077,8.856h-10.14L689.283,360.198z
		 M687.605,392.973h13.146l-6.573-18.967L687.605,392.973z"/>
	<path fill="#FCFCFC" d="M724.386,369.473H710.82v-9.274h36.854v9.274h-13.566v41.631h-9.721v-41.631H724.386z"/>
	<path fill="#FCFCFC" d="M752.565,360.198h9.721v50.905h-9.721V360.198z"/>
	<path fill="#FCFCFC" d="M766.829,385.651c0-14.435,11.608-26.15,26.084-26.15c14.546,0,26.154,11.716,26.154,26.15
		c0,14.504-11.608,26.149-26.154,26.149C778.438,411.801,766.829,400.155,766.829,385.651z M809.417,385.651
		c0-9.136-7.343-16.597-16.504-16.597c-9.16,0-16.434,7.461-16.434,16.597c0,9.135,7.273,16.596,16.434,16.596
		S809.417,394.786,809.417,385.651z"/>
	<path fill="#FCFCFC" d="M823.259,360.198h11.05l21.679,34.239v-34.239h9.72v50.905h-10.35l-22.378-35.354v35.354h-9.721V360.198z"
		/>
	<path fill="#FCFCFC" d="M870.948,368.357v-8.159h9.581v8.159c0,9.344-0.909,21.269-2.168,29.706h-5.245
		C871.857,389.626,870.948,377.701,870.948,368.357z M870.948,401.55h9.581v9.554h-9.581V401.55z"/>
</g>
<text transform="matrix(0.9972 -0.0748 0.0748 0.9972 350.9836 619.516)" fill="#FFB6C1" font-family="'Milestone-Regular'" font-size="93.2837" letter-spacing="4"> </text>
<g>
	<g>
		<g>
			<path fill="#FFFFFF" d="M541.376,139.461l19.321-15.632c4.918,6.85,10.714,10.012,17.916,10.012
				c7.553,0,13.349-3.689,13.349-10.714c0-6.323-5.445-9.836-14.403-9.836h-12.295V91.862h11.593
				c9.309,0,14.052-4.742,14.052-10.714c0-5.094-4.215-9.66-12.471-9.66c-8.08,0-13.173,3.513-16.686,9.66L543.308,68.15
				c7.904-11.066,20.902-16.862,35.129-16.862c21.429,0,36.534,11.417,36.534,29.157c0,8.607-4.391,15.984-11.417,21.077
				c8.255,4.742,12.998,12.119,12.998,22.307c0,17.916-13.7,31.792-37.412,31.792C563.331,155.445,550.861,150.703,541.376,139.461z
				"/>
		</g>
	</g>
	<g>
		<path fill="#FFFFFF" d="M627.617,121.897V86.768c0-20.023,14.403-34.602,35.831-34.602c21.604,0,35.831,15.105,35.831,34.426
			v35.129c0,20.199-13.876,34.251-36.007,34.251C640.966,156.148,627.617,141.745,627.617,121.897z M675.041,121.37V87.295
			c0-7.377-4.04-12.295-11.417-12.295c-7.553,0-11.944,5.269-11.944,12.295v34.075c0,6.85,4.04,11.944,11.593,11.944
			C670.826,133.314,675.041,128.22,675.041,121.37z"/>
	</g>
	<g>
		<g>
			<path fill="#FFB6C1" d="M793.952,135.948h-68.15c-3.337,0-6.148-2.81-6.148-6.499V78.162c0-3.513,2.81-6.499,6.148-6.499h68.15
				c3.337,0,6.148,2.81,6.148,6.499v51.288C800.275,132.963,797.465,135.948,793.952,135.948z M793.952,81.323
				c0-1.756-1.405-3.162-3.162-3.162h-62.002c-1.756,0-3.162,1.405-3.162,3.162v44.965c0,1.756,1.405,3.162,3.162,3.162h62.002
				c1.756,0,3.162-1.405,3.162-3.162V81.323z"/>
		</g>
		<g>
			<rect x="732.301" y="92.564" fill="none" width="68.677" height="40.222"/>
		</g>
		<g enable-background="new    ">
			<path fill="#FFB6C1" d="M733.461,112.794l0.956-0.766c1.355,1.787,3.575,3.031,6.134,3.031c3.205,0,5.948-2.042,5.948-5.456
				c0-3.478-2.928-4.499-5.918-5.488c-3.175-1.053-6.35-2.17-6.35-6.158c0-3.446,2.836-5.743,6.473-5.743
				c2.867,0,4.901,1.148,6.288,2.903l-0.925,0.702c-1.14-1.595-2.928-2.521-5.394-2.521c-2.897,0-5.302,1.819-5.302,4.658
				c0,3.318,2.897,4.212,5.888,5.201c3.174,1.053,6.411,2.361,6.411,6.445c0,3.861-3.083,6.541-7.12,6.541
				C737.529,116.145,734.972,114.773,733.461,112.794z"/>
			<path fill="#FFB6C1" d="M751.798,92.534h13.84v1.117h-12.699v9.955h12.699v1.117h-12.699v9.955h12.699v1.148h-13.84V92.534z"/>
			<path fill="#FFB6C1" d="M776.7,102.744l-5.486,6.413v6.668h-1.172V92.534h1.172v15.028l12.884-15.028h1.448l-8.014,9.38
				l9.216,13.911h-1.355L776.7,102.744z"/>
		</g>
		<g enable-background="new    ">
			<path fill="none" stroke="#FFB6C1" stroke-miterlimit="10" d="M733.461,112.794l0.956-0.766c1.355,1.787,3.575,3.031,6.134,3.031
				c3.205,0,5.948-2.042,5.948-5.456c0-3.478-2.928-4.499-5.918-5.488c-3.175-1.053-6.35-2.17-6.35-6.158
				c0-3.446,2.836-5.743,6.473-5.743c2.867,0,4.901,1.148,6.288,2.903l-0.925,0.702c-1.14-1.595-2.928-2.521-5.394-2.521
				c-2.897,0-5.302,1.819-5.302,4.658c0,3.318,2.897,4.212,5.888,5.201c3.174,1.053,6.411,2.361,6.411,6.445
				c0,3.861-3.083,6.541-7.12,6.541C737.529,116.145,734.972,114.773,733.461,112.794z"/>
			<path fill="none" stroke="#FFB6C1" stroke-miterlimit="10" d="M751.798,92.534h13.84v1.117h-12.699v9.955h12.699v1.117h-12.699
				v9.955h12.699v1.148h-13.84V92.534z"/>
			<path fill="none" stroke="#FFB6C1" stroke-miterlimit="10" d="M776.7,102.744l-5.486,6.413v6.668h-1.172V92.534h1.172v15.028
				l12.884-15.028h1.448l-8.014,9.38l9.216,13.911h-1.355L776.7,102.744z"/>
		</g>
	</g>
</g>
<path fill="#AED9B1" d="M662.395,536.944v5.796h-63.232v-5.796h28.806v-11.768c-16.159-1.756-28.806-17.564-28.806-37.061
	c0-20.726,14.227-37.412,31.616-37.412s31.616,16.686,31.616,37.412c0,19.496-12.646,35.304-28.806,37.061v11.768H662.395z
	 M656.598,488.115c0-17.389-11.593-31.616-25.82-31.616s-25.82,14.227-25.82,31.616c0,16.335,10.012,29.508,23.009,31.265v-18.267
	L610.754,483.9l4.391-4.391l12.998,12.998v-24.415h5.796v24.415l12.998-12.998l4.215,4.215l-17.213,17.213v18.443
	C646.587,517.623,656.598,504.274,656.598,488.115z"/>
<rect x="437.922" y="102.049" fill="none" width="105.386" height="86.417"/>
<g enable-background="new    ">
	<path fill="#FFFFFF" d="M439.22,126.619c0-13.984,10.526-25.211,25.009-25.211c10.191,0,18.103,5.177,22.26,12.572l-8.18,4.975
		c-3.018-5.58-7.644-8.471-14.013-8.471c-8.918,0-15.823,7.328-15.823,16.135c0,9.009,6.771,16.135,16.158,16.135
		c7.106,0,12.136-4.034,13.879-10.286h-15.354v-8.942h25.411v3.765c0,13.177-9.387,24.539-23.936,24.539
		C449.344,151.83,439.22,140.199,439.22,126.619z"/>
	<path fill="#FFFFFF" d="M492.584,102.08h29.031v8.942h-19.712v11.025h19.712v8.942h-19.712v11.228h19.712v8.941h-29.031
		L492.584,102.08L492.584,102.08z"/>
</g>
</svg>
