<?xml version="1.0" encoding="utf-8"?>
<!-- Generator: Adobe Illustrator 17.0.0, SVG Export Plug-In . SVG Version: 6.00 Build 0)  -->
<!DOCTYPE svg PUBLIC "-//W3C//DTD SVG 1.1//EN" "http://www.w3.org/Graphics/SVG/1.1/DTD/svg11.dtd">
<svg version="1.1" id="Layer_1" xmlns="http://www.w3.org/2000/svg" xmlns:xlink="http://www.w3.org/1999/xlink" x="0px" y="0px"
	 width="596.136px" height="597.892px" viewBox="343.074 2.108 596.136 597.892"
	 enable-background="new 343.074 2.108 596.136 597.892" xml:space="preserve">
<g>
	<g>
		<path fill="#FFFFFF" d="M404.725,450l22.834-18.618c5.796,8.08,12.646,11.944,21.253,11.944c9.133,0,15.808-4.391,15.808-12.646
			c0-7.553-6.499-11.768-17.213-11.768h-14.578v-25.468h13.876c11.066,0,16.686-5.621,16.686-12.646
			c0-6.148-4.918-11.417-14.754-11.417c-9.485,0-15.632,4.215-19.848,11.417l-21.956-15.457
			c9.309-13.173,24.941-20.023,41.628-20.023c25.293,0,43.384,13.525,43.384,34.778c0,10.187-5.269,18.97-13.525,24.941
			c9.66,5.621,15.457,14.403,15.457,26.347c0,21.253-16.335,37.763-44.438,37.763C430.896,468.97,415.966,463.173,404.725,450z"/>
	</g>
</g>
<g>
	<g>
		<ellipse fill="#EED3D3" cx="641.142" cy="301.054" rx="298.068" ry="298.946"/>
	</g>
	<g>
		<g>
			<path fill="#FFFFFF" d="M406.833,370.609l22.834-18.618c5.796,8.08,12.646,11.768,21.253,11.768
				c8.958,0,15.808-4.391,15.808-12.646c0-7.553-6.323-11.768-17.037-11.768h-14.578v-25.293h13.876
				c11.066,0,16.511-5.621,16.511-12.646c0-6.148-4.918-11.417-14.754-11.417c-9.485,0-15.632,4.04-19.672,11.417l-21.78-15.457
				c9.309-13.173,24.766-19.848,41.452-19.848c25.293,0,43.208,13.525,43.208,34.602c0,10.187-5.269,18.97-13.525,24.941
				c9.66,5.621,15.457,14.403,15.457,26.347c0,21.253-16.335,37.763-44.262,37.763C432.828,389.578,418.074,383.782,406.833,370.609
				z"/>
		</g>
	</g>
	<g>
		<path fill="#FFFFFF" d="M508.179,349.005v-41.452c0-23.712,17.037-41.101,42.33-41.101c25.468,0,42.33,17.916,42.33,40.925v41.628
			c0,23.888-16.335,40.574-42.506,40.574C523.987,389.403,508.179,372.365,508.179,349.005z M564.21,348.302v-40.398
			c0-8.782-4.742-14.578-13.525-14.578c-8.958,0-14.052,6.323-14.052,14.578v40.398c0,8.08,4.742,14.052,13.7,14.052
			C559.292,362.354,564.21,356.382,564.21,348.302z"/>
	</g>
	<g>
		<g>
			<path d="M704.022,371.136h-80.796c-4.04,0-7.377-3.337-7.377-7.553V302.81c0-4.215,3.337-7.553,7.377-7.553h80.796
				c4.04,0,7.377,3.337,7.377,7.553v60.773C711.399,367.623,708.062,371.136,704.022,371.136z M704.022,306.499
				c0-2.108-1.581-3.864-3.689-3.864h-73.419c-2.108,0-3.689,1.756-3.689,3.864v53.22c0,2.108,1.581,3.864,3.689,3.864h73.419
				c2.108,0,3.689-1.756,3.689-3.864V306.499z"/>
		</g>
		<g>
			<rect x="630.954" y="319.672" fill="none" width="81.148" height="47.775"/>
		</g>
		<g enable-background="new    ">
			<path d="M632.239,343.805l1.131-0.906c1.605,2.115,4.232,3.588,7.261,3.588c3.794,0,7.041-2.417,7.041-6.458
				c0-4.116-3.466-5.325-7.005-6.496c-3.758-1.246-7.516-2.567-7.516-7.288c0-4.079,3.356-6.798,7.661-6.798
				c3.394,0,5.802,1.359,7.443,3.437l-1.095,0.831c-1.35-1.889-3.466-2.983-6.385-2.983c-3.43,0-6.275,2.152-6.275,5.514
				c0,3.928,3.43,4.984,6.969,6.155c3.758,1.246,7.589,2.795,7.589,7.629c0,4.569-3.648,7.742-8.428,7.742
				C637.055,347.771,634.027,346.146,632.239,343.805z"/>
			<path d="M653.948,319.824h16.382v1.321h-15.031v11.783h15.031v1.321h-15.031v11.783h15.031v1.359h-16.382V319.824z"/>
			<path d="M683.431,331.909l-6.494,7.591v7.893h-1.387v-27.568h1.387v17.787l15.25-17.787h1.715l-9.485,11.103l10.908,16.466
				h-1.605L683.431,331.909z"/>
		</g>
		<g enable-background="new    ">
			<path fill="none" stroke="#000000" stroke-miterlimit="10" d="M632.239,343.805l1.131-0.906c1.605,2.115,4.232,3.588,7.261,3.588
				c3.794,0,7.041-2.417,7.041-6.458c0-4.116-3.466-5.325-7.005-6.496c-3.758-1.246-7.516-2.567-7.516-7.288
				c0-4.079,3.356-6.798,7.661-6.798c3.394,0,5.802,1.359,7.443,3.437l-1.095,0.831c-1.35-1.889-3.466-2.983-6.385-2.983
				c-3.43,0-6.275,2.152-6.275,5.514c0,3.928,3.43,4.984,6.969,6.155c3.758,1.246,7.589,2.795,7.589,7.629
				c0,4.569-3.648,7.742-8.428,7.742C637.055,347.771,634.027,346.146,632.239,343.805z"/>
			<path fill="none" stroke="#000000" stroke-miterlimit="10" d="M653.948,319.824h16.382v1.321h-15.031v11.783h15.031v1.321
				h-15.031v11.783h15.031v1.359h-16.382V319.824z"/>
			<path fill="none" stroke="#000000" stroke-miterlimit="10" d="M683.431,331.909l-6.494,7.591v7.893h-1.387v-27.568h1.387v17.787
				l15.25-17.787h1.715l-9.485,11.103l10.908,16.466h-1.605L683.431,331.909z"/>
		</g>
	</g>
	<g>
		<rect x="406.481" y="131.557" fill="none" width="519.906" height="294.204"/>
	</g>
	<g enable-background="new    ">
		<path fill="#000333" d="M410.902,131.695h23.267v1.978h-21.183v17.686h21.183v1.921h-21.183v19.663h-2.084L410.902,131.695
			L410.902,131.695z"/>
		<path fill="#000333" d="M451.182,133.108c-2.084-0.622-3.605-2.655-3.605-4.916c0-2.995,2.366-5.255,5.127-5.255
			c2.93,0,5.239,2.26,5.239,5.255c0,2.204-1.465,4.125-3.493,4.859l15.549,39.891h-2.197l-4.957-12.657h-20l-4.9,12.657h-2.254
			L451.182,133.108z M443.633,158.365h18.479l-9.239-23.788L443.633,158.365z M456.195,128.192c0-1.921-1.577-3.56-3.492-3.56
			c-1.803,0-3.38,1.639-3.38,3.56c0,1.808,1.577,3.39,3.38,3.39C454.618,131.583,456.195,130,456.195,128.192z"/>
		<path fill="#000333" d="M476.757,131.695h12.45c7.324,0,13.07,5.65,13.07,12.657c0,6.385-4.676,11.753-11.268,12.431l11.437,16.16
			h-2.535l-12.45-17.798h1.577c6.31,0,11.099-5.029,11.099-10.792c0-5.933-4.732-10.679-11.042-10.679h-10.253v39.27h-2.085
			L476.757,131.695L476.757,131.695z"/>
	</g>
	<g enable-background="new    ">
		<path fill="#000333" d="M526.045,131.695h11.21c13.915,0,21.746,8.928,21.746,20.624c0,11.752-8.845,20.624-21.408,20.624h-11.548
			V131.695z M533.875,138.984v26.669h2.816c8.901,0,14.479-5.763,14.479-13.334c0-7.798-4.732-13.335-14.816-13.335H533.875z"/>
		<path fill="#000333" d="M562.379,158.647v-26.952h7.831v27.461c0,3.955,2.985,7.062,6.93,7.062c3.943,0,7.098-3.107,7.098-7.062
			v-27.461h7.831v26.952c0,9.832-6.31,14.86-14.873,14.86C568.633,173.508,562.379,168.479,562.379,158.647z"/>
	</g>
	<g enable-background="new    ">
		<path fill="#000333" d="M612.656,131.695h25.295v1.978h-23.21v17.629h23.21v1.978h-23.21v17.629h23.21v2.034h-25.295V131.695z"/>
		<path fill="#000333" d="M646.005,131.695h2.254l28.73,37.97v-37.97h2.085v41.248h-2.197l-28.787-37.97v37.97h-2.085V131.695z"/>
		<path fill="#000333" d="M702.451,131.695h2.085v39.213h20.675v2.034h-22.76V131.695z"/>
		<path fill="#000333" d="M732.93,131.695h2.141v41.248h-2.141V131.695z"/>
		<path fill="#000333" d="M756.139,133.673h-13.296v-1.978h28.731v1.978h-13.352v39.27h-2.084L756.139,133.673L756.139,133.673z"/>
		<path fill="#000333" d="M778.84,131.695h25.295v1.978h-23.21v17.629h23.21v1.978h-23.21v17.629h23.21v2.034H778.84V131.695z"/>
		<path fill="#000333" d="M812.189,131.695h2.254l28.73,37.97v-37.97h2.085v41.248h-2.197l-28.787-37.97v37.97h-2.085V131.695z"/>
	</g>
	<g enable-background="new    ">
		<path fill="#FFFFFF" d="M420.986,201.867c-1.127-1.187-1.803-2.825-1.803-4.577c0-3.729,2.93-6.667,6.535-6.667
			c3.718,0,6.647,2.938,6.647,6.667c0,1.752-0.677,3.39-1.859,4.577l13.802,38.875h-8.168l-2.479-7.176h-15.774l-2.479,7.176h-8.169
			L420.986,201.867z M420.479,226.051h10.591l-5.296-15.369L420.479,226.051z M425.55,199.494h0.338
			c1.183-0.056,2.141-1.073,2.141-2.204c0-1.243-1.07-2.316-2.31-2.316c-1.184,0-2.197,1.073-2.197,2.316
			C423.521,198.421,424.423,199.438,425.55,199.494z"/>
		<path fill="#FFFFFF" d="M450.111,207.009h-10.93v-7.515h29.689v7.515h-10.93v33.732h-7.83L450.111,207.009L450.111,207.009z"/>
		<path fill="#FFFFFF" d="M472.531,199.494h24.394v7.515h-16.562v9.267h16.562v7.515h-16.562v9.436h16.562v7.515h-24.394V199.494z"
			/>
		<path fill="#FFFFFF" d="M500.98,199.494h12.9c9.464,0,15.154,6.046,15.154,13.843c0,5.142-2.479,10.171-7.943,12.261l9.352,15.143
			h-8.957l-12.338-20.397h3.831c6.084,0,8.169-4.068,8.169-7.007c0-4.125-2.254-6.498-8.169-6.498h-4.169v33.902h-7.83V199.494z"/>
		<path fill="#FFFFFF" d="M533.26,199.494h12.845c9.127,0,14.422,4.068,14.422,11.583c0,3.447-1.521,6.215-4.45,7.967
			c3.774,1.751,5.915,4.916,5.915,9.436c0,8.193-5.689,12.261-14.816,12.261H533.26V199.494z M541.091,206.727v9.154h5.014
			c4.845,0,6.535-1.921,6.535-4.803c0-2.995-1.859-4.351-6.479-4.351L541.091,206.727L541.091,206.727z M541.091,223.226v10.284
			h6.084c4.563,0,6.93-1.865,6.93-5.198c0-3.334-1.577-5.085-7.323-5.085L541.091,223.226L541.091,223.226z"/>
		<path fill="#FFFFFF" d="M577.371,199.494h7.887l14.591,41.248h-8.169l-2.479-7.176h-15.773l-2.479,7.176h-8.168L577.371,199.494z
			 M572.188,188.928h7.719v7.741h-7.719V188.928z M576.019,226.051h10.591l-5.295-15.369L576.019,226.051z M582.723,188.928h7.718
			v7.741h-7.718V188.928z"/>
		<path fill="#FFFFFF" d="M602.889,199.494h12.901c9.464,0,15.154,6.046,15.154,13.843c0,5.142-2.479,10.171-7.943,12.261
			l9.352,15.143h-8.957l-12.338-20.397h3.831c6.084,0,8.169-4.068,8.169-7.007c0-4.125-2.254-6.498-8.169-6.498h-4.169v33.902
			h-7.831V199.494z"/>
		<path fill="#FFFFFF" d="M635.451,199.494h7.83v41.248h-7.83V199.494z"/>
		<path fill="#FFFFFF" d="M648.068,199.494h8.901l17.464,27.743v-27.743h7.831v41.248h-8.338l-18.027-28.647v28.647h-7.831V199.494z
			"/>
		<path fill="#FFFFFF" d="M685.645,220.118c0-11.753,8.845-21.189,21.013-21.189c8.563,0,15.211,4.351,18.703,10.566l-6.872,4.181
			c-2.535-4.69-6.423-7.12-11.774-7.12c-7.493,0-13.295,6.159-13.295,13.561c0,7.571,5.689,13.561,13.576,13.561
			c5.972,0,10.197-3.39,11.662-8.645h-12.901v-7.515h21.352v3.164c0,11.075-7.887,20.624-20.112,20.624
			C694.151,241.307,685.645,231.532,685.645,220.118z"/>
	</g>
	<g enable-background="new    ">
		<path fill="#000333" d="M752.668,199.494h14.141c8.507,0,14.816,6.555,14.816,14.748s-6.31,14.748-14.873,14.748h-6.253v11.752
			h-7.831V199.494z M760.499,206.783V221.7h5.746c4.45,0,7.493-3.334,7.493-7.458c0-4.125-3.043-7.458-7.493-7.458L760.499,206.783
			L760.499,206.783z"/>
		<path fill="#000333" d="M791.934,201.867c-1.126-1.187-1.803-2.825-1.803-4.577c0-3.729,2.93-6.667,6.535-6.667
			c3.719,0,6.647,2.938,6.647,6.667c0,1.752-0.676,3.39-1.858,4.577l13.802,38.875h-8.169l-2.479-7.176h-15.773l-2.479,7.176h-8.168
			L791.934,201.867z M791.427,226.051h10.591l-5.295-15.369L791.427,226.051z M796.497,199.494h0.338
			c1.184-0.056,2.141-1.073,2.141-2.204c0-1.243-1.07-2.316-2.31-2.316c-1.183,0-2.197,1.073-2.197,2.316
			C794.469,198.421,795.37,199.438,796.497,199.494z"/>
	</g>
	<g>
		<rect x="406.13" y="342.682" fill="none" width="356.206" height="172.482"/>
	</g>
	<g enable-background="new    ">
		<path fill="#000333" d="M423.188,413.771h8.827l16.329,46.16h-9.142l-2.774-8.03h-17.654l-2.774,8.03h-9.142L423.188,413.771z
			 M421.675,443.491h11.853l-5.927-17.199L421.675,443.491z"/>
		<path fill="#000333" d="M454.838,422.182h-12.231v-8.41h33.228v8.41h-12.232v37.75h-8.764v-37.75H454.838z"/>
		<path fill="#000333" d="M491.532,422.182H479.3v-8.41h33.228v8.41h-12.232v37.75h-8.764V422.182z"/>
		<path fill="#000333" d="M532.071,413.771h12.547c15.573,0,24.338,9.991,24.338,23.08c0,13.152-9.899,23.08-23.959,23.08h-12.926
			V413.771z M540.835,421.929v29.846h3.152c9.962,0,16.203-6.449,16.203-14.923c0-8.726-5.296-14.923-16.582-14.923H540.835z"/>
		<path fill="#000333" d="M572.106,436.852c0-13.089,10.467-23.712,23.518-23.712c13.114,0,23.58,10.623,23.58,23.712
			c0,13.152-10.466,23.713-23.58,23.713C582.573,460.564,572.106,450.004,572.106,436.852z M610.503,436.852
			c0-8.283-6.62-15.049-14.88-15.049s-14.816,6.766-14.816,15.049s6.557,15.05,14.816,15.05S610.503,445.135,610.503,436.852z"/>
		<path fill="#000333" d="M622.985,413.771h9.962l19.545,31.048v-31.048h8.764v46.16h-9.331l-20.175-32.059v32.059h-8.765
			L622.985,413.771L622.985,413.771z"/>
		<path fill="#000333" d="M666.299,413.771h27.3v8.41h-18.536v10.37h18.536v8.41h-18.536v10.56h18.536v8.41h-27.3V413.771z"/>
		<path fill="#000333" d="M698.137,413.771h14.438c10.593,0,16.961,6.767,16.961,15.492c0,5.754-2.774,11.382-8.891,13.722
			l10.467,16.946h-10.025l-13.808-22.827h4.287c6.81,0,9.143-4.553,9.143-7.841c0-4.615-2.522-7.271-9.143-7.271h-4.665v37.939
			h-8.765v-46.16H698.137z"/>
		<path fill="#000333" d="M748.955,413.771h8.826l16.33,46.16h-9.143l-2.773-8.03h-17.654l-2.774,8.03h-9.142L748.955,413.771z
			 M747.441,443.491h11.854l-5.927-17.199L747.441,443.491z"/>
		<path fill="#000333" d="M777.2,421.17v-7.398h8.638v7.398c0,8.474-0.82,19.286-1.955,26.938h-4.729
			C778.02,440.456,777.2,429.644,777.2,421.17z M777.2,451.269h8.638v8.663H777.2V451.269z"/>
	</g>
</g>
<g>
	<rect x="538.566" y="477.576" fill="none" width="485.831" height="264.52"/>
</g>
</svg>
