<?xml version="1.0" encoding="utf-8"?>
<!-- Generator: Adobe Illustrator 17.0.0, SVG Export Plug-In . SVG Version: 6.00 Build 0)  -->
<!DOCTYPE svg PUBLIC "-//W3C//DTD SVG 1.1//EN" "http://www.w3.org/Graphics/SVG/1.1/DTD/svg11.dtd">
<svg version="1.1" id="Layer_1" xmlns="http://www.w3.org/2000/svg" xmlns:xlink="http://www.w3.org/1999/xlink" x="0px" y="0px"
	 width="598.237px" height="600px" viewBox="340.793 0 598.237 600" enable-background="new 340.793 0 598.237 600"
	 xml:space="preserve">
<g>
	<g>
		<ellipse fill="#EED3D3" cx="639.912" cy="300" rx="299.119" ry="300"/>
	</g>
	<g>
		<g>
			<path fill="#FFFFFF" d="M404.777,369.8l22.914-18.684c5.817,8.108,12.691,11.81,21.328,11.81c8.989,0,15.864-4.407,15.864-12.691
				c0-7.579-6.345-11.81-17.098-11.81h-14.63v-25.382h13.925c11.105,0,16.569-5.64,16.569-12.691
				c0-6.169-4.935-11.457-14.806-11.457c-9.518,0-15.687,4.054-19.741,11.457l-21.857-15.511
				c9.342-13.22,24.853-19.918,41.598-19.918c25.382,0,43.361,13.572,43.361,34.724c0,10.223-5.288,19.036-13.572,25.029
				c9.694,5.64,15.511,14.454,15.511,26.439c0,21.328-16.392,37.897-44.418,37.897C430.864,388.837,416.058,383.02,404.777,369.8z"
				/>
		</g>
	</g>
	<g>
		<path fill="#FFFFFF" d="M506.481,348.12v-41.598c0-23.796,17.098-41.246,42.479-41.246c25.558,0,42.479,17.979,42.479,41.069
			v41.774c0,23.972-16.392,40.717-42.656,40.717C522.344,388.66,506.481,371.563,506.481,348.12z M562.709,347.415v-40.541
			c0-8.813-4.759-14.63-13.572-14.63c-8.989,0-14.101,6.345-14.101,14.63v40.541c0,8.108,4.759,14.101,13.749,14.101
			C557.773,361.516,562.709,355.523,562.709,347.415z"/>
	</g>
	<g>
		<g>
			<path d="M703.014,370.329h-81.081c-4.054,0-7.403-3.349-7.403-7.579v-60.987c0-4.23,3.349-7.579,7.403-7.579h81.081
				c4.054,0,7.403,3.349,7.403,7.579v60.987C710.417,366.804,707.068,370.329,703.014,370.329z M703.014,305.464
				c0-2.115-1.586-3.878-3.702-3.878h-73.678c-2.115,0-3.702,1.763-3.702,3.878v53.408c0,2.115,1.586,3.878,3.702,3.878h73.678
				c2.115,0,3.702-1.763,3.702-3.878V305.464z"/>
		</g>
		<g>
			<rect x="629.689" y="318.684" fill="none" width="81.434" height="47.944"/>
		</g>
		<g enable-background="new    ">
			<path d="M631.064,342.839l1.135-0.91c1.611,2.123,4.248,3.601,7.288,3.601c3.809,0,7.067-2.426,7.067-6.48
				c0-4.132-3.479-5.345-7.031-6.52c-3.771-1.251-7.543-2.577-7.543-7.315c0-4.094,3.369-6.822,7.689-6.822
				c3.406,0,5.823,1.364,7.471,3.449l-1.098,0.834c-1.355-1.896-3.479-2.995-6.409-2.995c-3.442,0-6.299,2.161-6.299,5.534
				c0,3.942,3.442,5.003,6.995,6.178c3.771,1.251,7.617,2.806,7.617,7.657c0,4.586-3.662,7.77-8.46,7.77
				C635.898,346.818,632.859,345.188,631.064,342.839z"/>
			<path d="M652.852,318.771h16.442v1.326h-15.088v11.826h15.088v1.326h-15.088v11.826h15.088v1.364h-16.442V318.771z"/>
			<path d="M682.439,330.899l-6.52,7.618v7.922h-1.391v-27.669h1.391v17.853l15.309-17.853h1.721l-9.521,11.144l10.949,16.525
				h-1.611L682.439,330.899z"/>
		</g>
		<g enable-background="new    ">
			<path fill="none" stroke="#000000" stroke-miterlimit="10" d="M631.064,342.839l1.135-0.91c1.611,2.123,4.248,3.601,7.288,3.601
				c3.809,0,7.067-2.426,7.067-6.48c0-4.132-3.479-5.345-7.031-6.52c-3.771-1.251-7.543-2.577-7.543-7.315
				c0-4.094,3.369-6.822,7.689-6.822c3.406,0,5.823,1.364,7.471,3.449l-1.098,0.834c-1.355-1.896-3.479-2.995-6.409-2.995
				c-3.442,0-6.299,2.161-6.299,5.534c0,3.942,3.442,5.003,6.995,6.178c3.771,1.251,7.617,2.806,7.617,7.657
				c0,4.586-3.662,7.77-8.46,7.77C635.898,346.818,632.859,345.188,631.064,342.839z"/>
			<path fill="none" stroke="#000000" stroke-miterlimit="10" d="M652.852,318.771h16.442v1.326h-15.088v11.826h15.088v1.326
				h-15.088v11.826h15.088v1.364h-16.442V318.771z"/>
			<path fill="none" stroke="#000000" stroke-miterlimit="10" d="M682.439,330.899l-6.52,7.618v7.922h-1.391v-27.669h1.391v17.853
				l15.309-17.853h1.721l-9.521,11.144l10.949,16.525h-1.611L682.439,330.899z"/>
		</g>
		<g enable-background="new    ">
		</g>
		<g enable-background="new    ">
		</g>
	</g>
	<g>
		<rect x="404.424" y="129.906" fill="none" width="521.739" height="295.241"/>
	</g>
	<g enable-background="new    ">
		<path fill="#000333" d="M408.945,129.983h23.349v1.984h-21.257v17.748h21.257v1.928h-21.257v19.732h-2.092V129.983z"/>
		<path fill="#000333" d="M449.366,131.4c-2.092-0.624-3.618-2.665-3.618-4.933c0-3.005,2.375-5.273,5.145-5.273
			c2.94,0,5.258,2.268,5.258,5.273c0,2.211-1.47,4.139-3.505,4.876l15.604,40.031h-2.205l-4.975-12.701H441l-4.919,12.701h-2.261
			L449.366,131.4z M441.791,156.746h18.543l-9.271-23.872L441.791,156.746z M454.398,126.467c0-1.928-1.583-3.572-3.506-3.572
			c-1.809,0-3.392,1.645-3.392,3.572c0,1.814,1.583,3.402,3.392,3.402C452.815,129.87,454.398,128.282,454.398,126.467z"/>
		<path fill="#000333" d="M475.031,129.983h12.494c7.35,0,13.116,5.67,13.116,12.701c0,6.407-4.692,11.794-11.307,12.474
			l11.476,16.217h-2.544l-12.493-17.861h1.583c6.331,0,11.137-5.047,11.137-10.83c0-5.954-4.749-10.717-11.081-10.717h-10.289
			v39.408h-2.092V129.983z"/>
	</g>
	<g enable-background="new    ">
		<path fill="#000333" d="M524.494,129.983h11.25c13.964,0,21.822,8.959,21.822,20.696c0,11.794-8.876,20.696-21.483,20.696h-11.589
			V129.983z M532.352,137.297v26.763h2.827c8.933,0,14.529-5.784,14.529-13.382c0-7.825-4.749-13.381-14.868-13.381H532.352z"/>
		<path fill="#000333" d="M560.957,157.029v-27.046h7.857v27.557c0,3.969,2.997,7.088,6.954,7.088s7.123-3.119,7.123-7.088v-27.557
			h7.858v27.046c0,9.866-6.332,14.913-14.925,14.913C567.231,171.942,560.957,166.896,560.957,157.029z"/>
	</g>
	<g enable-background="new    ">
		<path fill="#000333" d="M611.411,129.983h25.384v1.984h-23.292v17.691h23.292v1.985h-23.292v17.69h23.292v2.042h-25.384V129.983z"
			/>
		<path fill="#000333" d="M644.879,129.983h2.262l28.832,38.104v-38.104h2.092v41.392h-2.205l-28.889-38.104v38.104h-2.092V129.983z
			"/>
		<path fill="#000333" d="M701.524,129.983h2.092v39.351h20.748v2.042h-22.84V129.983z"/>
		<path fill="#000333" d="M732.108,129.983h2.148v41.392h-2.148V129.983z"/>
		<path fill="#000333" d="M755.4,131.967h-13.342v-1.984h28.832v1.984h-13.398v39.408H755.4V131.967z"/>
		<path fill="#000333" d="M778.182,129.983h25.384v1.984h-23.292v17.691h23.292v1.985h-23.292v17.69h23.292v2.042h-25.384V129.983z"
			/>
		<path fill="#000333" d="M811.648,129.983h2.262l28.832,38.104v-38.104h2.092v41.392h-2.205l-28.889-38.104v38.104h-2.092V129.983z
			"/>
	</g>
	<g enable-background="new    ">
		<path fill="#FFFFFF" d="M419.065,200.402c-1.131-1.191-1.809-2.835-1.809-4.593c0-3.742,2.939-6.691,6.558-6.691
			c3.731,0,6.671,2.949,6.671,6.691c0,1.758-0.678,3.402-1.865,4.593l13.851,39.011h-8.197l-2.487-7.201h-15.83l-2.488,7.201h-8.197
			L419.065,200.402z M418.556,224.67h10.628l-5.314-15.423L418.556,224.67z M423.644,198.021h0.34
			c1.187-0.057,2.148-1.078,2.148-2.211c0-1.248-1.074-2.325-2.318-2.325c-1.188,0-2.205,1.077-2.205,2.325
			C421.608,196.943,422.514,197.964,423.644,198.021z"/>
		<path fill="#FFFFFF" d="M448.292,205.562h-10.968v-7.541h29.794v7.541H456.15v33.851h-7.858V205.562z"/>
		<path fill="#FFFFFF" d="M470.793,198.021h24.479v7.541H478.65v9.299h16.621v7.542H478.65v9.469h16.621v7.542h-24.479V198.021z"/>
		<path fill="#FFFFFF" d="M499.342,198.021h12.946c9.497,0,15.207,6.067,15.207,13.892c0,5.16-2.487,10.207-7.971,12.305
			l9.384,15.196h-8.988l-12.381-20.469h3.844c6.106,0,8.197-4.083,8.197-7.031c0-4.139-2.261-6.521-8.197-6.521h-4.184v34.021
			h-7.857V198.021z"/>
		<path fill="#FFFFFF" d="M531.734,198.021h12.89c9.158,0,14.473,4.083,14.473,11.624c0,3.459-1.526,6.237-4.467,7.995
			c3.788,1.758,5.937,4.933,5.937,9.469c0,8.222-5.71,12.304-14.868,12.304h-13.964V198.021z M539.592,205.278v9.186h5.032
			c4.861,0,6.558-1.928,6.558-4.82c0-3.005-1.865-4.366-6.501-4.366H539.592z M539.592,221.835v10.32h6.106
			c4.579,0,6.953-1.871,6.953-5.216c0-3.346-1.583-5.104-7.35-5.104H539.592z"/>
		<path fill="#FFFFFF" d="M576,198.021h7.915l14.642,41.392h-8.197l-2.487-7.201h-15.829l-2.487,7.201h-8.198L576,198.021z
			 M570.799,187.417h7.745v7.769h-7.745V187.417z M574.644,224.67h10.628l-5.314-15.423L574.644,224.67z M581.371,187.417h7.745
			v7.769h-7.745V187.417z"/>
		<path fill="#FFFFFF" d="M601.609,198.021h12.946c9.497,0,15.207,6.067,15.207,13.892c0,5.16-2.487,10.207-7.971,12.305
			l9.384,15.196h-8.988l-12.381-20.469h3.844c6.106,0,8.197-4.083,8.197-7.031c0-4.139-2.261-6.521-8.197-6.521h-4.184v34.021
			h-7.857V198.021z"/>
		<path fill="#FFFFFF" d="M634.285,198.021h7.858v41.392h-7.858V198.021z"/>
		<path fill="#FFFFFF" d="M646.948,198.021h8.932l17.525,27.84v-27.84h7.858v41.392h-8.367l-18.091-28.748v28.748h-7.857V198.021z"
			/>
		<path fill="#FFFFFF" d="M684.655,218.716c0-11.794,8.876-21.263,21.087-21.263c8.593,0,15.264,4.366,18.77,10.604l-6.897,4.196
			c-2.544-4.706-6.444-7.145-11.815-7.145c-7.52,0-13.342,6.181-13.342,13.608c0,7.598,5.71,13.608,13.624,13.608
			c5.993,0,10.233-3.402,11.703-8.675h-12.946v-7.541h21.426v3.175c0,11.113-7.914,20.696-20.183,20.696
			C693.191,239.979,684.655,230.17,684.655,218.716z"/>
	</g>
	<g enable-background="new    ">
	</g>
	<g enable-background="new    ">
		<path fill="#000333" d="M751.918,198.021h14.189c8.537,0,14.868,6.577,14.868,14.799s-6.331,14.799-14.925,14.799h-6.275v11.794
			h-7.857V198.021z M759.775,205.335v14.969h5.767c4.467,0,7.52-3.345,7.52-7.485c0-4.139-3.053-7.484-7.52-7.484H759.775z"/>
		<path fill="#000333" d="M791.322,200.402c-1.131-1.191-1.81-2.835-1.81-4.593c0-3.742,2.94-6.691,6.559-6.691
			c3.73,0,6.671,2.949,6.671,6.691c0,1.758-0.679,3.402-1.866,4.593l13.851,39.011h-8.197l-2.487-7.201h-15.829l-2.487,7.201h-8.198
			L791.322,200.402z M790.813,224.67h10.628l-5.314-15.423L790.813,224.67z M795.901,198.021h0.339
			c1.188-0.057,2.148-1.078,2.148-2.211c0-1.248-1.074-2.325-2.317-2.325c-1.188,0-2.205,1.077-2.205,2.325
			C793.866,196.943,794.771,197.964,795.901,198.021z"/>
	</g>
	<g>
		<rect x="404.072" y="341.774" fill="none" width="357.462" height="173.09"/>
	</g>
	<g enable-background="new    ">
	</g>
	<g enable-background="new    ">
		<path fill="#000333" d="M417.86,421.488h-12.276v-8.44h33.348v8.44h-12.276v37.887h-8.795V421.488z"/>
		<path fill="#000333" d="M443.357,413.048h8.796v46.327h-8.796V413.048z"/>
		<path fill="#000333" d="M457.529,413.048h8.796v37.887h16.705v8.44h-25.501V413.048z"/>
		<path fill="#000333" d="M487.772,413.048h8.796v37.887h16.705v8.44h-25.501V413.048z"/>
		<path fill="#000333" d="M518.015,413.048h14.428c10.251,0,16.199,4.569,16.199,13.01c0,3.871-1.709,6.98-4.999,8.948
			c4.239,1.968,6.644,5.521,6.644,10.598c0,9.202-6.391,13.771-16.642,13.771h-15.63V413.048z M526.811,421.171v10.281h5.632
			c5.441,0,7.34-2.158,7.34-5.395c0-3.363-2.088-4.887-7.277-4.887H526.811z M526.811,439.702v11.55h6.834
			c5.125,0,7.783-2.094,7.783-5.839c0-3.744-1.772-5.711-8.227-5.711H526.811z"/>
		<path fill="#000333" d="M567.558,413.048h8.858l16.39,46.327h-9.176l-2.784-8.06h-17.718l-2.784,8.06h-9.176L567.558,413.048z
			 M566.039,442.875h11.896l-5.948-17.262L566.039,442.875z"/>
		<path fill="#000333" d="M609.822,437.227l-4.809,6.029v16.119h-8.796v-46.327h8.796v18.658l14.934-18.658h10.693l-14.554,18.023
			l15.819,28.304h-9.998L609.822,437.227z"/>
		<path fill="#000333" d="M649.937,413.048h8.858l16.389,46.327h-9.175l-2.784-8.06h-17.718l-2.784,8.06h-9.176L649.937,413.048z
			 M648.417,442.875h11.896l-5.948-17.262L648.417,442.875z"/>
		<path fill="#000333" d="M678.279,450.681h8.669v8.694h-8.669V450.681z"/>
		<path fill="#000333" d="M691.375,450.681h8.669v8.694h-8.669V450.681z"/>
		<path fill="#000333" d="M704.472,450.681h8.669v8.694h-8.669V450.681z"/>
	</g>
</g>
</svg>
