<svg xmlns="http://www.w3.org/2000/svg" width="64" height="64" viewBox="0 0 64 64"><g fill="none" stroke-width=".3" stroke-miterlimit="10"><path stroke="#000" d="M27.206 50.257h-2a1.759 1.759 0 0 1-1.759-1.759l-9.056-29.371c0-.972-4.153-1.759-12.944-1.759v3m42.758 29.889h-7m23.629-29.889c.949 0 1.719.787 1.719 1.759l-4.672 26.371c0 .972-.77 1.759-1.72 1.759h-1.957M15.447 20.368h27"/><circle stroke="#000" cx="32.206" cy="52.368" r="5"/><circle stroke="#000" cx="49.206" cy="52.368" r="5"/><path stroke="#000" d="M26.447 29.368h21m-20 5h25m-23 5h22"/><path stroke="#9E8130" d="M51.509 15.465c-1.42-3.074-9.01-3.309-9.01 2.182 0 4.296 7.376 9.784 8.999 9.784 1.622 0 8.998-5.488 8.998-9.784 0-6.099-9.84-5.667-9.84.811"/></g></svg>