<svg xmlns="http://www.w3.org/2000/svg" width="64" height="64" viewBox="0 0 64 64"><path fill="none" stroke="#000" stroke-width=".2" stroke-miterlimit="10" d="M31.861 54.32c-4.477 0-8.65-1.323-12.155-3.591L31.935 38.5V26.347L13.507 44.774a22.33 22.33 0 0 1-4.098-12.91c0-12.384 10.071-22.458 22.453-22.458.024 0 .049.003.074.003V.922L31.861.92C14.8.92.92 14.804.92 31.864S14.8 62.806 31.861 62.806l.074-.002v-8.487c-.025.001-.049.003-.074.003z"/><path fill="none" stroke="#000" stroke-width=".2" stroke-miterlimit="10" d="M62.801 31.864c0-17.036-13.84-30.901-30.867-30.942v8.487a22.328 22.328 0 0 1 12.839 4.099L31.934 26.347v12.154l18.791-18.79a22.318 22.318 0 0 1 3.587 12.154c0 12.356-10.031 22.414-22.378 22.455v8.487c17.027-.043 30.867-13.908 30.867-30.943z"/></svg>