<svg xmlns="http://www.w3.org/2000/svg" width="64" height="64" viewBox="0 0 64 64"><path d="M43.147 31.895c5.703-5.703 5.704-14.95 0-20.654m-20.654 0c-5.703 5.703-5.704 14.95 0 20.654" fill="none" stroke="#9E8130" stroke-width=".2" stroke-linecap="round" stroke-miterlimit="10"/><circle fill="none" stroke="#000" stroke-width=".2" stroke-miterlimit="10" cx="32.398" cy="21.146" r="18.38"/><path fill="none" stroke="#000" stroke-width=".2" stroke-miterlimit="10" d="M28.001 29.028l4.303-4.304 4.31 4.31c.457.457.786.046 1.243-.411l2.017-2.017c.457-.457.868-.786.411-1.243l-4.31-4.31 4.29-4.29c.403-.403.046-.785-.411-1.242l-1.792-1.792c-.457-.457-.84-.814-1.242-.411l-4.29 4.29-4.349-4.349c-.457-.457-.785-.046-1.243.411l-2.017 2.017c-.457.457-.868.786-.411 1.243l4.348 4.348-4.303 4.304c-.39.39-.046.786.411 1.243l1.792 1.792c.457.456.853.801 1.243.411z"/></svg>