<?xml version="1.0" encoding="utf-8"?>
<!-- Generator: Adobe Illustrator 19.2.0, SVG Export Plug-In . SVG Version: 6.00 Build 0)  -->
<svg version="1.1" id="Layer_1" xmlns="http://www.w3.org/2000/svg" xmlns:xlink="http://www.w3.org/1999/xlink" x="0px" y="0px"
	 viewBox="0 0 842.8 220.6" style="enable-background:new 0 0 842.8 220.6;" xml:space="preserve">
<style type="text/css">
	.st0{display:none;}
	.st1{display:inline;fill:#FFFFFF;}
	.st2{display:inline;fill:#EED3D3;}
	.st3{fill:#010202;}
	.st4{fill:none;stroke:#000000;stroke-width:4;stroke-miterlimit:10;}
	.st5{stroke:#000000;stroke-width:3;stroke-miterlimit:10;}
	.st6{fill:#FFFFFF;}
	.st7{fill:none;}
</style>
<g>
	<path class="st3" d="M14,175.7l11.5,0c8.2,0,12.9,3.9,12.9,11.2c0,3.3-1.4,6-4,7.7c3.4,1.7,5.3,4.8,5.3,9.1
		c0,7.9-5.1,11.8-13.3,11.8l-12.5,0L14,175.7z M21,198.6l0,9.9l5.5,0c4.1,0,6.2-1.8,6.2-5c0-3.2-1.4-4.9-6.6-4.9L21,198.6z
		 M21,182.7l0,8.8l4.5,0c4.3,0,5.9-1.8,5.9-4.6c0-2.9-1.7-4.2-5.8-4.2L21,182.7z"/>
	<path class="st3" d="M52.6,175.8l11.6,0c8.5,0,13.6,5.9,13.6,13.4c0,5-2.2,9.8-7.1,11.8l8.4,14.6l-8,0l-11-19.7l3.4,0
		c5.5,0,7.3-3.9,7.3-6.8c0-4-2-6.3-7.3-6.3l-3.7,0l0,32.7l-7,0L52.6,175.8z"/>
	<path class="st3" d="M91.5,175.8l7,0l0,39.8l-7,0L91.5,175.8z"/>
	<path class="st3" d="M112.6,175.9l8,0l15.6,26.8l0-26.8l7,0l0,39.8l-7.5,0L119.6,188l0,27.7l-7,0L112.6,175.9z"/>
	<path class="st3" d="M156,195.8c0-11.3,8-20.4,18.9-20.4c7.7,0,13.6,4.2,16.8,10.2l-6.2,4c-2.3-4.5-5.8-6.9-10.6-6.9
		c-6.7,0-11.9,5.9-11.9,13.1c0,7.3,5.1,13.1,12.2,13.1c5.4,0,9.2-3.3,10.5-8.3l-11.6,0l0-7.3l19.2,0l0,3.1
		c0,10.7-7.1,19.9-18.1,19.9C163.7,216.3,156,206.8,156,195.8z"/>
	<path class="st3" d="M206.3,176l7,0l0,39.8l-7,0L206.3,176z"/>
	<path class="st3" d="M227.4,176l8,0l15.6,26.8l0-26.8l7,0l0,39.8l-7.5,0l-16.1-27.7l0,27.7l-7,0L227.4,176z"/>
	<path class="st3" d="M270.8,196c0-11.3,8-20.4,18.9-20.4c7.7,0,13.6,4.2,16.8,10.2l-6.2,4c-2.3-4.5-5.8-6.9-10.6-6.9
		c-6.7,0-11.9,5.9-11.9,13.1c0,7.3,5.1,13.1,12.2,13.1c5.4,0,9.2-3.3,10.5-8.3l-11.6,0l0-7.3l19.2,0l0,3.1
		c0,10.7-7.1,19.9-18.1,19.9C278.4,216.4,270.8,207,270.8,196z"/>
	<path class="st3" d="M342.9,176.2l11.5,0c8.2,0,12.9,3.9,12.9,11.2c0,3.3-1.4,6-4,7.7c3.4,1.7,5.3,4.8,5.3,9.1
		c0,7.9-5.1,11.8-13.3,11.8l-12.5,0L342.9,176.2z M349.9,199.1l0,9.9l5.5,0c4.1,0,6.2-1.8,6.2-5c0-3.2-1.4-4.9-6.6-4.9L349.9,199.1z
		 M349.9,183.2l0,8.8l4.5,0c4.3,0,5.9-1.8,5.9-4.6c0-2.9-1.7-4.2-5.8-4.2L349.9,183.2z"/>
	<path class="st3" d="M381.5,176.2l11.6,0c8.5,0,13.6,5.9,13.6,13.4c0,5-2.2,9.8-7.1,11.8l8.4,14.6l-8,0l-11-19.7l3.4,0
		c5.5,0,7.3-3.9,7.3-6.8c0-4-2-6.3-7.3-6.3l-3.7,0l0,32.7l-7,0L381.5,176.2z"/>
	<path class="st3" d="M432,176.3l7.1,0l13,39.8l-7.3,0l-2.2-6.9l-14.2,0l-2.2,6.9l-7.3,0L432,176.3z M430.7,201.9l9.5,0l-4.7-14.8
		L430.7,201.9z"/>
	<path class="st3" d="M464.6,176.3l8,0l15.6,26.8l0-26.8l7,0l0,39.8l-7.5,0l-16.1-27.7l0,27.7l-7,0L464.6,176.3z"/>
	<path class="st3" d="M509.1,176.4l10.1,0c12.5,0,19.5,8.6,19.5,19.9c0,11.3-8,19.9-19.2,19.9l-10.4,0L509.1,176.4z M516.1,183.4
		l0,25.7l2.5,0c8,0,13-5.5,13-12.9c0-7.5-4.2-12.9-13.3-12.9L516.1,183.4z"/>
	<path class="st3" d="M549.2,209.7l6.4-5.4c1.8,3.4,4.7,5.4,8,5.4c3.6,0,5.5-2.5,5.5-5.2c0-3.3-3.7-4.3-7.6-5.6
		c-5-1.6-10.5-3.7-10.4-11.4c0-6.4,5.2-11.4,12.3-11.4c6,0,9.4,2.5,12.4,5.8l-5.8,4.7c-1.5-2.5-3.7-3.8-6.6-3.8
		c-3.3,0-5.1,1.9-5.1,4.4c0,3.1,3.5,4.1,7.5,5.5c5,1.8,10.7,4.2,10.6,11.8c0,6.3-4.7,12.4-12.8,12.4
		C557,216.8,552.5,213.8,549.2,209.7z"/>
	<path class="st3" d="M620.5,183.8l-9.8,0l0-7.3l26.6,0l0,7.3l-9.8,0l0,32.6l-7,0L620.5,183.8z"/>
	<path class="st3" d="M646.3,196.5c0-11.3,8.4-20.4,18.9-20.4c10.5,0,18.9,9.2,18.9,20.5c0,11.3-8.4,20.4-18.9,20.4
		C654.7,217,646.3,207.8,646.3,196.5z M677.1,196.5c0-7.1-5.3-13-11.9-13c-6.6,0-11.9,5.8-11.9,13c0,7.1,5.2,13,11.9,13
		C671.8,209.5,677.1,203.7,677.1,196.5z"/>
	<path class="st3" d="M729.3,197.6l-11.7-21l7.7,0l7.5,13.7l7.6-13.7l7.7,0l-11.9,21.1l0,18.7l-7,0L729.3,197.6z"/>
	<path class="st3" d="M755.2,196.6c0-11.3,8.4-20.4,18.9-20.4c10.5,0,18.9,9.2,18.9,20.5c0,11.3-8.4,20.4-18.9,20.4
		C763.6,217.1,755.2,208,755.2,196.6z M786,196.7c0-7.1-5.3-13-11.9-13c-6.6,0-11.9,5.8-11.9,13c0,7.1,5.2,13,11.9,13
		C780.7,209.7,786,203.8,786,196.7z"/>
	<path class="st3" d="M805.8,202.8l0-26l7,0l0,26.5c0,3.8,2.7,6.8,6.2,6.8s6.4-3,6.4-6.8l0-26.5l7,0l0,26c0,9.5-5.7,14.3-13.4,14.3
		S805.7,212.3,805.8,202.8z"/>
</g>
<path class="st5" d="M14.1,3.3h41c24.5,0,39.8,13.9,39.8,37.4c0,12.2-4.8,22-14.3,28c11.6,5.6,18.1,16.7,18.1,32.1
	c0,25.4-16.1,39.6-40.8,39.6H14.1V3.3z M32.2,21.9v38.5h23.6c14.6,0,21.1-8.3,21.1-19.7c0-11.8-7.5-18.8-21.7-18.8H32.2z M32.2,79.4
	v42.3h25.7c14.3,0,22.7-8.5,22.7-21.2c0-13-6.8-21-23.6-21H32.2z"/>
<path class="st5" d="M154.9,3.3h37.7c25.7,0,42.8,19.7,42.8,44.7c0,18.2-9,35.5-26.2,41.5l28.9,50.9h-20.7l-36.5-65.4h9.8
	c18.1,0,26.7-14.5,26.7-27.1c0-15.4-8.8-25.7-26.5-25.7H173v118.2h-18.1V3.3z"/>
<path class="st5" d="M332,3.3h18.6L395,140.5h-18.7l-9.5-29.3h-51.1l-9.3,29.3h-18.9L332,3.3z M322.1,91.6h38.5l-19.2-60.1
	L322.1,91.6z"/>
<path class="st5" d="M449.4,3.3h20.4L531.2,107V3.3h17.9v137.1h-19.1L467.5,35.1v105.4h-18.1V3.3z"/>
<path class="st5" d="M639.8,22.5h-34.3V3.3h86.6v19.2h-34.3v118h-17.9V22.5z"/>
<path class="st5" d="M748,94.2V3.3h18.1v92.2c0,15.2,10.4,27.6,24.2,27.6c13.9,0,24.7-12.4,24.7-27.6V3.3h17.9v90.9
	c0,29.5-18.1,48.1-42.5,48.1C765.9,142.3,748,123.7,748,94.2z"/>
<polygon class="st6" points="341.5,36.2 307.5,141.8 375.5,142.8 "/>
<rect x="9.1" y="1.1" class="st7" width="823.5" height="146.4"/>
</svg>
