<?xml version="1.0" encoding="utf-8"?>
<!-- Generator: Adobe Illustrator 19.2.0, SVG Export Plug-In . SVG Version: 6.00 Build 0)  -->
<svg version="1.1" id="Layer_1" xmlns="http://www.w3.org/2000/svg" xmlns:xlink="http://www.w3.org/1999/xlink" x="0px" y="0px"
	 viewBox="0 0 81.2 81.2" style="enable-background:new 0 0 81.2 81.2;" xml:space="preserve">
<style type="text/css">
	.st0{fill:none;stroke:#000000;stroke-miterlimit:10;}
	.st1{fill:none;stroke:#1D1D1B;stroke-linecap:round;stroke-miterlimit:10;}
	.st2{fill:none;stroke:#020202;stroke-width:0.75;stroke-miterlimit:10;}
	.st3{font-family:'SharpSansNo1-Light';}
	.st4{font-size:36.2885px;}
	.st5{fill:none;stroke:#1D1D1B;stroke-width:0.75;stroke-linecap:round;stroke-miterlimit:10;}
	.st6{fill:none;stroke:#000002;stroke-width:0.75;stroke-miterlimit:10;}
	.st7{stroke:#000002;stroke-width:0.75;stroke-miterlimit:10;}
	.st8{fill:#FFFFFF;stroke:#000000;stroke-width:0.75;stroke-miterlimit:10;}
</style>
<g>
	<g id="LIghting-circle">
		<path d="M-63,25.2l-5.8,0l5.1-15.5c0.1-0.3,0-0.6-0.1-0.9c-0.2-0.3-0.5-0.4-0.8-0.4l-11.9-0.1c0,0,0,0,0,0c-0.5,0-1,0.4-1,0.9
			l-2,22.4c0,0.3,0.1,0.6,0.3,0.8c0.2,0.2,0.5,0.3,0.7,0.3h5l-1.2,19.7c0,0.5,0.3,0.9,0.8,1c0.1,0,0.1,0,0.2,0
			c0.4,0,0.8-0.2,0.9-0.6l10.7-26.3c0.1-0.3,0.1-0.7-0.1-0.9C-62.3,25.3-62.6,25.2-63,25.2z M-73.8,52.8l1.1-19.9
			c0-0.3-0.1-0.5-0.3-0.7c-0.2-0.2-0.5-0.3-0.7-0.3l-5-0.1l2.3-22.3h11.7L-70,26c1.7-0.2,1.1-0.6,0.6-0.2c0.2,0.3-0.3,0.1-0.3,0.2
			l6.9-0.1L-73.8,52.8z"/>
	</g>
	<line class="st0" x1="-50.7" y1="51.7" x2="-21.9" y2="80.5"/>
	<circle class="st1" cx="-70.4" cy="30.7" r="28.6"/>
</g>
<path class="st2" d="M65.5,74.7h-49c-6.6,0-12-5.4-12-12V23.6c0-6.6,5.4-12,12-12h49c6.6,0,12,5.4,12,12v39.1
	C77.5,69.3,72.1,74.7,65.5,74.7z"/>
<line class="st2" x1="4.9" y1="26.9" x2="77.8" y2="26.9"/>
<line class="st2" x1="20.1" y1="3.5" x2="20.1" y2="17"/>
<line class="st2" x1="22.7" y1="3.5" x2="22.7" y2="17"/>
<line class="st2" x1="59.1" y1="3.5" x2="59.1" y2="17"/>
<line class="st2" x1="61.6" y1="3.5" x2="61.6" y2="17"/>
<text transform="matrix(1 0 0 1 9.4643 61.3209)" class="st3 st4">365</text>
<rect x="113.5" y="31.9" class="st5" width="56.2" height="41.7"/>
<path class="st5" d="M172.1,21.5v8c0,1.4-1.1,2.5-2.5,2.5h-56c-1.4,0-2.5-1.1-2.5-2.5v-8c0-1.4,1.1-2.5,2.5-2.5h56
	C171,19,172.1,20.1,172.1,21.5z"/>
<rect x="135.4" y="19.1" class="st5" width="12.9" height="54.6"/>
<path class="st5" d="M142,18.9c-0.3-4.3,2.9-8.9,6.6-11c0.7-0.4,1.5-0.8,2.4-0.9c1.4-0.2,2.7,0.2,4,0.6c0.6,0.2,1.2,0.5,1.6,1
	c0.7,0.8,0.5,1.7,0.7,2.7c0.2,1.3-0.8,4.2-1.6,4.9C152.4,19.4,140.5,18.8,142,18.9"/>
<path class="st5" d="M141.4,19c0.3-4.2-2.9-8.8-6.6-10.9c-0.7-0.4-1.5-0.8-2.4-0.9c-1.3-0.2-2.7,0.2-4,0.6c-0.6,0.2-1.2,0.5-1.6,0.9
	c-0.7,0.8-0.5,1.6-0.6,2.7c-0.2,1.3,0.7,4.2,1.6,4.9C131.6,19.4,142.9,18.9,141.4,19"/>
<g>
	<path class="st6" d="M276.3,26.4c-0.9-0.3-1.9,0.1-2.4,0.9c-4.3,6.6-16.7,10.8-31.5,10.8c-15.3,0-27.3-4.7-27.3-10.8v-0.2
		c0-0.1,0-0.2,0-0.3c0-0.1,0-0.2,0-0.3c0-2.5,0.9-4.4,2.7-6c7.2-6.4,25.5-4.3,25.7-4.3c10.3,0.9,16,4.3,16,6.3c0,2.3-6.7,5.6-16,5.7
		c-2.2,0-4.3-0.3-6-0.7c1.1,0.1,2.1,0.1,3,0.1c5.9,0,15.8-1,15.8-4.8c0-3.8-9.9-4.8-15.8-4.8c-5.9,0-15.8,1-15.8,4.8
		c0,0.1,0,0.2,0.1,0.4v10c4.4,1.6,10.5,2.6,17.7,2.6c8.3,0,15.8-1.4,21.5-3.8v-9.4c0-6.6-10.8-9.8-19.9-10.6
		c-0.8-0.1-20.4-2.3-29,5.3c-2.7,2.4-4.1,5.5-4.2,9.2c0,0.1,0,0.2,0,0.4c0,0.1,0,0.2,0,0.3V60c0,0.7,0.3,1.3,0.9,1.7
		c1.4,1.1,2.9,2.1,4.4,3v-9.8h5.4v12.8c3.7,1.8,7.6,3.2,11.5,4.1V59.4h5.4v13.4c1.9,0.2,3.9,0.3,5.9,0.3c2.5,0,4.9-0.2,7.2-0.5V59.4
		h5.4v12.2c4.4-1,8.3-2.5,11.5-4V54.9h5.4v9.9c2.1-1.2,3.2-2.1,3.4-2.2c0.5-0.4,0.9-1,0.9-1.7V28.5
		C277.8,27.5,277.2,26.7,276.3,26.4z M226.8,22.9c0.3-0.9,5.3-2.7,13.6-2.7c8.4,0,13.3,1.7,13.6,2.6c-0.3,0.9-5.3,2.7-13.6,2.7
		C232,25.5,227.1,23.8,226.8,22.9z"/>
</g>
<text transform="matrix(1 0 0 1 215.2037 52.1011)" style="font-family:'SharpSansNo1-Medium'; font-size:12px;">6</text>
<text transform="matrix(1 0 0 1 231.7865 56.3374)" style="font-family:'SharpSansNo1-Medium'; font-size:12px;">7</text>
<text transform="matrix(1 0 0 1 250.3439 56.3374)" style="font-family:'SharpSansNo1-Medium'; font-size:12px;">8</text>
<text transform="matrix(1 0 0 1 266.848 53.0156)" style="font-family:'SharpSansNo1-Medium'; font-size:12px;">9</text>
<line class="st7" x1="216.2" y1="64.8" x2="221.3" y2="67.7"/>
<line class="st6" x1="233" y1="71.9" x2="238.1" y2="72.7"/>
<line class="st6" x1="251.5" y1="72.6" x2="256.5" y2="71.7"/>
<line class="st6" x1="268.4" y1="67.6" x2="273.5" y2="65"/>
<text transform="matrix(1 0 0 1 -93.6498 120.2248)"><tspan x="0" y="0" class="st3" style="font-size:14px;">Blixtsnabb </tspan><tspan x="8.7" y="16.8" class="st3" style="font-size:14px;">sökning</tspan></text>
<text transform="matrix(1 0 0 1 8.9937 120.2947)"><tspan x="0" y="0" class="st3" style="font-size:14px;">Blixtsnabb </tspan><tspan x="8.7" y="16.8" class="st3" style="font-size:14px;">sökning</tspan></text>
<g>
	<g>
		<path class="st8" d="M274.2,115.6c-0.7-0.2-1.8,0.2-3,1c-0.4-0.1-0.8,0-1.1,0.3l-5.5,4.9c-0.4,0.4-0.5,1-0.3,1.4
			c0.8,1.1,1.5,0.9,1.5,0.9c0.1,0,0.2,0,0.3,0c1.5-0.3,2.9-2.2,3.6-3.7l2-1.8c0.4-0.3,0.5-0.8,0.3-1.3c0.8-0.5,1.4-0.8,1.7-0.7
			c5.1,1.6,5.3,15.4,4.9,21.2h-2v0.2c-0.1-0.2-0.2-0.4-0.3-0.5c-2.4-3.6-6.9-5.4-13.2-5.4l-0.4,0c-3,0-5.6,0.2-7.9,0.7
			c-4.7,0-11.1-0.1-11.2-0.1c-0.1,0-6.5,0-11.2,0.1c-2.3-0.4-4.9-0.7-7.9-0.7l-0.4,0c-6.3,0-10.7,1.9-13.2,5.4
			c-0.1,0.1-0.1,0.2-0.2,0.3l-2.3,0c-0.4-5.8-0.2-19.6,4.9-21.2c0.3-0.1,0.9,0.2,1.7,0.7c-0.1,0.4,0,0.9,0.3,1.3l2,1.8
			c0.6,1.5,2,3.4,3.6,3.7c0.1,0,0.2,0,0.3,0c0,0,0.7,0.1,1.5-0.9c0.2-0.5,0.2-1.1-0.3-1.4l-5.5-4.9c-0.3-0.3-0.7-0.3-1.1-0.3
			c-1.2-0.8-2.3-1.2-3-1c-7.3,2.3-5.8,22.2-5.7,23l0,0v2.1h2.2c-1.5,4.9,0.3,10.2,0.7,11.4c1.9,5,6.2,7.8,12,7.8
			c4,0,10.2-3.4,14.5-7.9c2.4-2.6,5.2-6.6,5.1-11.2c0.5-0.1,1.1-0.1,1.8-0.1c0.7,0,1.3,0,1.8,0.1c-0.1,4.7,2.7,8.7,5.1,11.2
			c4.2,4.5,10.5,7.9,14.5,7.9c5.7,0,10.1-2.8,12-7.8c0.5-1.2,2.3-6.5,0.7-11.4h2.2V138h0C280.2,134.6,280.9,117.8,274.2,115.6z
			 M235.2,150.4c-4.1,4.4-9.8,7.1-12.7,7.1c-2.7,0-7.6-0.8-9.7-6.2c-1.3-3.4-2-8.7,0.4-12.2c2-2.9,5.7-4.3,11.1-4.3l0.3,0
			c14.6,0,14.8,5.6,14.8,5.6l0,0.1l0,0.1C239.8,144.5,237.3,148.1,235.2,150.4z M245.7,139.6c-0.5-0.1-1.2-0.1-1.9-0.1
			c-0.7,0-1.4,0-1.9,0.1c-0.2-0.8-0.6-1.9-1.7-3.1c-0.9-1-2.2-1.8-3.7-2.4c3.7,0,7.2,0,7.2,0c0.1,0,3.5,0,7.2,0
			c-1.5,0.6-2.7,1.4-3.7,2.4C246.2,137.7,245.8,138.9,245.7,139.6z M274.8,151.3c-2.1,5.4-6.9,6.2-9.7,6.2c-2.9,0-8.5-2.7-12.7-7.1
			c-2.2-2.3-4.7-5.9-4.4-9.9l0-0.1l0-0.1c0,0,0-1,1.1-2.1c1.5-1.6,5.2-3.5,13.7-3.5l0.3,0c5.4,0,9.2,1.5,11.1,4.3
			C276.8,142.6,276.1,147.9,274.8,151.3z"/>
	</g>
</g>
</svg>
