<?xml version="1.0" encoding="utf-8"?>
<!-- Generator: Adobe Illustrator 19.2.0, SVG Export Plug-In . SVG Version: 6.00 Build 0)  -->
<svg version="1.1" id="Layer_1" xmlns="http://www.w3.org/2000/svg" xmlns:xlink="http://www.w3.org/1999/xlink" x="0px" y="0px"
	 viewBox="0 0 81.2 81.2" style="enable-background:new 0 0 81.2 81.2;" xml:space="preserve">
<style type="text/css">
	.st0{fill:none;stroke:#000000;stroke-miterlimit:10;}
	.st1{fill:none;stroke:#1D1D1B;stroke-linecap:round;stroke-miterlimit:10;}
	.st2{fill:none;stroke:#020202;stroke-width:0.75;stroke-miterlimit:10;}
	.st3{fill:none;stroke:#1D1D1B;stroke-width:0.75;stroke-linecap:round;stroke-miterlimit:10;}
	.st4{fill:none;stroke:#000002;stroke-width:0.75;stroke-miterlimit:10;}
	.st5{stroke:#000002;stroke-width:0.75;stroke-miterlimit:10;}
	.st6{fill:#FFFFFF;stroke:#000000;stroke-width:0.75;stroke-miterlimit:10;}
</style>
<g>
	<g id="LIghting-circle">
		<path d="M-265.2-70.1l-5.8,0l5.1-15.5c0.1-0.3,0-0.6-0.1-0.9c-0.2-0.3-0.5-0.4-0.8-0.4l-11.9-0.1c0,0,0,0,0,0c-0.5,0-1,0.4-1,0.9
			l-2,22.4c0,0.3,0.1,0.6,0.3,0.8c0.2,0.2,0.5,0.3,0.7,0.3h5l-1.2,19.7c0,0.5,0.3,0.9,0.8,1c0.1,0,0.1,0,0.2,0
			c0.4,0,0.8-0.2,0.9-0.6l10.7-26.3c0.1-0.3,0.1-0.7-0.1-0.9C-264.6-69.9-264.9-70.1-265.2-70.1z M-276-42.5l1.1-19.9
			c0-0.3-0.1-0.5-0.3-0.7c-0.2-0.2-0.5-0.3-0.7-0.3l-5-0.1l2.3-22.3h11.7l-5.3,16.6c1.7-0.2,1.1-0.6,0.6-0.2
			c0.2,0.3-0.3,0.1-0.3,0.2l6.9-0.1L-276-42.5z"/>
	</g>
	<line class="st0" x1="-253" y1="-43.6" x2="-224.2" y2="-14.7"/>
	<circle class="st1" cx="-272.6" cy="-64.5" r="28.6"/>
</g>
<path class="st2" d="M-136.7-20.6h-49c-6.6,0-12-5.4-12-12v-39.1c0-6.6,5.4-12,12-12h49c6.6,0,12,5.4,12,12v39.1
	C-124.7-26-130.1-20.6-136.7-20.6z"/>
<line class="st2" x1="-197.3" y1="-68.3" x2="-124.4" y2="-68.3"/>
<line class="st2" x1="-182.1" y1="-91.7" x2="-182.1" y2="-78.3"/>
<line class="st2" x1="-179.5" y1="-91.7" x2="-179.5" y2="-78.3"/>
<line class="st2" x1="-143.1" y1="-91.7" x2="-143.1" y2="-78.3"/>
<line class="st2" x1="-140.6" y1="-91.7" x2="-140.6" y2="-78.3"/>
<text transform="matrix(1 0 0 1 -192.7638 -33.9306)" style="font-family:'SharpSansNo1-Light'; font-size:36.2885px;">365</text>
<rect x="-88.8" y="-63.4" class="st3" width="56.2" height="41.7"/>
<path class="st3" d="M-30.2-73.8v8c0,1.4-1.1,2.5-2.5,2.5h-56c-1.4,0-2.5-1.1-2.5-2.5v-8c0-1.4,1.1-2.5,2.5-2.5h56
	C-31.3-76.2-30.2-75.1-30.2-73.8z"/>
<rect x="-66.9" y="-76.2" class="st3" width="12.9" height="54.6"/>
<path class="st3" d="M-60.2-76.4c-0.3-4.3,2.9-8.9,6.6-11c0.7-0.4,1.5-0.8,2.4-0.9c1.4-0.2,2.7,0.2,4,0.6c0.6,0.2,1.2,0.5,1.6,1
	c0.7,0.8,0.5,1.7,0.7,2.7c0.2,1.3-0.8,4.2-1.6,4.9C-49.9-75.9-61.7-76.5-60.2-76.4"/>
<path class="st3" d="M-60.8-76.2c0.3-4.2-2.9-8.8-6.6-10.9c-0.7-0.4-1.5-0.8-2.4-0.9c-1.3-0.2-2.7,0.2-4,0.6
	c-0.6,0.2-1.2,0.5-1.6,0.9c-0.7,0.8-0.5,1.6-0.6,2.7c-0.2,1.3,0.7,4.2,1.6,4.9C-70.6-75.9-59.3-76.4-60.8-76.2"/>
<g>
	<path class="st4" d="M74-68.9c-0.9-0.3-1.9,0.1-2.4,0.9c-4.3,6.6-16.7,10.8-31.5,10.8c-15.3,0-27.3-4.7-27.3-10.8v-0.2
		c0-0.1,0-0.2,0-0.3c0-0.1,0-0.2,0-0.3c0-2.5,0.9-4.4,2.7-6C22.7-81,41-79,41.2-79c10.3,0.9,16,4.3,16,6.3c0,2.3-6.7,5.6-16,5.7
		c-2.2,0-4.3-0.3-6-0.7c1.1,0.1,2.1,0.1,3,0.1c5.9,0,15.8-1,15.8-4.8c0-3.8-9.9-4.8-15.8-4.8c-5.9,0-15.8,1-15.8,4.8
		c0,0.1,0,0.2,0.1,0.4v10c4.4,1.6,10.5,2.6,17.7,2.6c8.3,0,15.8-1.4,21.5-3.8v-9.4c0-6.6-10.8-9.8-19.9-10.6
		c-0.8-0.1-20.4-2.3-29,5.3c-2.7,2.4-4.1,5.5-4.2,9.2c0,0.1,0,0.2,0,0.4c0,0.1,0,0.2,0,0.3v32.8c0,0.7,0.3,1.3,0.9,1.7
		c1.4,1.1,2.9,2.1,4.4,3v-9.8h5.4v12.8c3.7,1.8,7.6,3.2,11.5,4.1v-12.4h5.4v13.4c1.9,0.2,3.9,0.3,5.9,0.3c2.5,0,4.9-0.2,7.2-0.5
		v-13.2h5.4v12.2c4.4-1,8.3-2.5,11.5-4v-12.7h5.4v9.9c2.1-1.2,3.2-2.1,3.4-2.2c0.5-0.4,0.9-1,0.9-1.7v-32.4
		C75.6-67.7,75-68.6,74-68.9z M24.5-72.3c0.3-0.9,5.3-2.7,13.6-2.7c8.4,0,13.3,1.7,13.6,2.6c-0.3,0.9-5.3,2.7-13.6,2.7
		C29.8-69.7,24.8-71.4,24.5-72.3z"/>
</g>
<text transform="matrix(1 0 0 1 12.9756 -43.1504)" style="font-family:'SharpSansNo1-Medium'; font-size:12px;">6</text>
<text transform="matrix(1 0 0 1 29.5584 -38.9141)" style="font-family:'SharpSansNo1-Medium'; font-size:12px;">7</text>
<text transform="matrix(1 0 0 1 48.1158 -38.9141)" style="font-family:'SharpSansNo1-Medium'; font-size:12px;">8</text>
<text transform="matrix(1 0 0 1 64.6199 -42.2358)" style="font-family:'SharpSansNo1-Medium'; font-size:12px;">9</text>
<line class="st5" x1="13.9" y1="-30.4" x2="19.1" y2="-27.6"/>
<line class="st4" x1="30.8" y1="-23.4" x2="35.9" y2="-22.5"/>
<line class="st4" x1="49.3" y1="-22.6" x2="54.3" y2="-23.6"/>
<line class="st4" x1="66.2" y1="-27.7" x2="71.2" y2="-30.3"/>
<text transform="matrix(1 0 0 1 -295.878 24.9734)"><tspan x="0" y="0" style="font-family:'SharpSansNo1-Light'; font-size:14px;">Blixtsnabb </tspan><tspan x="8.7" y="16.8" style="font-family:'SharpSansNo1-Light'; font-size:14px;">sökning</tspan></text>
<text transform="matrix(1 0 0 1 -193.2344 25.0432)"><tspan x="0" y="0" style="font-family:'SharpSansNo1-Light'; font-size:14px;">Blixtsnabb </tspan><tspan x="8.7" y="16.8" style="font-family:'SharpSansNo1-Light'; font-size:14px;">sökning</tspan></text>
<g>
	<g>
		<path class="st6" d="M72,20.4c-0.7-0.2-1.8,0.2-3,1c-0.4-0.1-0.8,0-1.1,0.3l-5.5,4.9c-0.4,0.4-0.5,1-0.3,1.4
			c0.8,1.1,1.5,0.9,1.5,0.9c0.1,0,0.2,0,0.3,0c1.5-0.3,2.9-2.2,3.6-3.7l2-1.8c0.4-0.3,0.5-0.8,0.3-1.3c0.8-0.5,1.4-0.8,1.7-0.7
			c5.1,1.6,5.3,15.4,4.9,21.2h-2V43c-0.1-0.2-0.2-0.4-0.3-0.5c-2.4-3.6-6.9-5.4-13.2-5.4l-0.4,0c-3,0-5.6,0.2-7.9,0.7
			c-4.7,0-11.1-0.1-11.2-0.1c-0.1,0-6.5,0-11.2,0.1c-2.3-0.4-4.9-0.7-7.9-0.7l-0.4,0c-6.3,0-10.7,1.9-13.2,5.4
			c-0.1,0.1-0.1,0.2-0.2,0.3l-2.3,0C6.2,37,6.3,23.2,11.5,21.5c0.3-0.1,0.9,0.2,1.7,0.7c-0.1,0.4,0,0.9,0.3,1.3l2,1.8
			c0.6,1.5,2,3.4,3.6,3.7c0.1,0,0.2,0,0.3,0c0,0,0.7,0.1,1.5-0.9c0.2-0.5,0.2-1.1-0.3-1.4l-5.5-4.9c-0.3-0.3-0.7-0.3-1.1-0.3
			c-1.2-0.8-2.3-1.2-3-1c-7.3,2.3-5.8,22.2-5.7,23l0,0v2.1h2.2C6,50.4,7.8,55.7,8.3,56.9c1.9,5,6.2,7.8,12,7.8
			c4,0,10.2-3.4,14.5-7.9c2.4-2.6,5.2-6.6,5.1-11.2c0.5-0.1,1.1-0.1,1.8-0.1c0.7,0,1.3,0,1.8,0.1c-0.1,4.7,2.7,8.7,5.1,11.2
			c4.2,4.5,10.5,7.9,14.5,7.9c5.7,0,10.1-2.8,12-7.8c0.5-1.2,2.3-6.5,0.7-11.4h2.2v-2.7h0C77.9,39.4,78.6,22.5,72,20.4z M32.9,55.1
			c-4.1,4.4-9.8,7.1-12.7,7.1c-2.7,0-7.6-0.8-9.7-6.2c-1.3-3.4-2-8.7,0.4-12.2c2-2.9,5.7-4.3,11.1-4.3l0.3,0
			c14.6,0,14.8,5.6,14.8,5.6l0,0.1l0,0.1C37.6,49.3,35.1,52.8,32.9,55.1z M43.4,44.4c-0.5-0.1-1.2-0.1-1.9-0.1c-0.7,0-1.4,0-1.9,0.1
			c-0.2-0.8-0.6-1.9-1.7-3.1c-0.9-1-2.2-1.8-3.7-2.4c3.7,0,7.2,0,7.2,0c0.1,0,3.5,0,7.2,0c-1.5,0.6-2.7,1.4-3.7,2.4
			C44,42.5,43.6,43.6,43.4,44.4z M72.5,56.1c-2.1,5.4-6.9,6.2-9.7,6.2c-2.9,0-8.5-2.7-12.7-7.1c-2.2-2.3-4.7-5.9-4.4-9.9l0-0.1
			l0-0.1c0,0,0-1,1.1-2.1c1.5-1.6,5.2-3.5,13.7-3.5l0.3,0c5.4,0,9.2,1.5,11.1,4.3C74.5,47.3,73.9,52.6,72.5,56.1z"/>
	</g>
</g>
</svg>
