<?xml version="1.0" encoding="utf-8"?>
<!-- Generator: Adobe Illustrator 17.0.0, SVG Export Plug-In . SVG Version: 6.00 Build 0)  -->
<!DOCTYPE svg PUBLIC "-//W3C//DTD SVG 1.1//EN" "http://www.w3.org/Graphics/SVG/1.1/DTD/svg11.dtd">
<svg version="1.1" id="Layer_1" xmlns="http://www.w3.org/2000/svg" xmlns:xlink="http://www.w3.org/1999/xlink" x="0px" y="0px"
	 width="552.813px" height="600px" viewBox="373.86 0 552.813 600" enable-background="new 373.86 0 552.813 600"
	 xml:space="preserve">
<rect x="430.887" y="235.714" fill="none" stroke="#1D1D1B" stroke-width="8" stroke-linecap="round" stroke-miterlimit="10" width="415.271" height="308.128"/>
<path fill="none" stroke="#1D1D1B" stroke-width="8" stroke-linecap="round" stroke-miterlimit="10" d="M863.892,158.867v59.113
	c0,10.345-8.128,18.473-18.473,18.473H431.626c-10.345,0-18.473-8.128-18.473-18.473v-59.113c0-10.345,8.128-18.473,18.473-18.473
	h413.793C855.764,140.394,863.892,148.522,863.892,158.867z"/>
<rect x="592.709" y="141.133" fill="none" stroke="#1D1D1B" stroke-width="8" stroke-linecap="round" stroke-miterlimit="10" width="95.32" height="403.448"/>
<path fill="none" stroke="#1D1D1B" stroke-width="8" stroke-linecap="round" stroke-miterlimit="10" d="M641.478,139.655
	c-2.217-31.773,21.429-65.764,48.768-81.281c5.172-2.956,11.084-5.911,17.734-6.65c10.345-1.478,19.951,1.478,29.557,4.433
	c4.434,1.478,8.867,3.695,11.823,7.389c5.172,5.911,3.695,12.562,5.172,19.951c1.478,9.606-5.911,31.034-11.823,36.207
	C718.325,143.35,630.394,138.916,641.478,139.655"/>
<path fill="none" stroke="#1D1D1B" stroke-width="8" stroke-linecap="round" stroke-miterlimit="10" d="M637.044,140.394
	c2.217-31.034-21.429-65.025-48.768-80.542c-5.172-2.956-11.084-5.911-17.734-6.65c-9.606-1.478-19.951,1.478-29.557,4.433
	c-4.433,1.478-8.867,3.695-11.823,6.65c-5.172,5.911-3.695,11.823-4.434,19.951c-1.478,9.606,5.172,31.034,11.823,36.207
	C564.631,143.35,648.128,139.655,637.044,140.394"/>
</svg>
