<svg xmlns="http://www.w3.org/2000/svg" width="47.365" height="47" viewBox="0 0 47.365 47"><g fill="none" stroke="#010101" stroke-width="2" stroke-miterlimit="10"><path d="M30.09 11.763H6.179c-2.593 0-4.91 1.896-5.156 4.477a4.967 4.967 0 0 0 4.947 5.451h.12l2.967 11.48a3.19 3.19 0 0 0 3.088 2.391h11.77a3.19 3.19 0 0 0 3.088-2.391l2.967-11.48h.033c2.331 0 4.439-1.569 4.936-3.847a4.973 4.973 0 0 0-4.849-6.081z"/><path d="M18.523 35.499c-.505 3.141 1.181 6.387 3.765 8.245 2.585 1.858 5.919 2.458 9.093 2.199 3.038-.248 6.141-1.328 8.149-3.618 3.412-3.892 2.698-9.764 3.958-14.782.511-2.034 1.558-4.163 3.512-4.929M11.823 0v11.763M24.683 0v11.763"/></g></svg>