<?xml version="1.0" encoding="utf-8"?>
<!-- Generator: Adobe Illustrator 17.0.0, SVG Export Plug-In . SVG Version: 6.00 Build 0)  -->
<!DOCTYPE svg PUBLIC "-//W3C//DTD SVG 1.1//EN" "http://www.w3.org/Graphics/SVG/1.1/DTD/svg11.dtd">
<svg version="1.1" id="Layer_1" xmlns="http://www.w3.org/2000/svg" xmlns:xlink="http://www.w3.org/1999/xlink" x="0px" y="0px"
	 width="64px" height="64px" viewBox="0 0 64 64" enable-background="new 0 0 64 64" xml:space="preserve">
<g>
	<path fill="none" stroke="#000000" stroke-width="0.3" stroke-miterlimit="10" d="M27.206,50.257h-2
		c-0.971,0-1.759-0.787-1.759-1.759l-9.056-29.371c0-0.972-4.153-1.759-12.944-1.759v3"/>
	<line fill="none" stroke="#000000" stroke-width="0.3" stroke-miterlimit="10" x1="44.205" y1="50.257" x2="37.205" y2="50.257"/>
	<path fill="none" stroke="#000000" stroke-width="0.3" stroke-miterlimit="10" d="M60.834,20.368c0.949,0,1.719,0.787,1.719,1.759
		l-4.672,26.371c0,0.972-0.77,1.759-1.72,1.759h-1.957"/>
	<line fill="none" stroke="#000000" stroke-width="0.3" stroke-miterlimit="10" x1="15.447" y1="20.368" x2="42.447" y2="20.368"/>
	<circle fill="none" stroke="#000000" stroke-width="0.3" stroke-miterlimit="10" cx="32.206" cy="52.368" r="5"/>
	<circle fill="none" stroke="#000000" stroke-width="0.3" stroke-miterlimit="10" cx="49.206" cy="52.368" r="5"/>
	<line fill="none" stroke="#000000" stroke-width="0.3" stroke-miterlimit="10" x1="26.447" y1="29.368" x2="47.447" y2="29.368"/>
	<line fill="none" stroke="#000000" stroke-width="0.3" stroke-miterlimit="10" x1="27.447" y1="34.368" x2="52.447" y2="34.368"/>
	<line fill="none" stroke="#000000" stroke-width="0.3" stroke-miterlimit="10" x1="29.447" y1="39.368" x2="51.447" y2="39.368"/>
	<path fill="none" stroke="#9E8130" stroke-width="0.3" stroke-miterlimit="10" d="M51.509,15.465
		c-1.42-3.074-9.01-3.309-9.01,2.182c0,4.296,7.376,9.784,8.999,9.784c1.622,0,8.998-5.488,8.998-9.784
		c0-6.099-9.84-5.667-9.84,0.811"/>
</g>
</svg>
