<?xml version="1.0" encoding="utf-8"?>
<!-- Generator: Adobe Illustrator 17.0.0, SVG Export Plug-In . SVG Version: 6.00 Build 0)  -->
<!DOCTYPE svg PUBLIC "-//W3C//DTD SVG 1.1//EN" "http://www.w3.org/Graphics/SVG/1.1/DTD/svg11.dtd">
<svg version="1.1" id="Layer_1" xmlns="http://www.w3.org/2000/svg" xmlns:xlink="http://www.w3.org/1999/xlink" x="0px" y="0px"
	 width="64px" height="64px" viewBox="0 0 64 64" enable-background="new 0 0 64 64" xml:space="preserve">
<path fill="none" stroke="#000000" stroke-width="0.2" stroke-miterlimit="10" d="M31.861,54.32c-4.477,0-8.65-1.323-12.155-3.591
	l12.229-12.229V26.347L13.507,44.774c-2.578-3.656-4.098-8.108-4.098-12.91c0-12.384,10.071-22.458,22.453-22.458
	c0.024,0,0.049,0.003,0.074,0.003V0.922c-0.025,0-0.049-0.002-0.075-0.002C14.8,0.92,0.92,14.804,0.92,31.864
	S14.8,62.806,31.861,62.806c0.024,0,0.049-0.002,0.074-0.002v-8.487C31.91,54.318,31.886,54.32,31.861,54.32z"/>
<path fill="none" stroke="#000000" stroke-width="0.2" stroke-miterlimit="10" d="M62.801,31.864
	c0-17.036-13.84-30.901-30.867-30.942v8.487c4.776,0.016,9.202,1.533,12.839,4.099L31.934,26.347v12.154l18.791-18.79
	c2.266,3.506,3.587,7.677,3.587,12.154c0,12.356-10.031,22.414-22.378,22.455v8.487C48.961,62.764,62.801,48.899,62.801,31.864z"/>
</svg>
