<?xml version="1.0" encoding="utf-8"?>
<!-- Generator: Adobe Illustrator 17.0.0, SVG Export Plug-In . SVG Version: 6.00 Build 0)  -->
<!DOCTYPE svg PUBLIC "-//W3C//DTD SVG 1.1//EN" "http://www.w3.org/Graphics/SVG/1.1/DTD/svg11.dtd">
<svg version="1.1" id="Layer_1" xmlns="http://www.w3.org/2000/svg" xmlns:xlink="http://www.w3.org/1999/xlink" x="0px" y="0px"
	 width="64px" height="64px" viewBox="0 0 64 64" enable-background="new 0 0 64 64" xml:space="preserve">
<g>
	<g>
		<path fill="none" stroke="#9E8130" stroke-width="0.2" stroke-linecap="round" stroke-miterlimit="10" d="M43.147,31.895
			c5.703-5.703,5.704-14.95,0-20.654"/>
		<path fill="none" stroke="#9E8130" stroke-width="0.2" stroke-linecap="round" stroke-miterlimit="10" d="M22.493,11.241
			c-5.703,5.703-5.704,14.95,0,20.654"/>
	</g>
</g>
<circle fill="none" stroke="#000000" stroke-width="0.2" stroke-miterlimit="10" cx="32.398" cy="21.146" r="18.38"/>
<path fill="none" stroke="#000000" stroke-width="0.2" stroke-miterlimit="10" d="M28.001,29.028l4.303-4.304l4.31,4.31
	c0.457,0.457,0.786,0.046,1.243-0.411l2.017-2.017c0.457-0.457,0.868-0.786,0.411-1.243l-4.31-4.31l4.29-4.29
	c0.403-0.403,0.046-0.785-0.411-1.242l-1.792-1.792c-0.457-0.457-0.84-0.814-1.242-0.411l-4.29,4.29l-4.349-4.349
	c-0.457-0.457-0.785-0.046-1.243,0.411l-2.017,2.017c-0.457,0.457-0.868,0.786-0.411,1.243l4.348,4.348l-4.303,4.304
	c-0.39,0.39-0.046,0.786,0.411,1.243l1.792,1.792C27.215,29.073,27.611,29.418,28.001,29.028z"/>
</svg>
