<svg xmlns="http://www.w3.org/2000/svg" width="50" height="50" viewBox="0 0 50 50"><circle opacity=".1" fill="none" stroke="#000" stroke-width="3" cx="25" cy="25" r="20"/><g transform="rotate(-90 25 0)"><linearGradient id="a" gradientUnits="userSpaceOnUse" x1="-2528" y1="-48" x2="-2507.497" y2="-12.487" gradientTransform="translate(2528 48)"><stop offset="0" stop-color="#ba9839"/><stop offset=".374" stop-color="#9e8130"/><stop offset=".715" stop-color="#d1aa40"/><stop offset=".944" stop-color="#9e8130"/></linearGradient><circle fill="none" stroke="url(#a)" stroke-linecap="round" stroke-dasharray="110" r="20"><animate fill="freeze" additive="replace" begin="0" dur="2.2s" keySplines="0.41,0.314,0.8,0.54" calcMode="spline" attributeName="stroke-dashoffset" keyTimes="0;1" restart="always" values="360;140" repeatCount="indefinite" accumulate="none"/><animateTransform fill="remove" type="rotate" additive="replace" begin="0" dur="2.2s" calcMode="linear" attributeName="transform" keyTimes="0;0.74;1" restart="always" values="0;274;360" repeatCount="indefinite" accumulate="none"/></circle></g><path d="M16.681 12.368h7.89c5.606 0 8.86 2.493 8.86 7.096 0 2.111-.934 3.807-2.735 4.879 2.319 1.072 3.634 3.011 3.634 5.78 0 5.019-3.494 7.51-9.102 7.51h-8.547V12.368zm4.81 4.43v5.606h3.08c2.976 0 4.014-1.177 4.014-2.941 0-1.835-1.143-2.666-3.98-2.666h-3.114zm0 10.106v6.298h3.737c2.804 0 4.258-1.143 4.258-3.184s-.969-3.114-4.5-3.114h-3.495z"/></svg>