<svg xmlns="http://www.w3.org/2000/svg" width="100" height="100" viewBox="0 0 100 100"><g fill="none" stroke="#000" stroke-width="6.774" stroke-miterlimit="10"><path d="M80.278 33.106L94.11 43.691c1.764 1.764 1.764 3.344 1.764 5.293H81.867m-63.733 0H4.127c0-1.949-.004-3.529 1.764-5.293L49.996 6.64l15.872 14.114"/><path d="M76.883 48.984h4.984a3.537 3.537 0 0 1 3.544 3.529v38.815a3.537 3.537 0 0 1-3.544 3.529H57.144m-14.291 0H18.134a3.535 3.535 0 0 1-3.544-3.529V52.513a3.536 3.536 0 0 1 3.544-3.529h3.544"/><path d="M39.536 94.857v-24.7c0-1.947 1.561-3.529 3.488-3.529h13.95c1.927 0 3.488 1.581 3.488 3.529v24.7m5.693-72.685v-8.264c0-1.93 1.49-3.492 3.33-3.492h8.327c1.839 0 3.33 1.564 3.33 3.492v20.556"/></g></svg>