<svg id="Layer_1" xmlns="http://www.w3.org/2000/svg" viewBox="0 0 81.2 81.2"><style>.st0{fill:none;stroke:#000}.st0,.st1,.st2,.st3{stroke-miterlimit:10}.st1{fill:none;stroke:#1d1d1b;stroke-linecap:round}.st2,.st3{stroke-width:.75}.st2{fill:none;stroke:#020202}.st3{stroke:#1d1d1b;stroke-linecap:round}.st3,.st4{fill:none}.st4,.st5,.st6{stroke:#000002;stroke-width:.75;stroke-miterlimit:10}.st6{fill:#fff;stroke:#000}</style><path d="M38.2 25.2h-5.8l5.1-15.5c.1-.3 0-.6-.1-.9-.2-.3-.5-.4-.8-.4l-11.9-.1c-.5 0-1 .4-1 .9l-2 22.4c0 .3.1.6.3.8.2.2.5.3.7.3h5l-1.2 19.7c0 .5.3.9.8 1h.2c.4 0 .8-.2.9-.6l10.7-26.3c.1-.3.1-.7-.1-.9-.1-.3-.5-.4-.8-.4zM27.4 52.8l1.1-19.9c0-.3-.1-.5-.3-.7-.2-.2-.5-.3-.7-.3l-5-.1 2.3-22.3h11.7L31.2 26c1.7-.2 1.1-.6.6-.2.2.3-.3.1-.3.2l6.9-.1-11 26.9z" id="LIghting-circle"/><path class="st0" d="M50.4 51.7l28.9 28.8"/><circle class="st1" cx="30.8" cy="30.7" r="28.6"/><path class="st2" d="M166.7 74.7h-49c-6.6 0-12-5.4-12-12V23.6c0-6.6 5.4-12 12-12h49c6.6 0 12 5.4 12 12v39.1c0 6.6-5.4 12-12 12zm-60.6-47.8H179M121.3 3.5V17m2.6-13.5V17m36.4-13.5V17m2.5-13.5V17"/><text transform="translate(110.657 61.32)" font-family="SharpSansNo1-Light" font-size="36.288">365</text><path class="st3" d="M214.6 31.9h56.2v41.7h-56.2z"/><path class="st3" d="M273.3 21.5v8c0 1.4-1.1 2.5-2.5 2.5h-56c-1.4 0-2.5-1.1-2.5-2.5v-8c0-1.4 1.1-2.5 2.5-2.5h56c1.4 0 2.5 1.1 2.5 2.5z"/><path class="st3" d="M236.6 19.1h12.9v54.6h-12.9zm6.6-.2c-.3-4.3 2.9-8.9 6.6-11 .7-.4 1.5-.8 2.4-.9 1.4-.2 2.7.2 4 .6.6.2 1.2.5 1.6 1 .7.8.5 1.7.7 2.7.2 1.3-.8 4.2-1.6 4.9-3.3 3.2-15.2 2.6-13.7 2.7"/><path class="st3" d="M242.6 19c.3-4.2-2.9-8.8-6.6-10.9-.7-.4-1.5-.8-2.4-.9-1.3-.2-2.7.2-4 .6-.6.2-1.2.5-1.6.9-.7.8-.5 1.6-.6 2.7-.2 1.3.7 4.2 1.6 4.9 3.8 3.1 15.1 2.6 13.6 2.7"/><path class="st4" d="M377.5 26.4c-.9-.3-1.9.1-2.4.9-4.3 6.6-16.7 10.8-31.5 10.8-15.3 0-27.3-4.7-27.3-10.8v-.8c0-2.5.9-4.4 2.7-6 7.2-6.4 25.5-4.3 25.7-4.3 10.3.9 16 4.3 16 6.3 0 2.3-6.7 5.6-16 5.7-2.2 0-4.3-.3-6-.7 1.1.1 2.1.1 3 .1 5.9 0 15.8-1 15.8-4.8s-9.9-4.8-15.8-4.8-15.8 1-15.8 4.8c0 .1 0 .2.1.4v10c4.4 1.6 10.5 2.6 17.7 2.6 8.3 0 15.8-1.4 21.5-3.8v-9.4c0-6.6-10.8-9.8-19.9-10.6-.8-.1-20.4-2.3-29 5.3-2.7 2.4-4.1 5.5-4.2 9.2V60c0 .7.3 1.3.9 1.7 1.4 1.1 2.9 2.1 4.4 3v-9.8h5.4v12.8c3.7 1.8 7.6 3.2 11.5 4.1V59.4h5.4v13.4c1.9.2 3.9.3 5.9.3 2.5 0 4.9-.2 7.2-.5V59.4h5.4v12.2c4.4-1 8.3-2.5 11.5-4V54.9h5.4v9.9c2.1-1.2 3.2-2.1 3.4-2.2.5-.4.9-1 .9-1.7V28.5c-.4-1-1-1.8-1.9-2.1zm-49.6-3.5c.3-.9 5.3-2.7 13.6-2.7 8.4 0 13.3 1.7 13.6 2.6-.3.9-5.3 2.7-13.6 2.7s-13.3-1.7-13.6-2.6z"/><text transform="translate(316.396 52.101)" font-family="SharpSansNo1-Medium" font-size="12">6</text><text transform="translate(332.979 56.337)" font-family="SharpSansNo1-Medium" font-size="12">7</text><text transform="translate(351.536 56.337)" font-family="SharpSansNo1-Medium" font-size="12">8</text><text transform="translate(368.04 53.016)" font-family="SharpSansNo1-Medium" font-size="12">9</text><path class="st5" d="M317.3 64.8l5.2 2.9"/><path class="st4" d="M334.2 71.9l5.1.8m13.4-.1l5-.9m11.9-4.1l5.1-2.6"/><text transform="translate(7.543 120.225)"><tspan x="0" y="0" font-family="SharpSansNo1-Light" font-size="14">Blixtsnabb </tspan><tspan x="8.7" y="16.8" font-family="SharpSansNo1-Light" font-size="14">sökning</tspan></text><text transform="translate(110.186 120.295)"><tspan x="0" y="0" font-family="SharpSansNo1-Light" font-size="14">Blixtsnabb </tspan><tspan x="8.7" y="16.8" font-family="SharpSansNo1-Light" font-size="14">sökning</tspan></text><path class="st6" d="M375.4 115.6c-.7-.2-1.8.2-3 1-.4-.1-.8 0-1.1.3l-5.5 4.9c-.4.4-.5 1-.3 1.4.8 1.1 1.5.9 1.5.9h.3c1.5-.3 2.9-2.2 3.6-3.7l2-1.8c.4-.3.5-.8.3-1.3.8-.5 1.4-.8 1.7-.7 5.1 1.6 5.3 15.4 4.9 21.2h-2v.2c-.1-.2-.2-.4-.3-.5-2.4-3.6-6.9-5.4-13.2-5.4h-.4c-3 0-5.6.2-7.9.7-4.7 0-11.1-.1-11.2-.1-.1 0-6.5 0-11.2.1-2.3-.4-4.9-.7-7.9-.7h-.4c-6.3 0-10.7 1.9-13.2 5.4-.1.1-.1.2-.2.3h-2.3c-.4-5.8-.2-19.6 4.9-21.2.3-.1.9.2 1.7.7-.1.4 0 .9.3 1.3l2 1.8c.6 1.5 2 3.4 3.6 3.7h.3s.7.1 1.5-.9c.2-.5.2-1.1-.3-1.4l-5.5-4.9c-.3-.3-.7-.3-1.1-.3-1.2-.8-2.3-1.2-3-1-7.3 2.3-5.8 22.2-5.7 23v2.1h2.2c-1.5 4.9.3 10.2.7 11.4 1.9 5 6.2 7.8 12 7.8 4 0 10.2-3.4 14.5-7.9 2.4-2.6 5.2-6.6 5.1-11.2.5-.1 1.1-.1 1.8-.1s1.3 0 1.8.1c-.1 4.7 2.7 8.7 5.1 11.2 4.2 4.5 10.5 7.9 14.5 7.9 5.7 0 10.1-2.8 12-7.8.5-1.2 2.3-6.5.7-11.4h2.2V138c.5-3.4 1.2-20.2-5.5-22.4zm-39.1 34.8c-4.1 4.4-9.8 7.1-12.7 7.1-2.7 0-7.6-.8-9.7-6.2-1.3-3.4-2-8.7.4-12.2 2-2.9 5.7-4.3 11.1-4.3h.3c14.6 0 14.8 5.6 14.8 5.6v.2c.5 3.9-2 7.5-4.2 9.8zm10.6-10.8c-.5-.1-1.2-.1-1.9-.1s-1.4 0-1.9.1c-.2-.8-.6-1.9-1.7-3.1-.9-1-2.2-1.8-3.7-2.4h14.4c-1.5.6-2.7 1.4-3.7 2.4-1 1.2-1.4 2.4-1.5 3.1zm29.1 11.7c-2.1 5.4-6.9 6.2-9.7 6.2-2.9 0-8.5-2.7-12.7-7.1-2.2-2.3-4.7-5.9-4.4-9.9v-.2s0-1 1.1-2.1c1.5-1.6 5.2-3.5 13.7-3.5h.3c5.4 0 9.2 1.5 11.1 4.3 2.5 3.6 1.9 8.9.6 12.3z"/></svg>