<svg xmlns="http://www.w3.org/2000/svg" width="66" height="66.998" viewBox="0 0 66 66.998"><path fill="none" stroke="#000" stroke-width="5" stroke-linejoin="round" stroke-miterlimit="10" d="M43.774 45.812c-2.596-1.298-6.116-3.687-6.116-5.767 0-1.127.448-1.812.802-2.008 5.111-2.811 6.802-11.951 7.131-11.951 1.72 0 2.92-4.271 2.92-7.138 0-2.262-.678-2.218-1.89-2.929.002-.105.008-.214.008-.315C46.629 8.25 40.587 2.5 33.132 2.5S19.274 8.462 19.274 15.916c0 .102.006.21.008.315-1.211.711-1.695 1.056-1.695 3.317 0 2.868 1.005 6.913 2.725 6.913.331 0 2.527 8.838 7.414 11.788.322.194.807.721.807 1.656 0 2.401-3.303 4.535-6.043 5.905C19.142 47.485 2.5 48.925 2.5 64.498h61c0-15.571-15.573-16.609-19.726-18.686z"/></svg>