<svg xmlns="http://www.w3.org/2000/svg" width="50" height="50" viewBox="0 0 50 50"><circle fill="none" cx="25.028" cy="25" r="10.914"/><path d="M44.195 11.465H5.861c-2.027 0-3.687 1.442-3.687 3.204v20.663c0 1.762 1.66 3.203 3.687 3.203h38.333c2.027 0 3.687-1.441 3.687-3.203V14.669c.001-1.763-1.659-3.204-3.686-3.204zM24.89 35.585c-5.923 0-10.724-4.802-10.724-10.724s4.801-10.72 10.724-10.72c5.919 0 10.724 4.799 10.724 10.72S30.809 35.585 24.89 35.585z"/><circle fill="none" stroke="#000" stroke-width="3" stroke-miterlimit="10" cx="25.028" cy="25" r="7.765"/><path fill="none" stroke="#000" stroke-width="1.138" stroke-miterlimit="10" d="M36.342 7.598h6.477v3.713h-6.477z"/></svg>