<svg xmlns="http://www.w3.org/2000/svg" width="552.813" height="600" viewBox="373.86 0 552.813 600"><path fill="none" stroke="#1D1D1B" stroke-width="8" stroke-linecap="round" stroke-miterlimit="10" d="M430.887 235.714h415.271v308.128H430.887z"/><path fill="none" stroke="#1D1D1B" stroke-width="8" stroke-linecap="round" stroke-miterlimit="10" d="M863.892 158.867v59.113c0 10.345-8.128 18.473-18.473 18.473H431.626c-10.345 0-18.473-8.128-18.473-18.473v-59.113c0-10.345 8.128-18.473 18.473-18.473h413.793c10.345 0 18.473 8.128 18.473 18.473z"/><path fill="none" stroke="#1D1D1B" stroke-width="8" stroke-linecap="round" stroke-miterlimit="10" d="M592.709 141.133h95.32v403.448h-95.32zm48.769-1.478c-2.217-31.773 21.429-65.764 48.768-81.281 5.172-2.956 11.084-5.911 17.734-6.65 10.345-1.478 19.951 1.478 29.557 4.433 4.434 1.478 8.867 3.695 11.823 7.389 5.172 5.911 3.695 12.562 5.172 19.951 1.478 9.606-5.911 31.034-11.823 36.207-24.384 23.646-112.315 19.212-101.231 19.951"/><path fill="none" stroke="#1D1D1B" stroke-width="8" stroke-linecap="round" stroke-miterlimit="10" d="M637.044 140.394c2.217-31.034-21.429-65.025-48.768-80.542-5.172-2.956-11.084-5.911-17.734-6.65-9.606-1.478-19.951 1.478-29.557 4.433-4.433 1.478-8.867 3.695-11.823 6.65-5.172 5.911-3.695 11.823-4.434 19.951-1.478 9.606 5.172 31.034 11.823 36.207 28.08 22.907 111.577 19.212 100.493 19.951"/></svg>