<?xml version="1.0" encoding="utf-8"?>
<!-- Generator: Adobe Illustrator 17.0.0, SVG Export Plug-In . SVG Version: 6.00 Build 0)  -->
<!DOCTYPE svg PUBLIC "-//W3C//DTD SVG 1.1//EN" "http://www.w3.org/Graphics/SVG/1.1/DTD/svg11.dtd">
<svg version="1.1" id="Layer_1" xmlns="http://www.w3.org/2000/svg" xmlns:xlink="http://www.w3.org/1999/xlink" x="0px" y="0px"
	 width="119.951px" height="180.242px" viewBox="0 0 119.951 180.242" enable-background="new 0 0 119.951 180.242"
	 xml:space="preserve">
<g>
	<g id="XMLID_1415_">
		<g id="XMLID_1376_">
			<rect id="XMLID_1404_" x="56.16" y="109.93" fill="#333" width="8.641" height="16.821"/>
			<path id="XMLID_1401_" fill="#333" d="M60.482,22.237c-26.011,0-47.173,21.162-47.175,47.173
				c0.001,26.012,21.164,47.173,47.175,47.173c26.012,0,47.173-21.162,47.173-47.174C107.654,43.399,86.493,22.237,60.482,22.237z
				 M60.482,108.351C39.009,108.35,21.54,90.881,21.54,69.41s17.468-38.94,38.941-38.941c21.471,0,38.939,17.469,38.939,38.941
				C99.421,90.882,81.953,108.351,60.482,108.351z"/>
			<rect id="XMLID_1400_" x="51.839" y="123.696" fill="#333" width="8.641" height="56.202"/>
			<rect id="XMLID_1399_" x="60.481" y="123.695" fill="#333" width="8.641" height="56.203"/>
			<g id="XMLID_1377_">
				<path id="XMLID_1395_" fill="#FFFFFF" d="M36.851,88.996c-1.325-1.325-2.529-2.784-3.576-4.335
					c-1.06-1.571-1.969-3.246-2.701-4.978c-0.747-1.763-1.321-3.614-1.708-5.5c-0.395-1.93-0.595-3.917-0.595-5.903
					c0-1.986,0.2-3.973,0.595-5.902c0.385-1.886,0.961-3.736,1.708-5.503c0.732-1.731,1.64-3.406,2.701-4.976
					c1.048-1.552,2.252-3.011,3.577-4.335l2.341,2.344c-1.175,1.174-2.244,2.468-3.174,3.846c-0.94,1.392-1.745,2.877-2.394,4.412
					c-0.663,1.566-1.173,3.207-1.515,4.877c-0.349,1.711-0.527,3.474-0.527,5.238c0,1.764,0.178,3.527,0.529,5.239
					c0.342,1.671,0.851,3.311,1.513,4.873c0.65,1.537,1.455,3.021,2.395,4.415c0.93,1.376,1.998,2.671,3.174,3.847L36.851,88.996z"
					/>
			</g>
		</g>
	</g>
	<g id="XMLID_1653_">
		<path id="XMLID_1661_" fill="#ddd" d="M74.284,72.28l0.77-8.387l-4.477-5.705l-8.262-1.158L41.924,73.034l11.969,15.25
			L74.284,72.28z M69.181,61.751c0.708-0.556,1.733-0.432,2.289,0.276c0.556,0.708,0.432,1.733-0.276,2.289
			c-0.708,0.556-1.733,0.432-2.289-0.276C68.349,63.332,68.473,62.307,69.181,61.751z"/>
		<path id="XMLID_1674_" opacity="0.3" fill="#ddd" d="M69.516,58.64l-7.733-0.479L43.3,74.787l4.024,5.127l7.22,7.861
			L74.284,72.28l0.77-8.387l-3.786-3.954l-1.11-1.209L69.516,58.64z M71.432,64.81c-0.152,0.139-0.324,0.24-0.505,0.312
			c-0.014,0.007-0.015,0.309-0.03,0.315c-0.003,0.001-0.02-0.292-0.023-0.291c-0.672,0.315-1.709-0.415-2.187-1.024
			c-0.556-0.708-0.214-1.815,0.494-2.371c0.134-0.105,0.281-0.178,0.432-0.235c0.633-0.314,1.625-0.438,2.127,0.108
			C72.349,62.287,72.095,64.201,71.432,64.81z"/>
		<path id="XMLID_1658_" fill="#eed3d3" d="M75.491,71.87l-0.239-8.419l-5.128-5.128l-8.342-0.161L43.454,76.491l13.708,13.708
			L75.491,71.87z M69.165,62.027c0.637-0.637,1.669-0.637,2.306,0c0.637,0.637,0.637,1.669,0,2.306
			c-0.637,0.637-1.669,0.637-2.306,0C68.528,63.696,68.528,62.664,69.165,62.027z"/>
		<circle id="XMLID_1656_" fill="#FFFFFF" cx="59.643" cy="73.854" r="6.837"/>
		<g id="XMLID_1654_">
			<path id="XMLID_1664_" fill="#FFFFFF" d="M70.917,63.324l-0.744-0.744l3.201-3.201c0.615-0.615,1.616-0.615,2.231,0l2.674,2.674
				c0.205,0.205,0.539,0.205,0.744,0l1.113-1.113c0.205-0.205,0.205-0.538,0-0.744l-7.509-7.509c-0.615-0.615-0.615-1.616,0-2.231
				l1.374-1.374c0.615-0.615,1.616-0.615,2.231,0l3.428,3.428c0.205,0.205,0.539,0.205,0.744,0l1.532-1.532l0.744,0.744
				l-1.532,1.532c-0.615,0.615-1.616,0.615-2.231,0l-3.428-3.428c-0.205-0.205-0.539-0.205-0.744,0L73.372,51.2
				c-0.205,0.205-0.205,0.539,0,0.744l7.509,7.509c0.615,0.615,0.615,1.616,0,2.231l-1.113,1.113c-0.615,0.615-1.616,0.615-2.231,0
				l-2.674-2.674c-0.205-0.205-0.539-0.205-0.744,0L70.917,63.324z"/>
		</g>
	</g>
</g>
</svg>
