<?xml version="1.0" encoding="utf-8"?>
<!-- Generator: Adobe Illustrator 17.0.0, SVG Export Plug-In . SVG Version: 6.00 Build 0)  -->
<!DOCTYPE svg PUBLIC "-//W3C//DTD SVG 1.1//EN" "http://www.w3.org/Graphics/SVG/1.1/DTD/svg11.dtd">
<svg version="1.1" id="Layer_1" xmlns="http://www.w3.org/2000/svg" xmlns:xlink="http://www.w3.org/1999/xlink" x="0px" y="0px"
	 width="119.798px" height="151.37px" viewBox="0 0 119.798 151.37" enable-background="new 0 0 119.798 151.37"
	 xml:space="preserve">
<g id="XMLID_1_">
	<path id="XMLID_2_" fill="#eed3d3" d="M99.962,48.566c0-12.429-10.072-22.495-22.499-22.495c-6.292,0-11.96,2.588-16.048,6.763
		c-4.082-4.175-9.757-6.763-16.049-6.763c-12.427,0-22.498,10.065-22.498,22.495c0,6.052,2.403,11.538,6.298,15.582l32.158,31.994
		l32.971-32.686c0.359-0.416,1.29-1.597,1.29-1.597C98.328,58.127,99.962,53.534,99.962,48.566z"/>
	<g id="XMLID_3_">
		<path id="XMLID_979_" fill="#555" d="M74.476,95.507l13.378-14.279c3.21-4.195,10.033,0.146,6.416,4.1l-10.66,14.795
			l5.174-0.023l12.328-13.169c0,0,1.179-8.247,1.485-9.403l0.294-10.534c-0.816-1.81-0.017-3.935,1.79-4.756
			c1.81-0.822,3.937-0.02,4.759,1.79l0.083,11.878c0.424,0.94,0.318,15.124,0.318,15.124l-14.812,30.627H72.518l-0.037-21.933
			C72.658,98.383,73.551,96.492,74.476,95.507z"/>
		<rect id="XMLID_977_" x="64.709" y="120.586" fill="#333" width="35.336" height="30.784"/>
		<rect id="XMLID_976_" x="64.709" y="120.586" fill="#555" width="9.589" height="30.784"/>
	</g>
	<g id="XMLID_4_">
		<path id="XMLID_47_" fill="#555" d="M46.852,95.507L33.474,81.228c-3.21-4.195-10.033,0.146-6.416,4.1l10.66,14.795
			l-5.174-0.023L20.215,86.932c0,0-1.179-8.247-1.485-9.403l-0.294-10.534c0.816-1.81,0.017-3.935-1.79-4.756
			c-1.81-0.822-3.937-0.02-4.759,1.79l-0.083,11.878c-0.424,0.94-0.318,15.124-0.318,15.124l14.812,30.627H48.81l0.037-21.933
			C48.67,98.383,47.777,96.492,46.852,95.507z"/>
		<rect id="XMLID_46_" x="21.282" y="120.586" fill="#333" width="35.336" height="30.784"/>
		<rect id="XMLID_13_" x="47.029" y="120.586" fill="#555" width="9.589" height="30.784"/>
	</g>
</g>
</svg>
