<?xml version="1.0" encoding="utf-8"?>
<!-- Generator: Adobe Illustrator 17.0.0, SVG Export Plug-In . SVG Version: 6.00 Build 0)  -->
<!DOCTYPE svg PUBLIC "-//W3C//DTD SVG 1.1//EN" "http://www.w3.org/Graphics/SVG/1.1/DTD/svg11.dtd">
<svg version="1.1" id="Layer_1" xmlns="http://www.w3.org/2000/svg" xmlns:xlink="http://www.w3.org/1999/xlink" x="0px" y="0px"
	 width="119.855px" height="179.176px" viewBox="0 0 119.855 179.176" enable-background="new 0 0 119.855 179.176"
	 xml:space="preserve">
<g>
	<g id="XMLID_15_">
		<polygon id="XMLID_18_" fill="#333" points="4.103,179.176 115.855,179.176 110.281,63.625 9.57,63.633 		"/>
		<circle id="XMLID_17_" fill="#eed3d3" cx="33.781" cy="75.172" r="5.786"/>
		<circle id="XMLID_16_" fill="#EED3D3" cx="87.058" cy="75.172" r="5.786"/>
		<g id="XMLID_51_">
			<path id="XMLID_75_" fill="#eed3d3" d="M60.419,22.008c15.882,0,28.803,12.921,28.803,28.803v27.013h-4.329V50.811
				c0-13.495-10.978-24.473-24.474-24.473c-13.495,0-24.473,10.978-24.473,24.473v27.013h-4.329V50.811
				C31.616,34.929,44.537,22.008,60.419,22.008z"/>
		</g>
	</g>
	<g id="XMLID_1330_">
		<g id="XMLID_1175_">
			<circle id="XMLID_1197_" fill="#eed3d3" cx="60.419" cy="123.306" r="29.723"/>
			<g id="XMLID_1176_">
				<g>
					<path id="XMLID_34_" fill="#555" d="M59.177,135.622v-2.184c-2.534-0.4-4.868-1.546-7.004-3.442l2.783-3.383
						c1.557,1.358,2.963,2.226,4.22,2.605v-4.459c-2.095-0.539-3.632-1.262-4.609-2.171c-0.978-0.907-1.466-2.215-1.466-3.921
						c0-1.705,0.558-3.112,1.675-4.219c1.117-1.108,2.584-1.771,4.4-1.991v-1.466h3.173v1.527c1.995,0.278,3.98,1.106,5.956,2.484
						l-2.455,3.531c-1.256-0.898-2.423-1.497-3.501-1.796v4.311c2.154,0.558,3.745,1.307,4.774,2.245
						c1.027,0.937,1.542,2.264,1.542,3.98c0,1.716-0.574,3.133-1.721,4.251c-1.148,1.117-2.679,1.785-4.594,2.004v2.095H59.177z
						 M59.177,116.616c-0.858,0.299-1.286,0.849-1.286,1.646c0,0.799,0.428,1.407,1.286,1.826V116.616z M63.876,127.51
						c0-0.419-0.11-0.767-0.329-1.047c-0.22-0.279-0.62-0.538-1.197-0.777v3.681C63.367,129.048,63.876,128.429,63.876,127.51z"/>
				</g>
			</g>
		</g>
	</g>
</g>
</svg>
